<svg xmlns="http://www.w3.org/2000/svg" viewBox="0 0 148 46">
  <defs/>
  <g fill="#FFF" fill-rule="nonzero">
    <path d="M46 15c0-8.28427-6.7157-15-15-15H15C6.71573 0 0 6.71573 0 15v16c0 8.2843 6.71573 15 15 15h16c8.2843 0 15-6.7157 15-15V15zM29.1975 28.3939c-1.2248 1.8396-3.7094 2.3373-5.5483 1.1114l-4.294-2.8627c-1.8381-1.2254-4.3216-.7287-5.547 1.1094l-4.07712 6.1157c-.55588.8338-1.68164 1.0606-2.517.507-.8383-.5555-1.06639-1.686-.50907-2.5231l6.08159-9.1343c1.2249-1.8397 3.7095-2.3374 5.5484-1.1114l4.2939 2.8626c1.8382 1.2254 4.3216.7287 5.547-1.1094l4.0772-6.1157c.5558-.8338 1.6816-1.0606 2.5169-.507.8383.5555 1.0664 1.686.5091 2.5231l-6.0816 9.1344zm10.1033-15.1963c-.5545.8368-1.6823 1.0656-2.5191.5111-.8367-.5544-1.0655-1.6823-.5111-2.519.5545-.8368 1.6823-1.0656 2.5191-.5111.8367.5544 1.0656 1.6823.5111 2.519zM78.091 32l-8.748-10.53 7.992-9.423h-1.998l-9.963 11.664V12.047h-1.647V32h1.647v-5.994l2.862-3.348L75.985 32h2.106zm13.2188-11.664c-1.215-1.971-3.294-3.132-5.697-3.132-2.079 0-3.78.729-5.157 2.16-1.35 1.431-2.025 3.213-2.025 5.346 0 2.16.675 3.969 2.052 5.454 1.377 1.458 3.078 2.187 5.13 2.187 2.403 0 4.482-1.188 5.697-3.159V32h1.566V17.555h-1.566v2.781zm-5.616 10.53c-1.647 0-3.024-.594-4.077-1.755s-1.566-2.619-1.566-4.347c0-1.701.513-3.159 1.566-4.32 1.053-1.161 2.43-1.755 4.077-1.755 1.674 0 3.051.594 4.131 1.755s1.62 2.592 1.62 4.266c0 1.728-.54 3.186-1.62 4.374-1.08 1.188-2.457 1.782-4.131 1.782zm13.206-19.251h-1.62V32h1.62V11.615zm17.3512 12.528c0-2.133-.648-3.807-1.917-5.049-1.269-1.269-2.862-1.89-4.806-1.89-2.16 0-3.888.702-5.211 2.133-1.323 1.431-1.971 3.213-1.971 5.4 0 3.78 2.187 7.587 7.506 7.587 2.376 0 4.671-.891 6.075-1.998l-.756-1.242c-1.296 1.053-3.429 1.728-5.292 1.728-3.537 0-5.616-2.187-5.859-5.4h12.15c.054-.648.081-1.08.081-1.269zm-6.723-5.454c2.943 0 5.022 2.025 5.049 5.238H104.02c.324-3.159 2.484-5.238 5.508-5.238zM123.366 32v-8.127h8.208v-3.51h-8.208v-4.806h9.369v-3.51h-13.041V32h3.672zm19.095-7.398l4.644-7.263h-3.996l-2.835 4.644-2.673-4.644h-4.05l4.401 7.155L133.038 32h4.077l3.078-4.968L143.19 32h4.05l-4.779-7.398z"/>
  </g>
</svg>