<svg xmlns="http://www.w3.org/2000/svg" fill="none" viewBox="0 0 744 659">
    <defs>
        <clipPath id="ClipPath-1">
            <path id="_a0" d="M0,0L-5,64.9611L69,93.9924L79.721,26.0071C79.721,26.0071,0,0.507615,0,0Z" fill="#d4ecff" stroke-linecap="square" stroke="none" fill-rule="evenodd" fill-opacity="0" transform="translate(409,268.008)"/>
        </clipPath>
        <mask id="Mask-1">
            <path fill="#5793ce" stroke="none" stroke-linejoin="round" d="M4.965,-0.053L61.965,29.947L61.965,158.947L2.965,125.947Z" transform="translate(24.9255,67.9498) translate(-31.7925,-72.984)"/>
        </mask>
    </defs>
    <rect width="964.416" height="202.279" fill="#26242F" rx="101.14" transform="translate(-241.374,65.1647) rotate(-30) translate(0.912109,482.992)"/>
    <rect width="164.114" height="98.4694" fill="#26242F" opacity="0.7" rx="49.2347" transform="translate(-102.997,81.7237) rotate(-30) translate(101,233.057)"/>
    <rect width="185.89" height="92.6241" fill="#26242F" opacity="0.7" rx="46.312" transform="translate(-236.412,253.59) rotate(-30) translate(355,567.945)"/>
    <path fill="#D4ECFF" d="M300.958,297.315L319.525,286.963L300.958,276.489L282.391,286.963L263.824,297.315L282.391,307.667L300.958,318.141L319.525,307.667L300.958,297.315Z"/>
    <path fill="#173D7A" d="M300.959,271.436L300.959,195.156L319.526,184.804L319.526,260.962L300.959,271.436Z"/>
    <path fill="#396CAA" d="M300.96,195.156L282.393,184.804L282.393,260.962L300.96,271.436L300.96,195.156Z"/>
    <path fill="#D4ECFF" d="M319.526,184.804L300.959,174.453L282.393,184.804L300.959,195.156L319.526,184.804Z"/>
    <path fill="#95D359" d="M319.526,274.887L300.959,264.535L300.959,271.436L319.526,281.788L319.526,274.887Z"/>
    <path fill="#C13D1A" d="M282.393,281.788L282.393,226.333L300.96,215.982L300.96,271.436L282.393,281.788Z"/>
    <path fill="#DB5126" d="M282.391,226.333L263.824,215.982L263.824,271.436L282.391,281.788L282.391,226.333Z"/>
    <path fill="#EF602E" d="M300.958,215.982L282.391,205.63L263.824,215.982L282.391,226.333L300.958,215.982Z"/>
    <path fill="#396CAA" d="M282.393,281.788L282.393,226.333L300.96,215.982L300.96,271.436L282.393,281.788Z"/>
    <path fill="#5793CE" d="M282.391,226.333L263.824,215.982L263.824,271.436L282.391,281.788L282.391,226.333Z"/>
    <path fill="#D4ECFF" d="M300.958,215.982L282.391,205.63L263.824,215.982L282.391,226.333L300.958,215.982Z"/>
    <path fill="#173D7A" d="M300.959,292.14L300.959,260.962L319.526,250.61L319.526,281.788L300.959,292.14Z"/>
    <path fill="#396CAA" d="M300.96,260.962L282.393,250.61L282.393,281.788L300.96,292.14L300.96,260.962Z"/>
    <path fill="#D4ECFF" d="M319.526,250.61L300.959,240.259L282.393,250.61L300.959,260.962L319.526,250.61Z"/>
    <path fill="#5793CE" d="M544.728,332.581L544.191,330.551L537.909,332.111L538.445,334.141L544.728,332.581ZM541.527,335.764L540.959,333.615L534.676,335.176L535.245,337.325L541.527,335.764Z"/>
    <path fill="#5793CE" d="M538.365,338.663L537.828,336.634L531.545,338.195L532.082,340.224L538.365,338.663ZM535.099,341.698L534.562,339.669L528.28,341.229L528.816,343.258L535.099,341.698Z"/>
    <path fill="#D4ECFF" d="M379.041,486.23L238.772,407.731C234.83,405.513,235.338,401.693,239.917,399.105L335.422,345.622C340,343.034,346.994,342.788,350.937,345.006L491.206,423.505C495.148,425.723,494.64,429.543,490.061,432.131L394.556,485.614C389.978,488.201,382.984,488.448,379.041,486.23Z"/>
    <path fill="#173D7A" d="M496.296,269.095L353.737,189.364C351.957,188.378,350.177,188.131,348.905,188.748L348.651,188.871L343.945,190.966L349.032,193.43L349.032,307.174C349.032,312.842,352.72,319.497,357.171,321.961L495.914,399.598L496.677,405.883L501.764,403.541C503.417,402.555,504.435,400.46,504.435,397.38L504.435,283.883C504.435,278.214,500.747,271.56,496.296,269.095Z"/>
    <path fill="#396CAA" d="M496.296,269.095L353.737,189.364C351.957,188.378,350.177,188.131,348.905,188.748L348.651,188.871L343.945,190.966L349.032,193.43L349.032,268.479L413.889,318.141L502.018,275.133C500.492,272.545,498.585,270.327,496.296,269.095Z"/>
    <path fill="#274F89" d="M498.71,270.943L484.721,276.612L495.276,284.499L504.051,280.925C503.288,277.105,501.253,273.408,498.71,270.943Z"/>
    <path fill="#D4ECFF" d="M491.717,405.266L349.031,325.658C344.581,323.194,340.893,316.539,340.893,310.871L340.893,197.374C340.893,191.705,344.453,189.117,349.031,191.582L491.59,271.313C496.041,273.778,499.729,280.432,499.729,286.101L499.729,399.598C499.729,405.266,496.168,407.854,491.717,405.266Z"/>
    <path fill="#fff" d="M486.883,396.887L353.735,322.455C349.666,320.113,346.359,314.075,346.359,308.899L346.359,205.014C346.359,199.839,349.666,197.497,353.735,199.715L486.883,274.148C490.953,276.489,494.259,282.527,494.259,287.703L494.259,391.588C494.386,396.764,491.08,399.228,486.883,396.887Z"/>
    <path fill="#fff" d="M486.883,396.887L353.735,322.455C349.666,320.113,346.359,314.075,346.359,308.899L346.359,205.014C346.359,199.839,349.666,197.497,353.735,199.715L486.883,274.148C490.953,276.489,494.259,282.527,494.259,287.703L494.259,391.588C494.386,396.764,491.08,399.228,486.883,396.887Z"/>
    <path fill="#173D7A" d="M493.877,408.84L474.674,406.375L350.937,337.119C346.995,334.901,340,335.147,335.422,337.735L247.674,386.782L236.102,385.303L236.102,391.711C235.975,393.19,236.865,394.545,238.772,395.654L379.042,474.153C382.984,476.371,389.978,476.125,394.557,473.537L490.062,420.054C492.605,418.575,493.877,416.727,493.877,415.002L493.877,408.84Z"/>
    <path fill="#396CAA" d="M400.788,365.093L392.013,360.163L295.363,360.163L247.674,386.781L236.102,385.303L236.102,391.711C235.975,393.19,236.865,394.545,238.772,395.654L379.042,474.153C381.076,475.385,384.001,475.755,387.053,475.632L400.788,365.093Z"/>
    <path fill="#5793CE" d="M241.189,386.042L236.102,385.426L236.102,391.834C235.975,393.313,236.865,394.668,238.772,395.778L241.189,397.133L241.189,386.042Z"/>
    <path fill="#274F89" d="M380.441,474.769C384.257,476.125,389.598,475.878,393.54,474.03L393.54,459.858L380.441,459.858L380.441,474.769Z"/>
    <path fill="#D4ECFF" d="M379.041,467.745L238.772,389.246C234.83,387.028,235.338,383.208,239.917,380.62L335.422,327.137C340,324.549,346.994,324.303,350.937,326.521L491.206,405.02C495.148,407.238,494.64,411.058,490.061,413.646L394.556,467.129C389.978,469.717,382.984,469.963,379.041,467.745Z"/>
    <path fill="#fff" d="M490.062,411.428L394.556,464.911C389.978,467.499,382.984,467.745,379.042,465.527L238.772,386.905C237.5,386.165,236.61,385.303,236.356,384.317C235.72,386.165,236.483,388.014,238.772,389.246L379.042,467.745C382.984,469.963,389.978,469.717,394.556,467.129L490.062,413.646C493.114,411.921,494.385,409.58,493.622,407.608C493.114,408.963,491.969,410.319,490.062,411.428Z"/>
    <path fill="#173D7A" d="M298.415,363.244L292.056,359.671C291.548,359.424,291.548,358.931,292.184,358.562L299.687,354.372C300.323,354.002,301.213,354.002,301.721,354.248L308.08,357.822C308.589,358.069,308.589,358.562,307.953,358.931L300.45,363.121C299.814,363.491,298.924,363.614,298.415,363.244ZM308.208,368.79L301.849,365.216C301.341,364.97,301.341,364.477,301.977,364.107L309.48,359.917C310.115,359.547,311.006,359.547,311.514,359.794L317.873,363.368C318.382,363.614,318.382,364.107,317.746,364.477L310.243,368.667C309.607,369.036,308.717,369.036,308.208,368.79ZM318.001,374.212L311.642,370.638C311.134,370.392,311.134,369.899,311.77,369.529L319.273,365.339C319.908,364.97,320.799,364.97,321.307,365.216L327.666,368.79C328.175,369.036,328.175,369.529,327.539,369.899L320.036,374.089C319.4,374.459,318.51,374.582,318.001,374.212ZM331.608,369.776L325.25,366.202C324.741,365.955,324.741,365.463,325.377,365.093L331.608,361.519C332.244,361.149,333.134,361.149,333.643,361.396L340.002,364.97C340.51,365.216,340.51,365.709,339.874,366.079L333.643,369.652C333.007,370.022,332.117,370.022,331.608,369.776ZM341.397,375.198L335.039,371.624C334.53,371.378,334.53,370.885,335.166,370.515L341.397,366.941C342.033,366.572,342.923,366.572,343.432,366.818L349.791,370.392C350.299,370.638,350.299,371.131,349.663,371.501L343.432,375.075C342.796,375.444,341.906,375.568,341.397,375.198ZM351.192,380.743L344.834,377.17C344.325,376.923,344.325,376.43,344.961,376.061L351.192,372.487C351.828,372.117,352.718,372.117,353.227,372.364L359.586,375.937C360.094,376.184,360.094,376.677,359.458,377.046L353.227,380.62C352.591,380.99,351.701,380.99,351.192,380.743ZM360.983,386.166L354.625,382.592C354.116,382.345,354.116,381.852,354.752,381.483L360.983,377.909C361.619,377.539,362.509,377.539,363.018,377.786L369.377,381.36C369.885,381.606,369.885,382.099,369.249,382.469L363.018,386.042C362.382,386.412,361.492,386.535,360.983,386.166ZM370.774,391.711L364.416,388.137C363.907,387.891,363.907,387.398,364.543,387.028L370.774,383.454C371.41,383.085,372.3,383.085,372.809,383.331L379.168,386.905C379.676,387.151,379.676,387.644,379.04,388.014L372.809,391.588C372.173,391.957,371.283,391.957,370.774,391.711ZM380.567,397.133L374.209,393.559C373.7,393.313,373.7,392.82,374.336,392.45L380.567,388.877C381.203,388.507,382.093,388.507,382.602,388.753L388.961,392.327C389.469,392.574,389.469,393.066,388.833,393.436L382.602,397.01C381.966,397.38,381.076,397.503,380.567,397.133ZM390.36,402.678L384.002,399.105C383.493,398.858,383.493,398.365,384.129,397.996L390.36,394.422C390.996,394.052,391.886,394.052,392.395,394.299L398.753,397.872C399.262,398.119,399.262,398.612,398.626,398.982L392.395,402.555C391.759,402.925,390.869,402.925,390.36,402.678ZM400.151,408.101L393.793,404.527C393.284,404.281,393.284,403.788,393.92,403.418L400.151,399.844C400.787,399.475,401.677,399.475,402.186,399.721L408.545,403.295C409.053,403.541,409.053,404.034,408.417,404.404L402.186,407.978C401.55,408.347,400.66,408.471,400.151,408.101ZM409.944,413.646L403.586,410.073C403.077,409.826,403.077,409.333,403.713,408.963L409.944,405.39C410.58,405.02,411.47,405.02,411.979,405.266L418.338,408.84C418.846,409.087,418.846,409.58,418.21,409.949L411.979,413.523C411.343,413.893,410.453,413.893,409.944,413.646ZM419.737,419.068L413.379,415.495C412.87,415.248,412.87,414.755,413.506,414.386L419.737,410.812C420.373,410.442,421.263,410.442,421.772,410.689L428.13,414.262C428.639,414.509,428.639,415.002,428.003,415.371L421.772,418.945C421.136,419.315,420.246,419.438,419.737,419.068Z"/>
    <path fill="#396CAA" d="M345.977,367.188L339.619,363.614C339.11,363.368,339.11,362.875,339.746,362.505L345.977,358.931C346.613,358.562,347.503,358.562,348.012,358.808L354.371,362.382C354.879,362.628,354.879,363.121,354.244,363.491L348.012,367.065C347.376,367.434,346.486,367.434,345.977,367.188ZM336.059,361.519L329.701,357.945C329.192,357.699,329.192,357.206,329.828,356.836L336.059,353.263C336.695,352.893,337.586,352.893,338.094,353.139L344.453,356.713C344.961,356.96,344.961,357.452,344.326,357.822L338.094,361.396C337.458,361.766,336.568,361.889,336.059,361.519Z"/>
    <path fill="#173D7A" d="M326.138,355.974L312.531,348.333C312.022,348.087,312.022,347.594,312.658,347.224L318.89,343.65C319.525,343.281,320.416,343.281,320.924,343.527L334.532,351.168C335.04,351.414,335.04,351.907,334.404,352.277L328.173,355.85C327.537,356.22,326.647,356.343,326.138,355.974ZM333.005,349.196L321.941,343.034C321.432,342.788,321.432,342.295,322.068,341.925L328.3,338.351C328.936,337.982,329.826,337.982,330.334,338.228L341.398,344.39C341.907,344.636,341.907,345.129,341.271,345.499L335.04,349.073C334.404,349.442,333.514,349.566,333.005,349.196Z"/>
    <path fill="#396CAA" d="M355.77,372.61L349.412,369.036C348.903,368.79,348.903,368.297,349.539,367.927L355.77,364.354C356.406,363.984,357.296,363.984,357.805,364.23L364.164,367.804C364.672,368.051,364.672,368.543,364.037,368.913L357.805,372.487C357.169,372.857,356.279,372.857,355.77,372.61Z"/>
    <path fill="#173D7A" d="M365.563,378.156L359.205,374.582C358.696,374.335,358.696,373.842,359.332,373.473L365.563,369.899C366.199,369.529,367.089,369.529,367.598,369.776L373.957,373.35C374.465,373.596,374.465,374.089,373.83,374.459L367.598,378.032C366.962,378.402,366.072,378.402,365.563,378.156ZM375.354,383.578L368.996,380.004C368.487,379.757,368.487,379.265,369.123,378.895L375.354,375.321C375.99,374.951,376.88,374.951,377.389,375.198L383.748,378.772C384.256,379.018,384.256,379.511,383.62,379.881L377.389,383.454C376.753,383.824,375.863,383.824,375.354,383.578ZM385.272,389.123L378.914,385.549C378.405,385.303,378.405,384.81,379.041,384.44L385.272,380.867C385.908,380.497,386.798,380.497,387.307,380.743L393.666,384.317C394.174,384.563,394.174,385.056,393.538,385.426L387.307,389C386.671,389.37,385.781,389.37,385.272,389.123ZM395.065,394.545L388.707,390.971C388.198,390.725,388.198,390.232,388.834,389.862L395.065,386.289C395.701,385.919,396.591,385.919,397.1,386.165L403.459,389.739C403.967,389.986,403.967,390.479,403.331,390.848L397.1,394.422C396.464,394.792,395.574,394.792,395.065,394.545ZM404.858,400.091L398.5,396.517C397.991,396.27,397.991,395.777,398.627,395.408L404.858,391.834C405.494,391.464,406.384,391.464,406.893,391.711L413.252,395.285C413.76,395.531,413.76,396.024,413.124,396.394L406.893,399.967C406.257,400.337,405.367,400.337,404.858,400.091ZM414.649,405.513L408.291,401.939C407.782,401.693,407.782,401.2,408.418,400.83L414.649,397.256C415.285,396.887,416.175,396.887,416.684,397.133L423.043,400.707C423.551,400.953,423.551,401.446,422.915,401.816L416.684,405.39C416.048,405.759,415.158,405.759,414.649,405.513ZM424.442,411.058L418.084,407.485C417.575,407.238,417.575,406.745,418.211,406.376L424.442,402.802C425.078,402.432,425.968,402.432,426.477,402.679L432.835,406.252C433.344,406.499,433.344,406.992,432.708,407.361L426.477,410.935C425.841,411.305,424.951,411.305,424.442,411.058ZM434.235,416.481L427.877,412.907C427.368,412.661,427.368,412.168,428.004,411.798L434.235,408.224C434.871,407.855,435.761,407.855,436.27,408.101L442.629,411.675C443.137,411.921,443.137,412.414,442.501,412.784L436.27,416.358C435.634,416.727,434.744,416.727,434.235,416.481ZM451.658,426.216L437.797,418.452C437.288,418.206,437.288,417.713,437.924,417.343L444.155,413.77C444.791,413.4,445.681,413.4,446.19,413.646L460.051,421.41C460.56,421.656,460.56,422.149,459.924,422.519L453.693,426.093C453.057,426.463,452.167,426.586,451.658,426.216ZM470.733,415.618L459.033,409.087C458.524,408.84,458.524,408.347,459.16,407.978L465.391,404.404C466.027,404.034,466.918,404.034,467.426,404.281L479.126,410.812C479.635,411.058,479.635,411.551,478.999,411.921L472.767,415.495C472.132,415.864,471.241,415.864,470.733,415.618ZM372.938,371.501L366.58,367.927C366.071,367.681,366.071,367.188,366.707,366.818L372.938,363.244C373.574,362.875,374.464,362.875,374.973,363.121L381.332,366.695C381.84,366.941,381.84,367.434,381.204,367.804L374.973,371.378C374.337,371.747,373.447,371.871,372.938,371.501ZM362.893,365.956L356.535,362.382C356.026,362.135,356.026,361.642,356.662,361.273L362.893,357.699C363.529,357.329,364.419,357.329,364.928,357.576L371.287,361.15C371.795,361.396,371.795,361.889,371.16,362.259L364.928,365.832C364.292,366.202,363.402,366.202,362.893,365.956Z"/>
    <path fill="#396CAA" d="M352.845,360.287L346.486,356.713C345.977,356.467,345.977,355.974,346.613,355.604L352.845,352.03C353.48,351.661,354.371,351.661,354.879,351.907L361.238,355.481C361.747,355.727,361.747,356.22,361.111,356.59L354.879,360.164C354.243,360.533,353.353,360.657,352.845,360.287Z"/>
    <path fill="#173D7A" d="M342.798,354.741L336.439,351.168C335.931,350.921,335.931,350.428,336.566,350.059L342.798,346.485C343.434,346.115,344.324,346.115,344.832,346.362L351.191,349.935C351.7,350.182,351.7,350.675,351.064,351.044L344.832,354.618C344.197,354.988,343.306,354.988,342.798,354.741ZM382.729,377.046L376.371,373.473C375.862,373.226,375.862,372.733,376.498,372.364L382.729,368.79C383.365,368.42,384.255,368.42,384.764,368.667L391.123,372.24C391.631,372.487,391.631,372.98,390.996,373.349L384.764,376.923C384.128,377.293,383.238,377.293,382.729,377.046ZM392.524,382.469L386.166,378.895C385.657,378.648,385.657,378.155,386.293,377.786L392.524,374.212C393.16,373.842,394.05,373.842,394.559,374.089L400.918,377.662C401.426,377.909,401.426,378.402,400.79,378.772L394.559,382.345C393.923,382.715,393.033,382.838,392.524,382.469ZM402.44,388.014L396.082,384.44C395.573,384.194,395.573,383.701,396.209,383.331L402.44,379.757C403.076,379.388,403.966,379.388,404.475,379.634L410.834,383.208C411.342,383.454,411.342,383.947,410.706,384.317L404.475,387.891C403.839,388.26,402.949,388.26,402.44,388.014ZM412.233,393.436L405.875,389.862C405.366,389.616,405.366,389.123,406.002,388.753L412.233,385.18C412.869,384.81,413.759,384.81,414.268,385.056L420.627,388.63C421.135,388.876,421.135,389.369,420.499,389.739L414.268,393.313C413.632,393.683,412.742,393.806,412.233,393.436ZM422.024,398.982L415.666,395.408C415.157,395.162,415.157,394.669,415.793,394.299L422.024,390.725C422.66,390.355,423.55,390.355,424.059,390.602L430.418,394.176C430.926,394.422,430.926,394.915,430.29,395.285L424.059,398.858C423.423,399.228,422.533,399.228,422.024,398.982ZM431.819,404.404L425.461,400.83C424.952,400.584,424.952,400.091,425.588,399.721L431.819,396.147C432.455,395.778,433.345,395.778,433.854,396.024L440.213,399.598C440.721,399.844,440.721,400.337,440.085,400.707L433.854,404.281C433.218,404.65,432.328,404.774,431.819,404.404ZM441.61,409.949L435.252,406.376C434.743,406.129,434.743,405.636,435.379,405.266L441.61,401.693C442.246,401.323,443.136,401.323,443.645,401.569L450.004,405.143C450.512,405.39,450.512,405.883,449.876,406.252L443.645,409.826C443.009,410.196,442.119,410.196,441.61,409.949ZM451.401,415.372L445.043,411.798C444.534,411.551,444.534,411.058,445.17,410.689L451.401,407.115C452.037,406.745,452.927,406.745,453.436,406.992L459.795,410.565C460.303,410.812,460.303,411.305,459.667,411.674L453.436,415.248C452.8,415.618,451.91,415.741,451.401,415.372ZM461.196,420.917L454.838,417.343C454.329,417.097,454.329,416.604,454.965,416.234L461.196,412.66C461.832,412.291,462.722,412.291,463.231,412.537L469.589,416.111C470.098,416.357,470.098,416.85,469.462,417.22L463.231,420.794C462.595,421.163,461.705,421.164,461.196,420.917ZM367.85,357.945L361.492,354.372C360.983,354.125,360.983,353.632,361.619,353.263L367.85,349.689C368.486,349.319,369.377,349.319,369.885,349.566L376.244,353.139C376.752,353.386,376.752,353.879,376.117,354.248L369.885,357.822C369.249,358.192,368.359,358.315,367.85,357.945ZM358.059,352.523L351.701,348.949C351.192,348.703,351.192,348.21,351.828,347.84L358.059,344.267C358.695,343.897,359.585,343.897,360.094,344.143L366.453,347.717C366.961,347.964,366.961,348.457,366.326,348.826L360.094,352.4C359.458,352.77,358.568,352.77,358.059,352.523ZM348.266,347.101L341.908,343.527C341.399,343.281,341.399,342.788,342.035,342.418L348.266,338.844C348.902,338.475,349.793,338.475,350.301,338.721L356.66,342.295C357.168,342.541,357.168,343.034,356.533,343.404L350.301,346.978C349.665,347.347,348.775,347.347,348.266,347.101ZM338.6,341.679L332.242,338.105C331.733,337.859,331.733,337.366,332.369,336.996L338.6,333.422C339.236,333.053,340.127,333.053,340.635,333.299L346.994,336.873C347.502,337.119,347.502,337.612,346.867,337.982L340.635,341.556C339.999,341.925,339.109,341.925,338.6,341.679ZM348.52,336.01L342.162,332.436C341.653,332.19,341.653,331.697,342.289,331.327L344.324,330.218C344.96,329.848,345.85,329.848,346.358,330.095L352.717,333.669C353.226,333.915,353.226,334.408,352.59,334.778L350.555,335.887C349.919,336.256,349.029,336.256,348.52,336.01ZM361.366,343.157L355.008,339.584C354.499,339.337,354.499,338.844,355.135,338.475L357.169,337.366C357.805,336.996,358.696,336.996,359.204,337.242L365.563,340.816C366.071,341.063,366.071,341.555,365.436,341.925L363.401,343.034C362.765,343.404,361.875,343.404,361.366,343.157ZM371.03,348.58L364.672,345.006C364.163,344.76,364.163,344.267,364.799,343.897L366.834,342.788C367.469,342.418,368.36,342.418,368.868,342.665L375.227,346.238C375.735,346.485,375.735,346.978,375.1,347.347L373.065,348.457C372.429,348.826,371.539,348.826,371.03,348.58ZM380.694,354.002L374.336,350.428C373.827,350.182,373.827,349.689,374.463,349.319L376.498,348.21C377.133,347.84,378.024,347.84,378.532,348.087L384.891,351.661C385.399,351.907,385.4,352.4,384.764,352.77L382.729,353.879C382.093,354.248,381.203,354.248,380.694,354.002ZM390.489,359.424L384.131,355.85C383.622,355.604,383.622,355.111,384.258,354.741L386.293,353.632C386.928,353.262,387.819,353.262,388.327,353.509L394.686,357.083C395.194,357.329,395.194,357.822,394.559,358.192L392.524,359.301C391.888,359.671,390.998,359.671,390.489,359.424ZM444.663,389.739L438.304,386.166C437.796,385.919,437.796,385.426,438.432,385.056L440.466,383.947C441.102,383.578,441.992,383.578,442.501,383.824L448.86,387.398C449.368,387.644,449.368,388.137,448.732,388.507L446.698,389.616C446.062,389.986,445.172,390.109,444.663,389.739ZM454.327,395.161L447.969,391.588C447.46,391.341,447.46,390.848,448.096,390.479L450.13,389.369C450.766,389,451.656,389,452.165,389.246L458.524,392.82C459.032,393.066,459.032,393.559,458.397,393.929L456.362,395.038C455.726,395.408,454.836,395.531,454.327,395.161ZM464.118,400.584L457.76,397.01C457.251,396.764,457.251,396.271,457.887,395.901L459.921,394.792C460.557,394.422,461.447,394.422,461.956,394.669L468.315,398.242C468.823,398.489,468.823,398.982,468.188,399.351L466.153,400.46C465.517,400.83,464.627,400.953,464.118,400.584ZM473.784,406.129L467.426,402.555C466.917,402.309,466.917,401.816,467.553,401.446L469.587,400.337C470.223,399.968,471.113,399.968,471.622,400.214L477.981,403.788C478.489,404.034,478.489,404.527,477.854,404.897L475.819,406.006C475.183,406.376,474.293,406.376,473.784,406.129ZM377.643,363.491L371.285,359.917C370.776,359.671,370.776,359.178,371.412,358.808L377.643,355.234C378.279,354.865,379.169,354.865,379.678,355.111L386.037,358.685C386.545,358.931,386.545,359.424,385.91,359.794L379.678,363.368C379.042,363.737,378.152,363.737,377.643,363.491ZM387.436,368.913L381.078,365.339C380.569,365.093,380.569,364.6,381.205,364.23L387.436,360.657C388.072,360.287,388.962,360.287,389.471,360.533L395.83,364.107C396.338,364.354,396.338,364.846,395.703,365.216L389.471,368.79C388.835,369.16,387.945,369.283,387.436,368.913ZM397.227,374.459L390.869,370.885C390.36,370.638,390.36,370.145,390.996,369.776L397.227,366.202C397.863,365.832,398.754,365.832,399.262,366.079L405.621,369.652C406.129,369.899,406.129,370.392,405.494,370.762L399.262,374.335C398.626,374.705,397.736,374.705,397.227,374.459ZM407.02,379.881L400.662,376.307C400.153,376.06,400.153,375.568,400.789,375.198L407.02,371.624C407.656,371.254,408.546,371.254,409.055,371.501L415.414,375.075C415.922,375.321,415.922,375.814,415.286,376.184L409.055,379.757C408.419,380.127,407.529,380.25,407.02,379.881ZM416.813,385.426L410.455,381.852C409.946,381.606,409.946,381.113,410.582,380.743L416.813,377.17C417.449,376.8,418.339,376.8,418.848,377.046L425.207,380.62C425.715,380.866,425.715,381.359,425.08,381.729L418.848,385.303C418.212,385.673,417.322,385.673,416.813,385.426ZM426.604,390.848L420.246,387.274C419.737,387.028,419.737,386.535,420.373,386.165L426.604,382.592C427.24,382.222,428.13,382.222,428.639,382.468L434.998,386.042C435.506,386.289,435.506,386.782,434.871,387.151L428.639,390.725C428.003,391.095,427.113,391.218,426.604,390.848ZM436.395,396.394L430.037,392.82C429.528,392.574,429.528,392.081,430.164,391.711L436.395,388.137C437.031,387.768,437.921,387.768,438.43,388.014L444.789,391.588C445.297,391.834,445.297,392.327,444.662,392.697L438.43,396.271C437.794,396.64,436.904,396.64,436.395,396.394ZM446.188,401.816L439.83,398.242C439.321,397.996,439.321,397.503,439.957,397.133L446.188,393.559C446.824,393.19,447.714,393.19,448.223,393.436L454.582,397.01C455.09,397.256,455.09,397.749,454.455,398.119L448.223,401.693C447.587,402.062,446.697,402.186,446.188,401.816ZM455.979,407.361L449.621,403.788C449.112,403.541,449.112,403.048,449.748,402.679L455.979,399.105C456.615,398.735,457.505,398.735,458.014,398.982L464.373,402.555C464.881,402.802,464.881,403.295,464.245,403.664L458.014,407.238C457.378,407.608,456.488,407.608,455.979,407.361ZM321.561,364.107L302.867,353.632C302.358,353.386,302.358,352.893,302.994,352.523L309.225,348.95C309.861,348.58,310.752,348.58,311.26,348.826L329.954,359.301C330.463,359.547,330.463,360.04,329.827,360.41L323.596,363.984C322.96,364.353,322.07,364.477,321.561,364.107ZM441.991,431.515L423.297,421.04C422.788,420.794,422.788,420.301,423.424,419.931L429.655,416.357C430.291,415.988,431.181,415.988,431.69,416.234L450.384,426.709C450.893,426.955,450.893,427.448,450.257,427.818L444.025,431.392C443.39,431.761,442.499,431.761,441.991,431.515ZM402.823,421.656L396.465,418.083C395.956,417.836,395.956,417.343,396.592,416.974L404.095,412.784C404.731,412.414,405.621,412.414,406.13,412.661L412.488,416.234C412.997,416.481,412.997,416.974,412.361,417.343L404.858,421.533C404.222,421.903,403.332,422.026,402.823,421.656ZM331.607,381.852L321.433,376.184C320.925,375.937,320.925,375.444,321.561,375.075L329.064,370.885C329.699,370.515,330.59,370.515,331.098,370.762L341.272,376.43C341.781,376.677,341.781,377.17,341.145,377.539L333.642,381.729C333.006,382.099,332.116,382.222,331.607,381.852ZM393.412,416.481L383.238,410.812C382.729,410.566,382.729,410.073,383.365,409.703L390.868,405.513C391.504,405.143,392.394,405.143,392.903,405.39L403.077,411.058C403.585,411.305,403.585,411.798,402.95,412.168L395.446,416.357C394.811,416.727,393.92,416.727,393.412,416.481ZM345.722,389.739L335.549,384.071C335.04,383.824,335.04,383.331,335.676,382.961L343.179,378.772C343.815,378.402,344.705,378.402,345.214,378.648L355.387,384.317C355.896,384.564,355.896,385.056,355.26,385.426L347.757,389.616C347.121,389.986,346.231,390.109,345.722,389.739Z"/>
    <path fill="#173D7A" d="M345.341,378.771L389.469,403.418C389.978,403.664,389.978,404.281,389.469,404.527L381.839,408.84C381.33,409.087,380.44,409.087,379.804,408.84L335.676,384.194L345.341,378.771ZM430.165,431.638L437.286,435.582C437.668,435.828,437.668,436.198,437.159,436.444L434.107,438.17C433.599,438.416,432.836,438.416,432.454,438.293L425.332,434.349C424.951,434.103,424.951,433.733,425.46,433.487L428.512,431.762C429.02,431.392,429.783,431.392,430.165,431.638ZM420.245,426.093L427.367,430.036C427.748,430.283,427.748,430.652,427.24,430.899L424.187,432.624C423.679,432.871,422.916,432.871,422.534,432.747L415.413,428.804C415.031,428.557,415.031,428.188,415.54,427.941L418.592,426.216C419.101,425.97,419.864,425.846,420.245,426.093ZM410.454,420.671L417.576,424.614C417.957,424.86,417.957,425.23,417.448,425.477L414.396,427.202C413.888,427.448,413.125,427.448,412.743,427.325L405.622,423.382C405.24,423.135,405.24,422.765,405.749,422.519L408.801,420.794C409.309,420.424,410.073,420.424,410.454,420.671ZM425.714,423.135L432.835,427.079C433.217,427.325,433.217,427.695,432.708,427.941L429.656,429.666C429.147,429.913,428.384,429.913,428.003,429.79L420.881,425.846C420.5,425.6,420.5,425.23,421.008,424.984L424.061,423.258C424.569,422.889,425.332,422.889,425.714,423.135Z"/>
    <path id="laptop-text" fill="#D4ECFF" d="M436.266,288.073L430.162,284.622C429.653,284.252,429.145,283.513,429.145,282.774C429.145,282.034,429.526,281.664,430.162,282.034L436.266,285.485C436.775,285.854,437.284,286.594,437.284,287.333C437.284,288.073,436.775,288.319,436.266,288.073ZM450.767,296.206L441.865,291.153C441.356,290.784,440.848,290.044,440.848,289.305C440.848,288.565,441.229,288.196,441.865,288.565L450.767,293.618C451.276,293.988,451.784,294.727,451.784,295.466C451.657,296.083,451.276,296.452,450.767,296.206ZM433.215,319.374L427.111,315.923C426.602,315.553,426.094,314.814,426.094,314.075C426.094,313.335,426.475,312.966,427.111,313.335L433.215,316.786C433.724,317.155,434.233,317.895,434.233,318.634C434.233,319.374,433.851,319.743,433.215,319.374ZM446.187,326.644L437.285,321.592C436.776,321.222,436.268,320.482,436.268,319.743C436.268,319.004,436.649,318.634,437.285,319.004L446.187,324.056C446.696,324.426,447.204,325.165,447.204,325.905C447.077,326.644,446.696,326.891,446.187,326.644ZM419.608,284.252L415.793,282.157C415.284,281.788,414.775,281.048,414.775,280.309C414.775,279.569,415.157,279.2,415.793,279.569L419.608,281.664C420.117,282.034,420.625,282.773,420.625,283.513C420.625,284.252,420.117,284.622,419.608,284.252ZM432.58,296.945L421.008,290.414C420.499,290.044,419.99,289.305,419.99,288.566C419.99,287.826,420.372,287.456,421.008,287.826L432.58,294.357C433.089,294.727,433.598,295.467,433.598,296.206C433.598,296.945,433.089,297.315,432.58,296.945ZM424.95,303.723L421.135,301.628C420.626,301.258,420.117,300.519,420.117,299.779C420.117,299.04,420.499,298.67,421.135,299.04L424.95,301.135C425.458,301.505,425.967,302.244,425.967,302.983C425.967,303.723,425.458,304.093,424.95,303.723ZM450.64,340.2L440.467,334.531C439.958,334.161,439.449,333.422,439.449,332.683C439.449,331.943,439.831,331.573,440.467,331.943L450.64,337.612C451.149,337.982,451.658,338.721,451.658,339.46C451.658,340.076,451.149,340.446,450.64,340.2ZM423.805,314.075L421.388,312.719C420.88,312.349,420.371,311.61,420.371,310.871C420.371,310.131,420.753,309.761,421.388,310.131L423.805,311.487C424.313,311.856,424.822,312.596,424.822,313.335C424.822,314.075,424.313,314.444,423.805,314.075ZM424.567,325.535L421.515,323.81C421.007,323.44,420.498,322.701,420.498,321.961C420.498,321.222,420.88,320.852,421.515,321.222L424.567,322.947C425.076,323.317,425.585,324.056,425.585,324.796C425.585,325.535,425.076,325.905,424.567,325.535ZM436.267,332.19L428.256,327.753C427.747,327.383,427.238,326.644,427.238,325.905C427.238,325.165,427.62,324.796,428.256,325.165L436.267,329.602C436.776,329.971,437.285,330.711,437.285,331.45C437.285,332.19,436.903,332.436,436.267,332.19ZM427.367,332.683L421.644,329.479C421.136,329.109,420.627,328.369,420.627,327.63C420.627,326.891,421.008,326.521,421.644,326.891L427.367,330.095C427.876,330.464,428.384,331.204,428.384,331.943C428.384,332.683,427.876,332.929,427.367,332.683ZM459.287,345.006L455.599,342.911C455.091,342.541,454.582,341.802,454.582,341.062C454.582,340.323,454.964,339.953,455.599,340.323L459.287,342.418C459.796,342.788,460.305,343.527,460.305,344.266C460.305,345.006,459.923,345.375,459.287,345.006ZM439.064,311.61L428.89,305.941C428.382,305.571,427.873,304.832,427.873,304.093C427.873,303.353,428.255,302.984,428.89,303.353L439.064,309.022C439.573,309.392,440.081,310.131,440.081,310.87C440.081,311.61,439.573,311.98,439.064,311.61ZM438.684,305.941L421.008,296.083C420.499,295.713,419.99,294.973,419.99,294.234C419.99,293.495,420.372,293.125,421.008,293.495L438.684,303.353C439.193,303.723,439.702,304.462,439.702,305.202C439.702,305.941,439.32,306.311,438.684,305.941ZM431.308,312.842L421.135,307.174C420.626,306.804,420.117,306.065,420.117,305.325C420.117,304.586,420.499,304.216,421.135,304.586L431.308,310.254C431.817,310.624,432.326,311.363,432.326,312.103C432.326,312.842,431.944,313.212,431.308,312.842ZM446.696,315.923L443.008,313.828C442.499,313.458,441.99,312.719,441.99,311.98C441.99,311.24,442.372,310.871,443.008,311.24L446.696,313.335C447.204,313.705,447.713,314.444,447.713,315.184C447.713,315.923,447.331,316.293,446.696,315.923ZM477.978,311.364L456.232,299.164C455.724,298.794,455.215,298.054,455.215,297.315C455.215,296.576,455.596,296.206,456.232,296.576L477.978,308.776C478.487,309.145,478.996,309.885,478.996,310.624C478.996,311.364,478.614,311.733,477.978,311.364ZM433.597,325.165L421.388,318.388C420.88,318.018,420.371,317.279,420.371,316.539C420.371,315.8,420.753,315.43,421.388,315.8L433.597,322.578C434.106,322.947,434.614,323.687,434.614,324.426C434.614,325.165,434.106,325.412,433.597,325.165ZM424.695,281.541L415.793,276.489C415.284,276.119,414.775,275.38,414.775,274.64C414.775,273.901,415.157,273.531,415.793,273.901L424.695,278.953C425.203,279.323,425.712,280.062,425.712,280.802C425.712,281.541,425.203,281.911,424.695,281.541ZM426.984,337.981L416.556,332.189C416.048,331.82,415.539,331.08,415.539,330.341C415.539,329.602,415.921,329.232,416.556,329.602L426.984,335.393C427.493,335.763,428.002,336.503,428.002,337.242C428.002,337.981,427.62,338.351,426.984,337.981ZM161.961,346.731L215.373,316.662C225.928,310.747,235.974,309.761,243.478,314.074C250.981,318.264,255.177,327.137,255.177,338.967L255.177,342.788C254.796,343.034,254.414,343.28,254.033,343.527L254.033,338.844C254.033,327.384,250.09,319.004,242.969,314.937C235.847,310.994,226.31,311.856,216.009,317.525L162.597,347.594C162.343,347.717,161.961,347.717,161.834,347.347C161.58,347.224,161.707,346.854,161.961,346.731ZM328.428,310.87L328.428,194.17C328.428,170.879,345.342,142.289,366.198,130.705C376.372,125.036,386.037,124.051,393.285,128.117C400.534,132.184,404.604,140.687,404.604,152.147L404.604,160.281C404.222,160.65,403.841,161.02,403.459,161.39L403.459,152.147C403.459,141.18,399.644,132.923,392.777,129.103C385.909,125.283,376.753,126.146,366.834,131.691C346.359,143.152,329.573,171.248,329.573,194.17L329.573,310.747C329.573,330.095,317.873,353.016,301.85,366.818L301.85,365.339C317.237,351.66,328.428,329.602,328.428,310.87Z" fill-opacity="0" clip-path="url(#ClipPath-1)" style="fill-opacity: 1;"/>
    <path fill="#173D7A" d="M404.73,163.854C406.638,162.129,415.667,154.365,428.893,152.394C443.772,150.176,450.003,167.058,450.003,167.058C450.003,167.058,451.784,175.808,451.656,180.984C451.656,186.159,451.148,205.014,451.148,205.014L403.967,178.642C403.84,178.519,403.586,178.396,403.586,178.149L403.586,164.84C403.967,164.471,404.349,164.347,404.73,163.854Z"/>
    <path fill="#D4ECFF" d="M438.175,153.133L393.411,128.117L393.538,128.733C386.671,124.42,376.243,123.927,362.254,133.909C334.531,153.626,331.224,180.984,329.825,186.16C328.427,191.335,328.935,223.869,328.935,223.869C328.935,223.869,328.808,302.367,328.808,311.487C328.681,320.606,326.01,330.834,320.669,341.925C315.328,353.016,301.721,366.448,301.721,366.448L301.721,382.468C303.883,399.721,311.513,403.788,322.704,404.773C331.86,405.513,341.525,399.228,349.283,392.327C349.028,392.573,348.774,392.82,348.774,392.82L348.774,408.84C350.936,426.093,358.566,430.159,369.757,431.145C381.075,432.131,393.156,422.149,401.423,413.646C409.689,405.143,416.683,392.204,420.498,380.62C424.313,368.913,423.042,353.879,423.042,353.879C423.042,353.879,423.169,268.109,423.169,251.103C423.296,234.22,423.805,237.178,429.527,220.172C435.632,202.919,450.765,190.966,450.765,190.966L487.136,180.491L438.175,153.133Z"/>
    <path fill="#173D7A" d="M360.221,429.42C359.586,428.557,351.574,423.381,349.539,414.262C348.395,409.21,348.522,401.446,348.522,401.446C348.522,401.446,348.522,397.133,348.649,393.19C348.776,393.066,348.776,393.066,348.903,392.943L348.903,391.464C348.776,391.588,348.776,391.588,348.649,391.711C348.649,390.848,348.776,389.986,348.776,389.246C349.03,385.179,345.851,376.553,345.851,376.553C345.851,376.553,341.527,364.969,328.429,364.476C316.856,364.107,304.648,372.117,301.977,373.965L301.977,368.79C301.85,368.913,301.596,369.036,301.469,369.159L301.469,367.064L301.723,366.818L301.723,365.339C301.596,365.462,301.596,365.462,301.469,365.586C301.469,364.723,301.596,363.86,301.596,363.121C301.85,359.054,298.671,350.428,298.671,350.428C298.671,350.428,294.347,338.844,281.248,338.351C269.676,337.982,257.467,345.992,254.797,347.84L254.797,342.664C254.415,342.911,254.034,343.157,253.652,343.404L253.652,352.523C253.652,363.614,257.467,371.994,264.462,376.06L264.716,376.184C264.843,376.184,264.843,376.307,264.971,376.307L265.098,376.307L313.041,403.048L313.041,402.925L360.221,429.42Z"/>
    <path fill="#D4ECFF" d="M290.529,340.2C290.529,340.2,290.147,340.077,289.511,339.83C289.257,339.707,289.13,339.584,288.875,339.584L243.475,313.951C243.475,313.951,235.082,309.638,225.036,313.335C214.862,316.909,161.959,347.717,161.959,347.717L209.139,374.089L209.267,374.089L256.193,400.337C256.193,400.337,282.771,384.44,301.084,374.089L302.228,373.472C309.731,369.283,315.708,366.202,317.616,365.709C328.934,362.751,336.819,366.325,338.854,367.434L290.529,340.2ZM338.98,367.311L339.489,367.557C339.489,367.681,339.362,367.557,338.98,367.311Z"/>
    <path fill="#173D7A" d="M451.781,190.103C453.689,188.378,462.718,180.614,475.944,178.642C490.823,176.424,497.054,193.307,497.054,193.307C497.054,193.307,498.834,202.056,498.707,207.232C498.707,212.408,498.199,231.262,498.199,231.262L451.018,204.891C450.891,204.768,450.637,204.644,450.637,204.398L450.637,191.089C451.018,190.719,451.4,190.473,451.781,190.103Z"/>
    <path fill="#396CAA" d="M369.502,431.515C374.716,431.515,380.439,429.79,386.416,426.462C407.145,414.878,423.931,386.535,423.931,363.367L423.931,246.79C423.931,223.869,440.591,195.772,461.192,184.311C470.985,178.766,480.268,177.903,487.135,181.723C494.002,185.543,497.818,193.8,497.818,204.768L497.818,230.893C497.818,231.263,498.072,231.509,498.453,231.509C498.835,231.509,499.089,231.263,499.089,230.893L499.089,204.768C499.089,193.307,495.02,184.804,487.771,180.737C480.522,176.671,470.857,177.533,460.684,183.325C439.701,195.032,422.787,223.499,422.787,246.79L422.787,363.367C422.787,386.165,406.255,414.016,385.78,425.476C375.988,430.899,366.832,431.884,359.964,428.064C353.097,424.244,349.282,416.111,349.282,405.143L349.282,391.464C349.282,379.634,345.085,370.761,337.582,366.571C330.079,362.382,320.033,363.244,309.478,369.159L256.066,399.228C255.812,399.351,255.684,399.721,255.812,399.967C255.939,400.214,256.32,400.337,256.575,400.214L309.986,370.145C320.16,364.476,329.698,363.491,336.947,367.557C344.068,371.501,348.01,380.004,348.01,391.464L348.01,405.143C348.01,416.48,351.953,424.983,359.201,429.05C362.381,430.652,365.814,431.515,369.502,431.515Z"/>
    <g mask="url(#Mask-1)" transform="translate(373.01,284.807) translate(-24.1076,-68.7193)">
        <path id="text2-2" fill="#5793CE" d="M373.192,275.38L365.307,270.943C364.544,270.573,363.908,269.464,363.908,268.479C363.908,267.493,364.417,267.123,365.18,267.493L373.065,271.929C373.828,272.299,374.463,273.408,374.463,274.394C374.463,275.38,373.828,275.749,373.192,275.38ZM389.851,284.745L378.151,278.214C377.388,277.844,376.752,276.735,376.752,275.749C376.752,274.763,377.261,274.393,378.024,274.763L389.723,281.295C390.486,281.664,391.122,282.773,391.122,283.759C391.249,284.745,390.614,285.238,389.851,284.745ZM372.304,246.297L357.17,237.794C356.407,237.424,355.771,236.315,355.771,235.329C355.771,234.343,356.28,233.974,357.043,234.343L372.049,242.723C372.812,243.093,373.448,244.202,373.448,245.188C373.575,246.174,372.94,246.667,372.304,246.297ZM362.384,255.046L357.424,252.335C356.661,251.966,356.025,250.856,356.025,249.871C356.025,248.885,356.534,248.515,357.297,248.885L362.257,251.596C363.02,251.966,363.656,253.075,363.656,254.061C363.656,255.046,363.147,255.416,362.384,255.046ZM360.857,268.478L357.678,266.753C356.915,266.384,356.279,265.274,356.279,264.289C356.279,263.303,356.788,262.933,357.551,263.303L360.73,265.028C361.493,265.398,362.129,266.507,362.129,267.493C362.129,268.478,361.62,268.971,360.857,268.478ZM380.695,265.275L367.469,257.881C366.706,257.511,366.07,256.402,366.07,255.416C366.07,254.43,366.579,254.06,367.342,254.43L380.568,261.824C381.331,262.194,381.967,263.303,381.967,264.289C381.967,265.275,381.458,265.767,380.695,265.275ZM380.313,257.88L357.295,245.064C356.532,244.695,355.896,243.585,355.896,242.6C355.896,241.614,356.405,241.244,357.168,241.614L380.186,254.43C380.949,254.8,381.585,255.909,381.585,256.895C381.585,257.88,380.949,258.25,380.313,257.88ZM370.775,266.877L357.549,259.483C356.786,259.113,356.15,258.004,356.15,257.018C356.15,256.032,356.659,255.663,357.422,256.032L370.648,263.426C371.411,263.796,372.047,264.905,372.047,265.891C372.047,266.877,371.411,267.246,370.775,266.877ZM390.743,270.943L385.911,268.232C385.148,267.863,384.512,266.753,384.512,265.768C384.512,264.782,385.02,264.412,385.783,264.782L390.616,267.493C391.379,267.863,392.015,268.972,392.015,269.957C392.015,270.82,391.379,271.313,390.743,270.943ZM377.008,234.589L369.123,230.153C368.36,229.783,367.725,228.674,367.725,227.688C367.725,226.703,368.233,226.333,368.996,226.703L376.881,231.139C377.644,231.509,378.28,232.618,378.28,233.604C378.407,234.589,377.771,234.959,377.008,234.589ZM395.829,245.064L384.129,238.533C383.366,238.163,382.73,237.054,382.73,236.068C382.73,235.083,383.239,234.713,384.002,235.083L395.702,241.614C396.465,241.984,397.101,243.093,397.101,244.078C397.228,245.064,396.592,245.557,395.829,245.064Z" stroke-linejoin="bevel" stroke-opacity="0" fill-opacity="1" transform="translate(-348.9020080566406,-255.4949188232422) "/>
        <path id="text1-2" fill="#5793CE" d="M373.194,275.38L365.309,270.943C364.546,270.573,363.91,269.464,363.91,268.479C363.91,267.493,364.419,267.123,365.182,267.493L373.066,271.929C373.829,272.299,374.465,273.408,374.465,274.394C374.465,275.38,373.829,275.749,373.194,275.38ZM389.851,284.745L378.151,278.214C377.388,277.844,376.752,276.735,376.752,275.749C376.752,274.763,377.261,274.393,378.024,274.763L389.723,281.294C390.486,281.664,391.122,282.773,391.122,283.759C391.249,284.745,390.614,285.238,389.851,284.745ZM355.388,229.66L350.428,226.949C349.665,226.579,349.029,225.47,349.029,224.484C349.029,223.499,349.538,223.129,350.301,223.499L355.261,226.21C356.024,226.579,356.66,227.688,356.66,228.674C356.787,229.66,356.151,230.03,355.388,229.66ZM372.304,246.297L357.17,237.794C356.407,237.424,355.771,236.315,355.771,235.329C355.771,234.343,356.28,233.974,357.043,234.343L372.049,242.723C372.812,243.093,373.448,244.202,373.448,245.188C373.575,246.174,372.94,246.667,372.304,246.297ZM362.384,255.046L357.424,252.335C356.661,251.966,356.025,250.856,356.025,249.871C356.025,248.885,356.534,248.515,357.297,248.885L362.257,251.596C363.02,251.966,363.656,253.075,363.656,254.061C363.656,255.046,363.147,255.416,362.384,255.046ZM395.703,302.367L382.477,294.973C381.714,294.604,381.078,293.495,381.078,292.509C381.078,291.523,381.587,291.153,382.35,291.523L395.576,298.917C396.339,299.287,396.975,300.396,396.975,301.382C397.102,302.367,396.466,302.737,395.703,302.367ZM360.857,268.478L357.678,266.753C356.915,266.384,356.279,265.274,356.279,264.289C356.279,263.303,356.788,262.933,357.551,263.303L360.73,265.028C361.493,265.398,362.129,266.507,362.129,267.493C362.129,268.478,361.62,268.971,360.857,268.478ZM361.874,283.389L357.932,281.171C357.169,280.801,356.533,279.692,356.533,278.707C356.533,277.721,357.042,277.351,357.805,277.721L361.747,279.939C362.51,280.309,363.146,281.418,363.146,282.404C363.146,283.389,362.637,283.759,361.874,283.389ZM377.135,292.016L366.834,286.224C366.071,285.854,365.436,284.745,365.436,283.759C365.436,282.773,365.944,282.404,366.707,282.773L377.008,288.565C377.771,288.935,378.407,290.044,378.407,291.03C378.407,291.893,377.898,292.386,377.135,292.016ZM365.435,292.632L357.932,288.442C357.169,288.072,356.533,286.963,356.533,285.978C356.533,284.992,357.042,284.622,357.805,284.992L365.308,289.182C366.071,289.551,366.707,290.66,366.707,291.646C366.834,292.509,366.198,293.002,365.435,292.632ZM380.695,265.275L367.469,257.881C366.706,257.511,366.07,256.402,366.07,255.416C366.07,254.43,366.579,254.06,367.342,254.43L380.568,261.824C381.331,262.194,381.967,263.303,381.967,264.289C381.967,265.275,381.458,265.768,380.695,265.275ZM380.313,257.88L357.295,245.064C356.532,244.695,355.896,243.585,355.896,242.6C355.896,241.614,356.405,241.244,357.168,241.614L380.186,254.43C380.949,254.8,381.585,255.909,381.585,256.895C381.585,257.88,380.949,258.25,380.313,257.88ZM370.775,266.877L357.549,259.483C356.786,259.113,356.15,258.004,356.15,257.018C356.15,256.032,356.659,255.663,357.422,256.032L370.648,263.426C371.411,263.796,372.047,264.905,372.047,265.891C372.047,266.877,371.411,267.246,370.775,266.877ZM390.743,270.943L385.911,268.232C385.148,267.862,384.512,266.753,384.512,265.767C384.512,264.781,385.02,264.412,385.783,264.781L390.616,267.492C391.379,267.862,392.015,268.971,392.015,269.957C392.015,270.82,391.379,271.313,390.743,270.943ZM373.574,282.773L357.805,273.901C357.042,273.531,356.406,272.422,356.406,271.436C356.406,270.45,356.915,270.08,357.678,270.45L373.447,279.323C374.21,279.693,374.846,280.802,374.846,281.788C374.973,282.773,374.337,283.266,373.574,282.773ZM362.001,226.21L350.301,219.679C349.538,219.309,348.902,218.2,348.902,217.214C348.902,216.228,349.411,215.858,350.174,216.228L361.874,222.759C362.637,223.129,363.273,224.238,363.273,225.224C363.273,226.21,362.764,226.58,362.001,226.21ZM365.053,299.533L351.573,292.016C350.81,291.646,350.174,290.537,350.174,289.551C350.174,288.565,350.683,288.196,351.446,288.565L364.926,296.083C365.689,296.452,366.325,297.561,366.325,298.547C366.325,299.533,365.816,299.903,365.053,299.533ZM371.283,344.02L363.399,339.584C362.636,339.214,362,338.105,362,337.119C362,336.133,362.509,335.763,363.272,336.133L371.156,340.569C371.919,340.939,372.555,342.048,372.555,343.034C372.555,344.02,372.047,344.39,371.283,344.02ZM388.069,353.385L376.37,346.854C375.607,346.484,374.971,345.375,374.971,344.389C374.971,343.404,375.479,343.034,376.242,343.404L387.942,349.935C388.705,350.305,389.341,351.414,389.341,352.4C389.341,353.385,388.832,353.755,388.069,353.385ZM370.395,314.814L355.389,306.434C354.626,306.064,353.99,304.955,353.99,303.97C353.99,302.984,354.499,302.614,355.262,302.984L370.268,311.363C371.031,311.733,371.667,312.842,371.667,313.828C371.667,314.814,371.158,315.307,370.395,314.814ZM360.476,323.686L355.516,320.975C354.753,320.606,354.117,319.497,354.117,318.511C354.117,317.525,354.626,317.155,355.389,317.525L360.349,320.236C361.112,320.606,361.747,321.715,361.747,322.701C361.875,323.563,361.239,324.056,360.476,323.686ZM358.949,337.119L355.77,335.394C355.007,335.024,354.371,333.915,354.371,332.929C354.371,331.943,354.88,331.573,355.643,331.943L358.822,333.668C359.585,334.038,360.221,335.147,360.221,336.133C360.348,337.119,359.712,337.489,358.949,337.119ZM378.789,333.915L365.563,326.521C364.8,326.151,364.164,325.042,364.164,324.056C364.164,323.07,364.673,322.701,365.436,323.07L378.662,330.464C379.425,330.834,380.06,331.943,380.06,332.929C380.188,333.915,379.552,334.284,378.789,333.915ZM378.407,326.521L355.389,313.705C354.626,313.335,353.99,312.226,353.99,311.24C353.99,310.254,354.499,309.885,355.262,310.254L378.28,323.071C379.043,323.44,379.679,324.549,379.679,325.535C379.679,326.521,379.17,326.891,378.407,326.521ZM368.869,335.517L355.643,328.123C354.88,327.753,354.244,326.644,354.244,325.658C354.244,324.672,354.753,324.303,355.516,324.672L368.742,332.066C369.505,332.436,370.14,333.545,370.14,334.531C370.14,335.517,369.632,335.887,368.869,335.517ZM388.835,339.46L384.002,336.749C383.239,336.379,382.604,335.27,382.604,334.284C382.604,333.299,383.112,332.929,383.875,333.299L388.708,336.01C389.471,336.379,390.107,337.489,390.107,338.474C390.107,339.46,389.598,339.953,388.835,339.46Z" stroke-linejoin="round" transform="translate(24.044601440429688,-12.116458892822266)  translate(-372.947,0) translate(0,-284.807)"/>
        <path id="text2" fill="#5793CE" d="M373.192,275.38L365.307,270.943C364.544,270.573,363.908,269.464,363.908,268.479C363.908,267.493,364.417,267.123,365.18,267.493L373.065,271.929C373.828,272.299,374.463,273.408,374.463,274.394C374.463,275.38,373.828,275.749,373.192,275.38ZM389.851,284.745L378.151,278.214C377.388,277.844,376.752,276.735,376.752,275.749C376.752,274.763,377.261,274.393,378.024,274.763L389.723,281.295C390.486,281.664,391.122,282.773,391.122,283.759C391.249,284.745,390.614,285.238,389.851,284.745ZM372.304,246.297L357.17,237.794C356.407,237.424,355.771,236.315,355.771,235.329C355.771,234.343,356.28,233.974,357.043,234.343L372.049,242.723C372.812,243.093,373.448,244.202,373.448,245.188C373.575,246.174,372.94,246.667,372.304,246.297ZM362.384,255.046L357.424,252.335C356.661,251.966,356.025,250.856,356.025,249.871C356.025,248.885,356.534,248.515,357.297,248.885L362.257,251.596C363.02,251.966,363.656,253.075,363.656,254.061C363.656,255.046,363.147,255.416,362.384,255.046ZM360.857,268.478L357.678,266.753C356.915,266.384,356.279,265.274,356.279,264.289C356.279,263.303,356.788,262.933,357.551,263.303L360.73,265.028C361.493,265.398,362.129,266.507,362.129,267.493C362.129,268.478,361.62,268.971,360.857,268.478ZM380.695,265.275L367.469,257.881C366.706,257.511,366.07,256.402,366.07,255.416C366.07,254.43,366.579,254.06,367.342,254.43L380.568,261.824C381.331,262.194,381.967,263.303,381.967,264.289C381.967,265.275,381.458,265.767,380.695,265.275ZM380.313,257.88L357.295,245.064C356.532,244.695,355.896,243.585,355.896,242.6C355.896,241.614,356.405,241.244,357.168,241.614L380.186,254.43C380.949,254.8,381.585,255.909,381.585,256.895C381.585,257.88,380.949,258.25,380.313,257.88ZM370.775,266.877L357.549,259.483C356.786,259.113,356.15,258.004,356.15,257.018C356.15,256.032,356.659,255.663,357.422,256.032L370.648,263.426C371.411,263.796,372.047,264.905,372.047,265.891C372.047,266.877,371.411,267.246,370.775,266.877ZM390.743,270.943L385.911,268.232C385.148,267.863,384.512,266.753,384.512,265.768C384.512,264.782,385.02,264.412,385.783,264.782L390.616,267.493C391.379,267.863,392.015,268.972,392.015,269.957C392.015,270.82,391.379,271.313,390.743,270.943ZM377.008,234.589L369.123,230.153C368.36,229.783,367.725,228.674,367.725,227.688C367.725,226.703,368.233,226.333,368.996,226.703L376.881,231.139C377.644,231.509,378.28,232.618,378.28,233.604C378.407,234.589,377.771,234.959,377.008,234.589ZM395.829,245.064L384.129,238.533C383.366,238.163,382.73,237.054,382.73,236.068C382.73,235.083,383.239,234.713,384.002,235.083L395.702,241.614C396.465,241.984,397.101,243.093,397.101,244.078C397.228,245.064,396.592,245.557,395.829,245.064Z" stroke-linejoin="bevel" stroke-opacity="0" fill-opacity="1" transform="translate(-348.9020080566406,-338.35101318359375) "/>
        <path id="text1" fill="#5793CE" d="M373.194,275.38L365.309,270.943C364.546,270.573,363.91,269.464,363.91,268.479C363.91,267.493,364.419,267.123,365.182,267.493L373.066,271.929C373.829,272.299,374.465,273.408,374.465,274.394C374.465,275.38,373.829,275.749,373.194,275.38ZM389.851,284.745L378.151,278.214C377.388,277.844,376.752,276.735,376.752,275.749C376.752,274.763,377.261,274.393,378.024,274.763L389.723,281.294C390.486,281.664,391.122,282.773,391.122,283.759C391.249,284.745,390.614,285.238,389.851,284.745ZM355.388,229.66L350.428,226.949C349.665,226.579,349.029,225.47,349.029,224.484C349.029,223.499,349.538,223.129,350.301,223.499L355.261,226.21C356.024,226.579,356.66,227.688,356.66,228.674C356.787,229.66,356.151,230.03,355.388,229.66ZM372.304,246.297L357.17,237.794C356.407,237.424,355.771,236.315,355.771,235.329C355.771,234.343,356.28,233.974,357.043,234.343L372.049,242.723C372.812,243.093,373.448,244.202,373.448,245.188C373.575,246.174,372.94,246.667,372.304,246.297ZM362.384,255.046L357.424,252.335C356.661,251.966,356.025,250.856,356.025,249.871C356.025,248.885,356.534,248.515,357.297,248.885L362.257,251.596C363.02,251.966,363.656,253.075,363.656,254.061C363.656,255.046,363.147,255.416,362.384,255.046ZM395.703,302.367L382.477,294.973C381.714,294.604,381.078,293.495,381.078,292.509C381.078,291.523,381.587,291.153,382.35,291.523L395.576,298.917C396.339,299.287,396.975,300.396,396.975,301.382C397.102,302.367,396.466,302.737,395.703,302.367ZM360.857,268.478L357.678,266.753C356.915,266.384,356.279,265.274,356.279,264.289C356.279,263.303,356.788,262.933,357.551,263.303L360.73,265.028C361.493,265.398,362.129,266.507,362.129,267.493C362.129,268.478,361.62,268.971,360.857,268.478ZM361.874,283.389L357.932,281.171C357.169,280.801,356.533,279.692,356.533,278.707C356.533,277.721,357.042,277.351,357.805,277.721L361.747,279.939C362.51,280.309,363.146,281.418,363.146,282.404C363.146,283.389,362.637,283.759,361.874,283.389ZM377.135,292.016L366.834,286.224C366.071,285.854,365.436,284.745,365.436,283.759C365.436,282.773,365.944,282.404,366.707,282.773L377.008,288.565C377.771,288.935,378.407,290.044,378.407,291.03C378.407,291.893,377.898,292.386,377.135,292.016ZM365.435,292.632L357.932,288.442C357.169,288.072,356.533,286.963,356.533,285.978C356.533,284.992,357.042,284.622,357.805,284.992L365.308,289.182C366.071,289.551,366.707,290.66,366.707,291.646C366.834,292.509,366.198,293.002,365.435,292.632ZM380.695,265.275L367.469,257.881C366.706,257.511,366.07,256.402,366.07,255.416C366.07,254.43,366.579,254.06,367.342,254.43L380.568,261.824C381.331,262.194,381.967,263.303,381.967,264.289C381.967,265.275,381.458,265.768,380.695,265.275ZM380.313,257.88L357.295,245.064C356.532,244.695,355.896,243.585,355.896,242.6C355.896,241.614,356.405,241.244,357.168,241.614L380.186,254.43C380.949,254.8,381.585,255.909,381.585,256.895C381.585,257.88,380.949,258.25,380.313,257.88ZM370.775,266.877L357.549,259.483C356.786,259.113,356.15,258.004,356.15,257.018C356.15,256.032,356.659,255.663,357.422,256.032L370.648,263.426C371.411,263.796,372.047,264.905,372.047,265.891C372.047,266.877,371.411,267.246,370.775,266.877ZM390.743,270.943L385.911,268.232C385.148,267.862,384.512,266.753,384.512,265.767C384.512,264.781,385.02,264.412,385.783,264.781L390.616,267.492C391.379,267.862,392.015,268.971,392.015,269.957C392.015,270.82,391.379,271.313,390.743,270.943ZM373.574,282.773L357.805,273.901C357.042,273.531,356.406,272.422,356.406,271.436C356.406,270.45,356.915,270.08,357.678,270.45L373.447,279.323C374.21,279.693,374.846,280.802,374.846,281.788C374.973,282.773,374.337,283.266,373.574,282.773ZM362.001,226.21L350.301,219.679C349.538,219.309,348.902,218.2,348.902,217.214C348.902,216.228,349.411,215.858,350.174,216.228L361.874,222.759C362.637,223.129,363.273,224.238,363.273,225.224C363.273,226.21,362.764,226.58,362.001,226.21ZM365.053,299.533L351.573,292.016C350.81,291.646,350.174,290.537,350.174,289.551C350.174,288.565,350.683,288.196,351.446,288.565L364.926,296.083C365.689,296.452,366.325,297.561,366.325,298.547C366.325,299.533,365.816,299.903,365.053,299.533ZM371.283,344.02L363.399,339.584C362.636,339.214,362,338.105,362,337.119C362,336.133,362.509,335.763,363.272,336.133L371.156,340.569C371.919,340.939,372.555,342.048,372.555,343.034C372.555,344.02,372.047,344.39,371.283,344.02ZM388.069,353.385L376.37,346.854C375.607,346.484,374.971,345.375,374.971,344.389C374.971,343.404,375.479,343.034,376.242,343.404L387.942,349.935C388.705,350.305,389.341,351.414,389.341,352.4C389.341,353.385,388.832,353.755,388.069,353.385ZM370.395,314.814L355.389,306.434C354.626,306.064,353.99,304.955,353.99,303.97C353.99,302.984,354.499,302.614,355.262,302.984L370.268,311.363C371.031,311.733,371.667,312.842,371.667,313.828C371.667,314.814,371.158,315.307,370.395,314.814ZM360.476,323.686L355.516,320.975C354.753,320.606,354.117,319.497,354.117,318.511C354.117,317.525,354.626,317.155,355.389,317.525L360.349,320.236C361.112,320.606,361.747,321.715,361.747,322.701C361.875,323.563,361.239,324.056,360.476,323.686ZM358.949,337.119L355.77,335.394C355.007,335.024,354.371,333.915,354.371,332.929C354.371,331.943,354.88,331.573,355.643,331.943L358.822,333.668C359.585,334.038,360.221,335.147,360.221,336.133C360.348,337.119,359.712,337.489,358.949,337.119ZM378.789,333.915L365.563,326.521C364.8,326.151,364.164,325.042,364.164,324.056C364.164,323.07,364.673,322.701,365.436,323.07L378.662,330.464C379.425,330.834,380.06,331.943,380.06,332.929C380.188,333.915,379.552,334.284,378.789,333.915ZM378.407,326.521L355.389,313.705C354.626,313.335,353.99,312.226,353.99,311.24C353.99,310.254,354.499,309.885,355.262,310.254L378.28,323.071C379.043,323.44,379.679,324.549,379.679,325.535C379.679,326.521,379.17,326.891,378.407,326.521ZM368.869,335.517L355.643,328.123C354.88,327.753,354.244,326.644,354.244,325.658C354.244,324.672,354.753,324.303,355.516,324.672L368.742,332.066C369.505,332.436,370.14,333.545,370.14,334.531C370.14,335.517,369.632,335.887,368.869,335.517ZM388.835,339.46L384.002,336.749C383.239,336.379,382.604,335.27,382.604,334.284C382.604,333.299,383.112,332.929,383.875,333.299L388.708,336.01C389.471,336.379,390.107,337.489,390.107,338.474C390.107,339.46,389.598,339.953,388.835,339.46Z" stroke-linejoin="round" transform="translate(24.044599533081055,-53.544498443603516)  translate(-372.947,0) translate(0,-284.807)"/>
    </g>
    <path fill="#D4ECFF" d="M429.02,503.729L443.644,495.595L458.269,503.729L443.644,511.862L429.02,503.729ZM460.049,486.106L474.673,477.973L489.298,486.106L474.673,494.363L460.049,486.106ZM490.951,468.977L505.576,460.844L520.2,468.977L505.576,477.11L490.951,468.977Z"/>
    <path fill="#C13D1A" d="M474.673,486.107L474.673,442.482L460.049,434.349L460.049,477.973L474.673,486.107Z"/>
    <path fill="#D55053" d="M474.676,442.482L489.3,434.349L489.3,477.973L474.676,486.107L474.676,442.482ZM474.673,486.107L474.673,442.482L460.049,434.349L460.049,477.973L474.673,486.107ZM443.644,503.729L443.644,479.206L429.02,471.072L429.02,495.595L443.644,503.729ZM443.645,479.206L458.269,471.072L458.269,495.595L443.645,503.729L443.645,479.206Z"/>
    <path fill="#F55D61" d="M429.02,471.072L443.644,462.816L458.269,471.072L443.644,479.206L429.02,471.072Z"/>
    <path fill="#D55053" d="M505.576,468.977L505.576,408.963L490.951,400.83L490.951,460.844L505.576,468.977ZM505.578,408.963L520.203,400.83L520.203,460.844L505.578,468.977L505.578,408.963Z"/>
    <path fill="#F55D61" d="M490.951,400.83L505.576,392.573L520.2,400.83L505.576,408.963L490.951,400.83ZM460.049,434.349L474.673,426.216L489.298,434.349L474.673,442.482L460.049,434.349Z"/>
    <path fill="#5793CE" d="M220.97,421.903C220.97,421.903,216.519,419.685,213.721,423.012C210.924,426.339,206.981,434.103,206.854,439.279C206.727,444.578,211.178,444.208,213.721,442.975C216.392,441.743,224.022,431.022,224.404,428.927C224.912,426.832,223.895,423.998,223.132,423.382C222.496,422.765,220.97,421.903,220.97,421.903Z"/>
    <path fill="#D4ECFF" d="M221.987,420.794L222.242,425.353C222.242,426.339,221.733,427.202,220.97,427.695C220.207,428.188,219.062,428.434,217.536,428.188C214.103,427.695,213.848,426.709,213.594,422.149C213.213,417.713,221.987,420.794,221.987,420.794Z"/>
    <path fill="#5793CE" d="M204.437,413.153C204.437,413.153,199.986,410.935,197.188,414.262C194.39,417.59,190.448,425.353,190.321,430.529C190.194,435.828,194.645,435.458,197.188,434.226C199.859,432.994,207.489,422.272,207.871,420.177C208.379,418.083,207.362,415.248,206.599,414.632C205.963,414.016,204.437,413.153,204.437,413.153Z"/>
    <path fill="#D4ECFF" d="M205.454,412.167L205.709,416.727C205.709,417.713,205.2,418.576,204.437,419.068C203.674,419.561,202.529,419.808,201.003,419.561C197.57,419.068,197.315,418.083,197.061,413.523C196.679,408.963,205.454,412.167,205.454,412.167Z"/>
    <path fill="#173D7A" d="M245.768,328.986C244.369,307.913,222.242,332.067,222.242,332.067L207.108,346.485L193.374,361.026C190.703,363.86,189.432,367.681,189.94,371.501L195.536,412.291C195.79,414.262,197.57,415.741,199.732,415.741C200.368,415.741,201.004,415.741,201.767,415.618C206.727,414.879,206.345,410.319,206.345,410.319L205.328,372.117L234.068,355.357C233.941,355.481,247.04,350.058,245.768,328.986Z"/>
    <path fill="#173D7A" d="M262.299,336.996C260.901,315.923,238.773,340.077,238.773,340.077L223.64,354.495L209.905,369.036C207.234,371.871,205.963,375.691,206.471,379.511L212.067,420.301C212.321,422.273,214.102,423.751,216.264,423.751C216.899,423.751,217.535,423.751,218.298,423.628C223.258,422.889,222.876,418.329,222.876,418.329L221.859,380.127L250.473,363.491C250.473,363.491,263.571,358.069,262.299,336.996Z"/>
    <path fill="#5793CE" d="M249.075,269.341C265.862,276.119,265.608,285.731,265.608,285.731C265.608,285.731,262.301,321.099,263.446,344.636C263.954,354.495,209.398,355.234,217.537,328.986C227.075,297.931,223.514,272.792,228.092,268.972C232.416,265.275,244.752,267.616,249.075,269.341Z"/>
    <path fill="#FFC2B0" d="M254.557,277.899C255.433,274.604,252.394,270.996,247.769,269.842C243.144,268.688,238.684,270.424,237.808,273.719C236.933,277.015,239.972,280.622,244.597,281.776C249.222,282.93,253.681,281.194,254.557,277.899Z"/>
    <path fill="#fff" d="M247.42,282.897C246.403,282.897,245.386,282.774,244.368,282.527C241.952,281.911,239.917,280.679,238.518,279.077C237.12,277.351,236.484,275.38,236.992,273.531C238.01,269.834,242.969,267.862,247.929,269.095C250.345,269.711,252.38,270.943,253.779,272.545C255.178,274.271,255.814,276.242,255.305,278.091C254.542,281.048,251.235,282.897,247.42,282.897ZM244.877,270.204C241.698,270.204,239.154,271.559,238.518,273.901C238.137,275.256,238.518,276.735,239.663,278.091C240.807,279.446,242.588,280.555,244.75,281.048C248.946,282.157,253.016,280.555,253.779,277.721C254.16,276.365,253.779,274.887,252.634,273.531C251.49,272.176,249.709,271.066,247.548,270.574C246.657,270.327,245.767,270.204,244.877,270.204Z"/>
    <path fill="#FFC2B0" d="M242.334,268.602C242.334,268.602,242.461,269.218,242.207,274.394C242.08,275.996,247.93,277.598,249.456,276.119C250.982,274.64,250.346,273.161,250.728,267.616C251.109,262.071,242.334,268.602,242.334,268.602Z"/>
    <path fill="#EA9C92" d="M250.854,267.616C250.854,267.616,249.456,272.792,242.334,274.764L242.461,270.081L250.854,267.616Z"/>
    <path fill="#FFC2B0" d="M245.976,269.945C252.912,268.208,257.082,261.35,255.288,254.629C253.495,247.908,246.419,243.868,239.483,245.605C232.547,247.343,228.377,254.2,230.171,260.921C231.964,267.643,239.04,271.683,245.976,269.945Z"/>
    <path fill="#EA9C92" d="M245.768,258.127C245.768,258.127,238.647,261.085,233.687,261.085C228.727,261.085,229.872,257.141,229.872,257.141L244.497,255.046L245.768,258.127Z"/>
    <path fill="#F55D61" d="M232.16,258.99C232.16,258.99,238.392,256.402,243.86,257.511C245.132,257.758,246.276,258.374,247.166,259.36C247.421,259.729,247.802,259.976,248.184,260.099C249.201,260.345,250.727,256.402,252.635,256.279C254.542,256.156,255.814,257.511,254.288,259.853C252.762,262.194,253.271,264.905,254.034,265.275C254.797,265.644,262.3,260.099,255.687,247.406C248.82,234.713,232.033,241.491,229.363,244.079C229.363,244.079,226.565,246.42,224.403,244.325C224.403,244.325,221.86,262.687,232.16,258.99Z"/>
    <path fill="#396CAA" d="M255.051,292.263C255.051,292.263,252.635,304.709,252.508,310.624C252.508,312.226,253.525,313.705,255.051,314.198L255.051,292.263Z"/>
    <path fill="#5793CE" d="M190.83,348.949L189.686,348.826L189.686,351.414C189.686,351.784,189.813,352.03,190.321,352.277L190.957,352.646L190.957,348.949L190.83,348.949Z"/>
    <path fill="#fff" d="M223.387,370.885C224.277,371.254,225.549,371.131,226.439,370.761L226.439,366.325L223.387,366.325L223.387,370.885Z"/>
    <path fill="#FFC2B0" d="M214.102,334.655L213.72,336.873C213.466,338.721,213.466,340.693,213.847,342.541L214.229,344.513C214.483,345.622,215.373,346.485,216.518,346.608C217.408,346.731,218.171,346.115,218.298,345.252L218.807,340.57C218.807,340.57,220.079,342.172,220.587,342.172C221.223,342.172,219.952,337.489,218.553,334.778C217.408,332.19,214.102,334.655,214.102,334.655Z"/>
    <path fill="#5793CE" d="M187.777,322.947L187.014,321.961L188.54,321.099C188.794,320.852,189.176,320.975,189.684,321.222L190.32,321.592L187.777,322.947Z"/>
    <g id="laptop" transform="translate(218.172,346.102) translate(-31.6655,-24.8917)">
        <path fill="#396CAA" d="M228.091,344.143L226.056,343.034L203.42,343.034L192.356,349.196L189.686,348.826L189.686,351.414C189.686,351.784,189.813,352.03,190.321,352.277L223.004,370.638C223.513,370.885,224.149,371.008,224.912,371.008L228.091,344.143Z" transform="translate(-186.506,-321.21)"/>
        <path fill="#396CAA" d="M201.891,356.713L199.856,355.604L188.538,336.626L188.538,324.18L186.885,322.085L188.411,321.222C188.665,320.976,189.047,321.099,189.555,321.345L222.238,339.707C222.747,339.954,223.128,340.446,223.51,341.063L201.891,356.713Z" transform="translate(-186.506,-321.21)"/>
        <path fill="#5793CE" d="M249.837,354.372L245.386,353.755L216.391,337.612C215.501,337.119,213.848,337.119,212.831,337.735L192.356,349.196L189.686,348.826L189.686,351.414C189.686,351.784,189.813,352.03,190.321,352.277L223.004,370.638C223.894,371.131,225.548,371.131,226.565,370.515L248.82,358.068C249.456,357.699,249.71,357.329,249.71,356.836L249.71,354.372L249.837,354.372Z" transform="translate(-186.506,-321.21)"/>
        <path fill="#fff" d="M223.005,368.05L190.322,349.689C189.432,349.196,189.559,348.21,190.576,347.717L212.831,335.271C213.848,334.654,215.502,334.654,216.392,335.147L249.075,353.509C249.965,354.002,249.838,354.988,248.82,355.481L226.566,367.927C225.548,368.543,223.895,368.543,223.005,368.05Z" transform="translate(-186.506,-321.21)"/>
        <path fill="#D4ECFF" d="M222.497,365.339L195.282,350.058C194.519,349.689,194.646,348.826,195.537,348.333L207.491,341.802C208.381,341.309,209.78,341.309,210.543,341.679L237.757,356.959C238.52,357.329,238.393,358.192,237.503,358.685L225.549,365.216C224.532,365.709,223.26,365.709,222.497,365.339Z" transform="translate(-186.506,-321.21)"/>
        <path fill="#173D7A" d="M221.857,369.898L219.059,366.448L190.191,350.304C189.301,349.811,188.538,348.332,188.538,347.223L188.538,324.302L186.885,322.207L188.411,321.345C188.665,321.098,189.047,321.221,189.555,321.468L222.238,339.829C223.128,340.322,223.891,341.801,223.891,342.91L223.891,367.803C223.891,368.419,223.637,368.912,223.256,369.159L221.857,369.898Z" transform="translate(-186.506,-321.21)"/>
        <path fill="#5793CE" d="M220.842,340.446L188.159,322.084C187.269,321.591,186.506,322.084,186.506,323.317L186.506,348.21C186.506,349.442,187.269,350.798,188.159,351.29L220.842,369.652C221.732,370.145,222.495,369.652,222.495,368.42L222.495,343.527C222.495,342.418,221.732,341.062,220.842,340.446Z" transform="translate(-186.506,-321.21)"/>
    </g>
    <g id="left-hand" transform=" translate(265.5,0) translate(0,312) rotate(4.25358687) translate(-35.7453,0) translate(0,-2.84066)">
        <path fill="#FFC2B0" d="M256.195,311.61L256.195,321.222C256.195,322.331,255.686,323.317,254.923,324.056L234.214,342.152L236.865,345.376L263.571,326.644C264.843,325.782,265.606,324.426,265.733,322.947L267.513,306.311L256.195,311.61Z" transform="translate(-225.969,-306.311)"/>
        <path fill="#FFC2B0" d="M236.865,345.375L236.356,346.485C235.72,347.717,234.83,348.703,233.558,349.442L230.252,351.414C229.235,352.03,227.963,352.03,226.946,351.537C226.946,351.537,226.818,351.537,226.818,351.414C225.801,350.798,225.674,349.319,226.564,348.456L229.998,345.129C229.998,345.129,228.09,346.485,227.581,345.992C227.2,345.622,229.489,343.527,231.142,343.527C232.923,343.404,234.214,342.152,234.214,342.152L236.865,345.375Z" transform="translate(-225.969,-306.311)"/>
    </g>
    <path id="skirtleftarms" fill="#5793CE" d="M264.206,281.048C264.206,281.048,270.311,290.044,272.6,313.582C272.6,313.582,262.044,316.909,256.195,315.06C250.218,313.089,264.206,281.048,264.206,281.048Z"/>
    <path id="right-hand" fill="#FFC2B0" d="M225.167,299.903L221.606,306.681C220.716,308.283,220.334,310.008,220.207,311.733L218.681,334.778L214.103,334.654L212.068,308.776C211.941,308.036,212.068,307.174,212.195,306.434L214.612,293.372L225.167,299.903Z" transform=" translate(217.5,0) translate(0,296.5) rotate(8.5464887) translate(-219.527,0) translate(0,-297.013)"/>
    <path id="skirtrightarms" fill="#5793CE" d="M228.344,268.972C228.344,268.972,215.882,282.158,210.922,294.111C210.922,294.111,215.119,301.505,225.546,304.463C235.974,307.42,228.344,268.972,228.344,268.972Z"/>
    <path fill="#396CAA" d="M223.13,303.723L225.164,284.869L220.459,302.614C221.222,302.984,222.239,303.353,223.13,303.723Z"/>
    <path fill="#fff" d="M237.629,266.384L234.322,265.521C234.322,265.521,235.975,267.986,238.265,268.602C240.554,269.218,240.935,267.369,240.935,267.369L237.629,266.384ZM253.652,263.056C254.705,263.056,255.559,262.229,255.559,261.208C255.559,260.187,254.705,259.359,253.652,259.359C252.598,259.359,251.744,260.187,251.744,261.208C251.744,262.229,252.598,263.056,253.652,263.056Z"/>
    <path id="_a1" fill="#F55D61" d="M533.553,268.109L527.957,257.018L539.402,251.596L544.998,262.687L533.553,268.109ZM531.391,258.127L534.697,264.782L541.564,261.578L538.258,254.923L531.391,258.127Z" transform=" translate(536.477,0) translate(0,259.853) rotate(282.996) translate(-536.477,0) translate(0,-259.853)"/>
    <path fill="#D4ECFF" d="M292.948,478.836C280.485,471.812,260.265,471.812,247.802,478.836C235.339,485.86,235.339,497.074,247.802,504.099C260.265,511.123,280.485,511.123,292.948,504.099C305.41,497.074,305.41,485.737,292.948,478.836ZM280.739,497.198C275.017,500.402,265.733,500.402,260.011,497.198C254.288,493.994,254.288,488.818,260.011,485.614C265.733,482.41,275.017,482.41,280.739,485.614C286.462,488.818,286.462,493.994,280.739,497.198Z"/>
    <path fill="#D55053" d="M243.097,474.646L254.543,474.769C255.433,473.66,256.577,472.674,258.103,471.811C264.335,468.361,274.254,467.991,280.994,470.949L287.734,464.787L298.162,464.911C297.654,464.541,297.145,464.294,296.509,463.925C282.011,455.791,258.612,455.791,244.115,463.925C241.444,465.403,239.282,467.129,237.629,468.854L243.097,474.646Z"/>
    <path fill="#D55053" d="M298.162,449.014L298.162,465.034L287.734,464.911L287.734,448.891L298.162,449.014Z"/>
    <path fill="#D55053" d="M280.996,455.052L280.996,471.072L287.736,464.911L287.736,448.891L280.996,455.052ZM254.416,458.749L254.416,474.769L269.422,462.939L280.994,471.072L280.994,455.052L270.312,450C270.312,450,255.687,454.313,254.924,454.559C254.161,454.806,254.416,458.749,254.416,458.749Z"/>
    <path fill="#D55053" d="M243.098,458.626L243.098,474.646L254.416,474.769L254.416,458.749L243.098,458.626ZM237.629,452.957L237.629,468.977L243.097,474.646L243.097,458.626L237.629,452.957Z"/>
    <path fill="#F55D61" d="M243.097,458.626L254.543,458.749C255.433,457.64,256.577,456.654,258.103,455.792C264.335,452.341,274.254,451.971,280.994,454.929L287.734,448.767L298.162,448.891C297.654,448.521,297.145,448.274,296.509,447.905C282.011,439.771,258.612,439.771,244.115,447.905C241.444,449.383,239.282,451.109,237.629,452.834L243.097,458.626Z"/>
    <path fill="#5793CE" d="M284.428,457.024L284.428,471.689L294.22,469.347C294.22,469.347,293.584,460.721,293.457,460.474C293.33,460.228,284.428,457.024,284.428,457.024Z"/>
    <path fill="#173D7A" d="M276.924,471.688L276.924,487.709L277.941,488.818L284.936,484.998C284.936,484.998,283.918,472.798,283.791,472.551C283.664,472.305,276.924,471.688,276.924,471.688Z"/>
    <path fill="#396CAA" d="M290.404,467.622L284.427,473.044C289.387,476.864,288.751,482.163,282.647,485.614C280.993,486.599,279.086,487.216,276.924,487.708L283.028,494.117L277.56,499.046C284.427,498.306,291.04,496.335,296.508,493.377C308.971,486.476,310.624,475.755,301.722,467.745L290.404,467.622Z"/>
    <path fill="#396CAA" d="M277.688,483.026L277.688,499.046L291.168,493.993L307.445,478.959L307.318,461.953L290.15,475.262L277.688,483.026Z"/>
    <path fill="#D4ECFF" d="M290.404,451.602L284.427,457.024C289.387,460.844,288.751,466.143,282.647,469.593C280.993,470.579,279.086,471.195,276.924,471.688L283.028,478.096L277.56,483.026C284.427,482.286,291.04,480.315,296.508,477.357C308.971,470.456,310.624,459.735,301.722,451.725L290.404,451.602Z"/>
    <path fill="#396CAA" d="M277.56,493.994L272.092,488.448C267.005,488.695,261.791,487.832,257.976,485.614C254.034,483.396,252.38,480.315,253.016,477.481L240.045,477.234L235.085,472.058C230.761,479.329,233.686,487.586,243.987,493.378C251.49,497.567,261.537,499.662,271.456,499.416L277.56,493.994Z"/>
    <path fill="#396CAA" d="M271.583,483.519L271.583,499.539L233.305,478.959L233.305,462.816L238.9,465.034L271.583,483.519Z"/>
    <path fill="#173D7A" d="M277.561,477.974L277.561,493.994L271.584,499.539L271.584,483.519L277.561,477.974Z"/>
    <path fill="#5793CE" d="M277.56,477.973L272.092,472.428C267.005,472.674,261.791,471.812,257.976,469.594C254.034,467.375,252.38,464.295,253.016,461.46L240.045,461.214L235.085,456.038C230.761,463.309,233.686,471.565,243.987,477.357C251.49,481.547,261.537,483.642,271.456,483.396L277.56,477.973Z"/>
    <path fill="#fff" d="M125.993,152.229C121.415,152.229,117.727,148.655,117.727,144.219C117.727,139.783,121.415,136.209,125.993,136.209C130.571,136.209,134.259,139.783,134.259,144.219C134.259,148.655,130.571,152.229,125.993,152.229ZM125.993,138.674C122.813,138.674,120.27,141.138,120.27,144.219C120.27,147.3,122.813,149.765,125.993,149.765C129.172,149.765,131.715,147.3,131.715,144.219C131.715,141.138,129.172,138.674,125.993,138.674Z"/>
    <path fill="#D55053" d="M439.575,208.834L405.62,189.857C404.984,189.487,404.348,189.487,403.84,189.733L400.533,191.582C400.533,191.582,401.932,192.075,402.822,192.444L402.822,216.475C402.822,218.446,404.094,220.665,405.62,221.527L438.176,239.766L438.176,242.6L441.482,240.751C441.991,240.382,442.372,239.642,442.372,238.656L442.372,213.887C442.372,211.915,441.101,209.697,439.575,208.834Z"/>
    <path fill="#F55D61" d="M436.268,242.353L402.313,223.376C400.787,222.513,399.516,220.295,399.516,218.323L399.516,193.677C399.516,191.705,400.787,190.842,402.313,191.705L436.268,210.683C437.794,211.545,439.066,213.763,439.066,215.735L439.066,240.258C439.066,242.23,437.794,243.093,436.268,242.353Z"/>
    <path fill="#fff" d="M413.76,214.873C413.76,216.352,412.742,216.845,411.471,216.105C410.199,215.366,409.182,213.64,409.182,212.285C409.182,210.806,410.199,210.313,411.471,211.053C412.615,211.669,413.76,213.394,413.76,214.873ZM420.627,218.693C420.627,220.172,419.61,220.665,418.338,219.925C417.066,219.186,416.049,217.461,416.049,216.105C416.049,214.626,417.066,214.134,418.338,214.873C419.61,215.612,420.627,217.338,420.627,218.693ZM427.621,222.636C427.621,224.115,426.604,224.608,425.332,223.869C424.06,223.129,423.043,221.404,423.043,220.049C423.043,218.57,424.06,218.077,425.332,218.816C426.604,219.432,427.621,221.158,427.621,222.636Z"/>
    <path fill="#5793CE" d="M274.253,171.372L240.934,152.764C240.298,152.394,239.663,152.394,239.154,152.641L235.975,154.489C235.975,154.489,237.373,154.982,238.264,155.352L238.264,178.889C238.264,180.861,239.408,183.079,240.934,183.818L272.854,201.687L272.854,204.398L276.161,202.55C276.669,202.18,277.051,201.564,277.051,200.455L277.051,176.424C276.924,174.453,275.779,172.234,274.253,171.372Z"/>
    <path fill="#D4ECFF" d="M270.946,204.275L237.628,185.543C236.102,184.681,234.957,182.463,234.957,180.614L234.957,156.584C234.957,154.612,236.102,153.75,237.628,154.612L270.946,173.22C272.472,174.083,273.617,176.301,273.617,178.149L273.617,202.18C273.617,204.151,272.472,205.014,270.946,204.275Z"/>
    <path fill="#fff" d="M248.818,177.287C248.818,178.642,247.801,179.259,246.529,178.519C245.258,177.78,244.24,176.178,244.24,174.699C244.24,173.343,245.258,172.727,246.529,173.467C247.801,174.206,248.818,175.931,248.818,177.287ZM255.686,181.107C255.686,182.463,254.668,183.079,253.396,182.34C252.125,181.6,251.107,179.998,251.107,178.519C251.107,177.164,252.125,176.548,253.396,177.287C254.668,178.026,255.686,179.752,255.686,181.107ZM262.553,184.927C262.553,186.283,261.535,186.899,260.264,186.159C258.992,185.42,257.975,183.818,257.975,182.339C257.975,180.984,258.992,180.367,260.264,181.107C261.535,181.846,262.553,183.571,262.553,184.927Z"/>
    <path fill="#D4ECFF" d="M90.977,353.051C94.2781,353.051,96.9541,350.457,96.9541,347.259C96.9541,344.06,94.2781,341.467,90.977,341.467C87.676,341.467,85,344.06,85,347.259C85,350.457,87.676,353.051,90.977,353.051ZM471.114,144.137C475.047,144.137,478.235,141.048,478.235,137.236C478.235,133.425,475.047,130.335,471.114,130.335C467.181,130.335,463.992,133.425,463.992,137.236C463.992,141.048,467.181,144.137,471.114,144.137Z"/>
    <script><![CDATA[/*
 KeyshapeJS v1.1.0 (c) 2018-2019 Pixofield Ltd | pixofield.com/keyshapejs/mit-license */
window.KeyshapeJS=function(){function t(a){return"undefined"!==typeof a}function x(a,b){return a&&0==a.indexOf(b)}function H(a){if(!isFinite(a))throw Error("Non-finite value");}function R(a){if(14>=a)return 16;var b=S[a];b||(b=t(ca[a])?0|(a.toLowerCase().indexOf("color")==a.length-5?48:0):1);return b}function K(a){return 0<=a?Math.pow(a,1/3):-Math.pow(-a,1/3)}function da(a,b,c,d){if(0==a)return 0==b?b=-d/c:(a=Math.sqrt(c*c-4*b*d),d=(-c+a)/(2*b),0<=d&&1>=d?b=d:(d=(-c-a)/(2*b),b=0<=d&&1>=d?d:0)),b;
var e=c/a-b*b/(a*a)/3;c=b*b*b/(a*a*a)/13.5-b*c/(a*a)/3+d/a;var n=c*c/4+e*e*e/27;b=-b/(3*a);if(0>=n){if(0==e&&0==c)return-K(d/a);a=Math.sqrt(c*c/4-n);d=Math.acos(-c/2/a);c=Math.cos(d/3);d=Math.sqrt(3)*Math.sin(d/3);a=K(a);e=2*a*c+b;if(0<=e&&1>=e)return e;e=-a*(c+d)+b;if(0<=e&&1>=e)return e;e=a*(d-c)+b;if(0<=e&&1>=e)return e}else{a=K(-c/2+Math.sqrt(n));c=K(-c/2-Math.sqrt(n));d=a+c+b;if(0<=d&&1>=d)return d;d=-(a+c)/2+b;if(0<=d&&1>=d)return d}return 0}function ea(a,b){if(48==a&&"number"===typeof b)return"rgba("+
(b>>>24)+","+(b>>>16&255)+","+(b>>>8&255)+","+(b&255)/255+")";if(64==a)return b=b.map(function(a){return a+"px"}),b.join(",");if(96==a){a="";for(var c=b.length,d=0;d<c;d+=2)a+=b[d],a+=b[d+1].join(",");return a}if(80==a){if(0==b[0])return"none";a="";c=b.length;for(d=0;d<c;)a+=T[b[d]],1==b[d]?a+="("+b[d+1]+") ":5==b[d]?(a+="("+b[d+1]+"px "+b[d+2]+"px "+b[d+3]+"px rgba("+(b[d+4]>>>24)+","+(b[d+4]>>16&255)+","+(b[d+4]>>8&255)+","+(b[d+4]&255)/255+")) ",d+=3):a=2==b[d]?a+("("+b[d+1]+"px) "):7==b[d]?a+
("("+b[d+1]+"deg) "):a+("("+(0>b[d+1]?0:b[d+1])+") "),d+=2;return a}return 32==a?b+"px":b}function y(a){return 0>=a?0:255<=a?255:a}function fa(a,b,c,d){if(16==a||32==a)return(c-b)*d+b;if(0==a)return.5>d?b:c;if(48==a){if("number"===typeof b&&"number"===typeof c){var e=1-d;return(y(e*(b>>>24)+d*(c>>>24))<<24|y(e*(b>>>16&255)+d*(c>>>16&255))<<16|y(e*(b>>>8&255)+d*(c>>>8&255))<<8|y(e*(b&255)+d*(c&255)))>>>0}return.5>d?b:c}if(64==a){0==b.length&&(b=[0]);0==c.length&&(c=[0]);var n=b.length;b.length!=c.length&&
(n=b.length*c.length);var l=[];for(a=0;a<n;++a){var f=b[a%b.length];var h=(c[a%c.length]-f)*d+f;0>h&&(h=0);l.push(h)}return l}if(96==a){if(b.length!=c.length)return.5>d?b:c;n=b.length;l=[];for(a=0;a<n;a+=2){if(b[a]!==c[a])return.5>d?b:c;l[a]=b[a];l[a+1]=[];for(f=0;f<b[a+1].length;++f)l[a+1].push((c[a+1][f]-b[a+1][f])*d+b[a+1][f])}return l}if(80==a){n=b.length;if(n!=c.length)return.5>d?b:c;l=[];for(a=0;a<n;){if(b[a]!=c[a]||1==b[a])return.5>d?b:c;l[a]=b[a];l[a+1]=(c[a+1]-b[a+1])*d+b[a+1];if(5==b[a]){l[a+
2]=(c[a+2]-b[a+2])*d+b[a+2];l[a+3]=(c[a+3]-b[a+3])*d+b[a+3];e=1-d;var g=b[a+4],q=c[a+4];h=e*(g>>>24)+d*(q>>>24);var m=e*(g>>16&255)+d*(q>>16&255);f=e*(g>>8&255)+d*(q>>8&255);e=e*(g&255)+d*(q&255);l[a+4]=(y(m)<<16|y(f)<<8|y(e))+16777216*(y(h)|0);a+=3}a+=2}return l}return 0}function U(a,b){a:{var c=a+b[2];var d=b[4].length;for(var e=0;e<d;++e)if(c<b[4][e]){c=e;break a}c=d-1}d=b[2];e=b[4][c-1]-d;a=(a-e)/(b[4][c]-d-e);if(b[6]&&b[6].length>c-1)if(d=b[6][c-1],1==d[0])if(0>=a)a=0;else if(1<=a)a=1;else{e=
d[1];var n=d[3];a=da(3*e-3*n+1,-6*e+3*n,3*e,-a);a=3*a*(1-a)*(1-a)*d[2]+3*a*a*(1-a)*d[4]+a*a*a}else 2==d[0]?(d=d[1],a=Math.ceil(a*d)/d):3==d[0]&&(d=d[1],a=Math.floor(a*d)/d);return fa(b[1]&240,b[5][c-1],b[5][c],a)}function L(){u||(v=(new Date).getTime()+V)}function O(a){if(a||!E){for(var b=!1,c=0;c<w.length;++c)w[c].J(a)&&(b=!0);if(a)for(;0<I.length;)if(a=I.shift(),c=a[0],1==a[1])c.onfinish&&(c.onfinish(),b=!0),c.I();else if(2==a[1]&&c.onloop)c.onloop();return b}}function W(){L();O(!0)&&!u?(E=!0,M(W)):
E=!1}function N(){E||(E=!0,M(W))}function X(a,b){var c=[];a.split(b).forEach(function(a){c.push(parseFloat(a))});return c}function A(a){-1==a.indexOf(",")&&(a=a.replace(" ",","));return X(a,",")}function Y(a){a._ks||(a._ks={});if(!a._ks.transform){for(var b=a._ks.transform=[],c=0;14>=c;++c)b[c]=0;b[10]=1;b[11]=1;if(a=a.getAttribute("transform")){a=a.trim().split(") ");for(c=a.length-2;0<=c;--c)if(x(a[c],"translate(")){for(var d=0;d<c;d++)a.shift();break}c=a.shift();x(c,"translate(")&&(c=A(c.substring(10)),
b[1]=c[0],b[2]=t(c[1])?c[1]:0,c=a.shift());x(c,"rotate(")&&(c=A(c.substring(7)),b[6]=c[0],c=a.shift());x(c,"skewX(")&&(c=A(c.substring(6)),b[7]=c[0],c=a.shift());x(c,"skewY(")&&(c=A(c.substring(6)),b[8]=c[0],c=a.shift());x(c,"scale(")&&(c=A(c.substring(6)),b[10]=c[0],b[11]=t(c[1])?c[1]:c[0],c=a.shift());x(c,"translate(")&&(c=A(c.substring(10)),b[13]=c[0],b[14]=t(c[1])?c[1]:0)}}}function Z(a){this.l=a;this.A=[];this.C=[];this.v=0;this.s=this.a=this.c=null;this.h=this.f=this.g=0;this.b=1;this.i=this.F=
this.o=!1}function J(a,b,c){b=a[b];void 0===b&&(b=a[c]);return b}function ha(a){return Array.isArray(a)?a:x(a,"cubic-bezier(")?(a=a.substring(13,a.length-1).split(","),[1,parseFloat(a[0]),parseFloat(a[1]),parseFloat(a[2]),parseFloat(a[3])]):x(a,"steps(")?(a=a.substring(6,a.length-1).split(","),[a[1]&&"start"==a[1].trim()?2:3,parseFloat(a[0])]):[0]}function ia(a){a=a.trim();return x(a,"#")?(parseInt(a.substring(1),16)<<8)+255:x(a,"rgba(")?(a=a.substring(5,a.length-1),a=a.split(","),(parseInt(a[0],
10)<<24)+(parseInt(a[1],10)<<16)+(parseInt(a[2],10)<<8)+255*parseFloat(a[3])<<0):a}function aa(a){!1===a.i&&(w.push(a),a.i=!0,!1!==a.l.autoplay&&a.play());return this}function P(a){if(!0===a.i){a._cancel();var b=w.indexOf(a);-1<b&&w.splice(b,1);b=I.indexOf(a);-1<b&&I.splice(b,1);a.i=!1}return this}var Q=Error("Not in timeline list"),ba="mpath posX posY    rotate skewX skewY  scaleX scaleY  anchorX anchorY".split(" "),ja=" translate translate    rotate skewX skewY  scale scale  translate translate".split(" "),
T="none url blur brightness contrast drop-shadow grayscale hue-rotate invert opacity saturate sepia".split(" "),M=window.requestAnimationFrame||window.webkitRequestAnimationFrame||window.mozRequestAnimationFrame||window.oRequestAnimationFrame||window.msRequestAnimationFrame||null;M||(M=function(a){window.setTimeout(a,16)});var S={d:97,fill:48,fillOpacity:16,filter:80,height:33,opacity:16,offsetDistance:33,stroke:48,strokeDasharray:64,strokeDashoffset:32,strokeOpacity:16,strokeWidth:32,transform:1,
width:33},ca=window.getComputedStyle(document.documentElement),E=!1,v=(new Date).getTime(),u,V=0,w=[],I=[];Z.prototype={B:function(a){var b=0;if(null!==this.c){var c=this.j();0<this.b&&null!==c&&c>=this.f?this.h?(this.c=v-this.g/this.b,this.h--,b=2):(b=1,a?this.a=c:this.a=this.s?Math.max(this.s,this.f):this.f):0>this.b&&null!==c&&c<=this.g?this.h&&Infinity!=this.f?(this.c=v-this.f/this.b,this.h--,b=2):(this.h=0,b=1,a?this.a=c:this.a=this.s?Math.min(this.s,this.g):this.g):null!==c&&0!=this.b&&(a&&
null!==this.a&&(this.c=v-this.a/this.b),this.a=null)}this.s=this.j();return b},J:function(a){a&&(this.o&&(this.o=!1,null===this.c&&(0!=this.b&&null!==this.a?(this.c=v-this.a/this.b,this.a=null):this.c=v)),null===this.a&&null!==this.c&&(a=this.B(!1),0!=a&&I.push([this,a])));a=this.j();if(null===a)return!1;for(var b=this.A,c=this.C,d=0;d<b.length;++d){for(var e=b[d],n=!1,l=0;l<c[d].length;++l){var f=c[d][l],h=f[0];if(null!==h){var g=f[2];var q=f[4].length,m=f[4][q-1]-g;g=0==m?f[5][q-1]:a<=g?f[5][0]:
a>=g+f[3]?0==f[3]%m?f[5][q-1]:U(f[3]%m,f):U((a-g)%m,f);0==h?(e._ks.mpath=f[8],e._ks.transform[h]=g,n=!0):14>=h?(e._ks.transform[h]=g,n=!0):(g=ea(f[1]&240,g),f[1]&1?e.setAttribute(h,g):e.style[h]=g)}}if(n){Y(e);n=e._ks.transform;l="";if(f=e._ks.mpath)g=n[0],0>g&&(g=0),100<g&&(g=100),g=g*f[2]/100,h=f[1].getPointAtLength(g),l="translate("+h.x+","+h.y+") ",f[0]&&(.5>g?(g=h,h=f[1].getPointAtLength(.5)):g=f[1].getPointAtLength(g-.5),l+="rotate("+180*Math.atan2(h.y-g.y,h.x-g.x)/Math.PI+") ");for(f=1;f<n.length;++f)h=
n[f],h!=(10==f||11==f?1:0)&&(l+=" "+ja[f]+"(",l=2>=f?l+(1==f?h+",0":"0,"+h):13<=f?l+(13==f?h+",0":"0,"+h):10<=f?l+(10==f?h+",1":"1,"+h):l+h,l+=")");e.setAttribute("transform",l)}}return"running"==this.m()},I:function(){!1!==this.l.autoremove&&"finished"==this.m()&&P(this)},D:function(){if(!this.F){this.F=!0;for(var a=this.A,b=this.C,c=0;c<a.length;++c)for(var d=a[c],e=0;e<b[c].length;++e)14>=b[c][e][0]&&Y(d)}},u:function(a){if("number"==typeof a)return a;if(!t(this.l.markers)||!t(this.l.markers[a]))throw Error("Invalid marker: "+
a);return+this.l.markers[a]},play:function(a){t(a)&&null!==a&&(a=this.u(a),H(a),0>this.b&&a<this.g&&(a=this.g),0<this.b&&a>this.f&&(a=this.f),this.w(a,!0));if(!this.i)throw Q;a=this.j();if(0<this.b&&(null===a||a>=this.f))this.a=this.g;else if(0>this.b&&(null===a||a<=this.g)){if(Infinity==this.f)throw Error("Cannot seek to Infinity");this.a=this.f}else 0==this.b&&null===a&&(this.a=this.g);if(null===this.a)return this;this.c=null;this.o=!0;this.D();N();return this},pause:function(a){if(!this.i)throw Q;
t(a)&&(a=this.u(a),H(a));if("paused"!=this.m()){L();var b=this.j();if(null===b)if(0<=this.b)this.a=this.g;else{if(Infinity==this.f)throw Error("Cannot seek to Infinity");this.a=this.f}null!==this.c&&null===this.a&&(this.a=b);this.c=null;this.o=!1;this.B(!1);this.D();N()}t(a)&&this.w(a,!0);return this},range:function(a,b){if(0==arguments.length)return{"in":this.g,out:this.f};var c=this.u(a),d=this.v;t(b)&&(d=this.u(b));H(c);if(0>c||0>d||c>=d||isNaN(d))throw Error("Invalid range");var e=this.m();this.g=
c;this.f=d;"finished"==e&&"running"==this.m()&&this.play();return this},loop:function(a){if(!t(a))return{count:this.h};this.h=!0===a?Infinity:Math.floor(a);if(0>this.h||isNaN(this.h))this.h=0;return this},j:function(){return null!==this.a?this.a:null===this.c?null:(v-this.c)*this.b},w:function(a,b){b&&L();null!==a&&(this.D(),null!==this.a||null===this.c||0==this.b?(this.a=a,O(!1)):this.c=v-a/this.b,this.i||(this.c=null),this.s=null,this.B(!0),N())},G:function(){return this.j()},time:function(a){if(t(a)){if(!this.i)throw Q;
a=this.u(a);H(a);this.w(a,!0);return this}return this.G()},m:function(){var a=this.j();return this.o?"running":null===a?"idle":null===this.c?"paused":0<this.b&&a>=this.f||0>this.b&&a<=this.g?"finished":"running"},state:function(){return this.m()},duration:function(){return this.v},H:function(a){H(a);L();var b=this.j();this.b=a;null!==b&&this.w(b,!1)},rate:function(a){return t(a)?(this.H(a),this):this.b},marker:function(a){return t(this.l.markers)?this.l.markers[a]:void 0},_cancel:function(){if(!this.i||
"idle"==this.m())return this;this.c=this.a=null;this.o=!1;return this}};return{version:"1.1.0",animate:function(){var a={};if(1==arguments.length%2){a=arguments[arguments.length-1];var b={};for(c in a)b[c]=a[c];a=b}var c=new Z(a);a=arguments;for(var d=b=0;d<a.length-1;d+=2){var e=a[d];var n=e instanceof Element?e:document.getElementById(e.substring(1));if(!n)throw Error("Invalid target: "+e);e=n;n=a[d+1];e._ks||(e._ks={});for(var l=[],f=0;f<n.length;++f){var h=n[f],g=J(h,"p","property");if("string"!=
typeof g||-1!=g.indexOf("-")||""===g||!(0<S[g]||0<=ba.indexOf(g)))throw Error("Invalid property: "+g);var q=ba.indexOf(g);""!==g&&0<=q&&(g=q);q=R(g);var m=J(h,"t","times");if(!m||2>m.length)throw Error("Not enough times");m=m.slice();if(!isFinite(m[0])||0>m[0])throw Error("Invalid time: "+m[0]);for(var B=1;B<m.length;++B)if(!isFinite(m[B])||0>m[B]||m[B]<m[B-1])throw Error("Invalid time: "+m[B]);B=m[0];var v=m[m.length-1]-B,y=h.iterations||0;1>y&&(y=1);v*=y;b<v+B&&(b=v+B);var u=J(h,"v","values");if(!u||
u.length!=m.length)throw Error("Values do not match times");u=u.slice();for(var C=g,k=u,w=R(C)&240,p=0;p<k.length;++p)if(96==w){for(var G=k[p].substring(6,k[p].length-2).match(/[A-DF-Za-df-z][-+0-9eE., ]*/ig),A=[],r=0;r<G.length;++r){A.push(G[r][0]);for(var z=1<G[r].trim().length?G[r].substring(1).split(","):[],F=0;F<z.length;++F)z[F]=parseFloat(z[F]);A.push(z)}k[p]=A}else if(48==w)x(k[p],"#")?(G=9==k[p].length,k[p]=parseInt(k[p].substring(1),16),G||(k[p]=256*k[p]|255)):x(k[p],"url(")||"none"==k[p]||
(console.warn("unsupported color: "+k[p]),k[p]=0);else if(80==w){G=k;A=p;r=k[p];if("none"==r)r=[0];else{z=[];for(var D=r.indexOf("(");0<D;)if(F=T.indexOf(r.substring(0,D)),0<=F){z.push(F);var E=r.indexOf(") ");0>E&&(E=r.length-1);D=r.substring(D+1,E).split(" ");5==F?(z.push(parseFloat(D[0])),z.push(parseFloat(D[1])),z.push(parseFloat(D[2])),z.push(ia(D[3]))):1==F?z.push(D[0]):z.push(parseFloat(D[0]));r=r.substring(E+1).trim();D=r.indexOf("(")}else break;r=z}G[A]=r}else 64==w?"none"!=k[p]?/^[0-9 .]*$/.test(k[p])?
k[p]=X(k[p]," "):(console.warn("unsupported value: "+k[p]),k[p]=[0]):k[p]=[0]:32==w?(H(k[p]),k[p]=parseFloat(k[p])):0===C&&(k[p]=parseFloat(k[p]));C=J(h,"e","easing");k=m.length;for(C||(C=[]);C.length<k;)C.push([1,0,0,.58,1]);for(k=0;k<C.length;++k)C[k]=ha(C[k]);q=[g,q,B,v,m,u,C,y];m=J(h,"mp","motionPath");t(m)&&0===g&&(q[8]=[],q[8][0]=h.motionRotate,h=document.createElementNS("http://www.w3.org/2000/svg","path"),m||(m="M0,0"),h.setAttribute("d",m),q[8][1]=h,q[8][2]=h.getTotalLength());l.push(q)}0<
l.length&&(c.A.push(e),c.C.push(l))}c.v=b;c.g=0;c.f=c.v;aa(c);return c},add:aa,remove:P,removeAll:function(){for(var a=w.length-1;0<=a;--a)P(w[a]);return this},timelines:function(){return w.slice()},globalPlay:function(){u&&(V=u-(new Date).getTime(),u=void 0,N());return this},globalPause:function(){u||(u=v,O(!1));return this},globalState:function(){return u?"paused":"running"}}}();
]]></script>
    <script><![CDATA[if(KeyshapeJS.version.indexOf('1.')!=0)throw Error('Expected KeyshapeJS v1.*.*');window.ks=document.ks=KeyshapeJS;(function(ks){
ks.animate("#laptop-text",[{p:'fillOpacity',t:[1900,5000],v:[0,1],e:[[0],[0]]}],
"#_a0",[{p:'d',t:[1900,5000],v:["path('M0,0L-5,64.9611L-18,64.9611L-7.279,-3.0242C-7.279,-3.0242,0,0.507615,0,0Z')","path('M0,0L-5,64.9611L69,93.9924L79.721,26.0071C79.721,26.0071,0,0.507615,0,0Z')"],e:[[0],[0]]}],
"#text2-2",[{p:'mpath',t:[4000,6000],v:['0%','100%'],e:[[0],[0]],mp:"M-348.902,-88.0305L-348.902,-338.351"}],
"#text1-2",[{p:'mpath',t:[2000,6000],v:['0%','100%'],e:[[0],[0]],mp:"M24.0446,196.776L24.0446,-53.5445"}],
"#text2",[{p:'mpath',t:[0,4000],v:['0%','100%'],e:[[0],[0]],mp:"M-348.902,-105.037L-348.902,-338.351"}],
"#text1",[{p:'mpath',t:[0,4000],v:['0%','100%'],e:[[0],[0]],mp:"M24.0446,179.769L24.0446,-53.5445"}],
"#left-hand",[{p:'rotate',t:[0,400,800,1400,2000,2400,2800,3200,3600,4000,4400,4800,5400,6000],v:[0,3.92294,0.698421,4.66329,-0.75518,5.203,0.231947,4.03586,8.30873,0,3.92294,0.698421,4.66329,-0.75518],e:[[0],[0],[0],[0],[0],[0],[0],[0],[0],[0],[0],[0],[0],[0]]}],
"#right-hand",[{p:'rotate',t:[0,400,800,1200,2000,2400,2800,3200,3600,4000,4400,4800,5200,6000],v:[0.39,0.0778299,-4.33064,9.77385,2.65876,-4.47354,2.1507,-0.815337,3.5938,0.39,0.07783,-4.33064,9.77384,2.65876],e:[[0],[0],[0],[0],[0],[0],[0],[0],[0],[0],[0],[0],[0],[0]]},{p:'anchorX',t:[0,4000],v:[-219.527,-219.527],e:[[0],[0]]},{p:'anchorY',t:[0,4000],v:[-297.013,-297.013],e:[[0],[0]]}],
"#_a1",[{p:'rotate',t:[1000,4100],v:[0,282.996],e:[[0],[0]]}],
{autoremove:false}).range(0,6000).loop(true);
if(document.location.search.substr(1).split('&').indexOf('global=paused')>=0)ks.globalPause()})(KeyshapeJS);
]]></script>
</svg>