<svg xmlns="http://www.w3.org/2000/svg" viewBox="0 0 1401 608">
    <defs/>
    <defs>
        <linearGradient id="a" x1="71.9951807%" x2="29.653012%" y1="63.1408959%" y2="27.0518694%">
            <stop offset="0%" stop-color="#FFF"/>
            <stop offset="25.43%" stop-color="#FDFEFE"/>
            <stop offset="39.51%" stop-color="#F5FAFA"/>
            <stop offset="50.82%" stop-color="#E7F3F4"/>
            <stop offset="60.67%" stop-color="#D3E9EC"/>
            <stop offset="69.55%" stop-color="#BADDE1"/>
            <stop offset="77.75%" stop-color="#9BCDD3"/>
            <stop offset="85.42%" stop-color="#75BBC3"/>
            <stop offset="92.68%" stop-color="#4AA6B0"/>
            <stop offset="99.36%" stop-color="#1B8E9B"/>
            <stop offset="100%" stop-color="#168C99"/>
        </linearGradient>
        <linearGradient id="b" x1="57.477707%" x2="1.60509554%" y1="55.1687257%" y2="39.5066964%">
            <stop offset="0%" stop-color="#FFF"/>
            <stop offset="25.43%" stop-color="#FDFEFE"/>
            <stop offset="39.51%" stop-color="#F5FAFA"/>
            <stop offset="50.82%" stop-color="#E7F3F4"/>
            <stop offset="60.67%" stop-color="#D3E9EC"/>
            <stop offset="69.55%" stop-color="#BADDE1"/>
            <stop offset="77.75%" stop-color="#9BCDD3"/>
            <stop offset="85.42%" stop-color="#75BBC3"/>
            <stop offset="92.68%" stop-color="#4AA6B0"/>
            <stop offset="99.36%" stop-color="#1B8E9B"/>
            <stop offset="100%" stop-color="#168C99"/>
        </linearGradient>
        <linearGradient id="c" x1="74.2561449%" x2="10.2457956%" y1="51.3421993%" y2="16.3325244%">
            <stop offset="0%" stop-color="#FFF"/>
            <stop offset="25.43%" stop-color="#FDFEFE"/>
            <stop offset="39.51%" stop-color="#F5FAFA"/>
            <stop offset="50.82%" stop-color="#E7F3F4"/>
            <stop offset="60.67%" stop-color="#D3E9EC"/>
            <stop offset="69.55%" stop-color="#BADDE1"/>
            <stop offset="77.75%" stop-color="#9BCDD3"/>
            <stop offset="85.42%" stop-color="#75BBC3"/>
            <stop offset="92.68%" stop-color="#4AA6B0"/>
            <stop offset="99.36%" stop-color="#1B8E9B"/>
            <stop offset="100%" stop-color="#168C99"/>
        </linearGradient>
        <linearGradient id="d" x1="69.9317073%" x2="5.65853659%" y1="52.8056395%" y2="21.2270648%">
            <stop offset="0%" stop-color="#FFF"/>
            <stop offset="25.43%" stop-color="#FDFEFE"/>
            <stop offset="39.51%" stop-color="#F5FAFA"/>
            <stop offset="50.82%" stop-color="#E7F3F4"/>
            <stop offset="60.67%" stop-color="#D3E9EC"/>
            <stop offset="69.55%" stop-color="#BADDE1"/>
            <stop offset="77.75%" stop-color="#9BCDD3"/>
            <stop offset="85.42%" stop-color="#75BBC3"/>
            <stop offset="92.68%" stop-color="#4AA6B0"/>
            <stop offset="99.36%" stop-color="#1B8E9B"/>
            <stop offset="100%" stop-color="#168C99"/>
        </linearGradient>
        <linearGradient id="e" x1="45.177495%" x2="7.5083724%" y1="48.2396255%" y2="34.4631966%">
            <stop offset="0%" stop-color="#FFF"/>
            <stop offset="25.43%" stop-color="#FDFEFE"/>
            <stop offset="39.51%" stop-color="#F5FAFA"/>
            <stop offset="50.82%" stop-color="#E7F3F4"/>
            <stop offset="60.67%" stop-color="#D3E9EC"/>
            <stop offset="69.55%" stop-color="#BADDE1"/>
            <stop offset="77.75%" stop-color="#9BCDD3"/>
            <stop offset="85.42%" stop-color="#75BBC3"/>
            <stop offset="92.68%" stop-color="#4AA6B0"/>
            <stop offset="99.36%" stop-color="#1B8E9B"/>
            <stop offset="100%" stop-color="#168C99"/>
        </linearGradient>
        <linearGradient id="f" x1="46.2956204%" x2="9.79927007%" y1="47.8835454%" y2="27.0890512%">
            <stop offset="0%" stop-color="#FFF"/>
            <stop offset="25.43%" stop-color="#FDFEFE"/>
            <stop offset="39.51%" stop-color="#F5FAFA"/>
            <stop offset="50.82%" stop-color="#E7F3F4"/>
            <stop offset="60.67%" stop-color="#D3E9EC"/>
            <stop offset="69.55%" stop-color="#BADDE1"/>
            <stop offset="77.75%" stop-color="#9BCDD3"/>
            <stop offset="85.42%" stop-color="#75BBC3"/>
            <stop offset="92.68%" stop-color="#4AA6B0"/>
            <stop offset="99.36%" stop-color="#1B8E9B"/>
            <stop offset="100%" stop-color="#168C99"/>
        </linearGradient>
        <linearGradient id="g" x1="53.5113795%" x2="20.9150023%" y1="52.3969945%" y2="30.1827977%">
            <stop offset="0%" stop-color="#FFF"/>
            <stop offset="25.43%" stop-color="#FDFEFE"/>
            <stop offset="39.51%" stop-color="#F5FAFA"/>
            <stop offset="50.82%" stop-color="#E7F3F4"/>
            <stop offset="60.67%" stop-color="#D3E9EC"/>
            <stop offset="69.55%" stop-color="#BADDE1"/>
            <stop offset="77.75%" stop-color="#9BCDD3"/>
            <stop offset="85.42%" stop-color="#75BBC3"/>
            <stop offset="92.68%" stop-color="#4AA6B0"/>
            <stop offset="99.36%" stop-color="#1B8E9B"/>
            <stop offset="100%" stop-color="#168C99"/>
        </linearGradient>
        <linearGradient id="h" x1="55.1832248%" x2="27.5651466%" y1="53.6595415%" y2="32.6012249%">
            <stop offset="0%" stop-color="#FFF"/>
            <stop offset="25.43%" stop-color="#FDFEFE"/>
            <stop offset="39.51%" stop-color="#F5FAFA"/>
            <stop offset="50.82%" stop-color="#E7F3F4"/>
            <stop offset="60.67%" stop-color="#D3E9EC"/>
            <stop offset="69.55%" stop-color="#BADDE1"/>
            <stop offset="77.75%" stop-color="#9BCDD3"/>
            <stop offset="85.42%" stop-color="#75BBC3"/>
            <stop offset="92.68%" stop-color="#4AA6B0"/>
            <stop offset="99.36%" stop-color="#1B8E9B"/>
            <stop offset="100%" stop-color="#168C99"/>
        </linearGradient>
        <linearGradient id="i" x1="50.0913242%" x2="50.0913242%" y1="98.8713318%" y2="9.37133183%">
            <stop offset="0%" stop-color="#FFF"/>
            <stop offset="100%" stop-color="#FFF" stop-opacity="0"/>
        </linearGradient>
        <linearGradient id="j" x1="50.0099602%" x2="50.0099602%" y1="85.7530506%" y2="18.1301569%">
            <stop offset="0%" stop-color="#FFF"/>
            <stop offset="100%" stop-color="#FFF" stop-opacity="0"/>
        </linearGradient>
        <linearGradient id="k" x1="49.8170732%" x2="49.8170732%" y1="98.9410431%" y2="9.3877551%">
            <stop offset="0%" stop-color="#FFF"/>
            <stop offset="100%" stop-color="#FFF" stop-opacity="0"/>
        </linearGradient>
        <linearGradient id="l" x1="50.0609756%" x2="50.0609756%" y1="98.9092971%" y2="9.35600907%">
            <stop offset="0%" stop-color="#FFF"/>
            <stop offset="100%" stop-color="#FFF" stop-opacity="0"/>
        </linearGradient>
        <linearGradient id="m" x1="50.1829268%" x2="50.1829268%" y1="98.7800454%" y2="9.22675737%">
            <stop offset="0%" stop-color="#FFF"/>
            <stop offset="100%" stop-color="#FFF" stop-opacity="0"/>
        </linearGradient>
        <linearGradient id="n" x1="49.7560976%" x2="49.7560976%" y1="98.8390023%" y2="9.28798186%">
            <stop offset="0%" stop-color="#FFF"/>
            <stop offset="100%" stop-color="#FFF" stop-opacity="0"/>
        </linearGradient>
        <linearGradient id="o" x1="53.5495678%" x2="39.3954232%" y1="61.2299064%" y2="29.4209078%">
            <stop offset="0%" stop-color="#FFF" stop-opacity="0"/>
            <stop offset="100%" stop-color="#FFF"/>
        </linearGradient>
        <linearGradient id="p" x1="49.9086758%" x2="49.9086758%" y1="98.8242754%" y2="9.31400966%">
            <stop offset="0%" stop-color="#FFF"/>
            <stop offset="100%" stop-color="#FFF" stop-opacity="0"/>
        </linearGradient>
        <linearGradient id="q" x1="50.0456621%" x2="50.0456621%" y1="98.8375604%" y2="9.32729469%">
            <stop offset="0%" stop-color="#FFF"/>
            <stop offset="100%" stop-color="#FFF" stop-opacity="0"/>
        </linearGradient>
    </defs>
    <g fill="none" fill-rule="nonzero">
        <path fill="#D4ECFF" d="M-.00045966 151.454L115.458 88.4759c12.906-7.0657 16.917-21.8117 8.894-33.1785L85.6338-.00005075H.173974L.173959 151.454h-.17441866z"/>
        <path fill="url(#a)" d="M457.2 331.9V435h-68.6l-138.9-78.7 125.6-70.8z" transform="translate(943 173)"/>
        <path fill="url(#b)" d="M352.4 435h-74.9l-82.1-46.5 39.3-22.1z" transform="translate(943 173)"/>
        <path fill="url(#c)" d="M457.2 275.6v43.7l-77.3-43.8 39.3-22.1z" transform="translate(943 173)"/>
        <path fill="url(#d)" d="M457.2 205.2v38.4l-17-10.4-85.5-48.4 33.6-19.7z" transform="translate(943 173)"/>
        <path fill="url(#e)" d="M259.6 426.6l33.6-19.6-115.7-65.5-33.6 19.6 85.5 48.5z" transform="translate(943 173)"/>
        <path fill="url(#f)" d="M221.6 400.8l33.7-19.7L124.5 305l-33.6 19.6 85.5 48.5z" transform="translate(943 173)"/>
        <path fill="url(#g)" d="M157.6 352.2l84.6-47.7-130.8-76.1-84.5 47.7 85.5 48.5z" transform="translate(943 173)"/>
        <path fill="url(#h)" d="M456.5 334.1l-126.6-73.7-119 69.7 85.5 48.5 45.2 27.6L456.5 339z" transform="translate(943 173)"/>
        <path fill="#FF50AC" d="M1248.4 323.7c1.6.9 3.3 3 5 6.5 10.2 21.1 14 38.9 19.6 42.1 1.8 1.1 3.9.5 6.4-2 5.3-5.3 9.2-6.7 12.5-4.8 6 3.5 10.3 17.8 18 40.3l-119.7-69.1c1.2-4 4.5-21.7 13.1-16.8 3.4 2 7.7 7.6 13.1 19.1 1.8 3.9 3.5 6.1 5.2 7 4.7 2.7 9.1-4.2 13.4-11.2 4.3-6.9 8.7-13.9 13.4-11.1z"/>
        <path fill="#BE29E2" d="M1232.6 351.4c1.9 1.1 3.8 3.4 5.8 7.6 6.8 14.2 11.5 20.6 15.4 22.8 3.1 1.8 5.7.8 8.5-1.2 2.3-1.6 5.3-2 8.8.1 5.6 3.2 12.4 12.6 19.3 32.5l-109.8-63.4c1.1-3.9 9.2-10.6 16.9-6.2 2.5 1.4 5 4 7.1 8.3 2.1 4.1 4 6.3 5.9 7.4 4 2.3 7.6-.8 11.2-4 3.5-3 7-6.1 10.9-3.9z"/>
        <path fill="#9314B2" d="M1053.5 365.7l-14.2-8.2-14.4 8.2 14.3 8.3z"/>
        <path fill="#B425D6" d="M1024.9 365.7v36.1l14.3 8.3V374z"/>
        <path fill="#D351F2" d="M1039.2 374v36.1l14.3-8.3v-36.1z"/>
        <path fill="#CC0982" d="M1031.2 349.8l-14.3-8.3-14.3 8.3 14.2 8.2z"/>
        <path fill="#F22299" d="M1002.6 349.8v64.7l14.2 8.3V358z"/>
        <path fill="#FF50AC" d="M1016.8 358v64.8l14.4-8.3v-64.7z"/>
        <path fill="#9314B2" d="M1008.2 399.3l-14.3-8.3-14.4 8.3 14.3 8.2z"/>
        <path fill="#B425D6" d="M979.5 399.3l.1 27.8 14.2 8.3v-27.9z"/>
        <path fill="#D351F2" d="M993.8 407.5v27.9l14.4-8.3v-27.8z"/>
        <path fill="#CC0982" d="M985 395.5l-14.3-8.3-14.3 8.3 14.2 8.3z"/>
        <path fill="#F22299" d="M956.4 395.5v44.9l14.3 8.2-.1-44.8z"/>
        <path fill="#FF50AC" d="M970.6 403.8l.1 44.8 14.3-8.2v-44.9z"/>
        <path fill="#FFF" d="M1330.8 323.6c1 .6 1 1.6 0 2.2l-31.1 18.1c-1 .6-2.7.6-3.8 0l-31.3-18.1c-1-.6-1-1.6 0-2.2l31.1-18.1c1-.6 2.7-.6 3.8 0l31.3 18.1z"/>
        <path fill="#82A9D8" d="M1331.6 324.7c0 .1 0 .1 0 0v.6s0 .1-.1.1v.1l-.1.1s-.1 0-.1.1l-.1.1s-.1 0-.1.1c0 0-.1 0-.1.1l-31.1 18.1c-.1.1-.2.1-.4.2h-.1c-.1 0-.2.1-.2.1-.1 0-.2 0-.3.1-.1 0-.2 0-.3.1h-.5-.5-.1c-.1 0-.3 0-.4-.1h-.1c-.1 0-.3-.1-.4-.1h-.1c-.1-.1-.3-.1-.4-.2l-31.3-18.1c-.2-.1-.4-.2-.5-.4-.2-.2-.3-.5-.3-.7v13.5c0 .4.3.8.8 1.1l31.3 18.1c.1.1.2.1.4.2h.1c.1 0 .2.1.2.1H1299c.1 0 .2 0 .3-.1H1299.6c.1-.1.3-.1.4-.2l31.1-18.1h.1s.1 0 .1-.1l.1-.1s.1 0 .1-.1l.1-.1s0-.1.1-.1v-.2-.2-.1l-.1-13.9z"/>
        <path fill="#FFF" d="M1319.5 314.9c.7.4.7 1 0 1.4l-20.4 11.9c-.7.4-1.8.4-2.5 0l-20.6-11.9c-.7-.4-.7-1 0-1.4l20.4-11.9c.7-.4 1.8-.4 2.5 0l20.6 11.9z"/>
        <path fill="#C5DBF9" d="M1320 315.6s0 .1 0 0c0 .1 0 .1 0 0v.4s0 .1-.1.1h-.1-.1-.1l-20.4 11.9c-.1 0-.2.1-.2.1h-.1c-.1 0-.1 0-.2.1h-.4-1c-.1 0-.2 0-.2-.1-.1 0-.2-.1-.3-.1l-20.8-11.7c-.1-.1-.2-.2-.3-.2-.1-.1-.2-.3-.2-.5v8.9c0 .3.2.5.5.7l20.6 11.9c.1 0 .2.1.3.1.1 0 .1 0 .2.1H1299c.1 0 .2-.1.2-.1l20.4-11.9h.2l.1-.1v-.1-.1-.1-.1l.1-9.2z"/>
        <path fill="url(#i)" d="M343.8 54.3v87.9l21.9.7V54.3z" transform="translate(943 173)"/>
        <path fill="#FF50AC" d="M1308.7 315.2c.3.2.3.5 0 .7l-10.3 6c-.3.2-.9.2-1.2 0l-10.3-6c-.3-.2-.3-.5 0-.7l10.3-6c.3-.2.9-.2 1.2 0l10.3 6z"/>
        <path fill="#FFF" d="M1269.8 419.6c3.7 2.1 3.7 5.6 0 7.7L1160 491.2c-3.7 2.1-9.6 2.1-13.3 0l-110.6-63.9c-3.7-2.1-3.7-5.6 0-7.7l109.9-63.8c3.7-2.1 9.6-2.1 13.3 0l110.5 63.8z"/>
        <path fill="#C5DBF9" d="M1272.6 423.8v.3c0 .1 0 .2-.1.2 0 .1 0 .2-.1.3 0 .1-.1.2-.1.2 0 .1-.1.2-.1.3 0 .1-.1.1-.1.2-.1.1-.1.2-.2.3 0 .1-.1.1-.2.2l-.4.4-.2.2c-.1.1-.2.2-.3.2-.1.1-.2.1-.3.2-.1.1-.2.2-.3.2-.1.1-.2.2-.4.2l-109.8 64c-.4.2-.9.4-1.3.6-.1 0-.2.1-.4.1l-.9.3c-.3.1-.6.2-.9.2-.4.1-.8.1-1.1.2h-.3c-.5.1-1.1.1-1.6.1h-.3c-.5 0-1 0-1.6-.1h-.2c-.5-.1-1-.1-1.5-.3-.1 0-.2 0-.3-.1-.4-.1-.9-.2-1.3-.4-.1 0-.2 0-.2-.1-.5-.2-1-.4-1.4-.7l-110.6-63.7c-.7-.4-1.3-.9-1.7-1.3-.7-.8-1.1-1.7-1.1-2.6v9c0 1.4.9 2.8 2.8 3.9l110.6 63.8c.4.2.9.5 1.4.7h.1c.1 0 .2.1.2.1.3.1.5.2.8.3.2 0 .3.1.5.1.1 0 .2 0 .3.1.1 0 .2 0 .2.1.3.1.6.1.9.2H1153.8c.3 0 .7 0 1-.1h.4c.3 0 .5-.1.8-.1.1 0 .2-.1.3-.1.3-.1.6-.1.9-.2.2 0 .3-.1.5-.1.1 0 .3-.1.4-.1.1 0 .2-.1.4-.1.5-.2.9-.4 1.3-.6l109.9-63.8s.1 0 .1-.1c.1-.1.2-.1.2-.2.1-.1.2-.1.3-.2.1-.1.2-.1.3-.2.1-.1.2-.2.3-.2h.1l.1-.1.4-.4.1-.1s0-.1.1-.1c.1-.1.2-.2.2-.3l.1-.1v-.1c.1-.1.1-.2.1-.3 0-.1.1-.1.1-.2v-.1c0-.1.1-.2.1-.3 0-.1 0-.1.1-.2v-.1-.3-9.3c.2 0 .2.1.2.2z"/>
        <path fill="#203E6D" d="M1170.2 288.4c1.9-1.1 3.5-.2 3.5 2l.2 74.6c0 2.2-1.6 4.9-3.5 6.1l-97.7 56.4c-1.9 1.1-3.5.2-3.5-2l-.2-74.6c0-2.2 1.6-4.9 3.5-6.1l97.7-56.4z"/>
        <path fill="#FFF" d="M1075.3 351c.1-.2.3-.5.4-.7l91.6-52.9.2 67.5c-.1.2-.3.6-.4.7l-91.6 52.9-.2-67.5z"/>
        <path fill="url(#j)" d="M122.2 113.2c.1-.2.3-55.5.4-55.6L222.4 0l.2 113.7c-.1.2-.3.6-.5.8l-99.7 57.6-.2-58.9z" transform="translate(943 173)"/>
        <path fill="#82A9D8" d="M1063.7 347.9v-.2-.2-.2-.2-.2-.2-.2-.2V346c0-.1 0-.1.1-.2 0-.1 0-.1.1-.2 0-.1 0-.1.1-.2 0-.1 0-.1.1-.2 0 0 0-.1.1-.1 0-.1.1-.1.1-.2s.1-.1.1-.2.1-.1.1-.2.1-.1.1-.2v-.1c.1-.1.2-.3.3-.4.1-.1.1-.2.2-.3l.2-.2c0-.1.1-.1.1-.2s.1-.1.1-.2.1-.1.1-.2l.1-.1.1-.1c.1 0 .1-.1.2-.1s.1-.1.2-.1c0 0 .1 0 .1-.1h.1c.1 0 .1-.1.2-.1s.1-.1.2-.1l.1-.1.1-.1 97.7-56.4s.1 0 .1-.1l.1-.1h.1s.1 0 .1-.1c0 0 .1 0 .1-.1h1.3c.1 0 .1 0 .2.1.1 0 .2.1.3.1l5.3 3.1c-.1 0-.2-.1-.3-.1-.1 0-.1 0-.2-.1h-.3-.7c-.1 0-.2.1-.3.1-.1 0-.2.1-.3.1-.1.1-.2.1-.3.2l-97.7 56.4c-.2.1-.5.3-.7.5l-.6.6c-.2.2-.4.5-.6.7-.2.2-.4.5-.5.8-.2.3-.3.5-.4.8l-.3.9c-.1.3-.2.6-.2.9 0 .3-.1.6-.1.9l.2 74.6c0 .3 0 .5.1.8 0 .2.1.4.2.6.1.2.2.3.3.4l.1.1c.1.1.2.2.4.3l-5.3-3.1c-.1-.1-.3-.2-.4-.3l-.1-.1c0-.1-.1-.1-.1-.2s-.1-.2-.1-.2c0-.1-.1-.1-.1-.2s0-.1-.1-.2V423.2v-.1-.2-.2-.2-.2l-.2-74.4z"/>
        <path fill="#C5DBF9" d="M1178.1 370.4l68.1 39.6-104.7 60.5L1070 429l101.4-58.6c2.1-1.2 4.6-1.2 6.7 0z"/>
        <path fill="#82A9D8" d="M1246.2 410v9.2l-104.7 60.4v-9.1zM1141.5 470.5v9.1l-67.4-39.2c-2.5-1.5-4-4.1-4.1-7v-4.5l71.5 41.6z"/>
        <path fill="#FFF" d="M1152.4 432.8c-2.4 1.4-2.4 3.6 0 5l13.4 7.8c2.4 1.4 6.2 1.4 8.6 0l33.8-19.5c2.4-1.4 2.4-3.6 0-5l-13.4-7.8c-2.4-1.4-6.2-1.4-8.6 0l-33.8 19.5z" opacity=".5"/>
        <path fill="#203E6D" d="M1152.4 434.5l33.8-19.5c2.4-1.4 6.2-1.4 8.6 0l13.4 7.8c.8.5 1.3 1 1.6 1.6.5-1.2 0-2.4-1.6-3.3l-13.4-7.8c-2.4-1.4-6.2-1.4-8.6 0l-33.8 19.5c-1.6.9-2.1 2.2-1.6 3.4.3-.6.8-1.2 1.6-1.7z" opacity=".48"/>
        <path fill="#FFF" d="M1175.7 376.8c-1.5-.9-4-.9-5.5 0l-85.7 49.5c-1.5.9-1.5 2.3 0 3.2l30.7 17.9c1.5.9 4 .9 5.5 0l85.7-49.5c1.5-.9 1.5-2.3 0-3.2" opacity=".5"/>
        <path fill="#C5DBF9" d="M1167.4 381.2l4.6-2.6c.3-.1.7-.1.9 0l2.4 1.4c.3.1.3.4 0 .5l-4.6 2.6c-.3.1-.7.1-.9 0l-2.4-1.4c-.2-.1-.2-.4 0-.5zM1160.2 385.4l4.6-2.7c.3-.1.7-.1.9 0l2.4 1.4c.3.2.3.4 0 .5l-4.6 2.7c-.3.1-.7.1-.9 0l-2.4-1.4c-.3-.1-.3-.4 0-.5zM1152.9 389.6l4.6-2.7c.3-.1.7-.1.9 0l2.4 1.4c.3.2.3.4 0 .5l-4.6 2.7c-.3.1-.7.1-.9 0l-2.4-1.4c-.2-.1-.3-.4 0-.5zM1145.6 393.8l4.6-2.7c.3-.1.7-.1.9 0l2.4 1.4c.3.2.3.4 0 .5l-4.6 2.7c-.3.1-.7.1-.9 0l-2.4-1.4c-.2-.2-.2-.4 0-.5zM1138.4 398l4.6-2.7c.3-.1.7-.1.9 0l2.4 1.4c.3.2.3.4 0 .5l-4.6 2.7c-.3.1-.7.1-.9 0l-2.4-1.4c-.3-.2-.3-.4 0-.5zM1131.1 402.1l4.6-2.7c.3-.1.7-.1.9 0l2.4 1.4c.3.2.3.4 0 .5l-4.6 2.7c-.2.1-.7.1-.9 0l-2.4-1.4c-.2-.1-.2-.3 0-.5zM1123.9 406.3l4.6-2.7c.2-.1.7-.1.9 0l2.4 1.4c.3.2.3.4 0 .5l-4.6 2.7c-.2.1-.7.1-.9 0l-2.4-1.4c-.3-.1-.3-.3 0-.5zM1116.6 410.5l4.6-2.7c.2-.1.7-.1.9 0l2.4 1.4c.3.2.3.4 0 .5l-4.6 2.7c-.2.1-.7.1-.9 0l-2.4-1.4c-.2-.1-.3-.3 0-.5zM1109.3 414.7l4.6-2.7c.2-.1.7-.1.9 0l2.4 1.4c.3.2.3.4 0 .5l-4.6 2.7c-.3.1-.7.1-.9 0l-2.4-1.4c-.2-.1-.2-.3 0-.5zM1102.1 418.9l4.6-2.7c.2-.1.7-.1.9 0l2.4 1.4c.3.2.3.4 0 .5l-4.6 2.7c-.3.1-.7.1-.9 0l-2.4-1.4c-.3-.1-.3-.3 0-.5zM1094.8 423.1l4.6-2.7c.2-.1.7-.1.9 0l2.4 1.4c.3.2.3.4 0 .5l-4.6 2.7c-.3.1-.7.1-.9 0l-2.4-1.4c-.2-.1-.2-.3 0-.5zM1087.6 427.3l4.6-2.6c.3-.1.7-.2.9 0l2.4 1.4c.3.1.3.4 0 .5l-4.6 2.6c-.3.1-.7.1-.9 0l-2.4-1.4c-.3-.1-.3-.4 0-.5zM1172.6 384.2l4.6-2.6c.3-.1.7-.1.9 0l4 2.3c.3.1.3.4 0 .5l-4.6 2.6c-.3.1-.7.1-.9 0l-4-2.3c-.2-.1-.2-.3 0-.5zM1165.4 388.4l4.6-2.7c.3-.1.7-.1.9 0l4 2.3c.3.2.3.4 0 .5l-4.6 2.7c-.3.1-.7.1-.9 0l-4-2.3c-.3-.1-.3-.4 0-.5zM1158.1 392.6l4.6-2.7c.3-.1.7-.1.9 0l4 2.3c.3.2.3.4 0 .5l-4.6 2.7c-.3.1-.7.1-.9 0l-4-2.3c-.2-.1-.2-.4 0-.5zM1150.8 396.8l4.6-2.7c.3-.1.7-.1.9 0l4 2.3c.3.2.3.4 0 .5l-4.6 2.7c-.3.1-.7.1-.9 0l-4-2.3c-.2-.1-.2-.4 0-.5zM1143.6 401l4.6-2.7c.3-.1.7-.1.9 0l4 2.3c.3.2.3.4 0 .5l-4.6 2.7c-.3.1-.7.1-.9 0l-4-2.3c-.3-.1-.3-.4 0-.5zM1136.3 405.2l4.6-2.7c.3-.1.7-.1.9 0l4 2.3c.3.2.3.4 0 .5l-4.6 2.7c-.2.1-.7.1-.9 0l-4-2.3c-.2-.1-.2-.4 0-.5zM1129.1 409.4l4.6-2.7c.2-.1.7-.1.9 0l4 2.3c.3.2.3.4 0 .5l-4.6 2.7c-.2.1-.7.1-.9 0l-4-2.3c-.3-.2-.3-.4 0-.5zM1121.8 413.6l4.6-2.7c.2-.1.7-.1.9 0l4 2.3c.3.2.3.4 0 .5l-4.6 2.7c-.2.1-.7.1-.9 0l-4-2.3c-.2-.2-.2-.4 0-.5zM1114.5 417.7l4.6-2.7c.2-.1.7-.1.9 0l4 2.3c.3.2.3.4 0 .5l-4.6 2.7c-.3.1-.7.1-.9 0l-4-2.3c-.2-.1-.2-.3 0-.5zM1107.3 421.9l4.6-2.7c.2-.1.7-.1.9 0l4 2.3c.3.2.3.4 0 .5l-4.6 2.7c-.3.1-.7.1-.9 0l-4-2.3c-.3-.1-.3-.3 0-.5zM1100 426.1l4.6-2.7c.2-.1.7-.1.9 0l4 2.3c.3.2.3.4 0 .5l-4.6 2.7c-.3.1-.7.1-.9 0l-4-2.3c-.2-.1-.2-.3 0-.5zM1092.8 430.3l4.6-2.6c.3-.1.7-.1.9 0l4 2.3c.3.1.3.4 0 .5l-4.6 2.6c-.3.1-.7.1-.9 0l-4-2.3c-.3-.1-.3-.3 0-.5zM1172.2 392.4l7.3-4.2.6-.4 4-2.3c.3-.1.7-.1.9 0l4 2.3c.3.2.3.4 0 .5l-4 2.3-.6.4-7.3 4.2c-.3.1-.7.1-.9 0l-4-2.3c-.3-.2-.3-.4 0-.5zM1164.9 396.6l4.6-2.7c.3-.1.7-.1.9 0l4 2.3c.3.2.3.4 0 .5l-4.6 2.7c-.3.1-.7.1-.9 0l-4-2.3c-.2-.2-.2-.4 0-.5zM1157.7 400.7l4.6-2.7c.3-.1.7-.1.9 0l4 2.3c.3.2.3.4 0 .5l-4.6 2.7c-.3.1-.7.1-.9 0l-4-2.3c-.3-.1-.3-.3 0-.5zM1150.4 404.9l4.6-2.7c.3-.1.7-.1.9 0l4 2.3c.3.2.3.4 0 .5l-4.6 2.7c-.3.1-.7.1-.9 0l-4-2.3c-.2-.1-.3-.3 0-.5zM1143.1 409.1l4.6-2.7c.3-.1.7-.1.9 0l4 2.3c.3.2.3.4 0 .5l-4.6 2.7c-.2.1-.7.1-.9 0l-4-2.3c-.2-.1-.2-.3 0-.5zM1135.9 413.3l4.6-2.7c.2-.1.7-.1.9 0l4 2.3c.3.2.3.4 0 .5l-4.6 2.7c-.2.1-.7.1-.9 0l-4-2.3c-.3-.1-.3-.3 0-.5zM1128.6 417.5l4.6-2.7c.2-.1.7-.1.9 0l4 2.3c.3.2.3.4 0 .5l-4.6 2.7c-.2.1-.7.1-.9 0l-4-2.3c-.2-.1-.2-.3 0-.5zM1121.4 421.7l4.6-2.7c.2-.1.7-.1.9 0l4 2.3c.3.2.3.4 0 .5l-4.6 2.7c-.3.1-.7.1-.9 0l-4-2.3c-.3-.1-.3-.3 0-.5zM1114.1 425.9l4.6-2.7c.2-.1.7-.1.9 0l4 2.3c.3.2.3.4 0 .5l-4.6 2.7c-.3.1-.7.1-.9 0l-4-2.3c-.2-.1-.3-.4 0-.5zM1099.6 434.3l7.3-4.2 1.3-.7 3.3-1.9c.2-.1.7-.1.9 0l4 2.3c.3.2.3.4 0 .5l-3.3 1.9-1.3.7-7.3 4.2c-.3.1-.7.1-.9 0l-4-2.3c-.3-.1-.3-.4 0-.5zM1168.1 402.5l4.6-2.7c.3-.1.7-.1.9 0l4 2.3c.3.2.3.4 0 .5l-4.6 2.7c-.3.1-.7.1-.9 0l-4-2.3c-.3-.1-.3-.3 0-.5zM1160.8 406.7l4.6-2.7c.3-.1.7-.1.9 0l4 2.3c.3.2.3.4 0 .5l-4.6 2.7c-.3.1-.7.1-.9 0l-4-2.3c-.2-.1-.2-.3 0-.5zM1153.6 410.9l4.6-2.7c.3-.1.7-.1.9 0l4 2.3c.3.2.3.4 0 .5l-4.6 2.7c-.3.1-.7.1-.9 0l-4-2.3c-.3-.1-.3-.3 0-.5zM1146.3 415.1l4.6-2.7c.3-.1.7-.1.9 0l4 2.3c.3.2.3.4 0 .5l-4.6 2.7c-.3.1-.7.1-.9 0l-4-2.3c-.2-.1-.3-.3 0-.5zM1139 419.3l4.6-2.7c.3-.1.7-.1.9 0l4 2.3c.3.2.3.4 0 .5l-4.6 2.7c-.3.1-.7.1-.9 0l-4-2.3c-.2-.1-.2-.3 0-.5zM1131.8 423.5l4.6-2.7c.3-.1.7-.1.9 0l4 2.3c.3.2.3.4 0 .5l-4.6 2.7c-.3.1-.7.1-.9 0l-4-2.3c-.3-.1-.3-.3 0-.5zM1124.5 427.7l4.6-2.7c.3-.1.7-.1.9 0l4 2.3c.3.2.3.4 0 .5l-4.6 2.7c-.3.1-.7.1-.9 0l-4-2.3c-.2-.1-.3-.3 0-.5zM1106.3 438.2l15.2-8.8c.2-.1.6-.1.8 0l4.1 2.4c.2.1.2.3 0 .4l-15.2 8.8c-.3.1-.7.1-.9 0l-4-2.3c-.2-.1-.2-.4 0-.5zM1175.7 398.2l15.2-8.8c.2-.1.6-.1.8 0l4.1 2.4c.2.1.2.3 0 .4l-15.2 8.8c-.2.1-.7.1-.9 0l-4-2.3c-.3-.1-.3-.4 0-.5zM1193 396l4.6-2.7c.3-.1.7-.1.9 0l4.9 2.9c.3.2.3.4 0 .5l-4.6 2.7c-.3.1-.7.1-.9 0l-4.9-2.9c-.3-.1-.3-.3 0-.5zM1185.7 400.2l4.6-2.7c.3-.1.7-.1.9 0l4.9 2.9c.3.2.3.4 0 .5l-4.6 2.7c-.3.1-.7.1-.9 0l-4.9-2.9c-.2-.1-.2-.3 0-.5zM1178.4 404.4l4.6-2.7c.3-.1.7-.1.9 0l4.9 2.9c.3.2.3.4 0 .5l-4.6 2.7c-.3.1-.7.1-.9 0l-4.9-2.9c-.2-.1-.2-.3 0-.5zM1171.2 408.6l4.6-2.7c.3-.1.7-.1.9 0l4.9 2.9c.3.2.3.4 0 .5l-4.6 2.7c-.3.1-.7.1-.9 0l-4.9-2.9c-.3-.1-.3-.3 0-.5zM1142.1 425.4l1.8-1 2.8-1.6 2.7-1.5 4.6-2.7 2.7-1.5 4.6-2.7 7.3-4.2c.3-.1.7-.1.9 0l4.9 2.9c.3.2.3.4 0 .5l-7.3 4.2-4.6 2.7-2.7 1.5-4.6 2.7-2.7 1.5-2.8 1.6-1.8 1c-.2.1-.7.1-.9 0l-4.9-2.9c-.2-.1-.2-.4 0-.5zM1134.9 429.6l4.6-2.7c.2-.1.7-.1.9 0l4.9 2.9c.3.2.3.4 0 .5l-4.6 2.7c-.3.1-.7.1-.9 0l-4.9-2.9c-.3-.1-.3-.4 0-.5zM1127.6 433.8l4.6-2.7c.2-.1.7-.1.9 0l4.9 2.9c.3.2.3.4 0 .5l-4.6 2.7c-.3.1-.7.1-.9 0l-4.9-2.9c-.2-.2-.2-.4 0-.5zM1120.4 438l4.6-2.7c.2-.1.7-.1.9 0l4.9 2.9c.3.2.3.4 0 .5l-4.6 2.7c-.3.1-.7.1-.9 0l-4.9-2.9c-.3-.2-.3-.4 0-.5zM1113.1 442.1l4.6-2.7c.3-.1.7-.1.9 0l4.9 2.9c.3.2.3.4 0 .5l-4.6 2.7c-.3.1-.7.1-.9 0l-4.9-2.9c-.2-.1-.2-.3 0-.5z"/>
        <path fill="#203E6D" d="M1175.4 380c.3.1.3.4 0 .5l-4.6 2.6h-.1c.3.1.6.1.8 0l4.6-2.6c.3-.1.3-.4 0-.5l-2.4-1.4c-.2-.1-.6-.1-.8 0h.1l2.4 1.4zM1168.1 384.1c.3.2.3.4 0 .5l-4.6 2.7h-.1c.3.1.6.1.8 0l4.6-2.7c.3-.1.2-.4 0-.5l-2.4-1.4c-.2-.1-.6-.1-.8 0h.1l2.4 1.4zM1160.8 388.3c.3.2.3.4 0 .5l-4.6 2.7h-.1c.3.1.6.1.8 0l4.6-2.7c.3-.1.2-.4 0-.5l-2.4-1.4c-.2-.1-.6-.1-.8 0h.1l2.4 1.4zM1153.6 392.5c.3.2.3.4 0 .5l-4.6 2.7h-.1c.3.1.6.1.8 0l4.6-2.7c.3-.1.2-.4 0-.5l-2.4-1.4c-.2-.1-.6-.1-.8 0h.1l2.4 1.4zM1146.3 396.7c.3.2.3.4 0 .5l-4.6 2.7h-.1c.3.1.6.1.8 0l4.6-2.7c.3-.1.2-.4 0-.5l-2.4-1.4c-.2-.1-.6-.1-.8 0h.1l2.4 1.4zM1139.1 400.9c.3.2.3.4 0 .5l-4.6 2.7h-.1c.3.1.6.1.8 0l4.6-2.7c.3-.1.2-.4 0-.5l-2.4-1.4c-.2-.1-.6-.1-.8 0h.1l2.4 1.4zM1131.8 405.1c.3.2.3.4 0 .5l-4.6 2.7h-.1c.3.1.6.1.8 0l4.6-2.7c.2-.1.2-.4 0-.5l-2.4-1.4c-.2-.1-.6-.1-.8 0h.1l2.4 1.4zM1124.5 409.3c.3.2.3.4 0 .5l-4.6 2.7h-.1c.3.1.6.1.8 0l4.6-2.7c.2-.1.2-.4 0-.5l-2.4-1.4c-.2-.1-.6-.1-.8 0h.1l2.4 1.4zM1117.3 413.5c.3.2.3.4 0 .5l-4.6 2.7h-.1c.3.1.6.1.8 0l4.6-2.7c.2-.1.2-.4 0-.5l-2.4-1.4c-.2-.1-.6-.1-.8 0h.1l2.4 1.4zM1110 417.7c.3.2.3.4 0 .5l-4.6 2.7h-.1c.3.1.6.1.8 0l4.6-2.7c.2-.1.2-.4 0-.5l-2.4-1.4c-.2-.1-.6-.1-.8 0h.1l2.4 1.4zM1102.8 421.9c.3.2.3.4 0 .5l-4.6 2.7h-.1c.3.1.6.1.8 0l4.6-2.7c.2-.1.2-.4 0-.5l-2.4-1.4c-.2-.1-.6-.1-.8 0h.1l2.4 1.4zM1096.2 426.1l-2.4-1.4c-.2-.1-.6-.1-.8 0h.1l2.4 1.4c.3.1.3.4 0 .5l-4.6 2.6h-.1c.3.1.6.1.8 0l4.6-2.6c.3-.1.3-.4 0-.5zM1182.1 383.9c.3.1.3.4 0 .5l-4.6 2.6h-.1c.3.1.6.1.8 0l4.6-2.6c.3-.1.3-.4 0-.5l-4-2.3c-.2-.1-.6-.1-.8 0h.1l4 2.3zM1175.6 388.1l-4-2.3c-.2-.1-.6-.1-.8-.1 0 0 .1 0 .1.1l4 2.3c.3.2.3.4 0 .5l-4.6 2.7h-.1c.3.1.6.1.8 0l4.6-2.7c.2-.1.2-.4 0-.5zM1163.5 389.9s.1 0 .1.1l4 2.3c.3.2.3.4 0 .5l-4.6 2.7h-.1c.3.1.6.1.8 0l4.6-2.7c.3-.1.2-.4 0-.5l-4-2.3c-.2-.2-.5-.2-.8-.1zM1156.2 394.1s.1 0 .1.1l4 2.3c.3.2.3.4 0 .5l-4.6 2.7h-.1c.3.1.6.1.8 0l4.6-2.7c.3-.1.2-.4 0-.5l-4-2.3c-.2-.2-.5-.2-.8-.1zM1149 398.3s.1 0 .1.1l4 2.3c.3.2.3.4 0 .5l-4.6 2.7h-.1c.3.1.6.1.8 0l4.6-2.7c.3-.1.2-.4 0-.5l-4-2.3c-.2-.2-.6-.2-.8-.1zM1141.7 402.5s.1 0 .1.1l4 2.3c.3.2.3.4 0 .5l-4.6 2.7h-.1c.3.1.6.1.8 0l4.6-2.7c.3-.1.2-.4 0-.5l-4-2.3c-.2-.2-.5-.2-.8-.1zM1134.5 406.7s.1 0 .1.1l4 2.3c.3.2.3.4 0 .5l-4.6 2.7h-.1c.3.1.6.1.8 0l4.6-2.7c.2-.1.2-.4 0-.5l-4-2.3c-.2-.2-.6-.2-.8-.1zM1127.2 410.9s.1 0 .1.1l4 2.3c.3.2.3.4 0 .5l-4.6 2.7h-.1c.3.1.6.1.8 0l4.6-2.7c.2-.1.2-.4 0-.5l-4-2.3c-.2-.2-.5-.2-.8-.1zM1119.9 415.1s.1 0 .1.1l4 2.3c.3.2.3.4 0 .5l-4.6 2.7h-.1c.3.1.6.1.8 0l4.6-2.7c.2-.1.2-.4 0-.5l-4-2.3c-.2-.2-.5-.2-.8-.1zM1116.8 421.6c.3.2.3.4 0 .5l-4.6 2.7h-.1c.3.1.6.1.8 0l4.6-2.7c.2-.1.2-.4 0-.5l-4-2.3c-.2-.1-.6-.1-.8-.1 0 0 .1 0 .1.1l4 2.3zM1106.3 423.5c-.2-.1-.6-.1-.8-.1 0 0 .1 0 .1.1l4 2.3c.3.2.3.4 0 .5l-4.6 2.7h-.1c.3.1.6.1.8 0l4.6-2.7c.2-.1.2-.4 0-.5l-4-2.3zM1103 430l-4-2.3c-.2-.1-.6-.1-.8 0h.1l4 2.3c.3.1.3.4 0 .5l-4.6 2.6h-.1c.3.1.6.1.8 0l4.6-2.6c.2-.1.2-.4 0-.5zM1188.9 387.8c.3.2.3.4 0 .5l-4 2.3-.6.4-7.3 4.2h-.1c.3.1.6.1.8 0l7.3-4.2.6-.4 4-2.3c.3-.1.2-.4 0-.5l-4-2.3c-.2-.1-.6-.1-.8-.1 0 0 .1 0 .1.1l4 2.3zM1174.4 396.2c.3.2.3.4 0 .5l-4.6 2.7h-.1c.3.1.6.1.8 0l4.6-2.7c.3-.1.2-.4 0-.5l-4-2.3c-.2-.1-.6-.1-.8-.1 0 0 .1 0 .1.1l4 2.3zM1167.2 400.4c.3.2.3.4 0 .5l-4.6 2.7h-.1c.3.1.6.1.8 0l4.6-2.7c.3-.1.2-.4 0-.5l-4-2.3c-.2-.1-.6-.1-.8-.1 0 0 .1 0 .1.1l4 2.3zM1159.9 404.6c.3.2.3.4 0 .5l-4.6 2.7h-.1c.3.1.6.1.8 0l4.6-2.7c.3-.1.2-.4 0-.5l-4-2.3c-.2-.1-.6-.1-.8-.1 0 0 .1 0 .1.1l4 2.3zM1152.6 408.8c.3.2.3.4 0 .5l-4.6 2.7h-.1c.3.1.6.1.8 0l4.6-2.7c.3-.1.2-.4 0-.5l-4-2.3c-.2-.1-.6-.1-.8-.1 0 0 .1 0 .1.1l4 2.3zM1145.4 413c.3.2.3.4 0 .5l-4.6 2.7h-.1c.3.1.6.1.8 0l4.6-2.7c.2-.1.2-.4 0-.5l-4-2.3c-.2-.1-.6-.1-.8-.1 0 0 .1 0 .1.1l4 2.3zM1138.1 417.2c.3.2.3.4 0 .5l-4.6 2.7h-.1c.3.1.6.1.8 0l4.6-2.7c.2-.1.2-.4 0-.5l-4-2.3c-.2-.1-.6-.1-.8-.1 0 0 .1 0 .1.1l4 2.3zM1127.6 419.1c-.2-.1-.6-.1-.8-.1 0 0 .1 0 .1.1l4 2.3c.3.2.3.4 0 .5l-4.6 2.7h-.1c.3.1.6.1.8 0l4.6-2.7c.2-.1.2-.4 0-.5l-4-2.3zM1123.6 425.6c.3.2.3.4 0 .5l-4.6 2.7h-.1c.3.1.6.1.8 0l4.6-2.7c.2-.1.2-.4 0-.5l-4-2.3c-.2-.1-.6-.1-.8-.1 0 0 .1 0 .1.1l4 2.3zM1113.7 432.2l3.3-1.9c.2-.1.2-.4 0-.5l-4-2.3c-.2-.1-.6-.1-.8-.1 0 0 .1 0 .1.1l4 2.3c.3.2.3.4 0 .5l-3.3 1.9-1.3.7-7.3 4.2h-.1c.3.1.6.1.8 0l7.3-4.2 1.3-.7zM1177.6 402.2c.3.2.3.4 0 .5l-4.6 2.7h-.1c.3.1.6.1.8 0l4.6-2.7c.3-.1.2-.4 0-.5l-4-2.3c-.2-.1-.6-.1-.8 0h.1l4 2.3zM1170.3 406.4c.3.2.3.4 0 .5l-4.6 2.7h-.1c.3.1.6.1.8 0l4.6-2.7c.3-.1.2-.4 0-.5l-4-2.3c-.2-.1-.6-.1-.8 0h.1l4 2.3zM1163.1 410.6c.3.2.3.4 0 .5l-4.6 2.7h-.1c.3.1.6.1.8 0l4.6-2.7c.3-.1.2-.4 0-.5l-4-2.3c-.2-.1-.6-.1-.8 0h.1l4 2.3zM1155.8 414.8c.3.2.3.4 0 .5l-4.6 2.7h-.1c.3.1.6.1.8 0l4.6-2.7c.3-.1.2-.4 0-.5l-4-2.3c-.2-.1-.6-.1-.8 0h.1l4 2.3zM1148.6 419c.3.2.3.4 0 .5l-4.6 2.7h-.1c.3.1.6.1.8 0l4.6-2.7c.3-.1.2-.4 0-.5l-4-2.3c-.2-.1-.6-.1-.8 0h.1l4 2.3zM1141.3 423.2c.3.2.3.4 0 .5l-4.6 2.7h-.1c.3.1.6.1.8 0l4.6-2.7c.3-.1.2-.4 0-.5l-4-2.3c-.2-.1-.6-.1-.8 0h.1l4 2.3zM1134 427.4c.3.2.3.4 0 .5l-4.6 2.7h-.1c.3.1.6.1.8 0l4.6-2.7c.3-.1.2-.4 0-.5l-4-2.3c-.2-.1-.6-.1-.8 0h.1l4 2.3zM1127.1 431.8l-4.1-2.4c-.2-.1-.5-.1-.8 0h.1l4.1 2.4c.2.1.2.3 0 .4l-15.2 8.8h-.1c.3.1.6.1.8 0l15.2-8.8c.3 0 .3-.2 0-.4zM1195.8 391.8c.2.1.2.3 0 .4l-15.2 8.8h-.1c.3.1.6.1.8 0l15.2-8.8c.2-.1.2-.3 0-.4l-4.1-2.4c-.2-.1-.5-.1-.8 0h.1l4.1 2.4zM1204.1 396.2l-4.9-2.9c-.2-.1-.6-.1-.8-.1 0 0 .1 0 .1.1l4.9 2.9c.3.2.3.4 0 .5l-4.6 2.7h-.1c.3.1.6.1.8 0l4.6-2.7c.3-.1.3-.3 0-.5zM1196.8 400.4l-4.9-2.9c-.2-.1-.6-.1-.8-.1 0 0 .1 0 .1.1l4.9 2.9c.3.2.3.4 0 .5l-4.6 2.7h-.1c.3.1.6.1.8 0l4.6-2.7c.3-.1.3-.3 0-.5zM1189.6 404.6l-4.9-2.9c-.2-.1-.6-.1-.8-.1 0 0 .1 0 .1.1l4.9 2.9c.3.2.3.4 0 .5l-4.6 2.7h-.1c.3.1.6.1.8 0l4.6-2.7c.3-.1.2-.3 0-.5zM1182.3 408.8l-4.9-2.9c-.2-.1-.6-.1-.8-.1 0 0 .1 0 .1.1l4.9 2.9c.3.2.3.4 0 .5l-4.6 2.7h-.1c.3.1.6.1.8 0l4.6-2.7c.3-.1.3-.3 0-.5zM1175.1 413l-4.9-2.9c-.2-.1-.6-.1-.8-.1 0 0 .1 0 .1.1l4.9 2.9c.3.2.3.4 0 .5l-7.3 4.2-4.6 2.7-2.7 1.5-4.6 2.7-2.7 1.5-2.8 1.6-1.8 1h-.1c.3.1.6.1.8 0l1.8-1 2.8-1.6 2.7-1.5 4.6-2.7 2.7-1.5 4.6-2.7 7.3-4.2c.2-.1.2-.3 0-.5zM1146 429.8l-4.9-2.9c-.2-.1-.6-.1-.8-.1 0 0 .1 0 .1.1l4.9 2.9c.3.2.3.4 0 .5l-4.6 2.7h-.1c.3.1.6.1.8 0l4.6-2.7c.3-.1.3-.4 0-.5zM1138.8 434l-4.9-2.9c-.2-.1-.6-.1-.8-.1 0 0 .1 0 .1.1l4.9 2.9c.3.2.3.4 0 .5l-4.6 2.7h-.1c.3.1.6.1.8 0l4.6-2.7c.2-.1.2-.4 0-.5zM1131.5 438.2l-4.9-2.9c-.2-.1-.6-.1-.8-.1 0 0 .1 0 .1.1l4.9 2.9c.3.2.3.4 0 .5l-4.6 2.7h-.1c.3.1.6.1.8 0l4.6-2.7c.3-.1.3-.4 0-.5zM1124.2 442.4l-4.9-2.9c-.2-.1-.6-.1-.8 0h.1l4.9 2.9c.3.2.3.4 0 .5l-4.6 2.7h-.1c.3.1.6.1.8 0l4.6-2.7c.3-.2.3-.4 0-.5zM1161.2 307.6l-75.9 43.9.1 56.9 76-43.9z"/>
        <path fill="#FF50AC" d="M1100.6 364.6l11.6-6.7c0 3.7-1.3 7.8-3.4 11.4-2.1 3.6-5 6.8-8.2 8.6-3.2 1.8-6.1 2-8.2.8-2.1-1.2-3.4-3.8-3.4-7.5s1.3-7.8 3.4-11.4c2.1-3.6 5-6.8 8.2-8.6v13.4z"/>
        <path fill="#B425D6" d="M1100.5 351.3c3.2-1.8 6.1-2 8.2-.8 2.1 1.2 3.4 3.8 3.4 7.5l-11.6 6.7v-13.4z"/>
        <path fill="#FF50AC" d="M1141.9 359.9v9.4l-4 2.3v-9.3z"/>
        <path fill="#B425D6" d="M1127.6 335.7c3.2-1.8 6.1-2 8.2-.8 2.1 1.2 3.4 3.8 3.4 7.5s-1.3 7.8-3.4 11.4c-2.1 3.6-5 6.8-8.2 8.6V335.7z"/>
        <path fill="#FFF" d="M1128.6 368.4v1.8l-35.5 20.5v-1.9zM1127.6 335.7v26.6c-3.2 1.8-6.1 2-8.2.8-2.1-1.2-3.4-3.8-3.4-7.5s1.3-7.8 3.4-11.4c2.1-3.5 5-6.7 8.2-8.5zM1157.5 326.4v1.9l-13.7 7.9v-1.8zM1157.5 320.3v1.9l-13.7 7.9v-1.9zM1116.8 381.1v1.9l-23.6 13.7v-1.9zM1157.5 332.3v1.8l-13.7 7.9v-1.8zM1148.4 343.8v1.9l-4.6 2.6v-1.8z"/>
        <path fill="#BE29E2" d="M1147 363v3.3l-4.1 2.4v-3.4z"/>
        <path fill="#FFF" d="M1153.1 353.5v9.3l-4 2.3-.1-9.3z"/>
        <path fill="#BE29E2" d="M1158.1 354.1l.1 5.8-4.1 2.3v-5.8z"/>
        <path fill="#FFF" d="M1319.1 457.2c3.5 2 3.5 5.3 0 7.4l-105 61c-3.5 2-9.2 2-12.7 0l-29.6-17.1c-3.5-2-3.5-5.3 0-7.4l105-61c3.5-2 9.2-2 12.7 0l29.6 17.1z"/>
        <path fill="#82A9D8" d="M1321.7 461.2v.3c0 .1 0 .2-.1.2 0 .1 0 .2-.1.3 0 .1-.1.1-.1.2s-.1.2-.1.3c0 .1-.1.1-.1.2-.1.1-.1.2-.2.3 0 .1-.1.1-.1.2-.1.1-.2.3-.4.4l-.1.1c-.1.1-.2.2-.3.2-.1.1-.2.1-.3.2-.1.1-.2.1-.3.2-.1.1-.2.1-.3.2l-105 61c-.4.2-.8.4-1.3.6-.1 0-.2.1-.4.1-.3.1-.6.2-.8.3-.3.1-.6.2-.9.2-.4.1-.7.1-1.1.2h-.3c-.5.1-1 .1-1.5.1h-.2c-.5 0-1 0-1.5-.1h-.2c-.5-.1-1-.1-1.4-.2-.1 0-.2 0-.3-.1-.4-.1-.8-.2-1.2-.4-.1 0-.1 0-.2-.1-.5-.2-.9-.4-1.4-.6l-29.6-17.1c-.7-.4-1.2-.8-1.6-1.3-.7-.8-1-1.6-1-2.4v8.6c0 1.3.9 2.7 2.7 3.7l29.6 17.1c.4.2.8.4 1.3.6h.1c.1 0 .1 0 .2.1.3.1.5.2.8.3.1 0 .3.1.5.1.1 0 .2 0 .3.1.1 0 .2 0 .2.1.3.1.6.1.9.2h2.6c.3 0 .7 0 1-.1h.4c.3 0 .5-.1.8-.1.1 0 .2-.1.3-.1.3-.1.6-.1.9-.2.2 0 .3-.1.5-.1.1 0 .2-.1.4-.1.1 0 .2-.1.4-.1.4-.2.9-.4 1.3-.6l105-61s.1 0 .1-.1c.1 0 .2-.1.2-.2.1-.1.2-.1.3-.2.1-.1.2-.1.3-.2.1-.1.2-.2.3-.2h.1l.1-.1.4-.4.1-.1s0-.1.1-.1c.1-.1.1-.2.2-.3l.1-.1v-.1c.1-.1.1-.2.1-.3 0-.1.1-.1.1-.2v-.1c0-.1.1-.2.1-.3 0-.1 0-.1.1-.2v-.3-8.9c-.5.2-.5.3-.5.4z"/>
        <path fill="#C5DBF9" d="M1220.4 501.3c.5.3.5.8 0 1.1l-15.3 8.9c-.5.3-1.3.3-1.9 0l-15.4-8.9c-.5-.3-.5-.8 0-1.1l15.3-8.9c.5-.3 1.3-.3 1.9 0l15.4 8.9z"/>
        <path fill="#82A9D8" d="M1220.8 501.9s0 .1 0 0v.1l-.1.1h-.1l-15.3 8.9c-.1 0-.1.1-.2.1H1204c-.1 0-.1 0-.2-.1-.1 0-.1-.1-.2-.1l-15.4-8.9c-.1-.1-.2-.1-.2-.2-.1-.1-.2-.2-.2-.4v6.7c0 .2.1.4.4.5l15.4 8.9c.1 0 .1.1.2.1H1204.9c.1 0 .1-.1.2-.1l15.3-8.9.1-.1.3-6.6z"/>
        <path fill="url(#k)" d="M253 285.2v43.6l16.4.5v-44.1z" transform="translate(943 173)"/>
        <path fill="#FF50AC" d="M1212.8 501.6c.3.2.3.4 0 .6l-8.2 4.7c-.3.2-.7.2-1 0l-8.2-4.7c-.3-.2-.3-.4 0-.6l8.2-4.7c.3-.2.7-.2 1 0l8.2 4.7z"/>
        <path fill="#C5DBF9" d="M1246.5 485.6c.5.3.5.8 0 1.1l-15.3 8.9c-.5.3-1.3.3-1.9 0l-15.4-8.9c-.5-.3-.5-.8 0-1.1l15.3-8.9c.5-.3 1.3-.3 1.9 0l15.4 8.9z"/>
        <path fill="#82A9D8" d="M1246.9 486.2v.1l-.1.1h-.1l-15.3 8.9c-.1 0-.1.1-.2.1H1230.1c-.1 0-.1 0-.2-.1-.1 0-.1-.1-.2-.1l-15.4-8.9c-.1-.1-.2-.1-.2-.2-.1-.1-.2-.2-.2-.4v6.7c0 .2.1.4.4.5l15.4 8.9c.1 0 .1.1.2.1H1231c.1 0 .1-.1.2-.1l15.3-8.9.1-.1.3-6.6s0-.1 0 0z"/>
        <path fill="url(#l)" d="M278.8 269.1v43.6l16.4.5v-44.1z" transform="translate(943 173)"/>
        <path fill="#BE29E2" d="M1238.9 485.8c.3.2.3.4 0 .6l-8.2 4.7c-.3.2-.7.2-1 0l-8.2-4.7c-.3-.2-.3-.4 0-.6l8.2-4.7c.3-.2.7-.2 1 0l8.2 4.7z"/>
        <path fill="#C5DBF9" d="M1274.5 469.6c.5.3.5.8 0 1.1l-15.3 8.9c-.5.3-1.3.3-1.9 0l-15.4-8.9c-.5-.3-.5-.8 0-1.1l15.3-8.9c.5-.3 1.3-.3 1.9 0l15.4 8.9z"/>
        <path fill="url(#m)" d="M306.7 254v43.5l16.4.6V254z" transform="translate(943 173)"/>
        <path fill="#82A9D8" d="M1274.9 470.1s0 .1 0 0c0 .1 0 .1 0 0v.1l-.1.1-15.3 8.9c-.1 0-.1.1-.2.1H1258.2c-.1 0-.1 0-.2-.1-.1 0-.1-.1-.2-.1l-15.4-8.9c-.1-.1-.2-.1-.2-.2-.1-.1-.2-.2-.2-.4v6.7c0 .2.1.4.4.5l15.4 8.9c.1 0 .1.1.2.1H1259.1c.1 0 .1-.1.2-.1l15.3-8.9.1-.1.2-6.6z"/>
        <path fill="#FF50AC" d="M1266.9 469.8c.3.2.3.4 0 .6l-8.2 4.7c-.3.2-.7.2-1 0l-8.2-4.7c-.3-.2-.3-.4 0-.6l8.2-4.7c.3-.2.7-.2 1 0l8.2 4.7z"/>
        <path fill="#C5DBF9" d="M1300.6 453.8c.5.3.5.8 0 1.1l-15.3 8.9c-.5.3-1.3.3-1.9 0l-15.4-8.9c-.5-.3-.5-.8 0-1.1l15.3-8.9c.5-.3 1.3-.3 1.9 0l15.4 8.9z"/>
        <path fill="#82A9D8" d="M1301 454.4c0 .1 0 .1 0 0v.1l-.1.1h-.1l-15.3 8.9c-.1 0-.1.1-.2.1H1284.2c-.1 0-.1 0-.2-.1-.1 0-.1-.1-.2-.1l-15.4-8.9c-.1-.1-.2-.1-.2-.2-.1-.1-.2-.2-.2-.4v6.7c0 .2.1.4.4.5l15.4 8.9c.1 0 .1.1.2.1H1285.1c.1 0 .1-.1.2-.1l15.3-8.9.1-.1.3-6.6z"/>
        <path fill="url(#n)" d="M333.1 237.7v43.6l16.4.5v-44.1z" transform="translate(943 173)"/>
        <path fill="#BE29E2" d="M1293 454.1c.3.2.3.4 0 .6l-8.2 4.7c-.3.2-.7.2-1 0l-8.2-4.7c-.3-.2-.3-.4 0-.6l8.2-4.7c.3-.2.7-.2 1 0l8.2 4.7z"/>
        <path fill="#82A9D8" d="M1162.6 527v9.1c0 1.9-1.3 3.9-3.8 5.4-5.1 3-13.4 3-18.6 0-2.6-1.5-3.9-3.4-3.9-5.4V527c0-1.9 1.3-3.9 3.8-5.4 5.1-3 13.4-3 18.6 0 2.6 1.5 3.9 3.5 3.9 5.4z"/>
        <path fill="#FFF" d="M1162.6 527c0 1.9-1.3 3.9-3.8 5.4-5.1 3-13.4 3-18.6 0-2.6-1.5-3.9-3.4-3.9-5.4 0-1.9 1.3-3.9 3.8-5.4 5.1-3 13.4-3 18.6 0 2.6 1.5 3.9 3.5 3.9 5.4z"/>
        <path fill="#BE29E2" d="M1149.5 531.5c-2.9 0-5.7-.7-7.7-1.8-1.4-.8-2.3-1.8-2.3-2.7 0-.8.8-1.8 2.3-2.6 2-1.1 4.8-1.8 7.7-1.8 2.9 0 5.7.7 7.7 1.8 1.4.8 2.3 1.8 2.3 2.7 0 .8-.8 1.8-2.3 2.6-2 1.1-4.8 1.8-7.7 1.8z"/>
        <path fill="#82A9D8" d="M1141.9 538.8v9.1c0 1.9-1.3 3.9-3.8 5.4-5.1 3-13.4 3-18.6 0-2.6-1.5-3.9-3.4-3.9-5.4v-9.1c0-1.9 1.3-3.9 3.8-5.4 5.1-3 13.4-3 18.6 0 2.6 1.5 3.9 3.5 3.9 5.4z"/>
        <path fill="#FFF" d="M1141.9 538.8c0 1.9-1.3 3.9-3.8 5.4-5.1 3-13.4 3-18.6 0-2.6-1.5-3.9-3.4-3.9-5.4 0-1.9 1.3-3.9 3.8-5.4 5.1-3 13.4-3 18.6 0 2.6 1.5 3.9 3.5 3.9 5.4z"/>
        <path fill="#BE29E2" d="M1128.8 543.3c-2.9 0-5.7-.7-7.7-1.8-1.4-.8-2.3-1.8-2.3-2.7 0-.8.8-1.8 2.3-2.6 2-1.1 4.8-1.8 7.7-1.8 2.9 0 5.7.7 7.7 1.8 1.4.8 2.3 1.8 2.3 2.7 0 .8-.8 1.8-2.3 2.6-2 1.1-4.8 1.8-7.7 1.8z"/>
        <path fill="#82A9D8" d="M1182.1 538.5v9.1c0 1.9-1.3 3.9-3.8 5.4-5.1 3-13.4 3-18.6 0-2.6-1.5-3.9-3.4-3.9-5.4v-9.1c0-1.9 1.3-3.9 3.8-5.4 5.1-3 13.4-3 18.6 0 2.6 1.5 3.9 3.4 3.9 5.4z"/>
        <path fill="#FFF" d="M1182.1 538.5c0 1.9-1.3 3.9-3.8 5.4-5.1 3-13.4 3-18.6 0-2.6-1.5-3.9-3.4-3.9-5.4 0-1.9 1.3-3.9 3.8-5.4 5.1-3 13.4-3 18.6 0 2.6 1.5 3.9 3.4 3.9 5.4z"/>
        <path fill="#203E6D" d="M1169 542.9c-2.9 0-5.7-.7-7.7-1.8-1.4-.8-2.3-1.8-2.3-2.7 0-.8.8-1.8 2.3-2.6 2-1.1 4.8-1.8 7.7-1.8 2.9 0 5.7.7 7.7 1.8 1.4.8 2.3 1.8 2.3 2.7 0 .8-.8 1.8-2.3 2.6-1.9 1.2-4.7 1.8-7.7 1.8z"/>
        <path fill="#82A9D8" d="M1161.4 550.3v9.1c0 1.9-1.3 3.9-3.8 5.4-5.1 3-13.4 3-18.6 0-2.6-1.5-3.9-3.4-3.9-5.4v-9.1c0-1.9 1.3-3.9 3.8-5.4 5.1-3 13.4-3 18.6 0 2.6 1.5 3.9 3.4 3.9 5.4z"/>
        <path fill="#FFF" d="M1161.4 550.3c0 1.9-1.3 3.9-3.8 5.4-5.1 3-13.4 3-18.6 0-2.6-1.5-3.9-3.4-3.9-5.4 0-1.9 1.3-3.9 3.8-5.4 5.1-3 13.4-3 18.6 0 2.6 1.5 3.9 3.4 3.9 5.4z"/>
        <path fill="#BE29E2" d="M1148.3 554.7c-2.9 0-5.7-.7-7.7-1.8-1.4-.8-2.3-1.8-2.3-2.7 0-.8.8-1.8 2.3-2.6 2-1.1 4.8-1.8 7.7-1.8 2.9 0 5.7.7 7.7 1.8 1.4.8 2.3 1.8 2.3 2.7 0 .8-.8 1.8-2.3 2.6-1.9 1.2-4.7 1.8-7.7 1.8z"/>
        <path fill="#82A9D8" d="M1346.9 411.6v9.1c0 1.9-1.3 3.9-3.8 5.4-5.1 3-13.4 3-18.6 0-2.6-1.5-3.9-3.4-3.9-5.4v-9.1c0-1.9 1.3-3.9 3.8-5.4 5.1-3 13.4-3 18.6 0 2.6 1.5 3.9 3.4 3.9 5.4z"/>
        <path fill="#FFF" d="M1346.9 411.6c0 1.9-1.3 3.9-3.8 5.4-5.1 3-13.4 3-18.6 0-2.6-1.5-3.9-3.4-3.9-5.4 0-1.9 1.3-3.9 3.8-5.4 5.1-3 13.4-3 18.6 0 2.6 1.5 3.9 3.4 3.9 5.4z"/>
        <path fill="#203E6D" d="M1333.8 416c-2.9 0-5.7-.7-7.7-1.8-1.4-.8-2.3-1.8-2.3-2.7 0-.8.8-1.8 2.3-2.6 2-1.1 4.8-1.8 7.7-1.8 2.9 0 5.7.7 7.7 1.8 1.4.8 2.3 1.8 2.3 2.7 0 .8-.8 1.8-2.3 2.6-2 1.2-4.8 1.8-7.7 1.8z"/>
        <path fill="#82A9D8" d="M1326.2 423.4v9.1c0 1.9-1.3 3.9-3.8 5.4-5.1 3-13.4 3-18.6 0-2.6-1.5-3.9-3.4-3.9-5.4v-9.1c0-1.9 1.3-3.9 3.8-5.4 5.1-3 13.4-3 18.6 0 2.6 1.5 3.9 3.4 3.9 5.4z"/>
        <path fill="#FFF" d="M1326.2 423.4c0 1.9-1.3 3.9-3.8 5.4-5.1 3-13.4 3-18.6 0-2.6-1.5-3.9-3.4-3.9-5.4 0-1.9 1.3-3.9 3.8-5.4 5.1-3 13.4-3 18.6 0 2.6 1.5 3.9 3.4 3.9 5.4z"/>
        <path fill="#FF50AC" d="M1313.1 427.8c-2.9 0-5.7-.7-7.7-1.8-1.4-.8-2.3-1.8-2.3-2.7 0-.8.8-1.8 2.3-2.6 2-1.1 4.8-1.8 7.7-1.8 2.9 0 5.7.7 7.7 1.8 1.4.8 2.3 1.8 2.3 2.7 0 .8-.8 1.8-2.3 2.6-2 1.2-4.8 1.8-7.7 1.8z"/>
        <path fill="#82A9D8" d="M1366.4 423.1v9.1c0 1.9-1.3 3.9-3.8 5.4-5.1 3-13.4 3-18.6 0-2.6-1.5-3.9-3.4-3.9-5.4V423c0-1.9 1.3-3.9 3.8-5.4 5.1-3 13.4-3 18.6 0 2.6 1.6 3.9 3.5 3.9 5.5z"/>
        <path fill="#FFF" d="M1366.4 423.1c0 1.9-1.3 3.9-3.8 5.4-5.1 3-13.4 3-18.6 0-2.6-1.5-3.9-3.4-3.9-5.4 0-1.9 1.3-3.9 3.8-5.4 5.1-3 13.4-3 18.6 0 2.6 1.5 3.9 3.4 3.9 5.4z"/>
        <path fill="#FF50AC" d="M1353.3 427.5c-2.9 0-5.7-.7-7.7-1.8-1.4-.8-2.3-1.8-2.3-2.7 0-.8.8-1.8 2.3-2.6 2-1.1 4.8-1.8 7.7-1.8 2.9 0 5.7.7 7.7 1.8 1.4.8 2.3 1.8 2.3 2.7 0 .8-.8 1.8-2.3 2.6-1.9 1.2-4.7 1.8-7.7 1.8z"/>
        <path fill="#82A9D8" d="M1345.7 434.9v9.1c0 1.9-1.3 3.9-3.8 5.4-5.1 3-13.4 3-18.6 0-2.6-1.5-3.9-3.4-3.9-5.4v-9.1c0-1.9 1.3-3.9 3.8-5.4 5.1-3 13.4-3 18.6 0 2.6 1.5 3.9 3.4 3.9 5.4z"/>
        <path fill="#FFF" d="M1345.7 434.9c0 1.9-1.3 3.9-3.8 5.4-5.1 3-13.4 3-18.6 0-2.6-1.5-3.9-3.4-3.9-5.4 0-1.9 1.3-3.9 3.8-5.4 5.1-3 13.4-3 18.6 0 2.6 1.5 3.9 3.4 3.9 5.4z"/>
        <path fill="#203E6D" d="M1332.6 439.3c-2.9 0-5.7-.7-7.7-1.8-1.4-.8-2.3-1.8-2.3-2.7 0-.8.8-1.8 2.3-2.6 2-1.1 4.8-1.8 7.7-1.8 2.9 0 5.7.7 7.7 1.8 1.4.8 2.3 1.8 2.3 2.7 0 .8-.8 1.8-2.3 2.6-1.9 1.2-4.7 1.8-7.7 1.8zM1273.7 212.6l-80.4 46.4.2 57.4 80.3-46.4z"/>
        <path fill="#FF50AC" d="M1207.6 266.2l-6.2 3.6.1 20.1 6.2-3.5z"/>
        <path fill="#BE29E2" d="M1216.4 266l-6.2 3.6v15.3l6.2-3.6z"/>
        <path fill="#FF50AC" d="M1225.1 266.4l-6.2 3.6v9.9l6.2-3.6z"/>
        <path fill="#BE29E2" d="M1233.8 257.8l-6.2 3.5v13.5l6.2-3.5z"/>
        <path fill="#FF50AC" d="M1242.5 243.3l-6.2 3.6.1 22.9 6.1-3.6z"/>
        <path fill="#BE29E2" d="M1251.2 249.8l-6.1 3.6v11.4l6.2-3.6z"/>
        <path fill="#FF50AC" d="M1259.9 238.4l-6.2 3.6.1 17.7 6.2-3.5z"/>
        <path fill="#BE29E2" d="M1268.7 243.1l-6.2 3.6v8l6.2-3.6z"/>
        <path fill="#FFF" d="M1246.1 270.7v1.8l-44.4 25.7-.1-1.8zM1226.2 288.4v1.9l-24.5 14.2-.1-1.8z"/>
        <path fill="#203E6D" d="M1036.3 242.4L943 296.3l.2 66.6 93.3-53.9z"/>
        <path fill="#FFF" d="M948.5 354.9v-9.1l8-4.6v9.1l-8 4.6zm-.3-9.4v9.9l8.6-5-.3.2v-9.5l-8.3 4.8v-.4z"/>
        <path fill="#FFF" d="M956.8 350.1V341l8-4.6v9.1l-8 4.6zm8-13.8l-8 4.6-.3.2v9.5l.3-.2 8.3-4.8-.3.2v-9.5z"/>
        <path fill="#FFF" d="M965.1 345.3v-9.1l8-4.6v9.1l-8 4.6zm8-13.7l-8 4.6-.3.2v9.5l.3-.2 8.3-4.8-.3.2v-9.5z"/>
        <path fill="#FFF" d="M973.4 340.5v-9.1l8-4.6v9.1l-8 4.6zm7.9-13.7l-8 4.6-.3.2v9.5l.3-.2 8.3-4.8-.3.2v-9.5z"/>
        <path fill="#FFF" d="M981.7 335.7v-9.1l8-4.6v9.1l-8 4.6zm7.9-13.7l-8 4.6-.3.2v9.5l.3-.2 8.3-4.8-.3.2V322z"/>
        <path fill="#FFF" d="M990 330.9v-9.1l8-4.6v9.1l-8 4.6zm7.9-13.7l-8 4.6-.3.2v9.5l.3-.2 8.3-4.8-.3.2v-9.5z"/>
        <path fill="#FFF" d="M998.3 326.2v-9.1l8-4.6v9.1l-8 4.6zm7.9-13.8l-8 4.6-.3.2v9.5l.3-.2 8.3-4.8-.3.2v-9.5z"/>
        <path fill="#FFF" d="M1006.6 321.4v-9.1l8-4.6v9.1l-8 4.6zm7.9-13.8l-8 4.6-.3.2v9.5l.3-.2 8.3-4.8-.3.2v-9.5z"/>
        <path fill="#FFF" d="M1014.9 316.6v-9.1l8-4.6v9.1l-8 4.6zm7.9-13.8l-8 4.6-.3.2v9.5l.3-.2 8.3-4.8-.3.2v-9.5z"/>
        <path fill="#FFF" d="M1023.1 311.8v-9.1l8-4.6v9.1l-8 4.6zm8.3-13.9l-8.3 4.8-.3.2v9.5l.3-.2 8.3-4.8v-9.5zM948.2 336v9.9l8.3-4.8.3-.2-.3.2v-5.8 5.4l-8 4.6v-9.1l8-4.6v1.2-1.2l-8.3 4.8z"/>
        <path fill="#FFF" d="M958 330.7l-1.2.7-.3.2v1.2l.3-.5v-1l1.2-.6zm6.7-3.9L961 329l3.7-2.2v9.1l-8 4.6v-5.7l-.3.5v5.8l.3-.2 8-4.6.3-.2-.3.2v-9.5z"/>
        <path fill="#FFF" d="M965.1 335.8v-9.1l8-4.6v9.1l-8 4.6zM973 322l-8 4.6-.3.2v9.5l.3-.2 8-4.6.3-.2-.3.2V322z"/>
        <path fill="#FFF" d="M980.5 317.7l-7.1 4.1-.4.2.1 9.6.3-.2 7.9-4.6.4-.2-.4.2v-8.9 8.5l-7.9 4.6v-9.2z"/>
        <path fill="#FFF" d="M989.6 312.5l-7.7 4.4 7.7-4.4v9.1l-7.9 4.6-.1-8.8-.3.5v8.9l.4-.2 7.9-4.6.4-.2-.4.2z"/>
        <path fill="#FFF" d="M990 321.4v-9.1l8-4.6v9.1l-8 4.6zm7.9-13.7l-8 4.6-.3.2v9.5l.3-.2 8-4.6.3-.2-.3.2v-9.5z"/>
        <path fill="#FFF" d="M998.3 316.6v-9.1l8-4.6v9.1l-8 4.6zm7.9-13.7l-8 4.6-.3.2v9.5l.3-.2 8-4.6.3-.2-.3.2v-9.5z"/>
        <path fill="#FFF" d="M1006.5 311.8v-9.1l8-4.6v9.1l-8 4.6zm8-13.7l-8 4.6-.3.2v9.5l.3-.2 8-4.6.3-.2-.3.2v-9.5z"/>
        <path fill="#FFF" d="M1014.8 307.1V298l8-4.6v9.1l-8 4.6zm8-13.8l-8 4.6-.3.2v9.5l.3-.2 8-4.6.3-.2-.3.2v-9.5z"/>
        <path fill="#FFF" d="M1023.1 302.3v-9.1l8-4.6v9.1l-8 4.6zm8.3-14l-8.3 4.8-.3.2v9.5l.3-.2 8.3-4.8v-9.5zM948.5 335.8v-9.1l8-4.6v9.1l-8 4.6zm-.4-9.3v9.9l8.3-4.8.3-.2-.3.2v-9.5l-8.3 4.8v-.4z"/>
        <path fill="#FFF" d="M964.7 323.8v2.6l-3.3 1.9-.4.7 3.7-2.2.3-.2-.3.2v-3zm0-6.5l-8 4.6-.3.2v9.5l.3-.2 1.2-.7.5-.7-1.7 1v-9.1l8-4.6v4-4z"/>
        <path fill="#FFF" d="M973 313.4v8.3l-8 4.6v-2.9l-.3.5v3l.3-.2 8-4.6.3-.2-.3.1v-8.6zm-3.3 1l-4.7 2.7-.3.2v4l.3-.5V317l4.7-2.6z"/>
        <path fill="#FFF" d="M973 313.4v8.6l.4-.2 7.1-4.1-.3-.2-6.8 4-.1-7.9zM989.6 303.6v8.4l-7.3 4.2-.3.6 7.7-4.4.3-.2-.3.2-.1-8.8zm-1.9.4l-6.1 3.5-.3.2v7.4l.3-.6v-7l6.1-3.5z"/>
        <path fill="#FFF" d="M997.9 298.1l-7.7 4.5 7.7-4.5v9.2l-8 4.6v-8.8l-.3.5v8.9l.3-.2 8-4.6.3-.2-.3.2z"/>
        <path fill="#FFF" d="M998.2 307.1V298l8-4.6v9.1l-8 4.6zm8-14.1l-8 4.6v.4l-.3.2v9.5l.3-.2 8-4.6.3-.2-.3.2V293z"/>
        <path fill="#FFF" d="M1006.2 293v9.9l.3-.2 8-4.6.3-.2-.3.2-.1-9.5-7 4 7-4 .1 9.1-8 4.6v-9.1l.4-.3-.7.5z"/>
        <path fill="#FFF" d="M1014.8 297.5v-9.1l8-4.6v9.1l-8 4.6zm7.9-13.7l-8 4.6-.3.2v9.5l.3-.2 8-4.6.3-.2-.3.2v-9.5z"/>
        <path fill="#FFF" d="M1023.1 292.7v-9.1l8-4.6v9.1l-8 4.6zm8.2-13.9l-8.3 4.8-.3.2v9.5l.3-.2 8.3-4.8v-9.5zM948.5 326.3v-9.1l8-4.6v9.1l-8 4.6zm-.4-9.3v9.9l8.3-4.8.3-.2-.3.2v-9.5l-8.3 4.8v-.4z"/>
        <path fill="#FFF" d="M956.8 321.5v-9.1l8-4.6v9.1l-8 4.6zm7.9-13.7l-8 4.6-.3.2v9.5l.3-.2 8-4.6.3-.2-.3.2v-9.5z"/>
        <path fill="#FFF" d="M973 303l-8 4.6-.3.2v9.5l.3-.2 4.7-2.7.5-.6-5.2 2.9v-9.1l8-4.6v7.5zM981.3 298.2l-8 4.6-.3.2v7.5l.3.2v-7.9l8-4.6v9.1l-6.9 4 .3.2 6.6-3.8.3-.2-.3.2z"/>
        <path fill="#FFF" d="M989.5 293.4l-7.9 4.6-.3.2v9.5l.3-.2 6.1-3.5.3-.6-6.4 3.8V298l7.9-4.6.1 7.4zM998.2 288.8l-.3.6v8.4l-7.4 4.2-.3.6 7.7-4.4.3-.2V288.8zm-2.2.9l-6.1 3.5-.3.2v7.4l.3-.6v-7l6.1-3.5zM1006.2 292.5v.9l.7-.4-.3-.2-.1.1v-.1l-.3-.3zm8.2-9.8v5.5l-6.6 3.8-.5.6 7-4 .3-.2-.3.2.1-5.9zm-1.4-2.8l-6.5 3.8-.3.2v5.8l.3.2v-6.2l6.5-3.8z"/>
        <path fill="#FFF" d="M1022.7 274.3l-3.8 2.1 3.8-2.1v9.1l-7.9 4.6v-5.7l-.4.4v5.9l.4-.2 7.9-4.6.4-.2-.4.2z"/>
        <path fill="#FFF" d="M1023.1 283.2v-9.1l8-4.6v9.1l-8 4.6zm8.2-13.9l-8.3 4.8-.3.2v9.5l.3-.2 8.3-4.8v-9.5zM948.4 316.8v-9.1l8-4.6v9.1l-8 4.6zm-.3-9.4v9.9l8.3-4.8.3-.2-.3.2V303l-8.3 4.8v-.4z"/>
        <path fill="#FFF" d="M956.7 312v-9.1l8-4.6v9.1l-8 4.6zm8-13.8l-8 4.6-.3.2v9.5l.3-.2 8-4.6.3-.2-.3.2v-9.5z"/>
        <path fill="#FFF" d="M965 307.2v-9.1l8-4.6v9.1l-8 4.6zm7.9-13.7l-8 4.6-.3.2v9.5l.3-.2 8-4.6.3-.2-.2.2-.1-9.5z"/>
        <path fill="#FFF" d="M973.3 302.4v-9.1l8-4.6v9.1l-8 4.6zm7.9-13.7l-8 4.6-.3.2v9.5l.3-.2 8-4.6.3-.2-.3.2v-9.5z"/>
        <path fill="#FFF" d="M981.6 297.6v-9.1l8-4.6v9.1l-8 4.6zm7.9-13.7l-8 4.6-.3.2v9.5l.3-.2 8-4.6.3-.2-.3.2v-9.5z"/>
        <path fill="#FFF" d="M997.8 279.1l-7.9 4.6-.4.2v9.5l.4-.2 6.1-3.5.3-.6-6.4 3.7v-9.1l7.9-4.6v7.4zM998.5 288.1l-.1.1.1-.1zm7.6-13.8l-8 4.6-.3.2v7.4l.3-.6v-7l8-4.6v9.1l-5.4 3.1.3.2 5.1-2.9.3-.2-.3.2v-9.5z"/>
        <path fill="#FFF" d="M1014.4 269.5l-8 4.6-.3.2v9.5l.4-.1 6.5-3.8-.4-.2-6.1 3.6-.1-9.2 8-4.6v7.4zM1022.7 264.7l-8 4.6-.3.2v7.4l.3-.2v-7.4l8-4.6v9.2l-3.7 2.2-.1.3 3.8-2.1.3-.2-.3.2z"/>
        <path fill="#FFF" d="M1023 273.7v-9.1l8-4.6v9.1l-8 4.6zm8.3-13.9l-8.3 4.8-.3.2v9.5l.3-.2 8.3-4.8v-9.5zM948.4 307.2v-9.1l8-4.6v9.1l-8 4.6zm7.9-14.1l-8.3 4.8v9.9l8.3-4.8.3-.2-.3.2v-9.9z"/>
        <path fill="#FFF" d="M956.7 302.5v-9.1l8-4.6v9.1l-8 4.6zm7.9-14.2l-8.3 4.8v9.9l.3-.2 8-4.6.3-.2-.3.2v-9.9z"/>
        <path fill="#FFF" d="M965 297.7v-9.1l8-4.6v9.1l-8 4.6zm7.9-14.1l-8.3 4.8v9.9l.3-.2 8-4.6.3-.2-.3.2v-9.9z"/>
        <path fill="#FFF" d="M973.3 292.9v-9.1l8-4.6v9.1l-8 4.6zm7.9-14.1l-8.3 4.8v9.9l.3-.2 8-4.6.3-.2-.3.2v-9.9z"/>
        <path fill="#FFF" d="M981.6 288.1V279l8-4.6v9.1l-8 4.6zm7.9-14.1l-8.3 4.8v9.9l.3-.2 8-4.6.3-.2-.3.2V274z"/>
        <path fill="#FFF" d="M989.9 283.3v-9.1l8-4.6v9.1l-8 4.6zm7.9-14.1l-8.3 4.8v9.9l.3-.2 8-4.6.3-.2-.3.2v-9.9z"/>
        <path fill="#FFF" d="M998.1 278.5v-9.1l8-4.6v9.1l-8 4.6zm8-14.1l-8.3 4.8v9.9l.3-.2 8-4.6.3-.2-.3.2v-9.9z"/>
        <path fill="#FFF" d="M1006.4 273.7v-9.1l8-4.6v9.1l-8 4.6zm8-14.1l-8.3 4.8v9.9l.3-.2 8-4.6.3-.2-.3.2v-9.9z"/>
        <path fill="#FFF" d="M1014.7 269v-9.1l8-4.6v9.1l-8 4.6zm7.9-14.2l-8.3 4.8v9.9l.3-.2 8-4.6.3-.2-.3.2v-9.9z"/>
        <path fill="#FFF" d="M1023 264.2v-9.1l8-4.6v9.1l-8 4.6zm8.3-14.3l-8.6 5v9.9l.3-.2 8.3-4.8v-9.9z"/>
        <path fill="#FF50AC" d="M998.5 285.3l-.3.6-.4.6-1.5 2.6-.3.6-6.1 10.5-.3.6-1.6 2.6-.3.6-6.1 10.5-.3.6-.1.1-6.5-3.7-.3-.2-1.1-.6-.3-.2-.4-.2-2.4 3.5-.5.6-4.6 6.5-.4.4-6.3 8.8-.4.6-1.2 1.7-.3.4-1.8 2.4 1 1.1.8-1 .3-.5 4.2-5.8.5-.7 3.2-4.5.4-.5 7.3-10.2.6.3.3.2 6.9 3.9.3.2.7.4.1-.2.3-.5.3-.5.4-.6 7.3-12.7.3-.5.3-.5.3-.6 7.3-12.7.4-.5.2-.5.1-.2.1.1 7.6 4.3.3.2h.1l.3.2.2.2.3-.5.5-.6 6.5-9.3.4-.4.6-1 3.4 1.9.1-6.8.1-.3v-1.9l-4.3 2.5-.3.2-3.2 2 1.4.8.4.2 1.2.7-6.9 9.7-.8-.5-.4-.1-5-2.9-.4-.2z"/>
        <path fill="#203E6D" d="M1189.7 180.2l-64.4 36.6.1 51.3 64.5-36.6z"/>
        <path fill="#FFF" d="M1141.6 215c-3 1.7-5.6 4.6-7.6 8l7.6 4.3V215z"/>
        <path fill="#FF50AC" d="M1144.6 215.9v15.2l9.4 5.3c2.4-4.1 3.8-8.8 3.8-13 0-4.2-1.5-7.1-3.9-8.5-2.3-1.3-5.6-1.1-9.3 1z"/>
        <path fill="#BE29E2" d="M1134.3 227.2c-2.4 4.1-3.8 8.8-3.8 13 0 4.2 1.5 7.1 3.9 8.5 2.4 1.4 5.7 1.2 9.3-.9 3.6-2.1 6.9-5.7 9.3-9.8l-9.4-5.3-9.3-5.5z"/>
        <path fill="#FFF" d="M1182.8 200.5v1.9l-20.3 11.5V212zM1182.8 208.7v1.9l-20.3 11.5v-1.9zM1178.2 221.2l-15.7 8.9v1.9l15.7-8.9z"/>
        <path fill="#203E6D" d="M1092.2 265.2l-46.8 26.6c-.8.4-1.2 1.2-1.2 2.1l.1 35.5c0 1.9 2 3 3.6 2.1l46.8-26.6c.8-.4 1.2-1.2 1.2-2.1l-.1-35.5c0-1.9-2-3-3.6-2.1z"/>
        <path fill="url(#o)" d="M128.8 108.3l-9.6 16.5c-.6 1-1.9 1.5-3 1-1.1-.4-2.4 0-3 1l-2.6 4.6c-1.2 2.2 1.2 4.6 3.3 3.3l32-18.5c1.4-.8 1.6-2.8.4-3.9l-3.6-3.1c-1-.9-2.5-.8-3.4.2l-1.7 1.8c-.8.8-2 1-3 .4l-5.8-3.3z" transform="translate(943 173)"/>
        <path fill="#FF50AC" d="M1071.8 292.9l-9.6 16.5c-.6 1-1.9 1.5-3 1-1.1-.4-2.4 0-3 1l-2.6 4.6c-1.2 2.2 1.2 4.6 3.3 3.3l32-18.5c1.4-.8 1.6-2.8.4-3.9l-3.6-3.1c-1-.9-2.5-.8-3.4.2l-1.7 1.8c-.8.8-2 1-3 .4l-5.8-3.3z"/>
        <path fill="#FFF" d="M1067.8 462.7c1 .6 1 1.6 0 2.2l-31.1 18.1c-1 .6-2.7.6-3.8 0l-31.3-18.1c-1-.6-1-1.6 0-2.2l31.1-18.1c1-.6 2.7-.6 3.8 0l31.3 18.1z"/>
        <path fill="#82A9D8" d="M1068.6 463.9v.6s0 .1-.1.1v.1l-.1.1s-.1 0-.1.1l-.1.1s-.1 0-.1.1c0 0-.1 0-.1.1l-31.1 18.1c-.1.1-.2.1-.4.2h-.1c-.1 0-.2.1-.2.1-.1 0-.2 0-.3.1-.1 0-.2 0-.3.1h-.5-.5-.1c-.1 0-.3 0-.4-.1h-.1c-.1 0-.3-.1-.4-.1h-.1c-.1-.1-.3-.1-.4-.2l-31.3-18.1c-.2-.1-.4-.2-.5-.4-.2-.2-.3-.5-.3-.7v13.5c0 .4.3.8.8 1.1l31.2 17.6c.1.1.2.1.4.2h.1c.1 0 .2.1.2.1H1035.9c.1 0 .2 0 .3-.1H1036.5c.1-.1.3-.1.4-.2l31.1-18.1h.1s.1 0 .1-.1l.1-.1s.1 0 .1-.1l.1-.1s0-.1.1-.1v-.2-.2-13.5s0-.1 0 0z"/>
        <path fill="#FFF" d="M1056.5 454c.7.4.7 1 0 1.4l-20.5 11.9c-.7.4-1.8.4-2.5 0l-20.5-11.9c-.7-.4-.7-1 0-1.4l20.4-11.9c.7-.4 1.8-.4 2.5 0l20.6 11.9z"/>
        <path fill="#C5DBF9" d="M1057 454.8c0 .1 0 .1 0 0v.4s0 .1-.1.1h-.1-.1-.1l-20.6 12c-.1 0-.2.1-.2.1h-.1c-.1 0-.1 0-.2.1h-.4-1c-.1 0-.2 0-.2-.1-.1 0-.2-.1-.3-.1l-20.6-11.9c-.1-.1-.2-.2-.3-.2-.1-.1-.2-.3-.2-.5v8.9c0 .3.2.5.5.7l20.6 11.9c.1 0 .2.1.3.1.1 0 .1 0 .2.1H1036c.1 0 .2-.1.2-.1l20.4-11.9h.2l.1-.1v-.1-.1-.1-.1l.1-9.1s0-.1 0 0z"/>
        <path fill="url(#p)" d="M80.8 116.5v164.9l21.9.7V116.5z" transform="translate(943 173)"/>
        <path fill="#FF50AC" d="M1045.7 454.4c.3.2.3.5 0 .7l-10.3 6c-.3.2-.9.2-1.2 0l-10.3-6c-.3-.2-.3-.5 0-.7l10.3-6c.3-.2.9-.2 1.2 0l10.3 6z"/>
        <path fill="#FFF" d="M1119.3 499.7c1 .6 1 1.6 0 2.2l-31 18.1c-1 .6-2.7.6-3.8 0l-31.3-18.1c-1-.6-1-1.6 0-2.2l31.1-18.1c1-.6 2.7-.6 3.8 0l31.2 18.1z"/>
        <path fill="#82A9D8" d="M1120.1 500.9s0 .1 0 0v.6s0 .1-.1.1v.1l-.1.1s-.1 0-.1.1l-.1.1s-.1 0-.1.1c0 0-.1 0-.1.1l-31.2 17.8c-.1.1-.2.1-.4.2h-.1c-.1 0-.2.1-.2.1-.1 0-.2 0-.3.1-.1 0-.2 0-.3.1h-.5-.5-.1c-.1 0-.3 0-.4-.1h-.1c-.1 0-.3-.1-.4-.1h-.1c-.1-.1-.3-.1-.4-.2l-31.3-18.1c-.2-.1-.4-.2-.5-.4-.2-.2-.3-.5-.3-.7v13.5c0 .4.3.8.8 1.1l31.3 18.1c.1.1.2.1.4.2h.1c.1 0 .2.1.2.1H1087.4c.1 0 .2 0 .3-.1H1088c.1-.1.3-.1.4-.2l31.1-18.1h.1s.1 0 .1-.1l.1-.1s.1 0 .1-.1l.1-.1s0-.1.1-.1v-.2-.2-13.7z"/>
        <path fill="#FFF" d="M1108 491c.7.4.7 1 0 1.4l-20.4 11.9c-.7.4-1.8.4-2.5 0l-20.6-11.9c-.7-.4-.7-1 0-1.4l20.4-11.9c.7-.4 1.8-.4 2.5 0L1108 491z"/>
        <path fill="#C5DBF9" d="M1108.5 491.8v.4s0 .1-.1.1h-.1-.1-.1l-20.4 11.9c-.1 0-.2.1-.2.1h-.1c-.1 0-.1 0-.2.1h-.4-1c-.1 0-.2 0-.2-.1-.1 0-.2-.1-.3-.1l-20.6-11.9c-.1-.1-.2-.2-.3-.2-.1-.1-.2-.3-.2-.5v8.9c0 .3.2.5.5.7l20.6 11.9c.1 0 .2.1.3.1.1 0 .1 0 .2.1H1087.7c.1 0 .2-.1.2-.1l20.4-11.9h.2l.1-.1v-.1-.1-.1-.1l-.1-9z"/>
        <path fill="url(#q)" d="M132.3 153.5v164.9l21.9.7V153.5z" transform="translate(943 173)"/>
        <path fill="#FF50AC" d="M1097.2 491.4c.3.2.3.5 0 .7l-10.3 6c-.3.2-.9.2-1.2 0l-10.3-6c-.3-.2-.3-.5 0-.7l10.3-6c.3-.2.9-.2 1.2 0l10.3 6z"/>
        <path fill="#F55D61" d="M1326.25 325l-5.25-11.418 10.75-5.582 5.25 11.418-10.75 5.582zm-2.03-10.276l3.11 6.851 6.45-3.299-3.11-6.851-6.45 3.299zM440.254 222L435 210.582 445.746 205 451 216.418 440.254 222zm-2.03-10.276l3.104 6.851 6.448-3.299-3.104-6.851-6.448 3.299z"/>
        <path fill="#2372EC" d="M834 236c-4.431 0-8-3.569-8-8s3.569-8 8-8 8 3.569 8 8-3.569 8-8 8zm0-13.538c-3.077 0-5.538 2.461-5.538 5.538 0 3.077 2.461 5.538 5.538 5.538 3.077 0 5.538-2.461 5.538-5.538 0-3.077-2.461-5.538-5.538-5.538z"/>
        <path fill="#D4ECFF" d="M920 539c7.18 0 13-5.82 13-13s-5.82-13-13-13-13 5.82-13 13 5.82 13 13 13z"/>
        <path fill="#2372EC" d="M1264 236c3.87 0 7-3.134 7-7s-3.13-7-7-7-7 3.134-7 7 3.13 7 7 7z"/>
    </g>
</svg>