<svg xmlns="http://www.w3.org/2000/svg" viewBox="0 0 1401 608"><defs><linearGradient id="Gradient-0" x1=".7" y1=".6" x2=".3" y2=".3"><stop offset="0" stop-color="#fff"/><stop offset=".3" stop-color="#fdfefe"/><stop offset=".4" stop-color="#f5fafa"/><stop offset=".5" stop-color="#e7f3f4"/><stop offset=".6" stop-color="#d3e9ec"/><stop offset=".7" stop-color="#badde1"/><stop offset=".8" stop-color="#9bcdd3"/><stop offset=".9" stop-color="#75bbc3"/><stop offset=".9" stop-color="#4aa6b0"/><stop offset="1" stop-color="#1b8e9b"/><stop offset="1" stop-color="#168c99"/></linearGradient><linearGradient id="Gradient-1" x1=".6" y1=".6" x2="0" y2=".4"><stop offset="0" stop-color="#fff"/><stop offset=".3" stop-color="#fdfefe"/><stop offset=".4" stop-color="#f5fafa"/><stop offset=".5" stop-color="#e7f3f4"/><stop offset=".6" stop-color="#d3e9ec"/><stop offset=".7" stop-color="#badde1"/><stop offset=".8" stop-color="#9bcdd3"/><stop offset=".9" stop-color="#75bbc3"/><stop offset=".9" stop-color="#4aa6b0"/><stop offset="1" stop-color="#1b8e9b"/><stop offset="1" stop-color="#168c99"/></linearGradient><linearGradient id="Gradient-2" x1=".7" y1=".5" x2=".1" y2=".2"><stop offset="0" stop-color="#fff"/><stop offset=".3" stop-color="#fdfefe"/><stop offset=".4" stop-color="#f5fafa"/><stop offset=".5" stop-color="#e7f3f4"/><stop offset=".6" stop-color="#d3e9ec"/><stop offset=".7" stop-color="#badde1"/><stop offset=".8" stop-color="#9bcdd3"/><stop offset=".9" stop-color="#75bbc3"/><stop offset=".9" stop-color="#4aa6b0"/><stop offset="1" stop-color="#1b8e9b"/><stop offset="1" stop-color="#168c99"/></linearGradient><linearGradient id="Gradient-3" x1=".7" y1=".5" x2=".1" y2=".2"><stop offset="0" stop-color="#fff"/><stop offset=".3" stop-color="#fdfefe"/><stop offset=".4" stop-color="#f5fafa"/><stop offset=".5" stop-color="#e7f3f4"/><stop offset=".6" stop-color="#d3e9ec"/><stop offset=".7" stop-color="#badde1"/><stop offset=".8" stop-color="#9bcdd3"/><stop offset=".9" stop-color="#75bbc3"/><stop offset=".9" stop-color="#4aa6b0"/><stop offset="1" stop-color="#1b8e9b"/><stop offset="1" stop-color="#168c99"/></linearGradient><linearGradient id="Gradient-4" x1=".5" y1=".5" x2=".1" y2=".3"><stop offset="0" stop-color="#fff"/><stop offset=".3" stop-color="#fdfefe"/><stop offset=".4" stop-color="#f5fafa"/><stop offset=".5" stop-color="#e7f3f4"/><stop offset=".6" stop-color="#d3e9ec"/><stop offset=".7" stop-color="#badde1"/><stop offset=".8" stop-color="#9bcdd3"/><stop offset=".9" stop-color="#75bbc3"/><stop offset=".9" stop-color="#4aa6b0"/><stop offset="1" stop-color="#1b8e9b"/><stop offset="1" stop-color="#168c99"/></linearGradient><linearGradient id="Gradient-5" x1=".5" y1=".5" x2=".1" y2=".3"><stop offset="0" stop-color="#fff"/><stop offset=".3" stop-color="#fdfefe"/><stop offset=".4" stop-color="#f5fafa"/><stop offset=".5" stop-color="#e7f3f4"/><stop offset=".6" stop-color="#d3e9ec"/><stop offset=".7" stop-color="#badde1"/><stop offset=".8" stop-color="#9bcdd3"/><stop offset=".9" stop-color="#75bbc3"/><stop offset=".9" stop-color="#4aa6b0"/><stop offset="1" stop-color="#1b8e9b"/><stop offset="1" stop-color="#168c99"/></linearGradient><linearGradient id="Gradient-6" x1=".5" y1=".5" x2=".2" y2=".3"><stop offset="0" stop-color="#fff"/><stop offset=".3" stop-color="#fdfefe"/><stop offset=".4" stop-color="#f5fafa"/><stop offset=".5" stop-color="#e7f3f4"/><stop offset=".6" stop-color="#d3e9ec"/><stop offset=".7" stop-color="#badde1"/><stop offset=".8" stop-color="#9bcdd3"/><stop offset=".9" stop-color="#75bbc3"/><stop offset=".9" stop-color="#4aa6b0"/><stop offset="1" stop-color="#1b8e9b"/><stop offset="1" stop-color="#168c99"/></linearGradient><linearGradient id="Gradient-7" x1=".6" y1=".5" x2=".3" y2=".3"><stop offset="0" stop-color="#fff"/><stop offset=".3" stop-color="#fdfefe"/><stop offset=".4" stop-color="#f5fafa"/><stop offset=".5" stop-color="#e7f3f4"/><stop offset=".6" stop-color="#d3e9ec"/><stop offset=".7" stop-color="#badde1"/><stop offset=".8" stop-color="#9bcdd3"/><stop offset=".9" stop-color="#75bbc3"/><stop offset=".9" stop-color="#4aa6b0"/><stop offset="1" stop-color="#1b8e9b"/><stop offset="1" stop-color="#168c99"/></linearGradient><linearGradient id="Gradient-8" x1=".5" y1="1" x2=".5" y2=".1"><stop offset="0" stop-color="#fff"/><stop offset="1" stop-color="#fff" stop-opacity="0"/></linearGradient><linearGradient id="Gradient-9" x1=".5" y1=".9" x2=".5" y2=".2"><stop offset="0" stop-color="#fff"/><stop offset="1" stop-color="#fff" stop-opacity="0"/></linearGradient><linearGradient id="Gradient-10" x1=".5" y1="1" x2=".5" y2=".1"><stop offset="0" stop-color="#fff"/><stop offset="1" stop-color="#fff" stop-opacity="0"/></linearGradient><linearGradient id="Gradient-11" x1=".5" y1="1" x2=".5" y2=".1"><stop offset="0" stop-color="#fff"/><stop offset="1" stop-color="#fff" stop-opacity="0"/></linearGradient><linearGradient id="Gradient-12" x1=".5" y1="1" x2=".5" y2=".1"><stop offset="0" stop-color="#fff"/><stop offset="1" stop-color="#fff" stop-opacity="0"/></linearGradient><linearGradient id="Gradient-13" x1=".5" y1="1" x2=".5" y2=".1"><stop offset="0" stop-color="#fff"/><stop offset="1" stop-color="#fff" stop-opacity="0"/></linearGradient><linearGradient id="Gradient-14" x1=".5" y1=".6" x2=".4" y2=".3"><stop offset="0" stop-color="#fff" stop-opacity="0"/><stop offset="1" stop-color="#fff"/></linearGradient><linearGradient id="Gradient-15" x1=".5" y1="1" x2=".5" y2=".1"><stop offset="0" stop-color="#fff"/><stop offset="1" stop-color="#fff" stop-opacity="0"/></linearGradient><linearGradient id="Gradient-16" x1=".5" y1="1" x2=".5" y2=".1"><stop offset="0" stop-color="#fff"/><stop offset="1" stop-color="#fff" stop-opacity="0"/></linearGradient><mask id="Mask-1"><path fill="#ff50ac" d="M48-17.7l-0.3 .6l-0.4 .6l-1.5 2.6l-0.3 .6l-6.1 10.5l-0.3 .6l-1.6 2.6l-0.3 .6l-6.1 10.5l-0.3 .6l-0.1 .1l-6.5-3.7l-0.3-0.2l-1.1-0.6l-0.3-0.2l-0.4-0.2l-2.4 3.5l-0.5 .6l-4.6 6.5l-0.4 .4l-6.3 8.8l-0.4 .6l-1.2 1.7l-0.3 .4l-1.8 2.4l1 1.1l.8-1l.3-0.5l4.2-5.8l.5-0.7l3.2-4.5l.4-0.5l7.3-10.2l.6 .3l.3 .2l6.9 3.9l.3 .2l.7 .4l.1-0.2l.3-0.5l.3-0.5l.4-0.6l7.3-12.7l.3-0.5l.3-0.5l.3-0.6l7.3-12.7l.4-0.5l.2-0.5l.1-0.2l.1 .1l7.6 4.3l.3 .2h.1l.3 .2l.2 .2l.3-0.5l.5-0.6l6.5-9.3l.4-0.4l.6-1l3.4 1.9l.1-6.8l.1-0.3v-1.9l-4.3 2.5l-0.3 .2l-3.2 2l1.4 .8l.4 .2l1.2 .7l-6.9 9.7l-0.8-0.5l-0.4-0.1l-5-2.9l-0.4-0.2Z"/></mask><mask id="Mask-2"><path fill="url(#Gradient-15)" d="M80.8 116.5v164.9l21.9 .7v-165.6Z"/></mask><mask id="Mask-3"><path fill="url(#Gradient-16)" d="M132.3 153.5v164.9l21.9 .7v-165.6Z"/></mask></defs><style>
@keyframes a0_d { 0% { d: path('M1248.4,323.7C1250,324.6,1251.7,326.7,1253.4,330.2C1263.6,351.3,1267.4,369.1,1273,372.3C1274.8,373.4,1276.9,372.8,1279.4,370.3C1284.7,365,1288.6,363.6,1291.9,365.5C1297.9,369,1302.2,383.3,1309.9,405.8L1190.2,336.7C1191.4,332.7,1194.7,315,1203.3,319.9C1206.7,321.9,1211,327.5,1216.4,339C1218.2,342.9,1219.9,345.1,1221.6,346C1226.3,348.7,1230.7,341.8,1235,334.8C1239.3,327.9,1243.7,320.9,1248.4,323.7Z'); } 32.5% { d: path('M1248.4,323.7C1250,324.6,1251.7,326.7,1253.4,330.2C1263.6,351.3,1267.4,369.1,1273,372.3C1274.8,373.4,1276.9,372.8,1279.4,370.3C1284.7,365,1288.6,363.6,1291.9,365.5C1297.9,369,1302.2,383.3,1309.9,405.8L1190.2,336.7C1191.4,332.7,1194.7,315,1203.3,319.9C1206.7,321.9,1211,327.5,1216.4,339C1218.2,342.9,1219.9,345.1,1221.6,346C1226.3,348.7,1230.7,341.8,1235,334.8C1239.3,327.9,1243.7,320.9,1248.4,323.7Z'); } 50% { d: path('M1248.4,323.7C1250,324.6,1252.3,347.5,1254,351C1264.2,372.1,1263.4,347.8,1269,351C1270.8,352.1,1277.5,368,1280,365.5C1285.3,360.2,1298,384,1298,384C1298,384,1302.2,383.3,1309.9,405.8L1190.2,336.7C1191.4,332.7,1194.7,315,1203.3,319.9C1206.7,321.9,1212.4,305.2,1217.8,316.7C1219.6,320.6,1221.3,322.8,1223,323.7C1227.7,326.4,1229.7,326.9,1234,319.9C1238.3,313,1243.7,320.9,1248.4,323.7Z'); } 65% { d: path('M1248.4,323.7C1250,324.6,1252.3,347.5,1254,351C1264.2,372.1,1263.4,347.8,1269,351C1270.8,352.1,1277.5,368,1280,365.5C1285.3,360.2,1298,384,1298,384C1298,384,1302.2,383.3,1309.9,405.8L1190.2,336.7C1191.4,332.7,1194.7,315,1203.3,319.9C1206.7,321.9,1212.4,305.2,1217.8,316.7C1219.6,320.6,1221.3,322.8,1223,323.7C1227.7,326.4,1229.7,326.9,1234,319.9C1238.3,313,1243.7,320.9,1248.4,323.7Z'); } 81.675% { d: path('M1248.4,323.7C1250,324.6,1251.7,326.7,1253.4,330.2C1263.6,351.3,1267.4,369.1,1273,372.3C1274.8,373.4,1276.9,372.8,1279.4,370.3C1284.7,365,1288.6,363.6,1291.9,365.5C1297.9,369,1302.2,383.3,1309.9,405.8L1190.2,336.7C1191.4,332.7,1194.7,315,1203.3,319.9C1206.7,321.9,1211,327.5,1216.4,339C1218.2,342.9,1219.9,345.1,1221.6,346C1226.3,348.7,1230.7,341.8,1235,334.8C1239.3,327.9,1243.7,320.9,1248.4,323.7Z'); } 100% { d: path('M1248.4,323.7C1250,324.6,1251.7,326.7,1253.4,330.2C1263.6,351.3,1267.4,369.1,1273,372.3C1274.8,373.4,1276.9,372.8,1279.4,370.3C1284.7,365,1288.6,363.6,1291.9,365.5C1297.9,369,1302.2,383.3,1309.9,405.8L1190.2,336.7C1191.4,332.7,1194.7,315,1203.3,319.9C1206.7,321.9,1211,327.5,1216.4,339C1218.2,342.9,1219.9,345.1,1221.6,346C1226.3,348.7,1230.7,341.8,1235,334.8C1239.3,327.9,1243.7,320.9,1248.4,323.7Z'); } }
@keyframes a1_d { 0% { d: path('M1232.6,351.4C1234.5,352.5,1236.4,354.8,1238.4,359C1245.2,373.2,1249.9,379.6,1253.8,381.8C1256.9,383.6,1259.5,382.6,1262.3,380.6C1264.6,379,1267.6,378.6,1271.1,380.7C1276.7,383.9,1283.5,393.3,1290.4,413.2L1180.6,349.8C1181.7,345.9,1189.8,339.2,1197.5,343.6C1200,345,1202.5,347.6,1204.6,351.9C1206.7,356,1208.6,358.2,1210.5,359.3C1214.5,361.6,1218.1,358.5,1221.7,355.3C1225.2,352.3,1228.7,349.2,1232.6,351.4Z'); } 25% { d: path('M1232.6,351.4C1234.5,352.5,1236.4,354.8,1238.4,359C1245.2,373.2,1249.9,379.6,1253.8,381.8C1256.9,383.6,1259.5,382.6,1262.3,380.6C1264.6,379,1267.6,378.6,1271.1,380.7C1276.7,383.9,1283.5,393.3,1290.4,413.2L1180.6,349.8C1181.7,345.9,1189.8,339.2,1197.5,343.6C1200,345,1202.5,347.6,1204.6,351.9C1206.7,356,1208.6,358.2,1210.5,359.3C1214.5,361.6,1218.1,358.5,1221.7,355.3C1225.2,352.3,1228.7,349.2,1232.6,351.4Z'); animation-timing-function: cubic-bezier(.4,0,1,1); } 40% { d: path('M1229,368C1230.9,369.1,1236.4,354.8,1238.4,359C1245.2,373.2,1257.1,360.8,1261,363C1264.1,364.8,1259.5,382.6,1262.3,380.6C1264.6,379,1267.6,378.6,1271.1,380.7C1276.7,383.9,1283.5,393.3,1290.4,413.2L1180.6,349.8C1181.7,345.9,1189.8,339.2,1197.5,343.6C1200,345,1197.5,354,1203,355.3C1205.1,359.4,1212.1,336.9,1214,338C1218,340.3,1218.1,358.5,1221.7,355.3C1225.2,352.3,1225.1,365.8,1229,368Z'); } 55% { d: path('M1229,368C1230.9,369.1,1236.4,354.8,1238.4,359C1245.2,373.2,1257.1,360.8,1261,363C1264.1,364.8,1259.5,382.6,1262.3,380.6C1264.6,379,1267.6,378.6,1271.1,380.7C1276.7,383.9,1283.5,393.3,1290.4,413.2L1180.6,349.8C1181.7,345.9,1189.8,339.2,1197.5,343.6C1200,345,1197.5,354,1203,355.3C1205.1,359.4,1212.1,336.9,1214,338C1218,340.3,1218.1,358.5,1221.7,355.3C1225.2,352.3,1225.1,365.8,1229,368Z'); } 70% { d: path('M1232.6,351.4C1234.5,352.5,1236.4,354.8,1238.4,359C1245.2,373.2,1249.9,379.6,1253.8,381.8C1256.9,383.6,1259.5,382.6,1262.3,380.6C1264.6,379,1267.6,378.6,1271.1,380.7C1276.7,383.9,1283.5,393.3,1290.4,413.2L1180.6,349.8C1181.7,345.9,1189.8,339.2,1197.5,343.6C1200,345,1202.5,347.6,1204.6,351.9C1206.7,356,1208.6,358.2,1210.5,359.3C1214.5,361.6,1218.1,358.5,1221.7,355.3C1225.2,352.3,1228.7,349.2,1232.6,351.4Z'); } 100% { d: path('M1232.6,351.4C1234.5,352.5,1236.4,354.8,1238.4,359C1245.2,373.2,1249.9,379.6,1253.8,381.8C1256.9,383.6,1259.5,382.6,1262.3,380.6C1264.6,379,1267.6,378.6,1271.1,380.7C1276.7,383.9,1283.5,393.3,1290.4,413.2L1180.6,349.8C1181.7,345.9,1189.8,339.2,1197.5,343.6C1200,345,1202.5,347.6,1204.6,351.9C1206.7,356,1208.6,358.2,1210.5,359.3C1214.5,361.6,1218.1,358.5,1221.7,355.3C1225.2,352.3,1228.7,349.2,1232.6,351.4Z'); } }
@keyframes a2_t { 0% { transform: translate(0px,0px); } 12.5% { transform: translate(0px,0px); } 20% { transform: translate(2px,-3px); } 100% { transform: translate(2px,-3px); } }
@keyframes a3_d { 0% { d: path('M1141.9,369.2L1141.9,369.3L1137.9,371.6L1137.9,371.6Z'); animation-timing-function: cubic-bezier(.2,.1,.6,.9); } 12.5% { d: path('M1141.9,359.2L1141.9,369.3L1137.9,371.6L1137.9,361.6Z'); } 100% { d: path('M1141.9,359.2L1141.9,369.3L1137.9,371.6L1137.9,361.6Z'); } }
@keyframes a4_t { 0% { transform: translate(0px,0px); } 17.5% { transform: translate(0px,0px); } 25% { transform: translate(2px,-2px); } 100% { transform: translate(2px,-2px); } }
@keyframes a5_d { 0% { d: path('M1147,366.3L1147,366.3L1142.9,368.7L1142.9,368.6Z'); } 5% { d: path('M1147,366.3L1147,366.3L1142.9,368.7L1142.9,368.6Z'); } 10% { d: path('M1147,363L1147,366.3L1142.9,368.7L1142.9,365.3Z'); } 100% { d: path('M1147,363L1147,366.3L1142.9,368.7L1142.9,365.3Z'); } }
@keyframes a6_d { 0% { d: path('M1153.1,362.8L1153.1,362.8L1149.1,365.1L1149,365.1Z'); } 7.5% { d: path('M1153.1,362.8L1153.1,362.8L1149.1,365.1L1149,365.1Z'); } 15% { d: path('M1153.1,353.5L1153.1,362.8L1149.1,365.1L1149,355.8Z'); } 100% { d: path('M1153.1,353.5L1153.1,362.8L1149.1,365.1L1149,355.8Z'); } }
@keyframes a7_d { 0% { d: path('M1158.1,359.9L1158.2,359.9L1154.1,362.2L1154.1,362.2Z'); } 7.5% { d: path('M1158.1,359.9L1158.2,359.9L1154.1,362.2L1154.1,362.2Z'); } 15% { d: path('M1158.1,354.1L1158.2,359.9L1154.1,362.2L1154.1,356.4Z'); } 100% { d: path('M1158.1,354.1L1158.2,359.9L1154.1,362.2L1154.1,356.4Z'); } }
@keyframes a8_d { 0% { d: path('M-1.5,1L3.5,-2L3.5,40L-1.5,43Z'); animation-timing-function: cubic-bezier(.4,0,.6,1); } 17.5% { d: path('M-1.5,1L75.5,-44L75.5,-2L-1.5,43Z'); } 100% { d: path('M-1.5,1L75.5,-44L75.5,-2L-1.5,43Z'); } }
@keyframes a9_d { 0% { d: path('M80.8,281.4L80.8,281.4L102.7,282.1L102.7,281.4M102.7,281.4L80.8,281.4'); } 7.5% { d: path('M80.8,281.4L80.8,281.4L102.7,282.1L102.7,281.4M102.7,281.4L80.8,281.4'); } 47.5% { d: path('M80.8,281.4L80.8,281.4L102.7,282.1L102.7,281.4M102.7,281.4L80.8,281.4'); } 62.5% { d: path('M80.8,116.5L80.8,281.4L102.7,282.1L102.7,116.5M102.7,116.5L80.8,116.5'); } 100% { d: path('M80.8,116.5L80.8,281.4L102.7,282.1L102.7,116.5M102.7,116.5L80.8,116.5'); } }
@keyframes a10_d { 0% { d: path('M132.3,318.4L132.3,318.4L154.2,319.1L154.2,318.4Z'); } 25% { d: path('M132.3,318.4L132.3,318.4L154.2,319.1L154.2,318.4Z'); } 40% { d: path('M132.3,153.5L132.3,318.4L154.2,319.1L154.2,153.5Z'); } 100% { d: path('M132.3,153.5L132.3,318.4L154.2,319.1L154.2,153.5Z'); } }
</style><g fill="none"><path fill="#d4ecff" d="M0 151.5l115.5-63c12.9-7.1 16.9-21.8 8.9-33.2l-38.8-55.3h-85.4v151.5h-0.2Z"/><path fill="url(#Gradient-0)" d="M457.2 331.9v103.1h-68.6l-138.9-78.7l125.6-70.8Z" transform="translate(943,173)"/><path fill="url(#Gradient-1)" d="M352.4 435h-74.9l-82.1-46.5l39.3-22.1Z" transform="translate(943,173)"/><path fill="url(#Gradient-2)" d="M457.2 275.6v43.7l-77.3-43.8l39.3-22.1Z" transform="translate(943,173)"/><path fill="url(#Gradient-3)" d="M457.2 205.2v38.4l-17-10.4l-85.5-48.4l33.6-19.7Z" transform="translate(943,173)"/><path fill="url(#Gradient-4)" d="M259.6 426.6l33.6-19.6l-115.7-65.5l-33.6 19.6l85.5 48.5Z" transform="translate(943,173)"/><path fill="url(#Gradient-5)" d="M221.6 400.8l33.7-19.7l-130.8-76.1l-33.6 19.6l85.5 48.5Z" transform="translate(943,173)"/><path fill="url(#Gradient-6)" d="M157.6 352.2l84.6-47.7l-130.8-76.1l-84.5 47.7l85.5 48.5Z" transform="translate(943,173)"/><path fill="url(#Gradient-7)" d="M456.5 334.1l-126.6-73.7l-119 69.7l85.5 48.5l45.2 27.6l114.9-67.2Z" transform="translate(943,173)"/><path fill="#ff50ac" d="M1248.4 323.7c1.6 .9 3.3 3 5 6.5c10.2 21.1 14 38.9 19.6 42.1c1.8 1.1 3.9 .5 6.4-2c5.3-5.3 9.2-6.7 12.5-4.8c6 3.5 10.3 17.8 18 40.3l-119.7-69.1c1.2-4 4.5-21.7 13.1-16.8c3.4 2 7.7 7.6 13.1 19.1c1.8 3.9 3.5 6.1 5.2 7c4.7 2.7 9.1-4.2 13.4-11.2c4.3-6.9 8.7-13.9 13.4-11.1Z" style="animation: 4s linear infinite both a0_d;"/><path fill="#be29e2" d="M1232.6 351.4c1.9 1.1 3.8 3.4 5.8 7.6c6.8 14.2 11.5 20.6 15.4 22.8c3.1 1.8 5.7 .8 8.5-1.2c2.3-1.6 5.3-2 8.8 .1c5.6 3.2 12.4 12.6 19.3 32.5l-109.8-63.4c1.1-3.9 9.2-10.6 16.9-6.2c2.5 1.4 5 4 7.1 8.3c2.1 4.1 4 6.3 5.9 7.4c4 2.3 7.6-0.8 11.2-4c3.5-3 7-6.1 10.9-3.9Z" style="animation: 4s linear infinite both a1_d;"/><path fill="#9314b2" d="M1053.5 365.7l-14.2-8.2l-14.4 8.2l14.3 8.3Z"/><path fill="#b425d6" d="M1024.9 365.7v36.1l14.3 8.3v-36.1Z"/><path fill="#d351f2" d="M1039.2 374v36.1l14.3-8.3v-36.1Z"/><path fill="#cc0982" d="M1031.2 349.8l-14.3-8.3l-14.3 8.3l14.2 8.2Z"/><path fill="#f22299" d="M1002.6 349.8v64.7l14.2 8.3v-64.8Z"/><path fill="#ff50ac" d="M1016.8 358v64.8l14.4-8.3v-64.7Z"/><path fill="#9314b2" d="M1008.2 399.3l-14.3-8.3l-14.4 8.3l14.3 8.2Z"/><path fill="#b425d6" d="M979.5 399.3l.1 27.8l14.2 8.3v-27.9Z"/><path fill="#d351f2" d="M993.8 407.5v27.9l14.4-8.3v-27.8Z"/><path fill="#cc0982" d="M985 395.5l-14.3-8.3l-14.3 8.3l14.2 8.3Z"/><path fill="#f22299" d="M956.4 395.5v44.9l14.3 8.2l-0.1-44.8Z"/><path fill="#ff50ac" d="M970.6 403.8l.1 44.8l14.3-8.2v-44.9Z"/><path fill="#fff" d="M1330.8 323.6c1 .6 1 1.6 0 2.2l-31.1 18.1c-1 .6-2.7 .6-3.8 0l-31.3-18.1c-1-0.6-1-1.6 0-2.2l31.1-18.1c1-0.6 2.7-0.6 3.8 0l31.3 18.1Z"/><path fill="#82a9d8" d="M1331.6 324.7c0 .1 0 .1 0 0v.6c0 0 0 .1-0.1 .1v.1l-0.1 .1c0 0-0.1 0-0.1 .1l-0.1 .1c0 0-0.1 0-0.1 .1c0 0-0.1 0-0.1 .1l-31.1 18.1c-0.1 .1-0.2 .1-0.4 .2h-0.1c-0.1 0-0.2 .1-0.2 .1c-0.1 0-0.2 0-0.3 .1c-0.1 0-0.2 0-0.3 .1h-0.5h-0.5h-0.1c-0.1 0-0.3 0-0.4-0.1h-0.1c-0.1 0-0.3-0.1-0.4-0.1h-0.1c-0.1-0.1-0.3-0.1-0.4-0.2l-31.3-18.1c-0.2-0.1-0.4-0.2-0.5-0.4c-0.2-0.2-0.3-0.5-0.3-0.7v13.5c0 .4 .3 .8 .8 1.1l31.3 18.1c.1 .1 .2 .1 .4 .2h.1c.1 0 .2 .1 .2 .1h2.2c.1 0 .2 0 .3-0.1h.3c.1-0.1 .3-0.1 .4-0.2l31.1-18.1h.1c0 0 .1 0 .1-0.1l.1-0.1c0 0 .1 0 .1-0.1l.1-0.1c0 0 0-0.1 .1-0.1v-0.2v-0.2v-0.1l-0.1-13.9Z"/><path fill="#fff" d="M1319.5 314.9c.7 .4 .7 1 0 1.4l-20.4 11.9c-0.7 .4-1.8 .4-2.5 0l-20.6-11.9c-0.7-0.4-0.7-1 0-1.4l20.4-11.9c.7-0.4 1.8-0.4 2.5 0l20.6 11.9Z"/><path fill="#c5dbf9" d="M1320 315.6c0 0 0 .1 0 0c0 .1 0 .1 0 0v.4c0 0 0 .1-0.1 .1h-0.1h-0.1h-0.1l-20.4 11.9c-0.1 0-0.2 .1-0.2 .1h-0.1c-0.1 0-0.1 0-0.2 .1h-0.4h-1c-0.1 0-0.2 0-0.2-0.1c-0.1 0-0.2-0.1-0.3-0.1l-20.8-11.7c-0.1-0.1-0.2-0.2-0.3-0.2c-0.1-0.1-0.2-0.3-0.2-0.5v8.9c0 .3 .2 .5 .5 .7l20.6 11.9c.1 0 .2 .1 .3 .1c.1 0 .1 0 .2 .1h1.9c.1 0 .2-0.1 .2-0.1l20.4-11.9h.2l.1-0.1v-0.1v-0.1v-0.1v-0.1l.1-9.2Z"/><path fill="url(#Gradient-8)" d="M343.8 54.3v87.9l21.9 .7v-88.6Z" transform="translate(943,173)"/><path fill="#ff50ac" d="M1308.7 315.2c.3 .2 .3 .5 0 .7l-10.3 6c-0.3 .2-0.9 .2-1.2 0l-10.3-6c-0.3-0.2-0.3-0.5 0-0.7l10.3-6c.3-0.2 .9-0.2 1.2 0l10.3 6Z"/><path fill="#fff" d="M1269.8 419.6c3.7 2.1 3.7 5.6 0 7.7l-109.8 63.9c-3.7 2.1-9.6 2.1-13.3 0l-110.6-63.9c-3.7-2.1-3.7-5.6 0-7.7l109.9-63.8c3.7-2.1 9.6-2.1 13.3 0l110.5 63.8Z"/><path fill="#c5dbf9" d="M1272.6 423.8v.3c0 .1 0 .2-0.1 .2c0 .1 0 .2-0.1 .3c0 .1-0.1 .2-0.1 .2c0 .1-0.1 .2-0.1 .3c0 .1-0.1 .1-0.1 .2c-0.1 .1-0.1 .2-0.2 .3c0 .1-0.1 .1-0.2 .2l-0.4 .4l-0.2 .2c-0.1 .1-0.2 .2-0.3 .2c-0.1 .1-0.2 .1-0.3 .2c-0.1 .1-0.2 .2-0.3 .2c-0.1 .1-0.2 .2-0.4 .2l-109.8 64c-0.4 .2-0.9 .4-1.3 .6c-0.1 0-0.2 .1-0.4 .1l-0.9 .3c-0.3 .1-0.6 .2-0.9 .2c-0.4 .1-0.8 .1-1.1 .2h-0.3c-0.5 .1-1.1 .1-1.6 .1h-0.3c-0.5 0-1 0-1.6-0.1h-0.2c-0.5-0.1-1-0.1-1.5-0.3c-0.1 0-0.2 0-0.3-0.1c-0.4-0.1-0.9-0.2-1.3-0.4c-0.1 0-0.2 0-0.2-0.1c-0.5-0.2-1-0.4-1.4-0.7l-110.6-63.7c-0.7-0.4-1.3-0.9-1.7-1.3c-0.7-0.8-1.1-1.7-1.1-2.6v9c0 1.4 .9 2.8 2.8 3.9l110.6 63.8c.4 .2 .9 .5 1.4 .7h.1c.1 0 .2 .1 .2 .1c.3 .1 .5 .2 .8 .3c.2 0 .3 .1 .5 .1c.1 0 .2 0 .3 .1c.1 0 .2 0 .2 .1c.3 .1 .6 .1 .9 .2h2.7c.3 0 .7 0 1-0.1h.4c.3 0 .5-0.1 .8-0.1c.1 0 .2-0.1 .3-0.1c.3-0.1 .6-0.1 .9-0.2c.2 0 .3-0.1 .5-0.1c.1 0 .3-0.1 .4-0.1c.1 0 .2-0.1 .4-0.1c.5-0.2 .9-0.4 1.3-0.6l109.9-63.8c0 0 .1 0 .1-0.1c.1-0.1 .2-0.1 .2-0.2c.1-0.1 .2-0.1 .3-0.2c.1-0.1 .2-0.1 .3-0.2c.1-0.1 .2-0.2 .3-0.2h.1l.1-0.1l.4-0.4l.1-0.1c0 0 0-0.1 .1-0.1c.1-0.1 .2-0.2 .2-0.3l.1-0.1v-0.1c.1-0.1 .1-0.2 .1-0.3c0-0.1 .1-0.1 .1-0.2v-0.1c0-0.1 .1-0.2 .1-0.3c0-0.1 0-0.1 .1-0.2v-0.1v-0.3v-9.3c.2 0 .2 .1 .2 .2Z"/><path fill="#203e6d" d="M1170.2 288.4c1.9-1.1 3.5-0.2 3.5 2l.2 74.6c0 2.2-1.6 4.9-3.5 6.1l-97.7 56.4c-1.9 1.1-3.5 .2-3.5-2l-0.2-74.6c0-2.2 1.6-4.9 3.5-6.1l97.7-56.4Z"/><path fill="#fff" d="M1075.3 351c.1-0.2 .3-0.5 .4-0.7l91.6-52.9l.2 67.5c-0.1 .2-0.3 .6-0.4 .7l-91.6 52.9l-0.2-67.5Z"/><path fill="url(#Gradient-9)" d="M122.2 113.2c.1-0.2 .3-55.5 .4-55.6l99.8-57.6l.2 113.7c-0.1 .2-0.3 .6-0.5 .8l-99.7 57.6l-0.2-58.9Z" transform="translate(943,173)"/><path fill="#82a9d8" d="M1063.7 347.9v-0.2v-0.2v-0.2v-0.2v-0.2v-0.2v-0.2v-0.2v-0.3c0-0.1 0-0.1 .1-0.2c0-0.1 0-0.1 .1-0.2c0-0.1 0-0.1 .1-0.2c0-0.1 0-0.1 .1-0.2c0 0 0-0.1 .1-0.1c0-0.1 .1-0.1 .1-0.2c0-0.1 .1-0.1 .1-0.2c0-0.1 .1-0.1 .1-0.2c0-0.1 .1-0.1 .1-0.2v-0.1c.1-0.1 .2-0.3 .3-0.4c.1-0.1 .1-0.2 .2-0.3l.2-0.2c0-0.1 .1-0.1 .1-0.2c0-0.1 .1-0.1 .1-0.2c0-0.1 .1-0.1 .1-0.2l.1-0.1l.1-0.1c.1 0 .1-0.1 .2-0.1c.1 0 .1-0.1 .2-0.1c0 0 .1 0 .1-0.1h.1c.1 0 .1-0.1 .2-0.1c.1 0 .1-0.1 .2-0.1l.1-0.1l.1-0.1l97.7-56.4c0 0 .1 0 .1-0.1l.1-0.1h.1c0 0 .1 0 .1-0.1c0 0 .1 0 .1-0.1h1.3c.1 0 .1 0 .2 .1c.1 0 .2 .1 .3 .1l5.3 3.1c-0.1 0-0.2-0.1-0.3-0.1c-0.1 0-0.1 0-0.2-0.1h-0.3h-0.7c-0.1 0-0.2 .1-0.3 .1c-0.1 0-0.2 .1-0.3 .1c-0.1 .1-0.2 .1-0.3 .2l-97.7 56.4c-0.2 .1-0.5 .3-0.7 .5l-0.6 .6c-0.2 .2-0.4 .5-0.6 .7c-0.2 .2-0.4 .5-0.5 .8c-0.2 .3-0.3 .5-0.4 .8l-0.3 .9c-0.1 .3-0.2 .6-0.2 .9c0 .3-0.1 .6-0.1 .9l.2 74.6c0 .3 0 .5 .1 .8c0 .2 .1 .4 .2 .6c.1 .2 .2 .3 .3 .4l.1 .1c.1 .1 .2 .2 .4 .3l-5.3-3.1c-0.1-0.1-0.3-0.2-0.4-0.3l-0.1-0.1c0-0.1-0.1-0.1-0.1-0.2c0-0.1-0.1-0.2-0.1-0.2c0-0.1-0.1-0.1-0.1-0.2c0-0.1 0-0.1-0.1-0.2v-0.3v-0.1v-0.2v-0.2v-0.2v-0.2l-0.2-74.4Z"/><path fill="#c5dbf9" d="M1178.1 370.4l68.1 39.6l-104.7 60.5l-71.5-41.5l101.4-58.6c2.1-1.2 4.6-1.2 6.7 0Z"/><path fill="#82a9d8" d="M1246.2 410v9.2l-104.7 60.4v-9.1Zm-104.7 60.5v9.1l-67.4-39.2c-2.5-1.5-4-4.1-4.1-7v-4.5l71.5 41.6Z"/><path fill="#fff" d="M1152.4 432.8c-2.4 1.4-2.4 3.6 0 5l13.4 7.8c2.4 1.4 6.2 1.4 8.6 0l33.8-19.5c2.4-1.4 2.4-3.6 0-5l-13.4-7.8c-2.4-1.4-6.2-1.4-8.6 0l-33.8 19.5Z" opacity=".5"/><path fill="#203e6d" d="M1152.4 434.5l33.8-19.5c2.4-1.4 6.2-1.4 8.6 0l13.4 7.8c.8 .5 1.3 1 1.6 1.6c.5-1.2 0-2.4-1.6-3.3l-13.4-7.8c-2.4-1.4-6.2-1.4-8.6 0l-33.8 19.5c-1.6 .9-2.1 2.2-1.6 3.4c.3-0.6 .8-1.2 1.6-1.7Z" opacity=".48"/><path fill="#fff" d="M1175.7 376.8c-1.5-0.9-4-0.9-5.5 0l-85.7 49.5c-1.5 .9-1.5 2.3 0 3.2l30.7 17.9c1.5 .9 4 .9 5.5 0l85.7-49.5c1.5-0.9 1.5-2.3 0-3.2" opacity=".5"/><path fill="#c5dbf9" d="M1167.4 381.2l4.6-2.6c.3-0.1 .7-0.1 .9 0l2.4 1.4c.3 .1 .3 .4 0 .5l-4.6 2.6c-0.3 .1-0.7 .1-0.9 0l-2.4-1.4c-0.2-0.1-0.2-0.4 0-0.5Zm-7.2 4.2l4.6-2.7c.3-0.1 .7-0.1 .9 0l2.4 1.4c.3 .2 .3 .4 0 .5l-4.6 2.7c-0.3 .1-0.7 .1-0.9 0l-2.4-1.4c-0.3-0.1-0.3-0.4 0-0.5Zm-7.3 4.2l4.6-2.7c.3-0.1 .7-0.1 .9 0l2.4 1.4c.3 .2 .3 .4 0 .5l-4.6 2.7c-0.3 .1-0.7 .1-0.9 0l-2.4-1.4c-0.2-0.1-0.3-0.4 0-0.5Zm-7.3 4.2l4.6-2.7c.3-0.1 .7-0.1 .9 0l2.4 1.4c.3 .2 .3 .4 0 .5l-4.6 2.7c-0.3 .1-0.7 .1-0.9 0l-2.4-1.4c-0.2-0.2-0.2-0.4 0-0.5Zm-7.2 4.2l4.6-2.7c.3-0.1 .7-0.1 .9 0l2.4 1.4c.3 .2 .3 .4 0 .5l-4.6 2.7c-0.3 .1-0.7 .1-0.9 0l-2.4-1.4c-0.3-0.2-0.3-0.4 0-0.5Zm-7.3 4.1l4.6-2.7c.3-0.1 .7-0.1 .9 0l2.4 1.4c.3 .2 .3 .4 0 .5l-4.6 2.7c-0.2 .1-0.7 .1-0.9 0l-2.4-1.4c-0.2-0.1-0.2-0.3 0-0.5Zm-7.2 4.2l4.6-2.7c.2-0.1 .7-0.1 .9 0l2.4 1.4c.3 .2 .3 .4 0 .5l-4.6 2.7c-0.2 .1-0.7 .1-0.9 0l-2.4-1.4c-0.3-0.1-0.3-0.3 0-0.5Zm-7.3 4.2l4.6-2.7c.2-0.1 .7-0.1 .9 0l2.4 1.4c.3 .2 .3 .4 0 .5l-4.6 2.7c-0.2 .1-0.7 .1-0.9 0l-2.4-1.4c-0.2-0.1-0.3-0.3 0-0.5Zm-7.3 4.2l4.6-2.7c.2-0.1 .7-0.1 .9 0l2.4 1.4c.3 .2 .3 .4 0 .5l-4.6 2.7c-0.3 .1-0.7 .1-0.9 0l-2.4-1.4c-0.2-0.1-0.2-0.3 0-0.5Zm-7.2 4.2l4.6-2.7c.2-0.1 .7-0.1 .9 0l2.4 1.4c.3 .2 .3 .4 0 .5l-4.6 2.7c-0.3 .1-0.7 .1-0.9 0l-2.4-1.4c-0.3-0.1-0.3-0.3 0-0.5Zm-7.3 4.2l4.6-2.7c.2-0.1 .7-0.1 .9 0l2.4 1.4c.3 .2 .3 .4 0 .5l-4.6 2.7c-0.3 .1-0.7 .1-0.9 0l-2.4-1.4c-0.2-0.1-0.2-0.3 0-0.5Zm-7.2 4.2l4.6-2.6c.3-0.1 .7-0.2 .9 0l2.4 1.4c.3 .1 .3 .4 0 .5l-4.6 2.6c-0.3 .1-0.7 .1-0.9 0l-2.4-1.4c-0.3-0.1-0.3-0.4 0-0.5Zm85-43.1l4.6-2.6c.3-0.1 .7-0.1 .9 0l4 2.3c.3 .1 .3 .4 0 .5l-4.6 2.6c-0.3 .1-0.7 .1-0.9 0l-4-2.3c-0.2-0.1-0.2-0.3 0-0.5Zm-7.2 4.2l4.6-2.7c.3-0.1 .7-0.1 .9 0l4 2.3c.3 .2 .3 .4 0 .5l-4.6 2.7c-0.3 .1-0.7 .1-0.9 0l-4-2.3c-0.3-0.1-0.3-0.4 0-0.5Zm-7.3 4.2l4.6-2.7c.3-0.1 .7-0.1 .9 0l4 2.3c.3 .2 .3 .4 0 .5l-4.6 2.7c-0.3 .1-0.7 .1-0.9 0l-4-2.3c-0.2-0.1-0.2-0.4 0-0.5Zm-7.3 4.2l4.6-2.7c.3-0.1 .7-0.1 .9 0l4 2.3c.3 .2 .3 .4 0 .5l-4.6 2.7c-0.3 .1-0.7 .1-0.9 0l-4-2.3c-0.2-0.1-0.2-0.4 0-0.5Zm-7.2 4.2l4.6-2.7c.3-0.1 .7-0.1 .9 0l4 2.3c.3 .2 .3 .4 0 .5l-4.6 2.7c-0.3 .1-0.7 .1-0.9 0l-4-2.3c-0.3-0.1-0.3-0.4 0-0.5Zm-7.3 4.2l4.6-2.7c.3-0.1 .7-0.1 .9 0l4 2.3c.3 .2 .3 .4 0 .5l-4.6 2.7c-0.2 .1-0.7 .1-0.9 0l-4-2.3c-0.2-0.1-0.2-0.4 0-0.5Zm-7.2 4.2l4.6-2.7c.2-0.1 .7-0.1 .9 0l4 2.3c.3 .2 .3 .4 0 .5l-4.6 2.7c-0.2 .1-0.7 .1-0.9 0l-4-2.3c-0.3-0.2-0.3-0.4 0-0.5Zm-7.3 4.2l4.6-2.7c.2-0.1 .7-0.1 .9 0l4 2.3c.3 .2 .3 .4 0 .5l-4.6 2.7c-0.2 .1-0.7 .1-0.9 0l-4-2.3c-0.2-0.2-0.2-0.4 0-0.5Zm-7.3 4.1l4.6-2.7c.2-0.1 .7-0.1 .9 0l4 2.3c.3 .2 .3 .4 0 .5l-4.6 2.7c-0.3 .1-0.7 .1-0.9 0l-4-2.3c-0.2-0.1-0.2-0.3 0-0.5Zm-7.2 4.2l4.6-2.7c.2-0.1 .7-0.1 .9 0l4 2.3c.3 .2 .3 .4 0 .5l-4.6 2.7c-0.3 .1-0.7 .1-0.9 0l-4-2.3c-0.3-0.1-0.3-0.3 0-0.5Zm-7.3 4.2l4.6-2.7c.2-0.1 .7-0.1 .9 0l4 2.3c.3 .2 .3 .4 0 .5l-4.6 2.7c-0.3 .1-0.7 .1-0.9 0l-4-2.3c-0.2-0.1-0.2-0.3 0-0.5Zm-7.2 4.2l4.6-2.6c.3-0.1 .7-0.1 .9 0l4 2.3c.3 .1 .3 .4 0 .5l-4.6 2.6c-0.3 .1-0.7 .1-0.9 0l-4-2.3c-0.3-0.1-0.3-0.3 0-0.5Zm79.4-37.9l7.3-4.2l.6-0.4l4-2.3c.3-0.1 .7-0.1 .9 0l4 2.3c.3 .2 .3 .4 0 .5l-4 2.3l-0.6 .4l-7.3 4.2c-0.3 .1-0.7 .1-0.9 0l-4-2.3c-0.3-0.2-0.3-0.4 0-0.5Zm-7.3 4.2l4.6-2.7c.3-0.1 .7-0.1 .9 0l4 2.3c.3 .2 .3 .4 0 .5l-4.6 2.7c-0.3 .1-0.7 .1-0.9 0l-4-2.3c-0.2-0.2-0.2-0.4 0-0.5Zm-7.2 4.1l4.6-2.7c.3-0.1 .7-0.1 .9 0l4 2.3c.3 .2 .3 .4 0 .5l-4.6 2.7c-0.3 .1-0.7 .1-0.9 0l-4-2.3c-0.3-0.1-0.3-0.3 0-0.5Zm-7.3 4.2l4.6-2.7c.3-0.1 .7-0.1 .9 0l4 2.3c.3 .2 .3 .4 0 .5l-4.6 2.7c-0.3 .1-0.7 .1-0.9 0l-4-2.3c-0.2-0.1-0.3-0.3 0-0.5Zm-7.3 4.2l4.6-2.7c.3-0.1 .7-0.1 .9 0l4 2.3c.3 .2 .3 .4 0 .5l-4.6 2.7c-0.2 .1-0.7 .1-0.9 0l-4-2.3c-0.2-0.1-0.2-0.3 0-0.5Zm-7.2 4.2l4.6-2.7c.2-0.1 .7-0.1 .9 0l4 2.3c.3 .2 .3 .4 0 .5l-4.6 2.7c-0.2 .1-0.7 .1-0.9 0l-4-2.3c-0.3-0.1-0.3-0.3 0-0.5Zm-7.3 4.2l4.6-2.7c.2-0.1 .7-0.1 .9 0l4 2.3c.3 .2 .3 .4 0 .5l-4.6 2.7c-0.2 .1-0.7 .1-0.9 0l-4-2.3c-0.2-0.1-0.2-0.3 0-0.5Zm-7.2 4.2l4.6-2.7c.2-0.1 .7-0.1 .9 0l4 2.3c.3 .2 .3 .4 0 .5l-4.6 2.7c-0.3 .1-0.7 .1-0.9 0l-4-2.3c-0.3-0.1-0.3-0.3 0-0.5Zm-7.3 4.2l4.6-2.7c.2-0.1 .7-0.1 .9 0l4 2.3c.3 .2 .3 .4 0 .5l-4.6 2.7c-0.3 .1-0.7 .1-0.9 0l-4-2.3c-0.2-0.1-0.3-0.4 0-0.5Zm-14.5 8.4l7.3-4.2l1.3-0.7l3.3-1.9c.2-0.1 .7-0.1 .9 0l4 2.3c.3 .2 .3 .4 0 .5l-3.3 1.9l-1.3 .7l-7.3 4.2c-0.3 .1-0.7 .1-0.9 0l-4-2.3c-0.3-0.1-0.3-0.4 0-0.5Zm68.5-31.8l4.6-2.7c.3-0.1 .7-0.1 .9 0l4 2.3c.3 .2 .3 .4 0 .5l-4.6 2.7c-0.3 .1-0.7 .1-0.9 0l-4-2.3c-0.3-0.1-0.3-0.3 0-0.5Zm-7.3 4.2l4.6-2.7c.3-0.1 .7-0.1 .9 0l4 2.3c.3 .2 .3 .4 0 .5l-4.6 2.7c-0.3 .1-0.7 .1-0.9 0l-4-2.3c-0.2-0.1-0.2-0.3 0-0.5Zm-7.2 4.2l4.6-2.7c.3-0.1 .7-0.1 .9 0l4 2.3c.3 .2 .3 .4 0 .5l-4.6 2.7c-0.3 .1-0.7 .1-0.9 0l-4-2.3c-0.3-0.1-0.3-0.3 0-0.5Zm-7.3 4.2l4.6-2.7c.3-0.1 .7-0.1 .9 0l4 2.3c.3 .2 .3 .4 0 .5l-4.6 2.7c-0.3 .1-0.7 .1-0.9 0l-4-2.3c-0.2-0.1-0.3-0.3 0-0.5Zm-7.3 4.2l4.6-2.7c.3-0.1 .7-0.1 .9 0l4 2.3c.3 .2 .3 .4 0 .5l-4.6 2.7c-0.3 .1-0.7 .1-0.9 0l-4-2.3c-0.2-0.1-0.2-0.3 0-0.5Zm-7.2 4.2l4.6-2.7c.3-0.1 .7-0.1 .9 0l4 2.3c.3 .2 .3 .4 0 .5l-4.6 2.7c-0.3 .1-0.7 .1-0.9 0l-4-2.3c-0.3-0.1-0.3-0.3 0-0.5Zm-7.3 4.2l4.6-2.7c.3-0.1 .7-0.1 .9 0l4 2.3c.3 .2 .3 .4 0 .5l-4.6 2.7c-0.3 .1-0.7 .1-0.9 0l-4-2.3c-0.2-0.1-0.3-0.3 0-0.5Zm-18.2 10.5l15.2-8.8c.2-0.1 .6-0.1 .8 0l4.1 2.4c.2 .1 .2 .3 0 .4l-15.2 8.8c-0.3 .1-0.7 .1-0.9 0l-4-2.3c-0.2-0.1-0.2-0.4 0-0.5Zm69.4-40l15.2-8.8c.2-0.1 .6-0.1 .8 0l4.1 2.4c.2 .1 .2 .3 0 .4l-15.2 8.8c-0.2 .1-0.7 .1-0.9 0l-4-2.3c-0.3-0.1-0.3-0.4 0-0.5Zm17.3-2.2l4.6-2.7c.3-0.1 .7-0.1 .9 0l4.9 2.9c.3 .2 .3 .4 0 .5l-4.6 2.7c-0.3 .1-0.7 .1-0.9 0l-4.9-2.9c-0.3-0.1-0.3-0.3 0-0.5Zm-7.3 4.2l4.6-2.7c.3-0.1 .7-0.1 .9 0l4.9 2.9c.3 .2 .3 .4 0 .5l-4.6 2.7c-0.3 .1-0.7 .1-0.9 0l-4.9-2.9c-0.2-0.1-0.2-0.3 0-0.5Zm-7.3 4.2l4.6-2.7c.3-0.1 .7-0.1 .9 0l4.9 2.9c.3 .2 .3 .4 0 .5l-4.6 2.7c-0.3 .1-0.7 .1-0.9 0l-4.9-2.9c-0.2-0.1-0.2-0.3 0-0.5Zm-7.2 4.2l4.6-2.7c.3-0.1 .7-0.1 .9 0l4.9 2.9c.3 .2 .3 .4 0 .5l-4.6 2.7c-0.3 .1-0.7 .1-0.9 0l-4.9-2.9c-0.3-0.1-0.3-0.3 0-0.5Zm-29.1 16.8l1.8-1l2.8-1.6l2.7-1.5l4.6-2.7l2.7-1.5l4.6-2.7l7.3-4.2c.3-0.1 .7-0.1 .9 0l4.9 2.9c.3 .2 .3 .4 0 .5l-7.3 4.2l-4.6 2.7l-2.7 1.5l-4.6 2.7l-2.7 1.5l-2.8 1.6l-1.8 1c-0.2 .1-0.7 .1-0.9 0l-4.9-2.9c-0.2-0.1-0.2-0.4 0-0.5Zm-7.2 4.2l4.6-2.7c.2-0.1 .7-0.1 .9 0l4.9 2.9c.3 .2 .3 .4 0 .5l-4.6 2.7c-0.3 .1-0.7 .1-0.9 0l-4.9-2.9c-0.3-0.1-0.3-0.4 0-0.5Zm-7.3 4.2l4.6-2.7c.2-0.1 .7-0.1 .9 0l4.9 2.9c.3 .2 .3 .4 0 .5l-4.6 2.7c-0.3 .1-0.7 .1-0.9 0l-4.9-2.9c-0.2-0.2-0.2-0.4 0-0.5Zm-7.2 4.2l4.6-2.7c.2-0.1 .7-0.1 .9 0l4.9 2.9c.3 .2 .3 .4 0 .5l-4.6 2.7c-0.3 .1-0.7 .1-0.9 0l-4.9-2.9c-0.3-0.2-0.3-0.4 0-0.5Zm-7.3 4.1l4.6-2.7c.3-0.1 .7-0.1 .9 0l4.9 2.9c.3 .2 .3 .4 0 .5l-4.6 2.7c-0.3 .1-0.7 .1-0.9 0l-4.9-2.9c-0.2-0.1-0.2-0.3 0-0.5Z"/><path fill="#203e6d" d="M1175.4 380c.3 .1 .3 .4 0 .5l-4.6 2.6h-0.1c.3 .1 .6 .1 .8 0l4.6-2.6c.3-0.1 .3-0.4 0-0.5l-2.4-1.4c-0.2-0.1-0.6-0.1-0.8 0h.1l2.4 1.4Zm-7.3 4.1c.3 .2 .3 .4 0 .5l-4.6 2.7h-0.1c.3 .1 .6 .1 .8 0l4.6-2.7c.3-0.1 .2-0.4 0-0.5l-2.4-1.4c-0.2-0.1-0.6-0.1-0.8 0h.1l2.4 1.4Zm-7.3 4.2c.3 .2 .3 .4 0 .5l-4.6 2.7h-0.1c.3 .1 .6 .1 .8 0l4.6-2.7c.3-0.1 .2-0.4 0-0.5l-2.4-1.4c-0.2-0.1-0.6-0.1-0.8 0h.1l2.4 1.4Zm-7.2 4.2c.3 .2 .3 .4 0 .5l-4.6 2.7h-0.1c.3 .1 .6 .1 .8 0l4.6-2.7c.3-0.1 .2-0.4 0-0.5l-2.4-1.4c-0.2-0.1-0.6-0.1-0.8 0h.1l2.4 1.4Zm-7.3 4.2c.3 .2 .3 .4 0 .5l-4.6 2.7h-0.1c.3 .1 .6 .1 .8 0l4.6-2.7c.3-0.1 .2-0.4 0-0.5l-2.4-1.4c-0.2-0.1-0.6-0.1-0.8 0h.1l2.4 1.4Zm-7.2 4.2c.3 .2 .3 .4 0 .5l-4.6 2.7h-0.1c.3 .1 .6 .1 .8 0l4.6-2.7c.3-0.1 .2-0.4 0-0.5l-2.4-1.4c-0.2-0.1-0.6-0.1-0.8 0h.1l2.4 1.4Zm-7.3 4.2c.3 .2 .3 .4 0 .5l-4.6 2.7h-0.1c.3 .1 .6 .1 .8 0l4.6-2.7c.2-0.1 .2-0.4 0-0.5l-2.4-1.4c-0.2-0.1-0.6-0.1-0.8 0h.1l2.4 1.4Zm-7.3 4.2c.3 .2 .3 .4 0 .5l-4.6 2.7h-0.1c.3 .1 .6 .1 .8 0l4.6-2.7c.2-0.1 .2-0.4 0-0.5l-2.4-1.4c-0.2-0.1-0.6-0.1-0.8 0h.1l2.4 1.4Zm-7.2 4.2c.3 .2 .3 .4 0 .5l-4.6 2.7h-0.1c.3 .1 .6 .1 .8 0l4.6-2.7c.2-0.1 .2-0.4 0-0.5l-2.4-1.4c-0.2-0.1-0.6-0.1-0.8 0h.1l2.4 1.4Zm-7.3 4.2c.3 .2 .3 .4 0 .5l-4.6 2.7h-0.1c.3 .1 .6 .1 .8 0l4.6-2.7c.2-0.1 .2-0.4 0-0.5l-2.4-1.4c-0.2-0.1-0.6-0.1-0.8 0h.1l2.4 1.4Zm-7.2 4.2c.3 .2 .3 .4 0 .5l-4.6 2.7h-0.1c.3 .1 .6 .1 .8 0l4.6-2.7c.2-0.1 .2-0.4 0-0.5l-2.4-1.4c-0.2-0.1-0.6-0.1-0.8 0h.1l2.4 1.4Zm-6.6 4.2l-2.4-1.4c-0.2-0.1-0.6-0.1-0.8 0h.1l2.4 1.4c.3 .1 .3 .4 0 .5l-4.6 2.6h-0.1c.3 .1 .6 .1 .8 0l4.6-2.6c.3-0.1 .3-0.4 0-0.5Zm85.9-42.2c.3 .1 .3 .4 0 .5l-4.6 2.6h-0.1c.3 .1 .6 .1 .8 0l4.6-2.6c.3-0.1 .3-0.4 0-0.5l-4-2.3c-0.2-0.1-0.6-0.1-0.8 0h.1l4 2.3Zm-6.5 4.2l-4-2.3c-0.2-0.1-0.6-0.1-0.8-0.1c0 0 .1 0 .1 .1l4 2.3c.3 .2 .3 .4 0 .5l-4.6 2.7h-0.1c.3 .1 .6 .1 .8 0l4.6-2.7c.2-0.1 .2-0.4 0-0.5Zm-12.1 1.8c0 0 .1 0 .1 .1l4 2.3c.3 .2 .3 .4 0 .5l-4.6 2.7h-0.1c.3 .1 .6 .1 .8 0l4.6-2.7c.3-0.1 .2-0.4 0-0.5l-4-2.3c-0.2-0.2-0.5-0.2-0.8-0.1Zm-7.3 4.2c0 0 .1 0 .1 .1l4 2.3c.3 .2 .3 .4 0 .5l-4.6 2.7h-0.1c.3 .1 .6 .1 .8 0l4.6-2.7c.3-0.1 .2-0.4 0-0.5l-4-2.3c-0.2-0.2-0.5-0.2-0.8-0.1Zm-7.2 4.2c0 0 .1 0 .1 .1l4 2.3c.3 .2 .3 .4 0 .5l-4.6 2.7h-0.1c.3 .1 .6 .1 .8 0l4.6-2.7c.3-0.1 .2-0.4 0-0.5l-4-2.3c-0.2-0.2-0.6-0.2-0.8-0.1Zm-7.3 4.2c0 0 .1 0 .1 .1l4 2.3c.3 .2 .3 .4 0 .5l-4.6 2.7h-0.1c.3 .1 .6 .1 .8 0l4.6-2.7c.3-0.1 .2-0.4 0-0.5l-4-2.3c-0.2-0.2-0.5-0.2-0.8-0.1Zm-7.2 4.2c0 0 .1 0 .1 .1l4 2.3c.3 .2 .3 .4 0 .5l-4.6 2.7h-0.1c.3 .1 .6 .1 .8 0l4.6-2.7c.2-0.1 .2-0.4 0-0.5l-4-2.3c-0.2-0.2-0.6-0.2-0.8-0.1Zm-7.3 4.2c0 0 .1 0 .1 .1l4 2.3c.3 .2 .3 .4 0 .5l-4.6 2.7h-0.1c.3 .1 .6 .1 .8 0l4.6-2.7c.2-0.1 .2-0.4 0-0.5l-4-2.3c-0.2-0.2-0.5-0.2-0.8-0.1Zm-7.3 4.2c0 0 .1 0 .1 .1l4 2.3c.3 .2 .3 .4 0 .5l-4.6 2.7h-0.1c.3 .1 .6 .1 .8 0l4.6-2.7c.2-0.1 .2-0.4 0-0.5l-4-2.3c-0.2-0.2-0.5-0.2-0.8-0.1Zm-3.1 6.5c.3 .2 .3 .4 0 .5l-4.6 2.7h-0.1c.3 .1 .6 .1 .8 0l4.6-2.7c.2-0.1 .2-0.4 0-0.5l-4-2.3c-0.2-0.1-0.6-0.1-0.8-0.1c0 0 .1 0 .1 .1l4 2.3Zm-10.5 1.9c-0.2-0.1-0.6-0.1-0.8-0.1c0 0 .1 0 .1 .1l4 2.3c.3 .2 .3 .4 0 .5l-4.6 2.7h-0.1c.3 .1 .6 .1 .8 0l4.6-2.7c.2-0.1 .2-0.4 0-0.5l-4-2.3Zm-3.3 6.5l-4-2.3c-0.2-0.1-0.6-0.1-0.8 0h.1l4 2.3c.3 .1 .3 .4 0 .5l-4.6 2.6h-0.1c.3 .1 .6 .1 .8 0l4.6-2.6c.2-0.1 .2-0.4 0-0.5Zm85.9-42.2c.3 .2 .3 .4 0 .5l-4 2.3l-0.6 .4l-7.3 4.2h-0.1c.3 .1 .6 .1 .8 0l7.3-4.2l.6-0.4l4-2.3c.3-0.1 .2-0.4 0-0.5l-4-2.3c-0.2-0.1-0.6-0.1-0.8-0.1c0 0 .1 0 .1 .1l4 2.3Zm-14.5 8.4c.3 .2 .3 .4 0 .5l-4.6 2.7h-0.1c.3 .1 .6 .1 .8 0l4.6-2.7c.3-0.1 .2-0.4 0-0.5l-4-2.3c-0.2-0.1-0.6-0.1-0.8-0.1c0 0 .1 0 .1 .1l4 2.3Zm-7.2 4.2c.3 .2 .3 .4 0 .5l-4.6 2.7h-0.1c.3 .1 .6 .1 .8 0l4.6-2.7c.3-0.1 .2-0.4 0-0.5l-4-2.3c-0.2-0.1-0.6-0.1-0.8-0.1c0 0 .1 0 .1 .1l4 2.3Zm-7.3 4.2c.3 .2 .3 .4 0 .5l-4.6 2.7h-0.1c.3 .1 .6 .1 .8 0l4.6-2.7c.3-0.1 .2-0.4 0-0.5l-4-2.3c-0.2-0.1-0.6-0.1-0.8-0.1c0 0 .1 0 .1 .1l4 2.3Zm-7.3 4.2c.3 .2 .3 .4 0 .5l-4.6 2.7h-0.1c.3 .1 .6 .1 .8 0l4.6-2.7c.3-0.1 .2-0.4 0-0.5l-4-2.3c-0.2-0.1-0.6-0.1-0.8-0.1c0 0 .1 0 .1 .1l4 2.3Zm-7.2 4.2c.3 .2 .3 .4 0 .5l-4.6 2.7h-0.1c.3 .1 .6 .1 .8 0l4.6-2.7c.2-0.1 .2-0.4 0-0.5l-4-2.3c-0.2-0.1-0.6-0.1-0.8-0.1c0 0 .1 0 .1 .1l4 2.3Zm-7.3 4.2c.3 .2 .3 .4 0 .5l-4.6 2.7h-0.1c.3 .1 .6 .1 .8 0l4.6-2.7c.2-0.1 .2-0.4 0-0.5l-4-2.3c-0.2-0.1-0.6-0.1-0.8-0.1c0 0 .1 0 .1 .1l4 2.3Zm-10.5 1.9c-0.2-0.1-0.6-0.1-0.8-0.1c0 0 .1 0 .1 .1l4 2.3c.3 .2 .3 .4 0 .5l-4.6 2.7h-0.1c.3 .1 .6 .1 .8 0l4.6-2.7c.2-0.1 .2-0.4 0-0.5l-4-2.3Zm-4 6.5c.3 .2 .3 .4 0 .5l-4.6 2.7h-0.1c.3 .1 .6 .1 .8 0l4.6-2.7c.2-0.1 .2-0.4 0-0.5l-4-2.3c-0.2-0.1-0.6-0.1-0.8-0.1c0 0 .1 0 .1 .1l4 2.3Zm-9.9 6.6l3.3-1.9c.2-0.1 .2-0.4 0-0.5l-4-2.3c-0.2-0.1-0.6-0.1-0.8-0.1c0 0 .1 0 .1 .1l4 2.3c.3 .2 .3 .4 0 .5l-3.3 1.9l-1.3 .7l-7.3 4.2h-0.1c.3 .1 .6 .1 .8 0l7.3-4.2l1.3-0.7Zm63.9-30c.3 .2 .3 .4 0 .5l-4.6 2.7h-0.1c.3 .1 .6 .1 .8 0l4.6-2.7c.3-0.1 .2-0.4 0-0.5l-4-2.3c-0.2-0.1-0.6-0.1-0.8 0h.1l4 2.3Zm-7.3 4.2c.3 .2 .3 .4 0 .5l-4.6 2.7h-0.1c.3 .1 .6 .1 .8 0l4.6-2.7c.3-0.1 .2-0.4 0-0.5l-4-2.3c-0.2-0.1-0.6-0.1-0.8 0h.1l4 2.3Zm-7.2 4.2c.3 .2 .3 .4 0 .5l-4.6 2.7h-0.1c.3 .1 .6 .1 .8 0l4.6-2.7c.3-0.1 .2-0.4 0-0.5l-4-2.3c-0.2-0.1-0.6-0.1-0.8 0h.1l4 2.3Zm-7.3 4.2c.3 .2 .3 .4 0 .5l-4.6 2.7h-0.1c.3 .1 .6 .1 .8 0l4.6-2.7c.3-0.1 .2-0.4 0-0.5l-4-2.3c-0.2-0.1-0.6-0.1-0.8 0h.1l4 2.3Zm-7.2 4.2c.3 .2 .3 .4 0 .5l-4.6 2.7h-0.1c.3 .1 .6 .1 .8 0l4.6-2.7c.3-0.1 .2-0.4 0-0.5l-4-2.3c-0.2-0.1-0.6-0.1-0.8 0h.1l4 2.3Zm-7.3 4.2c.3 .2 .3 .4 0 .5l-4.6 2.7h-0.1c.3 .1 .6 .1 .8 0l4.6-2.7c.3-0.1 .2-0.4 0-0.5l-4-2.3c-0.2-0.1-0.6-0.1-0.8 0h.1l4 2.3Zm-7.3 4.2c.3 .2 .3 .4 0 .5l-4.6 2.7h-0.1c.3 .1 .6 .1 .8 0l4.6-2.7c.3-0.1 .2-0.4 0-0.5l-4-2.3c-0.2-0.1-0.6-0.1-0.8 0h.1l4 2.3Zm-6.9 4.4l-4.1-2.4c-0.2-0.1-0.5-0.1-0.8 0h.1l4.1 2.4c.2 .1 .2 .3 0 .4l-15.2 8.8h-0.1c.3 .1 .6 .1 .8 0l15.2-8.8c.3 0 .3-0.2 0-0.4Zm68.7-40c.2 .1 .2 .3 0 .4l-15.2 8.8h-0.1c.3 .1 .6 .1 .8 0l15.2-8.8c.2-0.1 .2-0.3 0-0.4l-4.1-2.4c-0.2-0.1-0.5-0.1-0.8 0h.1l4.1 2.4Zm8.3 4.4l-4.9-2.9c-0.2-0.1-0.6-0.1-0.8-0.1c0 0 .1 0 .1 .1l4.9 2.9c.3 .2 .3 .4 0 .5l-4.6 2.7h-0.1c.3 .1 .6 .1 .8 0l4.6-2.7c.3-0.1 .3-0.3 0-0.5Zm-7.3 4.2l-4.9-2.9c-0.2-0.1-0.6-0.1-0.8-0.1c0 0 .1 0 .1 .1l4.9 2.9c.3 .2 .3 .4 0 .5l-4.6 2.7h-0.1c.3 .1 .6 .1 .8 0l4.6-2.7c.3-0.1 .3-0.3 0-0.5Zm-7.2 4.2l-4.9-2.9c-0.2-0.1-0.6-0.1-0.8-0.1c0 0 .1 0 .1 .1l4.9 2.9c.3 .2 .3 .4 0 .5l-4.6 2.7h-0.1c.3 .1 .6 .1 .8 0l4.6-2.7c.3-0.1 .2-0.3 0-0.5Zm-7.3 4.2l-4.9-2.9c-0.2-0.1-0.6-0.1-0.8-0.1c0 0 .1 0 .1 .1l4.9 2.9c.3 .2 .3 .4 0 .5l-4.6 2.7h-0.1c.3 .1 .6 .1 .8 0l4.6-2.7c.3-0.1 .3-0.3 0-0.5Zm-7.2 4.2l-4.9-2.9c-0.2-0.1-0.6-0.1-0.8-0.1c0 0 .1 0 .1 .1l4.9 2.9c.3 .2 .3 .4 0 .5l-7.3 4.2l-4.6 2.7l-2.7 1.5l-4.6 2.7l-2.7 1.5l-2.8 1.6l-1.8 1h-0.1c.3 .1 .6 .1 .8 0l1.8-1l2.8-1.6l2.7-1.5l4.6-2.7l2.7-1.5l4.6-2.7l7.3-4.2c.2-0.1 .2-0.3 0-0.5Zm-29.1 16.8l-4.9-2.9c-0.2-0.1-0.6-0.1-0.8-0.1c0 0 .1 0 .1 .1l4.9 2.9c.3 .2 .3 .4 0 .5l-4.6 2.7h-0.1c.3 .1 .6 .1 .8 0l4.6-2.7c.3-0.1 .3-0.4 0-0.5Zm-7.2 4.2l-4.9-2.9c-0.2-0.1-0.6-0.1-0.8-0.1c0 0 .1 0 .1 .1l4.9 2.9c.3 .2 .3 .4 0 .5l-4.6 2.7h-0.1c.3 .1 .6 .1 .8 0l4.6-2.7c.2-0.1 .2-0.4 0-0.5Zm-7.3 4.2l-4.9-2.9c-0.2-0.1-0.6-0.1-0.8-0.1c0 0 .1 0 .1 .1l4.9 2.9c.3 .2 .3 .4 0 .5l-4.6 2.7h-0.1c.3 .1 .6 .1 .8 0l4.6-2.7c.3-0.1 .3-0.4 0-0.5Zm-7.3 4.2l-4.9-2.9c-0.2-0.1-0.6-0.1-0.8 0h.1l4.9 2.9c.3 .2 .3 .4 0 .5l-4.6 2.7h-0.1c.3 .1 .6 .1 .8 0l4.6-2.7c.3-0.2 .3-0.4 0-0.5Zm37-134.8l-75.9 43.9l.1 56.9l76-43.9Z"/><path fill="#ff50ac" d="M1100.6 364.6l11.6-6.7c0 3.7-1.3 7.8-3.4 11.4c-2.1 3.6-5 6.8-8.2 8.6c-3.2 1.8-6.1 2-8.2 .8c-2.1-1.2-3.4-3.8-3.4-7.5c0-3.7 1.3-7.8 3.4-11.4c2.1-3.6 5-6.8 8.2-8.6v13.4Z"/><path fill="#b425d6" d="M1100.5 351.3c3.2-1.8 6.1-2 8.2-0.8c2.1 1.2 3.4 3.8 3.4 7.5l-11.6 6.7v-13.4Z" style="animation: 4s linear infinite both a2_t;"/><path fill="#ff50ac" d="M1141.9 369.2v.1l-4 2.3Z" style="animation: 4s linear infinite both a3_d;"/><path fill="#b425d6" d="M1127.6 335.7c3.2-1.8 6.1-2 8.2-0.8c2.1 1.2 3.4 3.8 3.4 7.5c0 3.7-1.3 7.8-3.4 11.4c-2.1 3.6-5 6.8-8.2 8.6v-26.7Z" style="animation: 4s linear infinite both a4_t;"/><path fill="#fff" d="M1128.6 368.4v1.8l-35.5 20.5v-1.9Zm-1-32.7v26.6c-3.2 1.8-6.1 2-8.2 .8c-2.1-1.2-3.4-3.8-3.4-7.5c0-3.7 1.3-7.8 3.4-11.4c2.1-3.5 5-6.7 8.2-8.5Zm29.9-9.3v1.9l-13.7 7.9v-1.8Zm0-6.1v1.9l-13.7 7.9v-1.9Zm-40.7 60.8v1.9l-23.6 13.7v-1.9Zm40.7-48.8v1.8l-13.7 7.9v-1.8Zm-9.1 11.5v1.9l-4.6 2.6v-1.8Z"/><path fill="#be29e2" d="M1147 366.3l-4.1 2.4v-0.1Z" style="animation: 4s linear infinite both a5_d;"/><path fill="#fff" d="M1153.1 362.8l-4 2.3h-0.1Z" style="animation: 4s linear infinite both a6_d;"/><path fill="#be29e2" d="M1158.1 359.9h.1l-4.1 2.3Z" style="animation: 4s linear infinite both a7_d;"/><path fill="#fff" d="M1319.1 457.2c3.5 2 3.5 5.3 0 7.4l-105 61c-3.5 2-9.2 2-12.7 0l-29.6-17.1c-3.5-2-3.5-5.3 0-7.4l105-61c3.5-2 9.2-2 12.7 0l29.6 17.1Z"/><path fill="#82a9d8" d="M1321.7 461.2v.3c0 .1 0 .2-0.1 .2c0 .1 0 .2-0.1 .3c0 .1-0.1 .1-0.1 .2c0 .1-0.1 .2-0.1 .3c0 .1-0.1 .1-0.1 .2c-0.1 .1-0.1 .2-0.2 .3c0 .1-0.1 .1-0.1 .2c-0.1 .1-0.2 .3-0.4 .4l-0.1 .1c-0.1 .1-0.2 .2-0.3 .2c-0.1 .1-0.2 .1-0.3 .2c-0.1 .1-0.2 .1-0.3 .2c-0.1 .1-0.2 .1-0.3 .2l-105 61c-0.4 .2-0.8 .4-1.3 .6c-0.1 0-0.2 .1-0.4 .1c-0.3 .1-0.6 .2-0.8 .3c-0.3 .1-0.6 .2-0.9 .2c-0.4 .1-0.7 .1-1.1 .2h-0.3c-0.5 .1-1 .1-1.5 .1h-0.2c-0.5 0-1 0-1.5-0.1h-0.2c-0.5-0.1-1-0.1-1.4-0.2c-0.1 0-0.2 0-0.3-0.1c-0.4-0.1-0.8-0.2-1.2-0.4c-0.1 0-0.1 0-0.2-0.1c-0.5-0.2-0.9-0.4-1.4-0.6l-29.6-17.1c-0.7-0.4-1.2-0.8-1.6-1.3c-0.7-0.8-1-1.6-1-2.4v8.6c0 1.3 .9 2.7 2.7 3.7l29.6 17.1c.4 .2 .8 .4 1.3 .6h.1c.1 0 .1 0 .2 .1c.3 .1 .5 .2 .8 .3c.1 0 .3 .1 .5 .1c.1 0 .2 0 .3 .1c.1 0 .2 0 .2 .1c.3 .1 .6 .1 .9 .2h2.6c.3 0 .7 0 1-0.1h.4c.3 0 .5-0.1 .8-0.1c.1 0 .2-0.1 .3-0.1c.3-0.1 .6-0.1 .9-0.2c.2 0 .3-0.1 .5-0.1c.1 0 .2-0.1 .4-0.1c.1 0 .2-0.1 .4-0.1c.4-0.2 .9-0.4 1.3-0.6l105-61c0 0 .1 0 .1-0.1c.1 0 .2-0.1 .2-0.2c.1-0.1 .2-0.1 .3-0.2c.1-0.1 .2-0.1 .3-0.2c.1-0.1 .2-0.2 .3-0.2h.1l.1-0.1l.4-0.4l.1-0.1c0 0 0-0.1 .1-0.1c.1-0.1 .1-0.2 .2-0.3l.1-0.1v-0.1c.1-0.1 .1-0.2 .1-0.3c0-0.1 .1-0.1 .1-0.2v-0.1c0-0.1 .1-0.2 .1-0.3c0-0.1 0-0.1 .1-0.2v-0.3v-8.9c-0.5 .2-0.5 .3-0.5 .4Z"/><path fill="#c5dbf9" d="M1220.4 501.3c.5 .3 .5 .8 0 1.1l-15.3 8.9c-0.5 .3-1.3 .3-1.9 0l-15.4-8.9c-0.5-0.3-0.5-0.8 0-1.1l15.3-8.9c.5-0.3 1.3-0.3 1.9 0l15.4 8.9Z"/><path fill="#82a9d8" d="M1220.8 501.9c0 0 0 .1 0 0v.1l-0.1 .1h-0.1l-15.3 8.9c-0.1 0-0.1 .1-0.2 .1h-1.1c-0.1 0-0.1 0-0.2-0.1c-0.1 0-0.1-0.1-0.2-0.1l-15.4-8.9c-0.1-0.1-0.2-0.1-0.2-0.2c-0.1-0.1-0.2-0.2-0.2-0.4v6.7c0 .2 .1 .4 .4 .5l15.4 8.9c.1 0 .1 .1 .2 .1h1.1c.1 0 .1-0.1 .2-0.1l15.3-8.9l.1-0.1l.3-6.6Z"/><path fill="url(#Gradient-10)" d="M253 285.2v43.6l16.4 .5v-44.1Z" transform="translate(943,173)"/><path fill="#ff50ac" d="M1212.8 501.6c.3 .2 .3 .4 0 .6l-8.2 4.7c-0.3 .2-0.7 .2-1 0l-8.2-4.7c-0.3-0.2-0.3-0.4 0-0.6l8.2-4.7c.3-0.2 .7-0.2 1 0l8.2 4.7Z"/><path fill="#c5dbf9" d="M1246.5 485.6c.5 .3 .5 .8 0 1.1l-15.3 8.9c-0.5 .3-1.3 .3-1.9 0l-15.4-8.9c-0.5-0.3-0.5-0.8 0-1.1l15.3-8.9c.5-0.3 1.3-0.3 1.9 0l15.4 8.9Z"/><path fill="#82a9d8" d="M1246.9 486.2v.1l-0.1 .1h-0.1l-15.3 8.9c-0.1 0-0.1 .1-0.2 .1h-1.1c-0.1 0-0.1 0-0.2-0.1c-0.1 0-0.1-0.1-0.2-0.1l-15.4-8.9c-0.1-0.1-0.2-0.1-0.2-0.2c-0.1-0.1-0.2-0.2-0.2-0.4v6.7c0 .2 .1 .4 .4 .5l15.4 8.9c.1 0 .1 .1 .2 .1h1.1c.1 0 .1-0.1 .2-0.1l15.3-8.9l.1-0.1l.3-6.6c0 0 0-0.1 0 0Z"/><path fill="url(#Gradient-11)" d="M278.8 269.1v43.6l16.4 .5v-44.1Z" transform="translate(943,173)"/><path fill="#be29e2" d="M1238.9 485.8c.3 .2 .3 .4 0 .6l-8.2 4.7c-0.3 .2-0.7 .2-1 0l-8.2-4.7c-0.3-0.2-0.3-0.4 0-0.6l8.2-4.7c.3-0.2 .7-0.2 1 0l8.2 4.7Z"/><path fill="#c5dbf9" d="M1274.5 469.6c.5 .3 .5 .8 0 1.1l-15.3 8.9c-0.5 .3-1.3 .3-1.9 0l-15.4-8.9c-0.5-0.3-0.5-0.8 0-1.1l15.3-8.9c.5-0.3 1.3-0.3 1.9 0l15.4 8.9Z"/><path fill="url(#Gradient-12)" d="M306.7 254v43.5l16.4 .6v-44.1Z" transform="translate(943,173)"/><path fill="#82a9d8" d="M1274.9 470.1c0 0 0 .1 0 0c0 .1 0 .1 0 0v.1l-0.1 .1l-15.3 8.9c-0.1 0-0.1 .1-0.2 .1h-1.1c-0.1 0-0.1 0-0.2-0.1c-0.1 0-0.1-0.1-0.2-0.1l-15.4-8.9c-0.1-0.1-0.2-0.1-0.2-0.2c-0.1-0.1-0.2-0.2-0.2-0.4v6.7c0 .2 .1 .4 .4 .5l15.4 8.9c.1 0 .1 .1 .2 .1h1.1c.1 0 .1-0.1 .2-0.1l15.3-8.9l.1-0.1l.2-6.6Z"/><path fill="#ff50ac" d="M1266.9 469.8c.3 .2 .3 .4 0 .6l-8.2 4.7c-0.3 .2-0.7 .2-1 0l-8.2-4.7c-0.3-0.2-0.3-0.4 0-0.6l8.2-4.7c.3-0.2 .7-0.2 1 0l8.2 4.7Z"/><path fill="#c5dbf9" d="M1300.6 453.8c.5 .3 .5 .8 0 1.1l-15.3 8.9c-0.5 .3-1.3 .3-1.9 0l-15.4-8.9c-0.5-0.3-0.5-0.8 0-1.1l15.3-8.9c.5-0.3 1.3-0.3 1.9 0l15.4 8.9Z"/><path fill="#82a9d8" d="M1301 454.4c0 .1 0 .1 0 0v.1l-0.1 .1h-0.1l-15.3 8.9c-0.1 0-0.1 .1-0.2 .1h-1.1c-0.1 0-0.1 0-0.2-0.1c-0.1 0-0.1-0.1-0.2-0.1l-15.4-8.9c-0.1-0.1-0.2-0.1-0.2-0.2c-0.1-0.1-0.2-0.2-0.2-0.4v6.7c0 .2 .1 .4 .4 .5l15.4 8.9c.1 0 .1 .1 .2 .1h1.1c.1 0 .1-0.1 .2-0.1l15.3-8.9l.1-0.1l.3-6.6Z"/><path fill="url(#Gradient-13)" d="M333.1 237.7v43.6l16.4 .5v-44.1Z" transform="translate(943,173)"/><path fill="#be29e2" d="M1293 454.1c.3 .2 .3 .4 0 .6l-8.2 4.7c-0.3 .2-0.7 .2-1 0l-8.2-4.7c-0.3-0.2-0.3-0.4 0-0.6l8.2-4.7c.3-0.2 .7-0.2 1 0l8.2 4.7Z"/><path fill="#82a9d8" d="M1162.6 527v9.1c0 1.9-1.3 3.9-3.8 5.4c-5.1 3-13.4 3-18.6 0c-2.6-1.5-3.9-3.4-3.9-5.4v-9.1c0-1.9 1.3-3.9 3.8-5.4c5.1-3 13.4-3 18.6 0c2.6 1.5 3.9 3.5 3.9 5.4Z"/><path fill="#fff" d="M1162.6 527c0 1.9-1.3 3.9-3.8 5.4c-5.1 3-13.4 3-18.6 0c-2.6-1.5-3.9-3.4-3.9-5.4c0-1.9 1.3-3.9 3.8-5.4c5.1-3 13.4-3 18.6 0c2.6 1.5 3.9 3.5 3.9 5.4Z"/><path fill="#be29e2" d="M1149.5 531.5c-2.9 0-5.7-0.7-7.7-1.8c-1.4-0.8-2.3-1.8-2.3-2.7c0-0.8 .8-1.8 2.3-2.6c2-1.1 4.8-1.8 7.7-1.8c2.9 0 5.7 .7 7.7 1.8c1.4 .8 2.3 1.8 2.3 2.7c0 .8-0.8 1.8-2.3 2.6c-2 1.1-4.8 1.8-7.7 1.8Z"/><path fill="#82a9d8" d="M1141.9 538.8v9.1c0 1.9-1.3 3.9-3.8 5.4c-5.1 3-13.4 3-18.6 0c-2.6-1.5-3.9-3.4-3.9-5.4v-9.1c0-1.9 1.3-3.9 3.8-5.4c5.1-3 13.4-3 18.6 0c2.6 1.5 3.9 3.5 3.9 5.4Z"/><path fill="#fff" d="M1141.9 538.8c0 1.9-1.3 3.9-3.8 5.4c-5.1 3-13.4 3-18.6 0c-2.6-1.5-3.9-3.4-3.9-5.4c0-1.9 1.3-3.9 3.8-5.4c5.1-3 13.4-3 18.6 0c2.6 1.5 3.9 3.5 3.9 5.4Z"/><path fill="#be29e2" d="M1128.8 543.3c-2.9 0-5.7-0.7-7.7-1.8c-1.4-0.8-2.3-1.8-2.3-2.7c0-0.8 .8-1.8 2.3-2.6c2-1.1 4.8-1.8 7.7-1.8c2.9 0 5.7 .7 7.7 1.8c1.4 .8 2.3 1.8 2.3 2.7c0 .8-0.8 1.8-2.3 2.6c-2 1.1-4.8 1.8-7.7 1.8Z"/><path fill="#82a9d8" d="M1182.1 538.5v9.1c0 1.9-1.3 3.9-3.8 5.4c-5.1 3-13.4 3-18.6 0c-2.6-1.5-3.9-3.4-3.9-5.4v-9.1c0-1.9 1.3-3.9 3.8-5.4c5.1-3 13.4-3 18.6 0c2.6 1.5 3.9 3.4 3.9 5.4Z"/><path fill="#fff" d="M1182.1 538.5c0 1.9-1.3 3.9-3.8 5.4c-5.1 3-13.4 3-18.6 0c-2.6-1.5-3.9-3.4-3.9-5.4c0-1.9 1.3-3.9 3.8-5.4c5.1-3 13.4-3 18.6 0c2.6 1.5 3.9 3.4 3.9 5.4Z"/><path fill="#203e6d" d="M1169 542.9c-2.9 0-5.7-0.7-7.7-1.8c-1.4-0.8-2.3-1.8-2.3-2.7c0-0.8 .8-1.8 2.3-2.6c2-1.1 4.8-1.8 7.7-1.8c2.9 0 5.7 .7 7.7 1.8c1.4 .8 2.3 1.8 2.3 2.7c0 .8-0.8 1.8-2.3 2.6c-1.9 1.2-4.7 1.8-7.7 1.8Z"/><path fill="#82a9d8" d="M1161.4 550.3v9.1c0 1.9-1.3 3.9-3.8 5.4c-5.1 3-13.4 3-18.6 0c-2.6-1.5-3.9-3.4-3.9-5.4v-9.1c0-1.9 1.3-3.9 3.8-5.4c5.1-3 13.4-3 18.6 0c2.6 1.5 3.9 3.4 3.9 5.4Z"/><path fill="#fff" d="M1161.4 550.3c0 1.9-1.3 3.9-3.8 5.4c-5.1 3-13.4 3-18.6 0c-2.6-1.5-3.9-3.4-3.9-5.4c0-1.9 1.3-3.9 3.8-5.4c5.1-3 13.4-3 18.6 0c2.6 1.5 3.9 3.4 3.9 5.4Z"/><path fill="#be29e2" d="M1148.3 554.7c-2.9 0-5.7-0.7-7.7-1.8c-1.4-0.8-2.3-1.8-2.3-2.7c0-0.8 .8-1.8 2.3-2.6c2-1.1 4.8-1.8 7.7-1.8c2.9 0 5.7 .7 7.7 1.8c1.4 .8 2.3 1.8 2.3 2.7c0 .8-0.8 1.8-2.3 2.6c-1.9 1.2-4.7 1.8-7.7 1.8Z"/><path fill="#82a9d8" d="M1346.9 411.6v9.1c0 1.9-1.3 3.9-3.8 5.4c-5.1 3-13.4 3-18.6 0c-2.6-1.5-3.9-3.4-3.9-5.4v-9.1c0-1.9 1.3-3.9 3.8-5.4c5.1-3 13.4-3 18.6 0c2.6 1.5 3.9 3.4 3.9 5.4Z"/><path fill="#fff" d="M1346.9 411.6c0 1.9-1.3 3.9-3.8 5.4c-5.1 3-13.4 3-18.6 0c-2.6-1.5-3.9-3.4-3.9-5.4c0-1.9 1.3-3.9 3.8-5.4c5.1-3 13.4-3 18.6 0c2.6 1.5 3.9 3.4 3.9 5.4Z"/><path fill="#203e6d" d="M1333.8 416c-2.9 0-5.7-0.7-7.7-1.8c-1.4-0.8-2.3-1.8-2.3-2.7c0-0.8 .8-1.8 2.3-2.6c2-1.1 4.8-1.8 7.7-1.8c2.9 0 5.7 .7 7.7 1.8c1.4 .8 2.3 1.8 2.3 2.7c0 .8-0.8 1.8-2.3 2.6c-2 1.2-4.8 1.8-7.7 1.8Z"/><path fill="#82a9d8" d="M1326.2 423.4v9.1c0 1.9-1.3 3.9-3.8 5.4c-5.1 3-13.4 3-18.6 0c-2.6-1.5-3.9-3.4-3.9-5.4v-9.1c0-1.9 1.3-3.9 3.8-5.4c5.1-3 13.4-3 18.6 0c2.6 1.5 3.9 3.4 3.9 5.4Z"/><path fill="#fff" d="M1326.2 423.4c0 1.9-1.3 3.9-3.8 5.4c-5.1 3-13.4 3-18.6 0c-2.6-1.5-3.9-3.4-3.9-5.4c0-1.9 1.3-3.9 3.8-5.4c5.1-3 13.4-3 18.6 0c2.6 1.5 3.9 3.4 3.9 5.4Z"/><path fill="#ff50ac" d="M1313.1 427.8c-2.9 0-5.7-0.7-7.7-1.8c-1.4-0.8-2.3-1.8-2.3-2.7c0-0.8 .8-1.8 2.3-2.6c2-1.1 4.8-1.8 7.7-1.8c2.9 0 5.7 .7 7.7 1.8c1.4 .8 2.3 1.8 2.3 2.7c0 .8-0.8 1.8-2.3 2.6c-2 1.2-4.8 1.8-7.7 1.8Z"/><path fill="#82a9d8" d="M1366.4 423.1v9.1c0 1.9-1.3 3.9-3.8 5.4c-5.1 3-13.4 3-18.6 0c-2.6-1.5-3.9-3.4-3.9-5.4v-9.2c0-1.9 1.3-3.9 3.8-5.4c5.1-3 13.4-3 18.6 0c2.6 1.6 3.9 3.5 3.9 5.5Z"/><path fill="#fff" d="M1366.4 423.1c0 1.9-1.3 3.9-3.8 5.4c-5.1 3-13.4 3-18.6 0c-2.6-1.5-3.9-3.4-3.9-5.4c0-1.9 1.3-3.9 3.8-5.4c5.1-3 13.4-3 18.6 0c2.6 1.5 3.9 3.4 3.9 5.4Z"/><path fill="#ff50ac" d="M1353.3 427.5c-2.9 0-5.7-0.7-7.7-1.8c-1.4-0.8-2.3-1.8-2.3-2.7c0-0.8 .8-1.8 2.3-2.6c2-1.1 4.8-1.8 7.7-1.8c2.9 0 5.7 .7 7.7 1.8c1.4 .8 2.3 1.8 2.3 2.7c0 .8-0.8 1.8-2.3 2.6c-1.9 1.2-4.7 1.8-7.7 1.8Z"/><path fill="#82a9d8" d="M1345.7 434.9v9.1c0 1.9-1.3 3.9-3.8 5.4c-5.1 3-13.4 3-18.6 0c-2.6-1.5-3.9-3.4-3.9-5.4v-9.1c0-1.9 1.3-3.9 3.8-5.4c5.1-3 13.4-3 18.6 0c2.6 1.5 3.9 3.4 3.9 5.4Z"/><path fill="#fff" d="M1345.7 434.9c0 1.9-1.3 3.9-3.8 5.4c-5.1 3-13.4 3-18.6 0c-2.6-1.5-3.9-3.4-3.9-5.4c0-1.9 1.3-3.9 3.8-5.4c5.1-3 13.4-3 18.6 0c2.6 1.5 3.9 3.4 3.9 5.4Z"/><path fill="#203e6d" d="M1332.6 439.3c-2.9 0-5.7-0.7-7.7-1.8c-1.4-0.8-2.3-1.8-2.3-2.7c0-0.8 .8-1.8 2.3-2.6c2-1.1 4.8-1.8 7.7-1.8c2.9 0 5.7 .7 7.7 1.8c1.4 .8 2.3 1.8 2.3 2.7c0 .8-0.8 1.8-2.3 2.6c-1.9 1.2-4.7 1.8-7.7 1.8Zm-58.9-226.7l-80.4 46.4l.2 57.4l80.3-46.4Z"/><path fill="#ff50ac" d="M1207.6 266.2l-6.2 3.6l.1 20.1l6.2-3.5Z"/><path fill="#be29e2" d="M1216.4 266l-6.2 3.6v15.3l6.2-3.6Z"/><path fill="#ff50ac" d="M1225.1 266.4l-6.2 3.6v9.9l6.2-3.6Z"/><path fill="#be29e2" d="M1233.8 257.8l-6.2 3.5v13.5l6.2-3.5Z"/><path fill="#ff50ac" d="M1242.5 243.3l-6.2 3.6l.1 22.9l6.1-3.6Z"/><path fill="#be29e2" d="M1251.2 249.8l-6.1 3.6v11.4l6.2-3.6Z"/><path fill="#ff50ac" d="M1259.9 238.4l-6.2 3.6l.1 17.7l6.2-3.5Z"/><path fill="#be29e2" d="M1268.7 243.1l-6.2 3.6v8l6.2-3.6Z"/><path fill="#fff" d="M1246.1 270.7v1.8l-44.4 25.7l-0.1-1.8Zm-19.9 17.7v1.9l-24.5 14.2l-0.1-1.8Z"/><path fill="#203e6d" d="M1036.3 242.4l-93.3 53.9l.2 66.6l93.3-53.9Z"/><path fill="#fff" d="M948.5 354.9v-9.1l8-4.6v9.1l-8 4.6Zm-0.3-9.4v9.9l8.6-5l-0.3 .2v-9.5l-8.3 4.8v-0.4Z"/><path fill="#fff" d="M956.8 350.1v-9.1l8-4.6v9.1l-8 4.6Zm8-13.8l-8 4.6l-0.3 .2v9.5l.3-0.2l8.3-4.8l-0.3 .2v-9.5Z"/><path fill="#fff" d="M965.1 345.3v-9.1l8-4.6v9.1l-8 4.6Zm8-13.7l-8 4.6l-0.3 .2v9.5l.3-0.2l8.3-4.8l-0.3 .2v-9.5Z"/><path fill="#fff" d="M973.4 340.5v-9.1l8-4.6v9.1l-8 4.6Zm7.9-13.7l-8 4.6l-0.3 .2v9.5l.3-0.2l8.3-4.8l-0.3 .2v-9.5Z"/><path fill="#fff" d="M981.7 335.7v-9.1l8-4.6v9.1l-8 4.6Zm7.9-13.7l-8 4.6l-0.3 .2v9.5l.3-0.2l8.3-4.8l-0.3 .2v-9.5Z"/><path fill="#fff" d="M990 330.9v-9.1l8-4.6v9.1l-8 4.6Zm7.9-13.7l-8 4.6l-0.3 .2v9.5l.3-0.2l8.3-4.8l-0.3 .2v-9.5Z"/><path fill="#fff" d="M998.3 326.2v-9.1l8-4.6v9.1l-8 4.6Zm7.9-13.8l-8 4.6l-0.3 .2v9.5l.3-0.2l8.3-4.8l-0.3 .2v-9.5Z"/><path fill="#fff" d="M1006.6 321.4v-9.1l8-4.6v9.1l-8 4.6Zm7.9-13.8l-8 4.6l-0.3 .2v9.5l.3-0.2l8.3-4.8l-0.3 .2v-9.5Z"/><path fill="#fff" d="M1014.9 316.6v-9.1l8-4.6v9.1l-8 4.6Zm7.9-13.8l-8 4.6l-0.3 .2v9.5l.3-0.2l8.3-4.8l-0.3 .2v-9.5Z"/><path fill="#fff" d="M1023.1 311.8v-9.1l8-4.6v9.1l-8 4.6Zm8.3-13.9l-8.3 4.8l-0.3 .2v9.5l.3-0.2l8.3-4.8v-9.5Zm-83.2 38.1v9.9l8.3-4.8l.3-0.2l-0.3 .2v-5.8v5.4l-8 4.6v-9.1l8-4.6v1.2v-1.2l-8.3 4.8Z"/><path fill="#fff" d="M958 330.7l-1.2 .7l-0.3 .2v1.2l.3-0.5v-1l1.2-0.6Zm6.7-3.9l-3.7 2.2l3.7-2.2v9.1l-8 4.6v-5.7l-0.3 .5v5.8l.3-0.2l8-4.6l.3-0.2l-0.3 .2v-9.5Z"/><path fill="#fff" d="M965.1 335.8v-9.1l8-4.6v9.1l-8 4.6Zm7.9-13.8l-8 4.6l-0.3 .2v9.5l.3-0.2l8-4.6l.3-0.2l-0.3 .2v-9.5Z"/><path fill="#fff" d="M980.5 317.7l-7.1 4.1l-0.4 .2l.1 9.6l.3-0.2l7.9-4.6l.4-0.2l-0.4 .2v-8.9v8.5l-7.9 4.6v-9.2Z"/><path fill="#fff" d="M989.6 312.5l-7.7 4.4l7.7-4.4v9.1l-7.9 4.6l-0.1-8.8l-0.3 .5v8.9l.4-0.2l7.9-4.6l.4-0.2l-0.4 .2Z"/><path fill="#fff" d="M990 321.4v-9.1l8-4.6v9.1l-8 4.6Zm7.9-13.7l-8 4.6l-0.3 .2v9.5l.3-0.2l8-4.6l.3-0.2l-0.3 .2v-9.5Z"/><path fill="#fff" d="M998.3 316.6v-9.1l8-4.6v9.1l-8 4.6Zm7.9-13.7l-8 4.6l-0.3 .2v9.5l.3-0.2l8-4.6l.3-0.2l-0.3 .2v-9.5Z"/><path fill="#fff" d="M1006.5 311.8v-9.1l8-4.6v9.1l-8 4.6Zm8-13.7l-8 4.6l-0.3 .2v9.5l.3-0.2l8-4.6l.3-0.2l-0.3 .2v-9.5Z"/><path fill="#fff" d="M1014.8 307.1v-9.1l8-4.6v9.1l-8 4.6Zm8-13.8l-8 4.6l-0.3 .2v9.5l.3-0.2l8-4.6l.3-0.2l-0.3 .2v-9.5Z"/><path fill="#fff" d="M1023.1 302.3v-9.1l8-4.6v9.1l-8 4.6Zm8.3-14l-8.3 4.8l-0.3 .2v9.5l.3-0.2l8.3-4.8v-9.5Zm-82.9 47.5v-9.1l8-4.6v9.1l-8 4.6Zm-0.4-9.3v9.9l8.3-4.8l.3-0.2l-0.3 .2v-9.5l-8.3 4.8v-0.4Z"/><path fill="#fff" d="M964.7 323.8v2.6l-3.3 1.9l-0.4 .7l3.7-2.2l.3-0.2l-0.3 .2v-3Zm0-6.5l-8 4.6l-0.3 .2v9.5l.3-0.2l1.2-0.7l.5-0.7l-1.7 1v-9.1l8-4.6v4v-4Z"/><path fill="#fff" d="M973 313.4v8.3l-8 4.6v-2.9l-0.3 .5v3l.3-0.2l8-4.6l.3-0.2l-0.3 .1v-8.6Zm-3.3 1l-4.7 2.7l-0.3 .2v4l.3-0.5v-3.8l4.7-2.6Z"/><path fill="#fff" d="M973 313.4v8.6l.4-0.2l7.1-4.1l-0.3-0.2l-6.8 4l-0.1-7.9Zm16.6-9.8v8.4l-7.3 4.2l-0.3 .6l7.7-4.4l.3-0.2l-0.3 .2l-0.1-8.8Zm-1.9 .4l-6.1 3.5l-0.3 .2v7.4l.3-0.6v-7l6.1-3.5Z"/><path fill="#fff" d="M997.9 298.1l-7.7 4.5l7.7-4.5v9.2l-8 4.6v-8.8l-0.3 .5v8.9l.3-0.2l8-4.6l.3-0.2l-0.3 .2Z"/><path fill="#fff" d="M998.2 307.1v-9.1l8-4.6v9.1l-8 4.6Zm8-14.1l-8 4.6v.4l-0.3 .2v9.5l.3-0.2l8-4.6l.3-0.2l-0.3 .2v-9.9Z"/><path fill="#fff" d="M1006.2 293v9.9l.3-0.2l8-4.6l.3-0.2l-0.3 .2l-0.1-9.5l-7 4l7-4l.1 9.1l-8 4.6v-9.1l.4-0.3l-0.7 .5Z"/><path fill="#fff" d="M1014.8 297.5v-9.1l8-4.6v9.1l-8 4.6Zm7.9-13.7l-8 4.6l-0.3 .2v9.5l.3-0.2l8-4.6l.3-0.2l-0.3 .2v-9.5Z"/><path fill="#fff" d="M1023.1 292.7v-9.1l8-4.6v9.1l-8 4.6Zm8.2-13.9l-8.3 4.8l-0.3 .2v9.5l.3-0.2l8.3-4.8v-9.5Zm-82.8 47.5v-9.1l8-4.6v9.1l-8 4.6Zm-0.4-9.3v9.9l8.3-4.8l.3-0.2l-0.3 .2v-9.5l-8.3 4.8v-0.4Z"/><path fill="#fff" d="M956.8 321.5v-9.1l8-4.6v9.1l-8 4.6Zm7.9-13.7l-8 4.6l-0.3 .2v9.5l.3-0.2l8-4.6l.3-0.2l-0.3 .2v-9.5Z"/><path fill="#fff" d="M973 303l-8 4.6l-0.3 .2v9.5l.3-0.2l4.7-2.7l.5-0.6l-5.2 2.9v-9.1l8-4.6v7.5Zm8.3-4.8l-8 4.6l-0.3 .2v7.5l.3 .2v-7.9l8-4.6v9.1l-6.9 4l.3 .2l6.6-3.8l.3-0.2l-0.3 .2Z"/><path fill="#fff" d="M989.5 293.4l-7.9 4.6l-0.3 .2v9.5l.3-0.2l6.1-3.5l.3-0.6l-6.4 3.8v-9.2l7.9-4.6l.1 7.4Zm8.7-4.6l-0.3 .6v8.4l-7.4 4.2l-0.3 .6l7.7-4.4l.3-0.2v-9.2Zm-2.2 .9l-6.1 3.5l-0.3 .2v7.4l.3-0.6v-7l6.1-3.5Zm10.2 2.8v.9l.7-0.4l-0.3-0.2l-0.1 .1v-0.1l-0.3-0.3Zm8.2-9.8v5.5l-6.6 3.8l-0.5 .6l7-4l.3-0.2l-0.3 .2l.1-5.9Zm-1.4-2.8l-6.5 3.8l-0.3 .2v5.8l.3 .2v-6.2l6.5-3.8Z"/><path fill="#fff" d="M1022.7 274.3l-3.8 2.1l3.8-2.1v9.1l-7.9 4.6v-5.7l-0.4 .4v5.9l.4-0.2l7.9-4.6l.4-0.2l-0.4 .2Z"/><path fill="#fff" d="M1023.1 283.2v-9.1l8-4.6v9.1l-8 4.6Zm8.2-13.9l-8.3 4.8l-0.3 .2v9.5l.3-0.2l8.3-4.8v-9.5Zm-82.9 47.5v-9.1l8-4.6v9.1l-8 4.6Zm-0.3-9.4v9.9l8.3-4.8l.3-0.2l-0.3 .2v-9.5l-8.3 4.8v-0.4Z"/><path fill="#fff" d="M956.7 312v-9.1l8-4.6v9.1l-8 4.6Zm8-13.8l-8 4.6l-0.3 .2v9.5l.3-0.2l8-4.6l.3-0.2l-0.3 .2v-9.5Z"/><path fill="#fff" d="M965 307.2v-9.1l8-4.6v9.1l-8 4.6Zm7.9-13.7l-8 4.6l-0.3 .2v9.5l.3-0.2l8-4.6l.3-0.2l-0.2 .2l-0.1-9.5Z"/><path fill="#fff" d="M973.3 302.4v-9.1l8-4.6v9.1l-8 4.6Zm7.9-13.7l-8 4.6l-0.3 .2v9.5l.3-0.2l8-4.6l.3-0.2l-0.3 .2v-9.5Z"/><path fill="#fff" d="M981.6 297.6v-9.1l8-4.6v9.1l-8 4.6Zm7.9-13.7l-8 4.6l-0.3 .2v9.5l.3-0.2l8-4.6l.3-0.2l-0.3 .2v-9.5Z"/><path fill="#fff" d="M997.8 279.1l-7.9 4.6l-0.4 .2v9.5l.4-0.2l6.1-3.5l.3-0.6l-6.4 3.7v-9.1l7.9-4.6v7.4Zm.7 9l-0.1 .1l.1-0.1Zm7.6-13.8l-8 4.6l-0.3 .2v7.4l.3-0.6v-7l8-4.6v9.1l-5.4 3.1l.3 .2l5.1-2.9l.3-0.2l-0.3 .2v-9.5Z"/><path fill="#fff" d="M1014.4 269.5l-8 4.6l-0.3 .2v9.5l.4-0.1l6.5-3.8l-0.4-0.2l-6.1 3.6l-0.1-9.2l8-4.6v7.4Zm8.3-4.8l-8 4.6l-0.3 .2v7.4l.3-0.2v-7.4l8-4.6v9.2l-3.7 2.2l-0.1 .3l3.8-2.1l.3-0.2l-0.3 .2Z"/><path fill="#fff" d="M1023 273.7v-9.1l8-4.6v9.1l-8 4.6Zm8.3-13.9l-8.3 4.8l-0.3 .2v9.5l.3-0.2l8.3-4.8v-9.5Zm-82.9 47.4v-9.1l8-4.6v9.1l-8 4.6Zm7.9-14.1l-8.3 4.8v9.9l8.3-4.8l.3-0.2l-0.3 .2v-9.9Z"/><path fill="#fff" d="M956.7 302.5v-9.1l8-4.6v9.1l-8 4.6Zm7.9-14.2l-8.3 4.8v9.9l.3-0.2l8-4.6l.3-0.2l-0.3 .2v-9.9Z"/><path fill="#fff" d="M965 297.7v-9.1l8-4.6v9.1l-8 4.6Zm7.9-14.1l-8.3 4.8v9.9l.3-0.2l8-4.6l.3-0.2l-0.3 .2v-9.9Z"/><path fill="#fff" d="M973.3 292.9v-9.1l8-4.6v9.1l-8 4.6Zm7.9-14.1l-8.3 4.8v9.9l.3-0.2l8-4.6l.3-0.2l-0.3 .2v-9.9Z"/><path fill="#fff" d="M981.6 288.1v-9.1l8-4.6v9.1l-8 4.6Zm7.9-14.1l-8.3 4.8v9.9l.3-0.2l8-4.6l.3-0.2l-0.3 .2v-9.9Z"/><path fill="#fff" d="M989.9 283.3v-9.1l8-4.6v9.1l-8 4.6Zm7.9-14.1l-8.3 4.8v9.9l.3-0.2l8-4.6l.3-0.2l-0.3 .2v-9.9Z"/><path fill="#fff" d="M998.1 278.5v-9.1l8-4.6v9.1l-8 4.6Zm8-14.1l-8.3 4.8v9.9l.3-0.2l8-4.6l.3-0.2l-0.3 .2v-9.9Z"/><path fill="#fff" d="M1006.4 273.7v-9.1l8-4.6v9.1l-8 4.6Zm8-14.1l-8.3 4.8v9.9l.3-0.2l8-4.6l.3-0.2l-0.3 .2v-9.9Z"/><path fill="#fff" d="M1014.7 269v-9.1l8-4.6v9.1l-8 4.6Zm7.9-14.2l-8.3 4.8v9.9l.3-0.2l8-4.6l.3-0.2l-0.3 .2v-9.9Z"/><path fill="#fff" d="M1023 264.2v-9.1l8-4.6v9.1l-8 4.6Zm8.3-14.3l-8.6 5v9.9l.3-0.2l8.3-4.8v-9.9Z"/><path fill="#203e6d" d="M1189.7 180.2l-64.4 36.6l.1 51.3l64.5-36.6Z"/><path fill="#be29e2" d="M-1.5 1l5-3v42l-5 3Z" mask="url(#Mask-1)" transform="translate(950.5,303)" style="animation: 4s linear infinite both a8_d;"/><path fill="#fff" d="M1141.6 215c-3 1.7-5.6 4.6-7.6 8l7.6 4.3v-12.3Z"/><path fill="#ff50ac" d="M1144.6 215.9v15.2l9.4 5.3c2.4-4.1 3.8-8.8 3.8-13c0-4.2-1.5-7.1-3.9-8.5c-2.3-1.3-5.6-1.1-9.3 1Z"/><path fill="#be29e2" d="M1134.3 227.2c-2.4 4.1-3.8 8.8-3.8 13c0 4.2 1.5 7.1 3.9 8.5c2.4 1.4 5.7 1.2 9.3-0.9c3.6-2.1 6.9-5.7 9.3-9.8l-9.4-5.3l-9.3-5.5Z"/><path fill="#fff" d="M1182.8 200.5v1.9l-20.3 11.5v-1.9Zm0 8.2v1.9l-20.3 11.5v-1.9Zm-4.6 12.5l-15.7 8.9v1.9l15.7-8.9Z"/><path fill="#203e6d" d="M1092.2 265.2l-46.8 26.6c-0.8 .4-1.2 1.2-1.2 2.1l.1 35.5c0 1.9 2 3 3.6 2.1l46.8-26.6c.8-0.4 1.2-1.2 1.2-2.1l-0.1-35.5c0-1.9-2-3-3.6-2.1Z"/><path fill="url(#Gradient-14)" d="M128.8 108.3l-9.6 16.5c-0.6 1-1.9 1.5-3 1c-1.1-0.4-2.4 0-3 1l-2.6 4.6c-1.2 2.2 1.2 4.6 3.3 3.3l32-18.5c1.4-0.8 1.6-2.8 .4-3.9l-3.6-3.1c-1-0.9-2.5-0.8-3.4 .2l-1.7 1.8c-0.8 .8-2 1-3 .4l-5.8-3.3Z" transform="translate(943,173)"/><path fill="#ff50ac" d="M1071.8 292.9l-9.6 16.5c-0.6 1-1.9 1.5-3 1c-1.1-0.4-2.4 0-3 1l-2.6 4.6c-1.2 2.2 1.2 4.6 3.3 3.3l32-18.5c1.4-0.8 1.6-2.8 .4-3.9l-3.6-3.1c-1-0.9-2.5-0.8-3.4 .2l-1.7 1.8c-0.8 .8-2 1-3 .4l-5.8-3.3Z"/><path fill="#fff" d="M1067.8 462.7c1 .6 1 1.6 0 2.2l-31.1 18.1c-1 .6-2.7 .6-3.8 0l-31.3-18.1c-1-0.6-1-1.6 0-2.2l31.1-18.1c1-0.6 2.7-0.6 3.8 0l31.3 18.1Z"/><path fill="#82a9d8" d="M1068.6 463.9v.6c0 0 0 .1-0.1 .1v.1l-0.1 .1c0 0-0.1 0-0.1 .1l-0.1 .1c0 0-0.1 0-0.1 .1c0 0-0.1 0-0.1 .1l-31.1 18.1c-0.1 .1-0.2 .1-0.4 .2h-0.1c-0.1 0-0.2 .1-0.2 .1c-0.1 0-0.2 0-0.3 .1c-0.1 0-0.2 0-0.3 .1h-0.5h-0.5h-0.1c-0.1 0-0.3 0-0.4-0.1h-0.1c-0.1 0-0.3-0.1-0.4-0.1h-0.1c-0.1-0.1-0.3-0.1-0.4-0.2l-31.3-18.1c-0.2-0.1-0.4-0.2-0.5-0.4c-0.2-0.2-0.3-0.5-0.3-0.7v13.5c0 .4 .3 .8 .8 1.1l31.2 17.6c.1 .1 .2 .1 .4 .2h.1c.1 0 .2 .1 .2 .1h2.2c.1 0 .2 0 .3-0.1h.3c.1-0.1 .3-0.1 .4-0.2l31.1-18.1h.1c0 0 .1 0 .1-0.1l.1-0.1c0 0 .1 0 .1-0.1l.1-0.1c0 0 0-0.1 .1-0.1v-0.2v-0.2v-13.5c0 0 0-0.1 0 0Z"/><path fill="#fff" d="M1056.5 454c.7 .4 .7 1 0 1.4l-20.5 11.9c-0.7 .4-1.8 .4-2.5 0l-20.5-11.9c-0.7-0.4-0.7-1 0-1.4l20.4-11.9c.7-0.4 1.8-0.4 2.5 0l20.6 11.9Z"/><path fill="#c5dbf9" d="M1057 454.8c0 .1 0 .1 0 0v.4c0 0 0 .1-0.1 .1h-0.1h-0.1h-0.1l-20.6 12c-0.1 0-0.2 .1-0.2 .1h-0.1c-0.1 0-0.1 0-0.2 .1h-0.4h-1c-0.1 0-0.2 0-0.2-0.1c-0.1 0-0.2-0.1-0.3-0.1l-20.6-11.9c-0.1-0.1-0.2-0.2-0.3-0.2c-0.1-0.1-0.2-0.3-0.2-0.5v8.9c0 .3 .2 .5 .5 .7l20.6 11.9c.1 0 .2 .1 .3 .1c.1 0 .1 0 .2 .1h1.9c.1 0 .2-0.1 .2-0.1l20.4-11.9h.2l.1-0.1v-0.1v-0.1v-0.1v-0.1l.1-9.1c0 0 0-0.1 0 0Z"/><path fill="url(#Gradient-15)" d="M80.8 281.4l21.9 .7v-0.7m0 0h-21.9" mask="url(#Mask-2)" transform="translate(943,173)" style="animation: 4s linear infinite both a9_d;"/><path fill="#ff50ac" d="M1045.7 454.4c.3 .2 .3 .5 0 .7l-10.3 6c-0.3 .2-0.9 .2-1.2 0l-10.3-6c-0.3-0.2-0.3-0.5 0-0.7l10.3-6c.3-0.2 .9-0.2 1.2 0l10.3 6Z"/><path fill="#fff" d="M1119.3 499.7c1 .6 1 1.6 0 2.2l-31 18.1c-1 .6-2.7 .6-3.8 0l-31.3-18.1c-1-0.6-1-1.6 0-2.2l31.1-18.1c1-0.6 2.7-0.6 3.8 0l31.2 18.1Z"/><path fill="#82a9d8" d="M1120.1 500.9c0 0 0 .1 0 0v.6c0 0 0 .1-0.1 .1v.1l-0.1 .1c0 0-0.1 0-0.1 .1l-0.1 .1c0 0-0.1 0-0.1 .1c0 0-0.1 0-0.1 .1l-31.2 17.8c-0.1 .1-0.2 .1-0.4 .2h-0.1c-0.1 0-0.2 .1-0.2 .1c-0.1 0-0.2 0-0.3 .1c-0.1 0-0.2 0-0.3 .1h-0.5h-0.5h-0.1c-0.1 0-0.3 0-0.4-0.1h-0.1c-0.1 0-0.3-0.1-0.4-0.1h-0.1c-0.1-0.1-0.3-0.1-0.4-0.2l-31.3-18.1c-0.2-0.1-0.4-0.2-0.5-0.4c-0.2-0.2-0.3-0.5-0.3-0.7v13.5c0 .4 .3 .8 .8 1.1l31.3 18.1c.1 .1 .2 .1 .4 .2h.1c.1 0 .2 .1 .2 .1h2.2c.1 0 .2 0 .3-0.1h.3c.1-0.1 .3-0.1 .4-0.2l31.1-18.1h.1c0 0 .1 0 .1-0.1l.1-0.1c0 0 .1 0 .1-0.1l.1-0.1c0 0 0-0.1 .1-0.1v-0.2v-0.2v-13.7Z"/><path fill="#fff" d="M1108 491c.7 .4 .7 1 0 1.4l-20.4 11.9c-0.7 .4-1.8 .4-2.5 0l-20.6-11.9c-0.7-0.4-0.7-1 0-1.4l20.4-11.9c.7-0.4 1.8-0.4 2.5 0l20.6 11.9Z"/><path fill="#c5dbf9" d="M1108.5 491.8v.4c0 0 0 .1-0.1 .1h-0.1h-0.1h-0.1l-20.4 11.9c-0.1 0-0.2 .1-0.2 .1h-0.1c-0.1 0-0.1 0-0.2 .1h-0.4h-1c-0.1 0-0.2 0-0.2-0.1c-0.1 0-0.2-0.1-0.3-0.1l-20.6-11.9c-0.1-0.1-0.2-0.2-0.3-0.2c-0.1-0.1-0.2-0.3-0.2-0.5v8.9c0 .3 .2 .5 .5 .7l20.6 11.9c.1 0 .2 .1 .3 .1c.1 0 .1 0 .2 .1h1.9c.1 0 .2-0.1 .2-0.1l20.4-11.9h.2l.1-0.1v-0.1v-0.1v-0.1v-0.1l-0.1-9Z"/><path fill="url(#Gradient-16)" d="M132.3 318.4l21.9 .7v-0.7Z" mask="url(#Mask-3)" transform="translate(943,173)" style="animation: 4s linear infinite both a10_d;"/><path fill="#ff50ac" d="M1097.2 491.4c.3 .2 .3 .5 0 .7l-10.3 6c-0.3 .2-0.9 .2-1.2 0l-10.3-6c-0.3-0.2-0.3-0.5 0-0.7l10.3-6c.3-0.2 .9-0.2 1.2 0l10.3 6Z"/><path fill="#f55d61" d="M1326.2 325l-5.2-11.4l10.8-5.6l5.2 11.4l-10.8 5.6Zm-2-10.3l3.1 6.9l6.5-3.3l-3.1-6.9l-6.5 3.3Zm-883.9-92.7l-5.3-11.4l10.7-5.6l5.3 11.4l-10.7 5.6Zm-2.1-10.3l3.1 6.9l6.5-3.3l-3.1-6.9l-6.5 3.3Z"/><path fill="#2372ec" d="M834 236c-4.4 0-8-3.6-8-8c0-4.4 3.6-8 8-8c4.4 0 8 3.6 8 8c0 4.4-3.6 8-8 8Zm0-13.5c-3.1 0-5.5 2.4-5.5 5.5c0 3.1 2.4 5.5 5.5 5.5c3.1 0 5.5-2.4 5.5-5.5c0-3.1-2.4-5.5-5.5-5.5Z"/><path fill="#d4ecff" d="M920 539c7.2 0 13-5.8 13-13c0-7.2-5.8-13-13-13c-7.2 0-13 5.8-13 13c0 7.2 5.8 13 13 13Z"/><path fill="#2372ec" d="M1264 236c3.9 0 7-3.1 7-7c0-3.9-3.1-7-7-7c-3.9 0-7 3.1-7 7c0 3.9 3.1 7 7 7Z"/></g></svg>