<svg xmlns="http://www.w3.org/2000/svg" fill="none" viewBox="0 0 431 853">
    <defs/>
    <path fill="url(#paint0_linear)" d="M430.999 767.439V853h-56.866L258.99 787.688l104.117-58.756 67.892 38.507z"/>
    <path fill="url(#paint1_linear)" d="M344.125 853h-62.089l-68.057-38.59 32.578-18.34L344.125 853z"/>
    <path fill="url(#paint2_linear)" d="M431 720.716v36.266l-64.078-36.349 32.578-18.34 31.5 18.423z"/>
    <path fill="url(#paint3_linear)" d="M431 662.292v31.868l-14.093-8.631-70.876-40.166 27.853-16.349L431 662.292z"/>
    <path fill="url(#paint4_linear)" d="M267.198 846.029l27.853-16.266-95.911-54.357-27.853 16.266 70.876 40.249 25.035 14.108z"/>
    <path fill="url(#paint5_linear)" d="M235.696 824.618l27.936-16.349-108.427-63.154-27.853 16.266 70.876 40.249 37.468 22.988z"/>
    <path fill="url(#paint6_linear)" d="M182.644 784.285l70.13-39.585-108.428-63.154-70.0472 39.585 70.8762 40.25 37.469 22.904z"/>
    <path fill="url(#paint7_linear)" d="M430.42 769.265l-104.946-61.163-98.646 57.843 70.876 40.249 37.469 22.905 95.247-55.768v-4.066z"/>
    <path fill="#FF50AC" d="M305.165 617.064c1.327.747 2.736 2.489 4.145 5.394 8.456 17.51 11.606 32.282 16.248 34.938 1.492.913 3.233.415 5.305-1.66 4.394-4.398 7.626-5.56 10.362-3.983 4.974 2.904 8.538 14.772 14.921 33.444l-99.226-57.345c.995-3.319 3.73-18.008 10.859-13.942 2.819 1.66 6.383 6.307 10.86 15.851 1.492 3.236 2.901 5.062 4.31 5.809 3.896 2.241 7.544-3.485 11.108-9.295 3.565-5.726 7.212-11.535 11.108-9.211z"/>
    <path fill="#BE29E2" d="M292.067 640.052c1.575.912 3.15 2.821 4.808 6.307 5.637 11.784 9.533 17.095 12.766 18.921 2.569 1.494 4.725.664 7.046-.996 1.906-1.328 4.393-1.66 7.295.083 4.642 2.656 10.279 10.457 15.999 26.971l-91.02-52.614c.912-3.237 7.626-8.797 14.009-5.146 2.073 1.162 4.145 3.32 5.886 6.888 1.741 3.403 3.316 5.229 4.891 6.142 3.316 1.908 6.3-.664 9.284-3.32 2.902-2.49 5.803-5.062 9.036-3.236z"/>
    <path fill="#9314B2" d="M143.599 651.919l-11.771-6.805-11.937 6.805 11.854 6.888 11.854-6.888z"/>
    <path fill="#B425D6" d="M119.891 651.919v29.959l11.854 6.888v-29.959l-11.854-6.888z"/>
    <path fill="#D351F2" d="M131.744 658.807v29.959l11.854-6.888v-29.959l-11.854 6.888z"/>
    <path fill="#CC0982" d="M125.114 638.724l-11.854-6.888-11.854 6.888 11.771 6.805 11.937-6.805z"/>
    <path fill="#F22299" d="M101.406 638.724v53.693l11.771 6.888v-53.776l-11.771-6.805z"/>
    <path fill="#FF50AC" d="M113.178 645.529v53.776l11.937-6.888v-53.693l-11.937 6.805z"/>
    <path fill="#9314B2" d="M106.047 679.803l-11.8541-6.888-11.937 6.888 11.8541 6.805 11.937-6.805z"/>
    <path fill="#B425D6" d="M82.2559 679.803l.0829 23.071 11.7712 6.888v-23.154l-11.8541-6.805z"/>
    <path fill="#D351F2" d="M94.1094 686.608v23.154l11.9366-6.888v-23.071l-11.9366 6.805z"/>
    <path fill="#CC0982" d="M86.8156 676.65l-11.8541-6.889-11.8541 6.889 11.7712 6.888 11.937-6.888z"/>
    <path fill="#F22299" d="M63.1074 676.649v37.262l11.8541 6.805-.0829-37.179-11.7712-6.888z"/>
    <path fill="#FF50AC" d="M74.8789 683.537l.0829 37.179 11.8541-6.805v-37.262l-11.937 6.888z"/>
    <path fill="#fff" d="M373.469 616.981c.829.498.829 1.328 0 1.826l-25.78 15.02c-.829.498-2.238.498-3.15 0l-25.947-15.02c-.829-.498-.829-1.328 0-1.826l25.781-15.021c.829-.498 2.238-.498 3.15 0l25.946 15.021z"/>
    <path fill="#82A9D8" d="M374.133 617.894c0 .083 0 .083 0 0V618.391s0 .083-.083.083v.083l-.082.083s-.083 0-.083.083l-.083.083s-.083 0-.083.083c0 0-.083 0-.083.083l-25.781 15.021c-.083.083-.165.083-.331.166h-.083c-.083 0-.166.083-.166.083-.083 0-.166 0-.249.083-.083 0-.165 0-.248.083H346.363 345.949h-.083c-.083 0-.249 0-.332-.083h-.083c-.083 0-.248-.083-.331-.083h-.083c-.083-.083-.249-.083-.332-.166l-25.946-15.021c-.166-.083-.332-.166-.415-.332-.165-.166-.248-.414-.248-.58v11.203c0 .332.248.664.663.913l25.946 15.021c.083.083.166.083.332.166h.083c.083 0 .166.083.166.083h1.823c.083 0 .166 0 .249-.083h.249c.083-.083.248-.083.331-.166l25.781-15.021h.083s.083 0 .083-.083l.083-.083s.082 0 .082-.083l.083-.083s0-.083.083-.083v-.166-.166-.083l-.083-11.535z"/>
    <path fill="#fff" d="M364.102 609.761c.581.332.581.829 0 1.161l-16.91 9.876c-.581.332-1.493.332-2.073 0l-17.076-9.876c-.581-.332-.581-.829 0-1.161l16.91-9.876c.581-.332 1.493-.332 2.073 0l17.076 9.876z"/>
    <path fill="#C5DBF9" d="M364.518 610.342s0 .083 0 0c0 .083 0 .083 0 0v.332s0 .082-.083.082h-.083-.083-.083l-16.911 9.876c-.083 0-.166.083-.166.083h-.082c-.083 0-.083 0-.166.083h-.332H345.7c-.083 0-.166 0-.166-.083-.082 0-.165-.083-.248-.083l-17.243-9.71c-.083-.083-.165-.166-.248-.166-.083-.082-.166-.248-.166-.414v7.386c0 .248.166.414.414.58l17.077 9.876c.083 0 .166.083.249.083.083 0 .083 0 .165.083h1.575c.083 0 .166-.083.166-.083l16.911-9.876h.166l.083-.083v-.083-.083-.083-.083l.083-7.634z"/>
    <path fill="url(#paint8_linear)" d="M336.996 537.063v72.947l18.154.581v-73.528h-18.154z"/>
    <path fill="#FF50AC" d="M355.15 610.01c.249.166.249.414 0 .58l-8.538 4.98c-.249.166-.746.166-.995 0l-8.538-4.98c-.249-.166-.249-.414 0-.58l8.538-4.98c.249-.166.746-.166.995 0l8.538 4.98z"/>
    <path fill="#fff" d="M322.905 696.65c3.067 1.743 3.067 4.647 0 6.39l-91.02 53.03c-3.067 1.742-7.958 1.742-11.025 0l-91.683-53.03c-3.067-1.743-3.067-4.647 0-6.39l91.103-52.947c3.067-1.743 7.958-1.743 11.025 0l91.6 52.947z"/>
    <path fill="#C5DBF9" d="M325.225 700.135v.249c0 .083 0 .166-.083.166 0 .083 0 .166-.082.249 0 .083-.083.166-.083.166 0 .083-.083.166-.083.249 0 .083-.083.083-.083.166-.083.083-.083.166-.166.249 0 .083-.083.083-.166.166s-.248.249-.331.332l-.166.166c-.083.083-.166.166-.249.166-.083.083-.166.083-.248.166-.083.083-.166.166-.249.166-.083.083-.166.166-.332.166l-91.019 53.112c-.332.166-.747.332-1.078.498-.083 0-.166.083-.332.083-.248.083-.497.166-.746.249-.248.083-.497.166-.746.166-.331.083-.663.083-.912.166h-.248c-.415.083-.912.083-1.327.083h-.248c-.415 0-.829 0-1.327-.083h-.165c-.415-.083-.829-.083-1.244-.249-.083 0-.166 0-.249-.083-.331-.083-.746-.166-1.077-.332-.083 0-.166 0-.166-.083-.415-.166-.829-.332-1.161-.581l-91.682-52.863c-.581-.332-1.078-.747-1.41-1.079-.58-.664-.912-1.411-.912-2.158v7.469c0 1.162.747 2.324 2.322 3.237l91.682 52.946c.332.166.746.415 1.161.581h.083c.083 0 .166.083.166.083.248.083.414.166.663.249.166 0 .248.083.414.083.083 0 .166 0 .249.083.083 0 .166 0 .166.083.248.083.497.083.746.166h2.238c.249 0 .58 0 .829-.083h.332c.248 0 .414-.083.663-.083.083 0 .166-.083.248-.083.249-.083.498-.083.746-.166.166 0 .249-.083.415-.083.083 0 .249-.083.332-.083.082 0 .165-.083.331-.083.415-.166.746-.332 1.078-.498l91.102-52.946s.083 0 .083-.083c.083-.083.166-.083.166-.166.083-.083.166-.083.249-.166.083-.083.166-.083.248-.166.083-.083.166-.166.249-.166h.083l.083-.083c.083-.083.249-.249.331-.332l.083-.083s0-.083.083-.083c.083-.083.166-.166.166-.249l.083-.083v-.083c.083-.083.083-.166.083-.249 0-.083.083-.083.083-.166v-.083c0-.083.083-.166.083-.249 0-.083 0-.083.083-.166v-.083-.249-7.718c.165 0 .165.083.165.166z"/>
    <path fill="#203E6D" d="M240.342 587.769c1.575-.913 2.901-.166 2.901 1.66l.166 61.909c0 1.826-1.326 4.066-2.901 5.062l-80.99 46.806c-1.575.913-2.901.166-2.901-1.66l-.166-61.909c0-1.826 1.327-4.067 2.902-5.063l80.989-46.805z"/>
    <path fill="#fff" d="M161.674 639.72c.083-.166.249-.415.331-.581l75.933-43.901.166 56.017c-.083.166-.249.498-.332.581l-75.932 43.901-.166-56.017z"/>
    <path fill="url(#paint9_linear)" d="M153.301 585.943c.083-.166.248-46.059.331-46.142L236.362 492l.166 94.358c-.083.166-.248.498-.414.664l-82.647 47.801-.166-48.88z"/>
    <path fill="#82A9D8" d="M152.057 637.147v-.166-.166-.166-.166-.166-.166-.166-.166-.249c0-.083 0-.083.083-.166 0-.083 0-.083.082-.166 0-.083 0-.083.083-.166 0-.083 0-.083.083-.166 0 0 0-.083.083-.083 0-.083.083-.083.083-.166s.083-.083.083-.166.083-.083.083-.166.083-.083.083-.166v-.083c.083-.083.165-.249.248-.332.083-.083.083-.166.166-.249l.166-.166c0-.083.083-.083.083-.166s.083-.083.083-.166.083-.083.083-.166l.083-.083.082-.083c.083 0 .083-.083.166-.083s.083-.083.166-.083c0 0 .083 0 .083-.083h.083c.083 0 .083-.083.166-.083s.083-.083.165-.083l.083-.083.083-.083 80.989-46.805s.083 0 .083-.083l.083-.083h.083s.083 0 .083-.083c0 0 .083 0 .083-.083H237.274c.083 0 .082 0 .165.083.083 0 .166.083.249.083l4.394 2.573c-.083 0-.166-.083-.249-.083-.083 0-.083 0-.166-.083h-.249H240.838c-.083 0-.166.083-.249.083-.082 0-.165.083-.248.083-.083.083-.166.083-.249.166l-80.989 46.805c-.166.083-.415.249-.58.415l-.498.498c-.166.166-.331.415-.497.581-.166.166-.332.415-.415.664-.165.249-.248.415-.331.664l-.249.747c-.083.249-.166.498-.166.747s-.083.497-.083.746l.166 61.91c0 .249 0 .415.083.664 0 .166.083.332.166.498.083.166.166.249.248.332l.083.083c.083.083.166.166.332.249l-4.393-2.573c-.083-.083-.249-.166-.332-.249l-.083-.083c0-.083-.083-.083-.083-.166s-.083-.166-.083-.166c0-.083-.083-.083-.083-.166s0-.083-.083-.166v-.249-.083-.166-.166-.166-.166l-.165-61.743z"/>
    <path fill="#C5DBF9" d="M246.89 655.819l56.452 32.864-86.792 50.208-59.271-34.44 84.057-48.632c1.741-.995 3.813-.995 5.554 0z"/>
    <path fill="#82A9D8" d="M303.343 688.683v7.635l-86.792 50.125v-7.552l86.792-50.208zM216.55 738.891v7.552l-55.872-32.532c-2.072-1.244-3.316-3.402-3.399-5.809v-3.734l59.271 34.523z"/>
    <path fill="#fff" d="M225.586 707.604c-1.99 1.162-1.99 2.988 0 4.15l11.108 6.473c1.989 1.162 5.139 1.162 7.129 0l28.019-16.183c1.989-1.162 1.989-2.988 0-4.149l-11.108-6.474c-1.99-1.161-5.14-1.161-7.129 0l-28.019 16.183z" opacity=".5"/>
    <path fill="#203E6D" d="M225.586 709.015l28.019-16.183c1.989-1.162 5.139-1.162 7.129 0l11.108 6.473c.663.415 1.078.83 1.326 1.328.415-.996 0-1.992-1.326-2.738l-11.108-6.474c-1.99-1.161-5.14-1.161-7.129 0l-28.019 16.183c-1.326.747-1.741 1.826-1.326 2.822.248-.498.663-.996 1.326-1.411z" opacity=".48"/>
    <path fill="#fff" d="M244.901 661.13c-1.244-.746-3.316-.746-4.559 0L169.3 702.21c-1.244.747-1.244 1.909 0 2.655l25.449 14.855c1.243.747 3.316.747 4.559 0l71.042-41.079c1.243-.747 1.243-1.909 0-2.656" opacity=".5"/>
    <path fill="#C5DBF9" d="M238.021 664.782l3.813-2.158c.249-.083.58-.083.746 0l1.99 1.162c.248.083.248.332 0 .415l-3.814 2.158c-.248.083-.58.083-.746 0l-1.989-1.162c-.166-.083-.166-.332 0-.415zM232.052 668.268l3.813-2.241c.249-.083.58-.083.746 0l1.99 1.162c.248.166.248.332 0 .415l-3.814 2.24c-.248.083-.58.083-.746 0l-1.989-1.162c-.249-.083-.249-.331 0-.414zM226.001 671.753l3.813-2.241c.249-.083.58-.083.746 0l1.989 1.162c.249.166.249.332 0 .415l-3.813 2.241c-.248.083-.58.083-.746 0l-1.989-1.162c-.166-.083-.249-.332 0-.415zM219.951 675.238l3.813-2.24c.248-.083.58-.083.746 0l1.989 1.162c.249.166.249.332 0 .415l-3.813 2.24c-.249.083-.58.083-.746 0l-1.989-1.162c-.166-.166-.166-.332 0-.415zM213.981 678.724l3.814-2.241c.248-.083.58-.083.746 0l1.989 1.162c.249.166.249.332 0 .415l-3.813 2.241c-.249.083-.58.083-.746 0l-1.99-1.162c-.248-.166-.248-.332 0-.415zM207.929 682.127l3.813-2.241c.249-.083.581-.083.746 0l1.99 1.162c.248.166.248.332 0 .415l-3.813 2.24c-.166.083-.581.083-.746 0l-1.99-1.161c-.166-.083-.166-.249 0-.415zM201.962 685.612l3.813-2.241c.166-.083.58-.083.746 0l1.99 1.162c.248.166.248.332 0 .415l-3.814 2.241c-.165.083-.58.083-.746 0l-1.989-1.162c-.249-.083-.249-.249 0-.415zM195.909 689.098l3.813-2.241c.166-.083.58-.083.746 0l1.99 1.162c.248.166.248.332 0 .415l-3.814 2.24c-.165.083-.58.083-.746 0l-1.989-1.161c-.166-.083-.249-.249 0-.415zM189.859 692.583l3.813-2.24c.166-.083.58-.083.746 0l1.989 1.161c.249.166.249.332 0 .415l-3.813 2.241c-.248.083-.58.083-.746 0l-1.989-1.162c-.166-.083-.166-.249 0-.415zM183.89 696.069l3.813-2.241c.166-.083.58-.083.746 0l1.989 1.162c.249.166.249.332 0 .415l-3.813 2.24c-.248.083-.58.083-.746 0l-1.989-1.162c-.249-.083-.249-.248 0-.414zM177.839 699.554l3.813-2.241c.166-.083.581-.083.746 0l1.99 1.162c.249.166.249.332 0 .415l-3.813 2.241c-.249.083-.581.083-.746 0l-1.99-1.162c-.166-.083-.166-.249 0-.415zM171.87 703.04l3.813-2.158c.249-.083.581-.166.746 0l1.99 1.162c.249.083.249.332 0 .415l-3.813 2.157c-.249.083-.581.083-.746 0l-1.99-1.161c-.249-.083-.249-.332 0-.415zM242.331 667.272l3.814-2.158c.248-.083.58-.083.746 0l3.315 1.909c.249.083.249.332 0 .415l-3.813 2.157c-.248.083-.58.083-.746 0l-3.316-1.908c-.165-.083-.165-.249 0-.415zM236.362 670.757l3.814-2.241c.248-.083.58-.083.746 0l3.315 1.909c.249.166.249.332 0 .415l-3.813 2.241c-.248.083-.58.083-.746 0l-3.316-1.909c-.248-.083-.248-.332 0-.415zM230.312 674.243l3.813-2.241c.249-.083.58-.083.746 0l3.316 1.909c.249.166.249.332 0 .415l-3.813 2.24c-.249.083-.581.083-.746 0l-3.316-1.908c-.166-.083-.166-.332 0-.415zM224.261 677.728l3.813-2.24c.249-.083.581-.083.746 0l3.316 1.908c.249.166.249.332 0 .415l-3.813 2.241c-.249.083-.58.083-.746 0l-3.316-1.909c-.166-.083-.166-.332 0-.415zM218.292 681.214l3.813-2.241c.249-.083.58-.083.746 0l3.316 1.909c.249.166.249.332 0 .415l-3.813 2.24c-.249.083-.58.083-.746 0l-3.316-1.908c-.249-.083-.249-.332 0-.415zM212.24 684.699l3.813-2.241c.248-.083.58-.083.746 0l3.316 1.909c.248.166.248.332 0 .415l-3.814 2.241c-.165.083-.58.083-.746 0l-3.315-1.909c-.166-.083-.166-.332 0-.415zM206.272 688.185l3.814-2.241c.165-.083.58-.083.746 0l3.316 1.909c.248.166.248.332 0 .415l-3.814 2.24c-.165.083-.58.083-.746 0l-3.316-1.908c-.248-.166-.248-.332 0-.415zM200.22 691.67l3.813-2.241c.166-.083.581-.083.746 0l3.316 1.909c.249.166.249.332 0 .415l-3.813 2.241c-.166.083-.58.083-.746 0l-3.316-1.909c-.166-.166-.166-.332 0-.415zM194.169 695.073l3.813-2.241c.166-.083.581-.083.747 0l3.315 1.909c.249.166.249.332 0 .415l-3.813 2.24c-.249.083-.58.083-.746 0l-3.316-1.908c-.166-.083-.166-.249 0-.415zM188.2 698.558l3.813-2.24c.166-.083.581-.083.746 0l3.316 1.908c.249.166.249.332 0 .415l-3.813 2.241c-.249.083-.58.083-.746 0l-3.316-1.909c-.249-.083-.249-.249 0-.415zM182.15 702.044l3.813-2.241c.166-.083.58-.083.746 0l3.316 1.909c.249.166.249.332 0 .415l-3.813 2.24c-.249.083-.581.083-.746 0l-3.316-1.908c-.166-.083-.166-.249 0-.415zM176.181 705.529l3.813-2.157c.249-.083.58-.083.746 0l3.316 1.908c.248.083.248.332 0 .415l-3.813 2.158c-.249.083-.581.083-.747 0l-3.315-1.909c-.249-.083-.249-.249 0-.415zM242.001 674.077l6.051-3.486.498-.332 3.316-1.908c.248-.083.58-.083.746 0l3.315 1.908c.249.166.249.332 0 .415l-3.315 1.909-.498.332-6.051 3.485c-.249.083-.58.083-.746 0l-3.316-1.908c-.249-.166-.249-.332 0-.415zM235.949 677.562l3.813-2.24c.248-.083.58-.083.746 0l3.316 1.908c.248.166.248.332 0 .415l-3.814 2.241c-.248.083-.58.083-.746 0l-3.315-1.909c-.166-.166-.166-.332 0-.415zM229.979 680.965l3.814-2.241c.248-.083.58-.083.746 0l3.316 1.909c.248.166.248.332 0 .415l-3.814 2.24c-.248.083-.58.083-.746 0l-3.316-1.908c-.248-.083-.248-.249 0-.415zM223.928 684.45l3.814-2.241c.248-.083.58-.083.746 0l3.316 1.909c.248.166.248.332 0 .415l-3.814 2.241c-.248.083-.58.083-.746 0l-3.316-1.909c-.165-.083-.248-.249 0-.415zM217.878 687.936l3.813-2.241c.249-.083.581-.083.747 0l3.315 1.909c.249.166.249.332 0 .415l-3.813 2.24c-.166.083-.58.083-.746 0l-3.316-1.908c-.166-.083-.166-.249 0-.415zM211.909 691.421l3.813-2.24c.166-.083.581-.083.746 0l3.316 1.908c.249.166.249.332 0 .415l-3.813 2.241c-.166.083-.58.083-.746 0l-3.316-1.909c-.249-.083-.249-.249 0-.415zM205.857 694.907l3.813-2.241c.166-.083.58-.083.746 0l3.316 1.909c.249.166.249.332 0 .415l-3.813 2.24c-.166.083-.581.083-.746 0l-3.316-1.908c-.166-.083-.166-.249 0-.415zM199.89 698.392l3.813-2.24c.166-.083.58-.083.746 0l3.316 1.908c.248.166.248.332 0 .415l-3.813 2.241c-.249.083-.581.083-.747 0l-3.315-1.909c-.249-.083-.249-.249 0-.415zM193.837 701.878l3.813-2.241c.166-.083.58-.083.746 0l3.316 1.909c.248.166.248.332 0 .415l-3.813 2.241c-.249.083-.581.083-.747 0l-3.315-1.909c-.166-.083-.249-.332 0-.415zM181.817 708.849l6.052-3.486 1.077-.581 2.736-1.576c.166-.083.58-.083.746 0l3.316 1.908c.249.166.249.332 0 .415l-2.736 1.577-1.077.581-6.052 3.485c-.248.083-.58.083-.746 0l-3.316-1.908c-.248-.083-.248-.332 0-.415zM238.601 682.458l3.813-2.24c.248-.083.58-.083.746 0l3.316 1.909c.248.165.248.331 0 .414l-3.814 2.241c-.248.083-.58.083-.746 0l-3.315-1.909c-.249-.083-.249-.249 0-.415zM232.55 685.944l3.813-2.241c.249-.083.581-.083.746 0l3.316 1.909c.249.166.249.332 0 .415l-3.813 2.241c-.249.083-.58.083-.746 0l-3.316-1.909c-.166-.083-.166-.249 0-.415zM226.581 689.429l3.813-2.24c.249-.083.581-.083.746 0l3.316 1.908c.249.166.249.332 0 .415l-3.813 2.241c-.249.083-.58.083-.746 0l-3.316-1.909c-.249-.083-.249-.249 0-.415zM220.53 692.915l3.813-2.241c.249-.083.58-.083.746 0l3.316 1.909c.249.166.249.332 0 .415l-3.813 2.241c-.249.083-.58.083-.746 0l-3.316-1.909c-.166-.083-.249-.249 0-.415zM214.478 696.401l3.813-2.241c.249-.083.58-.083.746 0l3.316 1.909c.249.166.249.332 0 .415l-3.813 2.24c-.249.083-.581.083-.746 0l-3.316-1.908c-.166-.083-.166-.249 0-.415zM208.511 699.886l3.813-2.241c.249-.082.58-.082.746 0l3.316 1.909c.249.166.249.332 0 .415l-3.813 2.241c-.249.083-.581.083-.746 0l-3.316-1.909c-.249-.083-.249-.249 0-.415zM202.458 703.372l3.813-2.241c.249-.083.58-.083.746 0l3.316 1.909c.249.166.249.332 0 .415l-3.813 2.24c-.249.083-.581.083-.746 0l-3.316-1.909c-.166-.083-.249-.248 0-.414zM187.372 712.085l12.601-7.303c.165-.083.497-.083.663 0l3.398 1.992c.166.083.166.249 0 .332l-12.6 7.303c-.248.083-.58.083-.746 0l-3.316-1.909c-.165-.083-.165-.332 0-.415zM244.901 678.89l12.601-7.303c.165-.083.497-.083.663 0l3.398 1.992c.166.083.166.249 0 .332l-12.6 7.303c-.166.083-.58.083-.746 0l-3.316-1.909c-.248-.083-.248-.332 0-.415zM259.243 677.064l3.813-2.241c.249-.083.581-.083.746 0l4.062 2.407c.249.166.249.332 0 .415l-3.813 2.241c-.249.083-.58.083-.746 0l-4.062-2.407c-.249-.083-.249-.249 0-.415zM253.191 680.55l3.813-2.241c.249-.083.58-.083.746 0l4.062 2.407c.249.166.249.332 0 .415l-3.813 2.24c-.249.083-.581.083-.746 0l-4.062-2.406c-.166-.083-.166-.249 0-.415zM247.14 684.035l3.813-2.24c.249-.083.58-.083.746 0l4.062 2.406c.249.166.249.332 0 .415l-3.813 2.241c-.249.083-.58.083-.746 0l-4.062-2.407c-.166-.083-.166-.249 0-.415zM241.171 687.521l3.813-2.241c.249-.083.58-.083.746 0l4.062 2.407c.249.166.249.332 0 .415l-3.813 2.24c-.249.083-.58.083-.746 0l-4.062-2.406c-.249-.083-.249-.249 0-.415zM217.048 701.463l1.492-.83 2.321-1.328 2.239-1.245 3.813-2.24 2.238-1.245 3.813-2.241 6.052-3.485c.248-.083.58-.083.746 0l4.062 2.406c.248.166.248.332 0 .415l-6.052 3.486-3.813 2.24-2.238 1.245-3.813 2.241-2.239 1.245-2.321 1.328-1.492.829c-.166.083-.58.083-.746 0l-4.062-2.406c-.166-.083-.166-.332 0-.415zM211.079 704.948l3.813-2.24c.166-.083.581-.083.746 0l4.062 2.406c.249.166.249.332 0 .415l-3.813 2.241c-.249.083-.58.083-.746 0l-4.062-2.407c-.249-.083-.249-.332 0-.415zM205.029 708.434l3.813-2.241c.166-.083.58-.083.746 0l4.062 2.407c.248.166.248.332 0 .415l-3.813 2.24c-.249.083-.581.083-.746 0l-4.062-2.406c-.166-.166-.166-.332 0-.415zM199.06 711.919l3.813-2.24c.166-.083.58-.083.746 0l4.062 2.406c.248.166.248.332 0 .415l-3.813 2.241c-.249.083-.581.083-.747 0l-4.061-2.407c-.249-.166-.249-.332 0-.415zM193.009 715.322l3.813-2.241c.249-.083.581-.083.746 0l4.062 2.407c.249.166.249.332 0 .415l-3.813 2.241c-.249.083-.58.083-.746 0l-4.062-2.407c-.166-.083-.166-.249 0-.415z"/>
    <path fill="#203E6D" d="M244.654 663.786c.249.083.249.332 0 .415l-3.813 2.158h-.083c.249.083.497.083.663 0l3.813-2.158c.249-.083.249-.332 0-.415l-1.989-1.162c-.166-.083-.498-.083-.663 0h.082l1.99 1.162zM238.601 667.189c.249.166.249.332 0 .415l-3.813 2.24h-.083c.249.083.497.083.663 0l3.813-2.24c.249-.083.166-.332 0-.415l-1.989-1.162c-.166-.083-.497-.083-.663 0h.083l1.989 1.162zM232.55 670.674c.249.166.249.332 0 .415l-3.813 2.241h-.083c.249.083.498.083.663 0l3.814-2.241c.248-.083.165-.332 0-.415l-1.99-1.162c-.166-.083-.497-.083-.663 0h.083l1.989 1.162zM226.582 674.16c.248.166.248.332 0 .415l-3.814 2.24h-.082c.248.083.497.083.663 0l3.813-2.24c.249-.083.166-.332 0-.415l-1.99-1.162c-.165-.083-.497-.083-.663 0h.083l1.99 1.162zM220.531 677.645c.249.166.249.332 0 .415l-3.813 2.241h-.083c.248.083.497.083.663 0l3.813-2.241c.249-.083.166-.332 0-.415l-1.989-1.162c-.166-.083-.498-.083-.664 0h.083l1.99 1.162zM214.562 681.131c.249.166.249.332 0 .415l-3.813 2.24h-.083c.249.083.497.083.663 0l3.813-2.24c.249-.083.166-.332 0-.415l-1.989-1.162c-.166-.083-.497-.083-.663 0h.083l1.989 1.162zM208.511 684.616c.249.166.249.332 0 .415l-3.813 2.241h-.083c.249.083.498.083.663 0l3.814-2.241c.165-.083.165-.332 0-.415l-1.99-1.162c-.166-.083-.497-.083-.663 0h.083l1.989 1.162zM202.459 688.102c.248.166.248.332 0 .415l-3.814 2.24h-.083c.249.083.498.083.664 0l3.813-2.24c.166-.083.166-.332 0-.415l-1.99-1.162c-.165-.083-.497-.083-.663 0h.083l1.99 1.162zM196.492 691.587c.248.166.248.332 0 .415l-3.813 2.241h-.083c.248.083.497.083.663 0l3.813-2.241c.166-.083.166-.332 0-.415l-1.989-1.161c-.166-.083-.498-.083-.664 0h.083l1.99 1.161zM190.439 695.073c.249.166.249.332 0 .415l-3.813 2.24h-.083c.249.083.497.083.663 0l3.813-2.24c.166-.083.166-.332 0-.415l-1.989-1.162c-.166-.083-.498-.083-.663 0h.083l1.989 1.162zM184.47 698.558c.249.166.249.332 0 .415l-3.813 2.241h-.083c.249.083.498.083.663 0l3.814-2.241c.165-.083.165-.332 0-.415l-1.99-1.162c-.166-.083-.497-.083-.663 0h.083l1.989 1.162zM179 702.044l-1.99-1.162c-.165-.083-.497-.083-.663 0h.083l1.99 1.162c.248.083.248.332 0 .415l-3.814 2.157h-.083c.249.083.498.083.664 0l3.813-2.157c.248-.083.248-.332 0-.415zM250.207 667.023c.248.083.248.332 0 .415l-3.814 2.157h-.082c.248.083.497.083.663 0l3.813-2.157c.249-.083.249-.332 0-.415l-3.316-1.909c-.166-.083-.497-.083-.663 0h.083l3.316 1.909zM244.818 670.508l-3.316-1.909c-.165-.083-.497-.083-.663-.083 0 0 .083 0 .083.083l3.316 1.909c.249.166.249.332 0 .415l-3.813 2.241h-.083c.248.083.497.083.663 0l3.813-2.241c.166-.083.166-.332 0-.415zM234.788 672.002s.083 0 .083.083l3.316 1.909c.249.166.249.332 0 .415l-3.813 2.24h-.083c.249.083.497.083.663 0l3.813-2.24c.249-.083.166-.332 0-.415l-3.315-1.909c-.166-.166-.415-.166-.664-.083zM228.738 675.487s.083 0 .083.083l3.315 1.909c.249.166.249.332 0 .415l-3.813 2.241h-.083c.249.083.498.083.663 0l3.814-2.241c.248-.083.165-.332 0-.415l-3.316-1.909c-.166-.166-.415-.166-.663-.083zM222.769 678.973s.083 0 .083.083l3.316 1.909c.248.166.248.332 0 .415l-3.814 2.24h-.083c.249.083.498.083.664 0l3.813-2.24c.249-.083.166-.332 0-.415l-3.316-1.909c-.166-.166-.497-.166-.663-.083zM216.718 682.459s.083 0 .083.083l3.316 1.908c.248.166.248.332 0 .415l-3.813 2.241h-.083c.248.083.497.083.663 0l3.813-2.241c.249-.083.166-.332 0-.415l-3.316-1.908c-.166-.166-.414-.166-.663-.083zM210.749 685.944s.083 0 .083.083l3.316 1.909c.249.166.249.332 0 .415l-3.813 2.24h-.083c.249.083.497.083.663 0l3.813-2.24c.166-.083.166-.332 0-.415l-3.315-1.909c-.166-.166-.498-.166-.664-.083zM204.697 689.43s.082 0 .082.083l3.316 1.908c.249.166.249.332 0 .415l-3.813 2.241h-.083c.249.083.498.083.663 0l3.814-2.241c.165-.083.165-.332 0-.415l-3.316-1.908c-.166-.166-.415-.166-.663-.083zM198.646 692.915s.083 0 .083.083l3.316 1.909c.248.166.248.332 0 .415l-3.814 2.24h-.083c.249.083.498.083.664 0l3.813-2.24c.166-.083.166-.332 0-.415l-3.316-1.909c-.166-.166-.415-.166-.663-.083zM196.076 698.309c.248.166.248.332 0 .415l-3.813 2.241h-.083c.248.083.497.083.663 0l3.813-2.241c.166-.083.166-.332 0-.415l-3.316-1.908c-.166-.083-.497-.083-.663-.083 0 0 .083 0 .083.083l3.316 1.908zM187.371 699.886c-.165-.083-.497-.083-.663-.083 0 0 .083 0 .083.083l3.316 1.909c.249.166.249.332 0 .415l-3.813 2.241h-.083c.249.083.497.083.663 0l3.813-2.241c.166-.083.166-.332 0-.415l-3.316-1.909zM184.637 705.28l-3.316-1.908c-.166-.083-.498-.083-.663 0h.082l3.316 1.908c.249.083.249.332 0 .415l-3.813 2.158h-.083c.249.083.498.083.663 0l3.814-2.158c.165-.083.165-.332 0-.415zM255.844 670.259c.249.166.249.332 0 .415l-3.316 1.909-.497.332-6.052 3.485h-.083c.249.083.498.083.664 0l6.051-3.485.497-.332 3.316-1.909c.249-.083.166-.332 0-.415l-3.316-1.908c-.165-.083-.497-.083-.663-.083 0 0 .083 0 .083.083l3.316 1.908zM243.824 677.23c.249.166.249.332 0 .415l-3.813 2.241h-.083c.248.083.497.083.663 0l3.813-2.241c.249-.083.166-.332 0-.415l-3.316-1.908c-.166-.083-.497-.083-.663-.083 0 0 .083 0 .083.083l3.316 1.908zM237.855 680.716c.249.166.249.332 0 .415l-3.813 2.24h-.083c.249.083.497.083.663 0l3.813-2.24c.249-.083.166-.332 0-.415l-3.315-1.909c-.166-.083-.498-.083-.664-.083 0 0 .083 0 .083.083l3.316 1.909zM231.804 684.201c.249.166.249.332 0 .415l-3.813 2.241h-.083c.249.083.498.083.663 0l3.814-2.241c.248-.083.165-.332 0-.415l-3.316-1.909c-.166-.083-.498-.083-.663-.083 0 0 .082 0 .082.083l3.316 1.909zM225.754 687.687c.248.166.248.332 0 .415l-3.814 2.24h-.083c.249.083.498.083.664 0l3.813-2.24c.249-.083.166-.332 0-.415l-3.316-1.909c-.166-.083-.497-.083-.663-.083 0 0 .083 0 .083.083l3.316 1.909zM219.785 691.172c.248.166.248.332 0 .415l-3.813 2.241h-.083c.248.083.497.083.663 0l3.813-2.241c.166-.083.166-.332 0-.415l-3.316-1.908c-.166-.083-.497-.083-.663-.083 0 0 .083 0 .083.083l3.316 1.908zM213.734 694.658c.249.166.249.332 0 .415l-3.813 2.24h-.083c.249.083.497.083.663 0l3.813-2.24c.166-.083.166-.332 0-.415l-3.316-1.909c-.165-.083-.497-.083-.663-.083 0 0 .083 0 .083.083l3.316 1.909zM205.03 696.235c-.166-.083-.498-.083-.663-.083 0 0 .082 0 .082.083l3.316 1.908c.249.166.249.332 0 .415l-3.813 2.241h-.083c.249.083.498.083.663 0l3.814-2.241c.165-.083.165-.332 0-.415l-3.316-1.908zM201.713 701.629c.248.166.248.332 0 .415l-3.814 2.241h-.083c.249.083.498.083.664 0l3.813-2.241c.166-.083.166-.332 0-.415l-3.316-1.909c-.166-.083-.497-.083-.663-.083 0 0 .083 0 .083.083l3.316 1.909zM193.507 707.106l2.736-1.577c.165-.083.165-.332 0-.415l-3.316-1.908c-.166-.083-.498-.083-.663-.083 0 0 .083 0 .083.083l3.315 1.908c.249.166.249.332 0 .415l-2.735 1.577-1.078.581-6.051 3.485h-.083c.249.083.497.083.663 0l6.051-3.485 1.078-.581zM246.476 682.21c.249.165.249.331 0 .414l-3.813 2.241h-.083c.249.083.497.083.663 0l3.813-2.241c.249-.083.166-.332 0-.414l-3.315-1.909c-.166-.083-.498-.083-.664 0h.083l3.316 1.909zM240.425 685.695c.249.166.249.332 0 .415l-3.813 2.241h-.083c.249.083.498.083.663 0l3.814-2.241c.248-.083.165-.332 0-.415l-3.316-1.909c-.166-.083-.498-.083-.663 0h.083l3.315 1.909zM234.457 689.18c.248.166.248.332 0 .415l-3.814 2.241h-.082c.248.083.497.083.663 0l3.813-2.241c.249-.083.166-.332 0-.415l-3.316-1.908c-.166-.083-.497-.083-.663 0h.083l3.316 1.908zM228.406 692.666c.249.166.249.332 0 .415l-3.813 2.241h-.083c.248.083.497.083.663 0l3.813-2.241c.249-.083.166-.332 0-.415l-3.316-1.909c-.165-.083-.497-.083-.663 0h.083l3.316 1.909zM222.437 696.152c.249.166.249.332 0 .415l-3.813 2.24h-.083c.249.083.497.083.663 0l3.813-2.24c.249-.083.166-.332 0-.415l-3.315-1.909c-.166-.083-.498-.083-.664 0h.083l3.316 1.909zM216.386 699.637c.249.166.249.332 0 .415l-3.813 2.241h-.083c.249.083.498.083.663 0l3.814-2.241c.248-.083.165-.332 0-.415l-3.316-1.909c-.166-.083-.498-.083-.663 0h.083l3.315 1.909zM210.334 703.123c.248.166.248.332 0 .415l-3.814 2.24h-.082c.248.083.497.083.663 0l3.813-2.24c.249-.083.166-.332 0-.415l-3.316-1.909c-.166-.083-.497-.083-.663 0h.083l3.316 1.909zM204.615 706.774l-3.399-1.992c-.166-.083-.414-.083-.663 0h.083l3.399 1.992c.165.083.165.249 0 .332l-12.601 7.303h-.082c.248.083.497.083.663 0l12.6-7.303c.249 0 .249-.166 0-.332zM261.564 673.579c.166.083.166.249 0 .332l-12.6 7.303h-.083c.249.083.497.083.663 0l12.6-7.303c.166-.083.166-.249 0-.332l-3.399-1.992c-.165-.083-.414-.083-.663 0h.083l3.399 1.992zM268.444 677.23l-4.062-2.407c-.166-.083-.497-.083-.663-.083 0 0 .083 0 .083.083l4.062 2.407c.248.166.248.332 0 .415l-3.814 2.241h-.083c.249.083.498.083.664 0l3.813-2.241c.249-.083.249-.249 0-.415zM262.393 680.716l-4.062-2.407c-.166-.083-.497-.083-.663-.083 0 0 .083 0 .083.083l4.062 2.407c.248.166.248.332 0 .415l-3.813 2.24h-.083c.248.083.497.083.663 0l3.813-2.24c.249-.083.249-.249 0-.415zM256.424 684.201l-4.062-2.406c-.165-.083-.497-.083-.663-.083 0 0 .083 0 .083.083l4.062 2.406c.249.166.249.332 0 .415l-3.813 2.241h-.083c.249.083.497.083.663 0l3.813-2.241c.249-.083.166-.249 0-.415zM250.373 687.687l-4.061-2.407c-.166-.083-.498-.083-.664-.083 0 0 .083 0 .083.083l4.062 2.407c.249.166.249.332 0 .415l-3.813 2.24h-.083c.249.083.497.083.663 0l3.813-2.24c.249-.083.249-.249 0-.415zM244.404 691.172l-4.062-2.406c-.166-.083-.497-.083-.663-.083 0 0 .083 0 .083.083l4.062 2.406c.248.166.248.332 0 .415l-6.052 3.486-3.813 2.24-2.238 1.245-3.813 2.241-2.238 1.245-2.322 1.328-1.492.829h-.083c.249.083.498.083.664 0l1.492-.829 2.321-1.328 2.238-1.245 3.813-2.241 2.238-1.245 3.814-2.24 6.051-3.486c.166-.083.166-.249 0-.415zM220.282 705.114l-4.062-2.406c-.166-.083-.498-.083-.663-.083 0 0 .083 0 .083.083l4.061 2.406c.249.166.249.332 0 .415l-3.813 2.241h-.083c.249.083.498.083.663 0l3.814-2.241c.248-.083.248-.332 0-.415zM214.313 708.6l-4.062-2.407c-.166-.083-.497-.083-.663-.083 0 0 .083 0 .083.083l4.062 2.407c.248.166.248.332 0 .415l-3.814 2.24h-.082c.248.083.497.083.663 0l3.813-2.24c.166-.083.166-.332 0-.415zM208.262 712.085l-4.062-2.406c-.166-.083-.497-.083-.663-.083 0 0 .083 0 .083.083l4.062 2.406c.249.166.249.332 0 .415l-3.813 2.241h-.083c.248.083.497.083.663 0l3.813-2.241c.249-.083.249-.332 0-.415zM202.211 715.571l-4.062-2.407c-.165-.083-.497-.083-.663 0h.083l4.062 2.407c.249.166.249.332 0 .415l-3.813 2.241h-.083c.249.083.497.083.663 0l3.813-2.241c.249-.166.249-.332 0-.415zM232.881 603.703l-62.918 36.432.083 47.22 63.001-36.432-.166-47.22z"/>
    <path fill="#FF50AC" d="M182.645 651.006l9.616-5.56c0 3.07-1.078 6.473-2.818 9.46-1.741 2.988-4.145 5.644-6.798 7.137-2.652 1.494-5.056 1.66-6.797.664-1.741-.996-2.819-3.153-2.819-6.224 0-3.07 1.078-6.473 2.819-9.46 1.741-2.988 4.145-5.644 6.797-7.138v11.121z"/>
    <path fill="#B425D6" d="M182.562 639.969c2.653-1.494 5.057-1.66 6.798-.664 1.741.996 2.818 3.153 2.818 6.224l-9.616 5.56v-11.12z"/>
    <path fill="#FF50AC" d="M216.882 647.106v7.801l-3.316 1.908v-7.718l3.316-1.991z"/>
    <path fill="#B425D6" d="M205.027 627.022c2.653-1.493 5.057-1.659 6.798-.664 1.741.996 2.818 3.154 2.818 6.225 0 3.07-1.077 6.473-2.818 9.46-1.741 2.988-4.145 5.643-6.798 7.137v-22.158z"/>
    <path fill="#fff" d="M205.858 654.16v1.493l-29.428 17.013v-1.577l29.428-16.929zM205.028 627.022V649.097c-2.653 1.494-5.057 1.66-6.797.664-1.741-.996-2.819-3.153-2.819-6.224 0-3.07 1.078-6.473 2.819-9.461 1.74-2.904 4.144-5.56 6.797-7.054zM229.814 619.304v1.577l-11.357 6.556v-1.493l11.357-6.64zM229.814 614.242v1.577l-11.357 6.556v-1.577l11.357-6.556zM196.075 664.699v1.577l-19.563 11.369v-1.576l19.563-11.37zM229.814 624.201v1.493l-11.357 6.557v-1.494l11.357-6.556zM222.27 633.744v1.577l-3.813 2.158v-1.494l3.813-2.241z"/>
    <path fill="#BE29E2" d="M221.11 649.678v2.739l-3.399 1.992v-2.822l3.399-1.909z"/>
    <path fill="#fff" d="M226.166 641.794v7.718l-3.316 1.909-.082-7.718 3.398-1.909z"/>
    <path fill="#BE29E2" d="M230.312 642.292l.083 4.814-3.399 1.908v-4.813l3.316-1.909z"/>
    <path fill="#fff" d="M363.772 727.853c2.901 1.66 2.901 4.399 0 6.141l-87.041 50.623c-2.901 1.66-7.626 1.66-10.528 0l-24.537-14.191c-2.901-1.659-2.901-4.398 0-6.141l87.041-50.623c2.901-1.659 7.626-1.659 10.528 0l24.537 14.191z"/>
    <path fill="#82A9D8" d="M365.927 731.173v.249c0 .083 0 .166-.083.166 0 .083 0 .166-.083.249 0 .083-.083.083-.083.166s-.083.166-.083.249c0 .083-.082.083-.082.166-.083.083-.083.166-.166.249 0 .083-.083.083-.083.166-.083.083-.166.249-.332.332l-.083.083c-.082.082-.165.165-.248.165-.083.083-.166.083-.249.166-.083.083-.166.083-.249.166-.083.083-.165.083-.248.166l-87.041 50.623c-.332.166-.663.332-1.078.498-.083 0-.165.083-.331.083-.249.083-.498.166-.663.249-.249.083-.498.166-.746.166-.332.083-.581.083-.912.166h-.249c-.414.083-.829.083-1.243.083h-.166c-.415 0-.829 0-1.244-.083h-.165c-.415-.083-.829-.083-1.161-.166-.083 0-.166 0-.249-.083-.331-.083-.663-.166-.994-.332-.083 0-.083 0-.166-.083-.415-.166-.746-.332-1.161-.498l-24.537-14.191c-.58-.332-.995-.664-1.326-1.078-.581-.664-.829-1.328-.829-1.992v7.137c0 1.079.746 2.24 2.238 3.07l24.537 14.191c.332.166.663.332 1.078.498h.083c.083 0 .083 0 .165.083.249.083.415.166.664.249.083 0 .248.083.414.083.083 0 .166 0 .249.083.083 0 .166 0 .166.083.248.083.497.083.746.166h2.155c.249 0 .58 0 .829-.083h.331c.249 0 .415-.083.664-.083.083 0 .165-.083.248-.083.249-.083.498-.083.746-.166.166 0 .249-.083.415-.083.083 0 .166-.083.331-.083.083 0 .166-.083.332-.083.332-.166.746-.332 1.078-.498l87.04-50.623s.083 0 .083-.083c.083 0 .166-.083.166-.166.083-.083.166-.083.249-.166.083-.083.166-.083.248-.166.083-.083.166-.166.249-.166h.083l.083-.082c.083-.083.249-.249.331-.332l.083-.083s0-.083.083-.083c.083-.083.083-.166.166-.249l.083-.083v-.083c.083-.083.083-.166.083-.249 0-.083.083-.083.083-.166v-.083c0-.083.083-.166.083-.249 0-.083 0-.083.083-.166v-.249V730.841c-.415.166-.415.249-.415.332z"/>
    <path fill="#C5DBF9" d="M281.954 764.451c.415.249.415.664 0 .913l-12.683 7.386c-.414.249-1.078.249-1.575 0l-12.766-7.386c-.414-.249-.414-.664 0-.913l12.683-7.386c.415-.249 1.078-.249 1.575 0l12.766 7.386z"/>
    <path fill="#82A9D8" d="M282.285 764.949s0 .083 0 0v.083l-.083.083h-.082l-12.684 7.386c-.082 0-.082.083-.165.083H268.359c-.083 0-.083 0-.166-.083-.083 0-.083-.083-.166-.083l-12.766-7.386c-.083-.083-.166-.083-.166-.166-.082-.083-.165-.166-.165-.332v5.56c0 .166.083.332.331.415l12.766 7.386c.083 0 .083.083.166.083H269.105c.083 0 .083-.083.166-.083l12.683-7.386.083-.083.248-5.477z"/>
    <path fill="url(#paint10_linear)" d="M261.727 728.683v36.183l13.594.415v-36.598h-13.594z"/>
    <path fill="#FF50AC" d="M275.653 764.7c.249.166.249.332 0 .498l-6.797 3.9c-.249.166-.58.166-.829 0l-6.798-3.9c-.248-.166-.248-.332 0-.498l6.798-3.9c.249-.166.58-.166.829 0l6.797 3.9z"/>
    <path fill="#C5DBF9" d="M303.589 751.422c.414.249.414.664 0 .913l-12.683 7.386c-.415.249-1.078.249-1.575 0l-12.766-7.386c-.415-.249-.415-.664 0-.913l12.683-7.386c.414-.249 1.078-.249 1.575 0l12.766 7.386z"/>
    <path fill="#82A9D8" d="M303.92 751.92v.083l-.083.083h-.083l-12.683 7.386c-.083 0-.083.083-.166.083H289.994c-.083 0-.083 0-.166-.083-.083 0-.083-.083-.166-.083l-12.766-7.386c-.083-.083-.166-.083-.166-.166-.083-.083-.166-.166-.166-.332v5.56c0 .166.083.332.332.415l12.766 7.386c.083 0 .083.083.166.083H290.74c.083 0 .083-.083.165-.083l12.684-7.386.082-.083.249-5.477c0-.083 0 0 0 0z"/>
    <path fill="url(#paint11_linear)" d="M283.113 715.322v36.183l13.595.415v-36.598h-13.595z"/>
    <path fill="#BE29E2" d="M297.288 751.588c.249.166.249.332 0 .498l-6.797 3.9c-.249.166-.581.166-.829 0l-6.798-3.9c-.248-.166-.248-.332 0-.498l6.798-3.901c.248-.166.58-.166.829 0l6.797 3.901z"/>
    <path fill="#C5DBF9" d="M326.8 738.144c.414.249.414.664 0 .913l-12.683 7.386c-.415.249-1.078.249-1.575 0l-12.766-7.386c-.415-.249-.415-.664 0-.913l12.683-7.386c.414-.249 1.077-.249 1.575 0l12.766 7.386z"/>
    <path fill="url(#paint12_linear)" d="M306.242 702.791v36.1l13.595.498v-36.598h-13.595z"/>
    <path fill="#82A9D8" d="M327.132 738.559s0 .083 0 0c0 .083 0 .083 0 0v.083l-.083.083-12.683 7.386c-.083 0-.083.083-.166.083H313.289c-.083 0-.083 0-.166-.083-.083 0-.083-.083-.166-.083l-12.766-7.386c-.083-.083-.166-.083-.166-.166-.083-.083-.166-.166-.166-.332v5.56c0 .166.083.332.332.415l12.766 7.386c.083 0 .083.083.166.083H314.035c.082 0 .082-.083.165-.083l12.683-7.386.083-.083.166-5.477z"/>
    <path fill="#FF50AC" d="M320.499 738.31c.249.166.249.332 0 .498l-6.797 3.9c-.249.166-.581.166-.829 0l-6.798-3.9c-.249-.166-.249-.332 0-.498l6.798-3.901c.248-.166.58-.166.829 0l6.797 3.901z"/>
    <path fill="#C5DBF9" d="M348.436 725.032c.415.249.415.664 0 .913l-12.683 7.386c-.414.248-1.077.248-1.575 0l-12.766-7.386c-.414-.249-.414-.664 0-.913l12.683-7.386c.415-.249 1.078-.249 1.576 0l12.765 7.386z"/>
    <path fill="#82A9D8" d="M348.768 725.53c0 .083 0 .083 0 0v.083l-.083.083h-.083l-12.683 7.386c-.083 0-.083.083-.166.083H334.841c-.083 0-.083 0-.166-.083-.082 0-.082-.083-.165-.083l-12.766-7.386c-.083-.083-.166-.083-.166-.166-.083-.083-.166-.166-.166-.332v5.56c0 .166.083.332.332.415l12.766 7.386c.083 0 .083.083.165.083H335.587c.083 0 .083-.083.166-.083l12.683-7.386.083-.083.249-5.477z"/>
    <path fill="url(#paint13_linear)" d="M328.127 689.264v36.183l13.595.415v-36.598h-13.595z"/>
    <path fill="#BE29E2" d="M342.136 725.281c.248.166.248.332 0 .498l-6.798 3.9c-.248.166-.58.166-.829 0l-6.797-3.9c-.249-.166-.249-.332 0-.498l6.797-3.901c.249-.166.581-.166.829 0l6.798 3.901z"/>
    <path fill="#82A9D8" d="M234.04 785.779v7.552c0 1.577-1.078 3.237-3.15 4.482-4.228 2.489-11.108 2.489-15.419 0-2.155-1.245-3.233-2.822-3.233-4.482v-7.552c0-1.577 1.078-3.236 3.15-4.481 4.228-2.49 11.108-2.49 15.419 0 2.155 1.245 3.233 2.904 3.233 4.481z"/>
    <path fill="#fff" d="M234.04 785.779c0 1.577-1.078 3.237-3.15 4.482-4.228 2.489-11.108 2.489-15.419 0-2.155-1.245-3.233-2.822-3.233-4.482 0-1.577 1.078-3.236 3.15-4.481 4.228-2.49 11.108-2.49 15.419 0 2.155 1.245 3.233 2.904 3.233 4.481z"/>
    <path fill="#BE29E2" d="M223.18 789.514c-2.404 0-4.725-.581-6.383-1.494-1.16-.664-1.906-1.494-1.906-2.241 0-.664.663-1.494 1.906-2.158 1.658-.912 3.979-1.493 6.383-1.493s4.725.581 6.383 1.493c1.161.664 1.907 1.494 1.907 2.241 0 .664-.663 1.494-1.907 2.158-1.658.913-3.979 1.494-6.383 1.494z"/>
    <path fill="#82A9D8" d="M216.88 795.572v7.552c0 1.576-1.078 3.236-3.15 4.481-4.228 2.49-11.108 2.49-15.419 0-2.155-1.245-3.233-2.822-3.233-4.481v-7.552c0-1.577 1.078-3.237 3.15-4.482 4.228-2.489 11.108-2.489 15.419 0 2.155 1.245 3.233 2.905 3.233 4.482z"/>
    <path fill="#fff" d="M216.88 795.572c0 1.577-1.078 3.236-3.15 4.481-4.228 2.49-11.108 2.49-15.419 0-2.155-1.245-3.233-2.821-3.233-4.481 0-1.577 1.078-3.237 3.15-4.482 4.228-2.489 11.108-2.489 15.419 0 2.155 1.245 3.233 2.905 3.233 4.482z"/>
    <path fill="#BE29E2" d="M206.02 799.306c-2.404 0-4.725-.581-6.383-1.493-1.16-.664-1.907-1.494-1.907-2.241 0-.664.664-1.494 1.907-2.158 1.658-.913 3.979-1.494 6.383-1.494s4.725.581 6.383 1.494c1.161.664 1.907 1.494 1.907 2.241 0 .664-.664 1.494-1.907 2.158-1.658.912-3.979 1.493-6.383 1.493z"/>
    <path fill="#82A9D8" d="M250.204 795.323v7.552c0 1.577-1.078 3.236-3.15 4.481-4.228 2.49-11.108 2.49-15.419 0-2.155-1.245-3.233-2.821-3.233-4.481v-7.552c0-1.577 1.078-3.237 3.15-4.481 4.228-2.49 11.108-2.49 15.419 0 2.155 1.244 3.233 2.821 3.233 4.481z"/>
    <path fill="#fff" d="M250.204 795.323c0 1.577-1.078 3.237-3.15 4.481-4.228 2.49-11.108 2.49-15.419 0-2.155-1.244-3.233-2.821-3.233-4.481 0-1.577 1.078-3.237 3.15-4.481 4.228-2.49 11.108-2.49 15.419 0 2.155 1.244 3.233 2.821 3.233 4.481z"/>
    <path fill="#203E6D" d="M239.344 798.975c-2.404 0-4.725-.581-6.383-1.494-1.16-.664-1.906-1.494-1.906-2.241 0-.664.663-1.494 1.906-2.158 1.658-.912 3.979-1.493 6.383-1.493s4.725.581 6.383 1.493c1.161.664 1.907 1.494 1.907 2.241 0 .664-.663 1.494-1.907 2.158-1.575.996-3.896 1.494-6.383 1.494z"/>
    <path fill="#82A9D8" d="M233.044 805.115v7.552c0 1.577-1.078 3.237-3.15 4.482-4.228 2.489-11.108 2.489-15.419 0-2.155-1.245-3.233-2.822-3.233-4.482v-7.552c0-1.576 1.078-3.236 3.15-4.481 4.228-2.49 11.108-2.49 15.419 0 2.155 1.245 3.233 2.822 3.233 4.481z"/>
    <path fill="#fff" d="M233.044 805.115c0 1.577-1.078 3.237-3.15 4.482-4.228 2.49-11.108 2.49-15.419 0-2.155-1.245-3.233-2.822-3.233-4.482 0-1.576 1.078-3.236 3.15-4.481 4.228-2.49 11.108-2.49 15.419 0 2.155 1.245 3.233 2.822 3.233 4.481z"/>
    <path fill="#BE29E2" d="M222.184 808.767c-2.404 0-4.725-.581-6.383-1.494-1.16-.664-1.906-1.493-1.906-2.24 0-.664.663-1.494 1.906-2.158 1.658-.913 3.979-1.494 6.383-1.494s4.725.581 6.383 1.494c1.161.664 1.907 1.494 1.907 2.241 0 .663-.663 1.493-1.907 2.157-1.575.996-3.896 1.494-6.383 1.494z"/>
    <path fill="#82A9D8" d="M386.817 690.01v7.552c0 1.577-1.077 3.237-3.15 4.482-4.227 2.489-11.108 2.489-15.418 0-2.156-1.245-3.233-2.822-3.233-4.482v-7.552c0-1.576 1.077-3.236 3.15-4.481 4.227-2.49 11.108-2.49 15.418 0 2.156 1.245 3.233 2.822 3.233 4.481z"/>
    <path fill="#fff" d="M386.817 690.01c0 1.577-1.077 3.237-3.15 4.482-4.227 2.49-11.108 2.49-15.418 0-2.156-1.245-3.233-2.822-3.233-4.482 0-1.576 1.077-3.236 3.15-4.481 4.227-2.49 11.108-2.49 15.418 0 2.156 1.245 3.233 2.822 3.233 4.481z"/>
    <path fill="#203E6D" d="M375.958 693.662c-2.404 0-4.725-.581-6.383-1.494-1.161-.664-1.907-1.494-1.907-2.24 0-.664.663-1.494 1.907-2.158 1.658-.913 3.979-1.494 6.383-1.494s4.725.581 6.383 1.494c1.16.664 1.906 1.494 1.906 2.241 0 .664-.663 1.493-1.906 2.157-1.658.996-3.979 1.494-6.383 1.494z"/>
    <path fill="#82A9D8" d="M369.657 699.803v7.552c0 1.577-1.078 3.237-3.15 4.482-4.228 2.489-11.108 2.489-15.419 0-2.155-1.245-3.233-2.822-3.233-4.482v-7.552c0-1.577 1.078-3.236 3.151-4.481 4.227-2.49 11.108-2.49 15.418 0 2.155 1.245 3.233 2.821 3.233 4.481z"/>
    <path fill="#fff" d="M369.657 699.803c0 1.577-1.078 3.237-3.15 4.482-4.228 2.489-11.108 2.489-15.419 0-2.155-1.245-3.233-2.822-3.233-4.482 0-1.577 1.078-3.236 3.151-4.481 4.227-2.49 11.108-2.49 15.418 0 2.155 1.245 3.233 2.821 3.233 4.481z"/>
    <path fill="#FF50AC" d="M358.797 703.455c-2.404 0-4.725-.581-6.383-1.494-1.16-.664-1.906-1.494-1.906-2.241 0-.664.663-1.493 1.906-2.157 1.658-.913 3.979-1.494 6.383-1.494s4.725.581 6.383 1.494c1.161.664 1.907 1.493 1.907 2.24 0 .664-.663 1.494-1.907 2.158-1.658.996-3.979 1.494-6.383 1.494z"/>
    <path fill="#82A9D8" d="M402.981 699.554v7.552c0 1.577-1.077 3.237-3.15 4.482-4.227 2.489-11.108 2.489-15.418 0-2.156-1.245-3.233-2.822-3.233-4.482v-7.635c0-1.577 1.077-3.236 3.15-4.481 4.227-2.49 11.108-2.49 15.418 0 2.156 1.328 3.233 2.904 3.233 4.564z"/>
    <path fill="#fff" d="M402.981 699.554c0 1.577-1.077 3.237-3.15 4.482-4.227 2.489-11.108 2.489-15.418 0-2.156-1.245-3.233-2.822-3.233-4.482 0-1.577 1.077-3.236 3.15-4.481 4.227-2.49 11.108-2.49 15.418 0 2.156 1.245 3.233 2.821 3.233 4.481z"/>
    <path fill="#FF50AC" d="M392.122 703.206c-2.404 0-4.725-.581-6.383-1.494-1.161-.664-1.907-1.494-1.907-2.241 0-.664.663-1.493 1.907-2.157 1.658-.913 3.979-1.494 6.383-1.494s4.725.581 6.383 1.494c1.16.664 1.906 1.493 1.906 2.24 0 .664-.663 1.494-1.906 2.158-1.575.996-3.896 1.494-6.383 1.494z"/>
    <path fill="#82A9D8" d="M385.821 709.347v7.552c0 1.577-1.077 3.236-3.15 4.481-4.228 2.49-11.108 2.49-15.419 0-2.155-1.245-3.232-2.821-3.232-4.481v-7.552c0-1.577 1.077-3.237 3.15-4.481 4.227-2.49 11.108-2.49 15.418 0 2.155 1.244 3.233 2.821 3.233 4.481z"/>
    <path fill="#fff" d="M385.821 709.347c0 1.577-1.077 3.236-3.15 4.481-4.228 2.49-11.108 2.49-15.419 0-2.155-1.245-3.232-2.821-3.232-4.481 0-1.577 1.077-3.237 3.15-4.481 4.227-2.49 11.108-2.49 15.418 0 2.155 1.244 3.233 2.821 3.233 4.481z"/>
    <path fill="#203E6D" d="M374.961 712.999c-2.404 0-4.725-.581-6.383-1.494-1.16-.664-1.906-1.494-1.906-2.241 0-.664.663-1.494 1.906-2.158 1.658-.913 3.979-1.493 6.383-1.493s4.726.58 6.383 1.493c1.161.664 1.907 1.494 1.907 2.241 0 .664-.663 1.494-1.907 2.158-1.575.996-3.896 1.494-6.383 1.494zM326.137 524.863l-66.649 38.507.166 47.635 66.565-38.506-.082-47.636z"/>
    <path fill="#FF50AC" d="M271.343 569.345l-5.14 2.988.083 16.68 5.14-2.904-.083-16.764z"/>
    <path fill="#BE29E2" d="M278.638 569.179l-5.14 2.988v12.697l5.14-2.988v-12.697z"/>
    <path fill="#FF50AC" d="M285.849 569.511l-5.14 2.988v8.216l5.14-2.988v-8.216z"/>
    <path fill="#BE29E2" d="M293.061 562.374l-5.139 2.905v11.203l5.139-2.904v-11.204z"/>
    <path fill="#FF50AC" d="M300.272 550.341l-5.139 2.987.083 19.005 5.056-2.988v-19.004z"/>
    <path fill="#BE29E2" d="M307.484 555.735l-5.056 2.988v9.46l5.139-2.987-.083-9.461z"/>
    <path fill="#FF50AC" d="M314.698 546.274l-5.139 2.988.082 14.689 5.14-2.905-.083-14.772z"/>
    <path fill="#BE29E2" d="M321.993 550.175l-5.139 2.987v6.639l5.139-2.987v-6.639z"/>
    <path fill="#fff" d="M303.258 573.08v1.493l-36.806 21.328-.083-1.493 36.889-21.328zM286.762 587.769v1.576l-20.31 11.785-.083-1.494 20.393-11.867z"/>
    <path fill="#203E6D" d="M129.342 549.594L52 594.325l.1658 55.27 77.3422-44.731-.166-55.27z"/>
    <path fill="#fff" d="M56.5592 642.956v-7.552l6.6317-3.817v7.552l-6.6317 3.817zm-.2487-7.801v8.216l7.1291-4.149-.2487.166v-7.884l-6.8804 3.983v-.332z"/>
    <path fill="#fff" d="M63.4401 638.973v-7.552l6.6317-3.818v7.552l-6.6317 3.818zm6.6317-11.453l-6.6317 3.818-.2487.166v7.884l.2487-.166 6.8804-3.984-.2487.166v-7.884z"/>
    <path fill="#fff" d="M70.321 634.989v-7.552l6.6316-3.817v7.552l-6.6316 3.817zm6.6316-11.369l-6.6316 3.817-.2487.166v7.884l.2487-.166 6.8803-3.983-.2487.166v-7.884z"/>
    <path fill="#fff" d="M77.2007 631.006v-7.552l6.6317-3.818v7.552l-6.6317 3.818zm6.5488-11.37l-6.6317 3.818-.2487.166v7.884l.2487-.166 6.8804-3.984-.2487.166v-7.884z"/>
    <path fill="#fff" d="M84.0816 627.022v-7.552l6.6317-3.817v7.552l-6.6317 3.817zm6.5488-11.369l-6.6317 3.817-.2487.166v7.884l.2487-.166 6.8803-3.983-.2486.166v-7.884z"/>
    <path fill="#fff" d="M90.9605 623.039v-7.552l6.6317-3.818v7.552l-6.6317 3.818zm6.5488-11.37l-6.6317 3.818-.2487.166v7.884l.2487-.166 6.8804-3.984-.2487.166v-7.884z"/>
    <path fill="#fff" d="M97.8413 619.138v-7.551l6.6317-3.818v7.552l-6.6317 3.817zm6.5487-11.452l-6.6315 3.818-.2487.165v7.884l.2487-.166 6.8805-3.983-.249.166v-7.884z"/>
    <path fill="#fff" d="M104.722 615.155v-7.552l6.632-3.818v7.552l-6.632 3.818zm6.549-11.453l-6.632 3.818-.248.166v7.884l.248-.166 6.881-3.984-.249.166v-7.884z"/>
    <path fill="#fff" d="M111.603 611.171v-7.552l6.632-3.817v7.552l-6.632 3.817zm6.549-11.452l-6.632 3.817-.249.166v7.884l.249-.166 6.881-3.983-.249.166v-7.884z"/>
    <path fill="#fff" d="M118.399 607.188v-7.552l6.632-3.817v7.552l-6.632 3.817zm6.88-11.535l-6.88 3.983-.249.166v7.884l.249-.166 6.88-3.984v-7.883zM56.3105 627.271V635.487l6.8804-3.983.2487-.166-.2487.166v-4.814 4.482l-6.6317 3.817v-7.552l6.6317-3.817v.995-.995l-6.8804 3.983v-.332z"/>
    <path fill="#fff" d="M64.4338 622.873l-.9948.581-.2487.166v.996l.2487-.415v-.83l.9948-.498zm5.554-3.237l-3.0672 1.826 3.0672-1.826v7.552l-6.6317 3.818v-4.731l-.2487.415v4.814l.2487-.166 6.6317-3.818.2487-.166-.2487.166v-7.884z"/>
    <path fill="#fff" d="M70.3199 627.105v-7.552l6.6316-3.817v7.552l-6.6316 3.817zm6.5487-11.452l-6.6316 3.817-.2487.166v7.884l.2487-.166 6.6316-3.817.2487-.166-.2487.166v-7.884z"/>
    <path fill="#fff" d="M83.0863 612.084l-5.8856 3.403-.3316.166.0829 7.967.2487-.166 6.5488-3.818.3316-.166-.3316.166v-7.386 7.054l-6.5488 3.818v-7.635l5.8856-3.403z"/>
    <path fill="#fff" d="M90.6304 607.769l-6.383 3.651 6.383-3.651v7.552l-6.5488 3.817-.0829-7.303-.2487.415v7.386l.3316-.166 6.5488-3.817.3315-.166-.3315.166v-7.884z"/>
    <path fill="#fff" d="M90.9605 615.155v-7.552l6.6317-3.818v7.552l-6.6317 3.818zm6.5488-11.37l-6.6317 3.818-.2487.166v7.884l.2487-.166 6.6317-3.818.2487-.166-.2487.166v-7.884z"/>
    <path fill="#fff" d="M97.8413 611.171v-7.552l6.6317-3.817v7.552l-6.6317 3.817zm6.5487-11.369l-6.6315 3.817-.2487.166v7.884l.2487-.166 6.6315-3.817.249-.166-.249.166v-7.884z"/>
    <path fill="#fff" d="M104.639 607.188v-7.552l6.632-3.817v7.552l-6.632 3.817zm6.632-11.369l-6.632 3.817-.248.166v7.884l.248-.166 6.632-3.817.249-.166-.249.166v-7.884z"/>
    <path fill="#fff" d="M111.52 603.288v-7.552l6.632-3.818v7.552l-6.632 3.818zm6.632-11.453l-6.632 3.818-.249.166v7.884l.249-.166 6.632-3.818.249-.166-.249.166v-7.884z"/>
    <path fill="#fff" d="M118.399 599.304v-7.552l6.632-3.817v7.552l-6.632 3.817zm6.88-11.618l-6.88 3.983-.249.166v7.884l.249-.166 6.88-3.983v-7.884zM56.5601 627.105v-7.552l6.6317-3.817v7.552l-6.6317 3.817zm-.3316-7.718V627.603l6.8804-3.983.2487-.166-.2487.166v-7.884l-6.8804 3.983v-.332z"/>
    <path fill="#fff" d="M69.9878 617.147v2.157l-2.7356 1.577-.3316.581 3.0672-1.826.2487-.166-.2487.166v-2.489zm0-5.395l-6.6317 3.818-.2487.166v7.884l.2487-.166.9948-.581.4144-.581-1.4092.83v-7.552l6.6317-3.818v3.32-3.32z"/>
    <path fill="#fff" d="M76.8686 608.516v6.888l-6.6316 3.817v-2.406l-.2487.415v2.489l.2487-.166 6.6316-3.817.2487-.166-.2487.083v-7.137zm-2.7355.83l-3.8961 2.24-.2487.166v3.32l.2487-.415v-3.154l3.8961-2.157z"/>
    <path fill="#fff" d="M76.8691 608.516v7.137l.3316-.166 5.8856-3.403-.2487-.166-5.6369 3.32-.0829-6.556-.2487-.166zM90.6304 600.383v6.971l-6.0514 3.486-.2487.498 6.383-3.652.2486-.166-.2486.166-.0829-7.303zm-1.5751.332l-5.0566 2.905-.2487.166v6.141l.2487-.498v-5.809l5.0566-2.905z"/>
    <path fill="#fff" d="M97.5093 595.819l-6.383 3.734 6.383-3.734v7.635l-6.6317 3.817v-7.303l-.2487.415v7.386l.2487-.166 6.6317-3.817.2487-.166-.2487.166v-7.967z"/>
    <path fill="#fff" d="M97.7585 603.288v-7.552l6.6315-3.818v7.552l-6.6315 3.818zm6.6315-11.702l-6.6315 3.818v.332l-.2487.166v7.883l.2487-.165 6.6315-3.818.249-.166-.249.166v-8.216z"/>
    <path fill="#fff" d="M104.391 591.586v8.216l.248-.166 6.632-3.818.249-.165-.249.165-.083-7.883-5.803 3.319 5.803-3.319.083 7.552-6.632 3.817v-7.552l.332-.249-.58.415v-.332z"/>
    <path fill="#fff" d="M111.519 595.321v-7.552l6.632-3.818v7.552l-6.632 3.818zm6.549-11.37l-6.632 3.818-.248.166v7.884l.248-.166 6.632-3.818.249-.166-.249.166v-7.884z"/>
    <path fill="#fff" d="M118.4 591.337v-7.552l6.632-3.817v7.552l-6.632 3.817zm6.797-11.535l-6.88 3.983-.249.166v7.884l.249-.166 6.88-3.983v-7.884zM56.5601 619.221v-7.551l6.6317-3.818v7.552l-6.6317 3.817zm-.3316-7.717v8.215l6.8804-3.983.2487-.166-.2487.166v-7.884l-6.8804 3.983v-.331z"/>
    <path fill="#fff" d="M63.439 615.238v-7.552l6.6317-3.818v7.552l-6.6317 3.818zm6.5488-11.37l-6.6317 3.818-.2487.166v7.884l.2487-.166 6.6317-3.818.2487-.166-.2487.166v-7.884z"/>
    <path fill="#fff" d="M76.8686 599.885l-6.6316 3.817-.2487.166v7.884l.2487-.166 3.8961-2.24.4145-.498-4.3106 2.406v-7.552l6.6316-3.817v6.224-6.224zM83.7495 595.902l-6.6317 3.817-.2487.166v6.224l.2487.166v-6.556l6.6317-3.817v7.552l-5.7198 3.319.2487.166 5.4711-3.153.2487-.166-.2487.166v-7.884z"/>
    <path fill="#fff" d="M90.5475 591.918l-6.5488 3.818-.2487.166v7.884l.2487-.166 5.0566-2.905.2487-.498-5.3053 3.154v-7.635l6.5488-3.818.0829 6.141-.0829-6.141z"/>
    <path fill="#fff" d="M97.758 588.101l-.2487.498v6.971l-6.1343 3.485-.2487.498 6.383-3.651.2487-.166v-7.635zm-1.8238.746l-5.0566 2.905-.2487.166v6.141l.2487-.498v-5.809l5.0566-2.905zM104.391 591.171v.747l.58-.332-.249-.166-.083.083v-.083l-.248-.249zm6.797-8.133v4.565l-5.471 3.153-.415.498 5.803-3.319.249-.166-.249.166.083-4.897zm-1.16-2.323l-5.389 3.153-.248.166v4.813l.248.166v-5.145l5.389-3.153z"/>
    <path fill="#fff" d="M118.068 576.067l-3.15 1.743 3.15-1.743v7.552l-6.549 3.818v-4.731l-.331.332v4.897l.331-.166 6.549-3.818.331-.166-.331.166v-7.884z"/>
    <path fill="#fff" d="M118.4 583.453v-7.552l6.632-3.817v7.552l-6.632 3.817zm6.797-11.535l-6.88 3.983-.249.166v7.884l.249-.166 6.88-3.983v-7.884zM56.4772 611.337v-7.552l6.6317-3.817v7.552l-6.6317 3.817zm-.2487-7.801V611.752l6.8804-3.983.2487-.166-.2487.166v-7.884l-6.8804 3.983v-.332z"/>
    <path fill="#fff" d="M63.3561 607.354v-7.552l6.6317-3.817v7.552l-6.6317 3.817zm6.6317-11.452l-6.6317 3.817-.2487.166v7.884l.2487-.166 6.6317-3.817.2487-.166-.2487.166v-7.884z"/>
    <path fill="#fff" d="M70.2378 603.371v-7.552l6.6317-3.818v7.552l-6.6317 3.818zm6.5488-11.37l-6.6317 3.818-.2487.166v7.884l.2487-.166 6.6317-3.818.2487-.166-.1658.166-.0829-7.884z"/>
    <path fill="#fff" d="M77.1167 599.387v-7.552l6.6317-3.817v7.552l-6.6317 3.817zm6.5488-11.369l-6.6317 3.817-.2486.166v7.884l.2486-.166 6.6317-3.818.2487-.165-.2487.165v-7.883z"/>
    <path fill="#fff" d="M83.9976 595.404v-7.552l6.6317-3.818v7.552l-6.6317 3.818zm6.5488-11.37l-6.6317 3.818-.2487.166v7.884l.2487-.166 6.6317-3.818.2487-.166-.2487.166v-7.884z"/>
    <path fill="#fff" d="M97.4272 580.051l-6.5487 3.817-.3316.166v7.884l.3316-.166 5.0566-2.904.2487-.498-5.3053 3.07v-7.552l6.5487-3.817v6.141-6.141zM98.008 587.52l-.0829.083.0829-.083zm6.3-11.453l-6.6316 3.818-.2487.166v6.141l.2487-.498v-5.809l6.6316-3.818v7.552l-4.4763 2.573.2483.166 4.228-2.407.249-.166-.249.166v-7.884z"/>
    <path fill="#fff" d="M111.187 572.084l-6.632 3.817-.248.166v7.884l.331-.083 5.388-3.153-.331-.166-5.057 2.987-.083-7.635 6.632-3.817v6.141-6.141zM118.068 568.1l-6.632 3.818-.248.166v6.141l.248-.166v-6.141l6.632-3.818v7.635l-3.067 1.826-.083.249 3.15-1.743.249-.166-.249.166V568.1z"/>
    <path fill="#fff" d="M118.317 575.569v-7.552l6.632-3.817v7.552l-6.632 3.817zm6.88-11.535l-6.88 3.983-.249.166v7.884l.249-.166 6.88-3.983v-7.884zM56.4761 603.371v-7.552l6.6317-3.818v7.552l-6.6317 3.818zm6.5488-11.702l-6.8804 3.984V603.869l6.8804-3.984.2487-.166-.2487.166v-8.216z"/>
    <path fill="#fff" d="M63.357 599.47v-7.552l6.6316-3.817v7.552l-6.6316 3.817zm6.5487-11.784l-6.8803 3.983v8.216l.2487-.166 6.6316-3.817.2487-.166-.2487.166v-8.216z"/>
    <path fill="#fff" d="M70.2378 595.487v-7.552l6.6317-3.818v7.552l-6.6317 3.818zm6.5488-11.702l-6.8804 3.984v8.215l.2487-.166 6.6317-3.817.2487-.166-.2487.166v-8.216z"/>
    <path fill="#fff" d="M77.1167 591.503v-7.552l6.6317-3.817v7.552l-6.6317 3.817zm6.5488-11.701l-6.8803 3.983v8.216l.2486-.166 6.6317-3.817.2487-.166-.2487.166v-8.216z"/>
    <path fill="#fff" d="M83.9976 587.52v-7.552l6.6317-3.818v7.552l-6.6317 3.818zm6.5488-11.702l-6.8804 3.984v8.216l.2487-.166 6.6317-3.818.2487-.166-.2487.166v-8.216z"/>
    <path fill="#fff" d="M90.8785 583.536v-7.552l6.6316-3.817v7.552l-6.6316 3.817zm6.5487-11.701l-6.8803 3.983v8.216l.2487-.166 6.6316-3.817.2487-.166-.2487.166v-8.216z"/>
    <path fill="#fff" d="M97.6764 579.553v-7.552l6.6316-3.817v7.551l-6.6316 3.818zm6.6316-11.701l-6.8803 3.983v8.216l.2487-.166 6.6316-3.818.249-.166-.249.166v-8.215z"/>
    <path fill="#fff" d="M104.555 575.569v-7.552l6.632-3.817v7.552l-6.632 3.817zm6.632-11.701l-6.88 3.983v8.216l.248-.166 6.632-3.817.249-.166-.249.166v-8.216z"/>
    <path fill="#fff" d="M111.437 571.669v-7.552l6.632-3.818v7.552l-6.632 3.818zm6.549-11.784l-6.881 3.983v8.216l.249-.166 6.632-3.818.249-.166-.249.166v-8.215z"/>
    <path fill="#fff" d="M118.317 567.685v-7.551l6.632-3.818v7.552l-6.632 3.817zm6.88-11.867l-7.129 4.15v8.215l.249-.166 6.88-3.983v-8.216z"/>
    <path fill="#FF50AC" d="M98.0076 585.196l-.2487.498-.3316.498-1.2434 2.158-.2487.498-5.0566 8.713-.2487.498-1.3264 2.158-.2486.498-5.0567 8.714-.2487.498-.0829.083-5.3882-3.071-.2487-.166-.9118-.498-.2487-.166-.3316-.166-1.9895 2.905-.4145.498-3.8132 5.394-.3316.332-5.2224 7.303-.3316.498-.9948 1.411-.2487.332-1.4921 1.991.829.913.6631-.83.2487-.415 3.4817-4.813.4144-.581 2.6527-3.734.3316-.415 6.0514-8.465.4974.249.2487.166 5.7198 3.236.2487.166.5802.332.0829-.166.2487-.415.2487-.415.3316-.497 6.0514-10.54.2487-.415.2487-.415.2486-.498 6.0514-10.539.3316-.415.1658-.415.0829-.166.0829.083 6.3005 3.568.248.166h.083l.249.166.166.166.248-.415.415-.498 5.388-7.718.332-.332.497-.829 2.818 1.576.083-5.643.083-.249v-1.577l-3.564 2.075-.249.166-2.653 1.66 1.161.664.332.166.994.581-5.72 8.05-.663-.415-.331-.083-4.145-2.407-.3317-.166-1.8237-1.079z"/>
    <path fill="#203E6D" d="M256.504 497.975l-53.385 30.374.083 42.573 53.468-30.374-.166-42.573z"/>
    <path fill="#fff" d="M216.63 526.855c-2.487 1.411-4.642 3.817-6.3 6.639l6.3 3.569v-10.208z"/>
    <path fill="#FF50AC" d="M219.117 527.602v12.614l7.792 4.399c1.99-3.403 3.15-7.303 3.15-10.789 0-3.485-1.243-5.892-3.233-7.054-1.906-1.079-4.642-.913-7.709.83z"/>
    <path fill="#BE29E2" d="M210.58 536.98c-1.99 3.402-3.15 7.303-3.15 10.788 0 3.486 1.243 5.892 3.233 7.054 1.989 1.162 4.725.996 7.709-.747 2.984-1.742 5.72-4.73 7.709-8.133l-7.792-4.398-7.709-4.564z"/>
    <path fill="#fff" d="M250.785 514.822v1.577l-16.828 9.543v-1.577l16.828-9.543zM250.785 521.627v1.576l-16.828 9.544v-1.577l16.828-9.543zM246.972 532l-13.015 7.386v1.577l13.015-7.386V532z"/>
    <path fill="#203E6D" d="M175.681 568.515l-38.796 22.075c-.663.332-.994.996-.994 1.743l.083 29.461c0 1.577 1.657 2.49 2.984 1.743l38.795-22.075c.663-.332.995-.996.995-1.743l-.083-29.461c0-1.577-1.658-2.49-2.984-1.743z"/>
    <path fill="url(#paint14_linear)" d="M158.769 581.876l-7.958 13.694c-.497.829-1.575 1.244-2.487.829-.912-.332-1.989 0-2.487.83l-2.155 3.818c-.995 1.826.995 3.817 2.736 2.738l26.526-15.352c1.161-.664 1.327-2.324.332-3.237l-2.984-2.573c-.829-.747-2.073-.664-2.819.166l-1.409 1.494c-.663.664-1.658.83-2.487.332l-4.808-2.739z"/>
    <path fill="#FF50AC" d="M158.769 591.503l-7.958 13.693c-.497.83-1.575 1.245-2.487.83-.912-.332-1.989 0-2.487.83l-2.155 3.818c-.995 1.825.995 3.817 2.736 2.738l26.526-15.353c1.161-.664 1.327-2.323.332-3.236l-2.984-2.573c-.829-.747-2.073-.664-2.819.166l-1.409 1.494c-.663.664-1.658.83-2.487.332l-4.808-2.739z"/>
    <path fill="#fff" d="M155.454 732.418c.829.498.829 1.328 0 1.826l-25.781 15.02c-.829.498-2.238.498-3.15 0l-25.946-15.02c-.8292-.498-.8292-1.328 0-1.826l25.78-15.021c.829-.498 2.239-.498 3.15 0l25.947 15.021z"/>
    <path fill="#82A9D8" d="M156.118 733.414V733.912s0 .083-.083.083v.083l-.083.082s-.083 0-.083.083l-.083.083s-.083 0-.083.083c0 0-.083 0-.083.083l-25.78 15.021c-.083.083-.166.083-.332.166h-.083c-.083 0-.166.083-.166.083-.082 0-.165 0-.248.083-.083 0-.166 0-.249.083H128.348 127.933h-.083c-.083 0-.248 0-.331-.083h-.083c-.083 0-.249-.083-.332-.083h-.083c-.083-.083-.248-.083-.331-.166l-25.947-15.021c-.166-.083-.331-.166-.414-.332-.166-.165-.249-.414-.249-.58v11.203c0 .332.249.664.663.913l25.864 14.606c.083.083.166.083.331.166h.083c.083 0 .166.083.166.083H129.011c.083 0 .166 0 .248-.083h.249c.083-.083.249-.083.332-.166l25.78-15.021h.083s.083 0 .083-.083l.083-.083s.083 0 .083-.083l.083-.083s0-.083.083-.083v-.166-.166-11.203c0-.083 0 0 0 0z"/>
    <path fill="#fff" d="M146.087 725.198c.58.332.58.83 0 1.162l-16.994 9.875c-.58.332-1.492.332-2.072 0l-16.994-9.875c-.58-.332-.58-.83 0-1.162l16.911-9.876c.58-.332 1.492-.332 2.072 0l17.077 9.876z"/>
    <path fill="#C5DBF9" d="M146.502 725.862c0 .083 0 .083 0 0v.332s0 .082-.083.082h-.083-.083-.083l-17.076 9.959c-.083 0-.166.083-.166.083h-.083c-.083 0-.083 0-.166.083h-.331-.829c-.083 0-.166 0-.166-.083-.083 0-.166-.083-.249-.083l-17.076-9.876c-.083-.083-.166-.165-.249-.165-.083-.083-.166-.249-.166-.415v7.386c0 .248.166.414.415.58l17.076 9.876c.083 0 .166.083.249.083.083 0 .083 0 .166.083H129.094c.083 0 .166-.083.166-.083l16.91-9.876h.166l.083-.083v-.083-.083-.083-.083l.083-7.551c0-.083 0 0 0 0z"/>
    <path fill="url(#paint15_linear)" d="M118.98 588.682V725.53l18.155.581V588.682H118.98z"/>
    <path fill="#FF50AC" d="M137.135 725.53c.248.166.248.415 0 .581l-8.539 4.979c-.248.166-.746.166-.994 0l-8.539-4.979c-.248-.166-.248-.415 0-.581l8.539-4.98c.248-.166.746-.166.994 0l8.539 4.98z"/>
    <path fill="#fff" d="M198.146 763.124c.829.498.829 1.327 0 1.825l-25.697 15.021c-.829.498-2.239.498-3.15 0l-25.947-15.021c-.829-.498-.829-1.327 0-1.825l25.781-15.021c.829-.498 2.238-.498 3.15 0l25.863 15.021z"/>
    <path fill="#82A9D8" d="M198.808 764.119s0 .083 0 0V764.617s0 .083-.083.083v.083l-.083.083s-.083 0-.083.083l-.083.083s-.082 0-.082.083c0 0-.083 0-.083.083l-25.864 14.772c-.083.083-.166.083-.331.166h-.083c-.083 0-.166.083-.166.083-.083 0-.166 0-.249.083-.083 0-.166 0-.249.083H170.955 170.541h-.083c-.083 0-.249 0-.332-.083h-.083c-.083 0-.249-.083-.331-.083h-.083c-.083-.083-.249-.083-.332-.166l-25.946-15.021c-.166-.083-.332-.166-.415-.332-.166-.166-.248-.415-.248-.581v11.204c0 .332.248.664.663.913l25.946 15.021c.083.083.166.083.332.166h.083c.082 0 .165.083.165.083H171.701c.083 0 .166 0 .249-.083h.248c.083-.083.249-.083.332-.166l25.781-15.021h.083s.082 0 .082-.083l.083-.083s.083 0 .083-.083l.083-.083s0-.083.083-.083v-.166-.166V764.119z"/>
    <path fill="#fff" d="M188.778 755.904c.58.332.58.83 0 1.161l-16.911 9.876c-.58.332-1.492.332-2.072 0l-17.077-9.876c-.58-.331-.58-.829 0-1.161l16.911-9.876c.58-.332 1.492-.332 2.073 0l17.076 9.876z"/>
    <path fill="#C5DBF9" d="M189.192 756.567v.332s0 .083-.083.083h-.083-.083-.083l-16.911 9.876c-.083 0-.166.083-.166.083h-.082c-.083 0-.083 0-.166.083h-.332H170.374c-.083 0-.166 0-.166-.083-.082 0-.165-.083-.248-.083l-17.077-9.876c-.083-.083-.166-.166-.248-.166-.083-.083-.166-.249-.166-.415v7.386c0 .249.166.415.414.581l17.077 9.876c.083 0 .166.083.248.083.083 0 .083 0 .166.083h1.575c.083 0 .166-.083.166-.083l16.911-9.876h.166l.083-.083v-.083-.083-.083-.083l-.083-7.469z"/>
    <path fill="url(#paint16_linear)" d="M161.67 619.387v136.849l18.154.58V619.387H161.67z"/>
    <path fill="#FF50AC" d="M179.824 756.236c.249.166.249.415 0 .581l-8.538 4.979c-.249.166-.746.166-.995 0l-8.538-4.979c-.249-.166-.249-.415 0-.581l8.538-4.98c.249-.166.746-.166.995 0l8.538 4.98z"/>
    <path fill="#D4ECFF" d="M-.00045776 151.454L115.458 88.4759c12.906-7.0657 16.917-21.8118 8.894-33.1785L85.6338-.00004908.17398-.00005566.173965 151.454h-.17442276z"/>
    <path fill="#F55D61" d="M322.254 154L317 142.582 327.746 137 333 148.418 322.254 154zm-2.03-10.276l3.104 6.851 6.448-3.299-3.104-6.851-6.448 3.299z"/>
    <path fill="#2372EC" d="M366 468c-4.431 0-8-3.569-8-8s3.569-8 8-8 8 3.569 8 8-3.569 8-8 8zm0-13.538c-3.077 0-5.538 2.461-5.538 5.538 0 3.077 2.461 5.538 5.538 5.538 3.077 0 5.538-2.461 5.538-5.538 0-3.077-2.461-5.538-5.538-5.538z"/>
    <path fill="#D4ECFF" d="M49 538c7.1797 0 13-5.82 13-13s-5.8203-13-13-13-13 5.82-13 13 5.8203 13 13 13z"/>
    <path fill="#F55D61" d="M163.254 455L158 443.582 168.746 438 174 449.418 163.254 455zm-2.03-10.276l3.104 6.851 6.448-3.299-3.104-6.851-6.448 3.299z"/>
    <defs>
        <linearGradient id="paint0_linear" x1="382.824" x2="309.904" y1="822.374" y2="736.198" gradientUnits="userSpaceOnUse">
            <stop stop-color="#fff"/>
            <stop offset=".2543" stop-color="#FDFEFE"/>
            <stop offset=".3951" stop-color="#F5FAFA"/>
            <stop offset=".5082" stop-color="#E7F3F4"/>
            <stop offset=".6067" stop-color="#D3E9EC"/>
            <stop offset=".6955" stop-color="#BADDE1"/>
            <stop offset=".7775" stop-color="#9BCDD3"/>
            <stop offset=".8542" stop-color="#75BBC3"/>
            <stop offset=".9268" stop-color="#4AA6B0"/>
            <stop offset=".9936" stop-color="#1B8E9B"/>
            <stop offset="1" stop-color="#168C99"/>
        </linearGradient>
        <linearGradient id="paint1_linear" x1="288.78" x2="216.022" y1="839.948" y2="793.319" gradientUnits="userSpaceOnUse">
            <stop stop-color="#fff"/>
            <stop offset=".2543" stop-color="#FDFEFE"/>
            <stop offset=".3951" stop-color="#F5FAFA"/>
            <stop offset=".5082" stop-color="#E7F3F4"/>
            <stop offset=".6067" stop-color="#D3E9EC"/>
            <stop offset=".6955" stop-color="#BADDE1"/>
            <stop offset=".7775" stop-color="#9BCDD3"/>
            <stop offset=".8542" stop-color="#75BBC3"/>
            <stop offset=".9268" stop-color="#4AA6B0"/>
            <stop offset=".9936" stop-color="#1B8E9B"/>
            <stop offset="1" stop-color="#168C99"/>
        </linearGradient>
        <linearGradient id="paint2_linear" x1="414.504" x2="373.463" y1="730.648" y2="704.345" gradientUnits="userSpaceOnUse">
            <stop stop-color="#fff"/>
            <stop offset=".2543" stop-color="#FDFEFE"/>
            <stop offset=".3951" stop-color="#F5FAFA"/>
            <stop offset=".5082" stop-color="#E7F3F4"/>
            <stop offset=".6067" stop-color="#D3E9EC"/>
            <stop offset=".6955" stop-color="#BADDE1"/>
            <stop offset=".7775" stop-color="#9BCDD3"/>
            <stop offset=".8542" stop-color="#75BBC3"/>
            <stop offset=".9268" stop-color="#4AA6B0"/>
            <stop offset=".9936" stop-color="#1B8E9B"/>
            <stop offset="1" stop-color="#168C99"/>
        </linearGradient>
        <linearGradient id="paint3_linear" x1="405.449" x2="350.807" y1="664.703" y2="629.684" gradientUnits="userSpaceOnUse">
            <stop stop-color="#fff"/>
            <stop offset=".2543" stop-color="#FDFEFE"/>
            <stop offset=".3951" stop-color="#F5FAFA"/>
            <stop offset=".5082" stop-color="#E7F3F4"/>
            <stop offset=".6067" stop-color="#D3E9EC"/>
            <stop offset=".6955" stop-color="#BADDE1"/>
            <stop offset=".7775" stop-color="#9BCDD3"/>
            <stop offset=".8542" stop-color="#75BBC3"/>
            <stop offset=".9268" stop-color="#4AA6B0"/>
            <stop offset=".9936" stop-color="#1B8E9B"/>
            <stop offset="1" stop-color="#168C99"/>
        </linearGradient>
        <linearGradient id="paint4_linear" x1="227.2" x2="180.547" y1="806.891" y2="776.992" gradientUnits="userSpaceOnUse">
            <stop stop-color="#fff"/>
            <stop offset=".2543" stop-color="#FDFEFE"/>
            <stop offset=".3951" stop-color="#F5FAFA"/>
            <stop offset=".5082" stop-color="#E7F3F4"/>
            <stop offset=".6067" stop-color="#D3E9EC"/>
            <stop offset=".6955" stop-color="#BADDE1"/>
            <stop offset=".7775" stop-color="#9BCDD3"/>
            <stop offset=".8542" stop-color="#75BBC3"/>
            <stop offset=".9268" stop-color="#4AA6B0"/>
            <stop offset=".9936" stop-color="#1B8E9B"/>
            <stop offset="1" stop-color="#168C99"/>
        </linearGradient>
        <linearGradient id="paint5_linear" x1="190.441" x2="140.649" y1="779.911" y2="731.28" gradientUnits="userSpaceOnUse">
            <stop stop-color="#fff"/>
            <stop offset=".2543" stop-color="#FDFEFE"/>
            <stop offset=".3951" stop-color="#F5FAFA"/>
            <stop offset=".5082" stop-color="#E7F3F4"/>
            <stop offset=".6067" stop-color="#D3E9EC"/>
            <stop offset=".6955" stop-color="#BADDE1"/>
            <stop offset=".7775" stop-color="#9BCDD3"/>
            <stop offset=".8542" stop-color="#75BBC3"/>
            <stop offset=".9268" stop-color="#4AA6B0"/>
            <stop offset=".9936" stop-color="#1B8E9B"/>
            <stop offset="1" stop-color="#168C99"/>
        </linearGradient>
        <linearGradient id="paint6_linear" x1="169.802" x2="111.551" y1="740.363" y2="671.401" gradientUnits="userSpaceOnUse">
            <stop stop-color="#fff"/>
            <stop offset=".2543" stop-color="#FDFEFE"/>
            <stop offset=".3951" stop-color="#F5FAFA"/>
            <stop offset=".5082" stop-color="#E7F3F4"/>
            <stop offset=".6067" stop-color="#D3E9EC"/>
            <stop offset=".6955" stop-color="#BADDE1"/>
            <stop offset=".7775" stop-color="#9BCDD3"/>
            <stop offset=".8542" stop-color="#75BBC3"/>
            <stop offset=".9268" stop-color="#4AA6B0"/>
            <stop offset=".9936" stop-color="#1B8E9B"/>
            <stop offset="1" stop-color="#168C99"/>
        </linearGradient>
        <linearGradient id="paint7_linear" x1="339.177" x2="282.867" y1="781.165" y2="708.925" gradientUnits="userSpaceOnUse">
            <stop stop-color="#fff"/>
            <stop offset=".2543" stop-color="#FDFEFE"/>
            <stop offset=".3951" stop-color="#F5FAFA"/>
            <stop offset=".5082" stop-color="#E7F3F4"/>
            <stop offset=".6067" stop-color="#D3E9EC"/>
            <stop offset=".6955" stop-color="#BADDE1"/>
            <stop offset=".7775" stop-color="#9BCDD3"/>
            <stop offset=".8542" stop-color="#75BBC3"/>
            <stop offset=".9268" stop-color="#4AA6B0"/>
            <stop offset=".9936" stop-color="#1B8E9B"/>
            <stop offset="1" stop-color="#168C99"/>
        </linearGradient>
        <linearGradient id="paint8_linear" x1="346.087" x2="346.087" y1="609.761" y2="543.953" gradientUnits="userSpaceOnUse">
            <stop stop-color="#fff"/>
            <stop offset="1" stop-color="#fff" stop-opacity="0"/>
        </linearGradient>
        <linearGradient id="paint9_linear" x1="194.919" x2="194.919" y1="614.475" y2="517.894" gradientUnits="userSpaceOnUse">
            <stop stop-color="#fff"/>
            <stop offset="1" stop-color="#fff" stop-opacity="0"/>
        </linearGradient>
        <linearGradient id="paint10_linear" x1="268.497" x2="268.497" y1="764.893" y2="732.119" gradientUnits="userSpaceOnUse">
            <stop stop-color="#fff"/>
            <stop offset="1" stop-color="#fff" stop-opacity="0"/>
        </linearGradient>
        <linearGradient id="paint11_linear" x1="289.922" x2="289.922" y1="751.52" y2="718.746" gradientUnits="userSpaceOnUse">
            <stop stop-color="#fff"/>
            <stop offset="1" stop-color="#fff" stop-opacity="0"/>
        </linearGradient>
        <linearGradient id="paint12_linear" x1="313.068" x2="313.068" y1="738.942" y2="706.168" gradientUnits="userSpaceOnUse">
            <stop stop-color="#fff"/>
            <stop offset="1" stop-color="#fff" stop-opacity="0"/>
        </linearGradient>
        <linearGradient id="paint13_linear" x1="334.89" x2="334.89" y1="725.437" y2="692.663" gradientUnits="userSpaceOnUse">
            <stop stop-color="#fff"/>
            <stop offset="1" stop-color="#fff" stop-opacity="0"/>
        </linearGradient>
        <linearGradient id="paint14_linear" x1="159.753" x2="155.426" y1="597.701" y2="584.341" gradientUnits="userSpaceOnUse">
            <stop stop-color="#fff" stop-opacity="0"/>
            <stop offset="1" stop-color="#fff"/>
        </linearGradient>
        <linearGradient id="paint15_linear" x1="128.043" x2="128.043" y1="724.495" y2="601.482" gradientUnits="userSpaceOnUse">
            <stop stop-color="#fff"/>
            <stop offset="1" stop-color="#fff" stop-opacity="0"/>
        </linearGradient>
        <linearGradient id="paint16_linear" x1="170.757" x2="170.757" y1="755.219" y2="632.206" gradientUnits="userSpaceOnUse">
            <stop stop-color="#fff"/>
            <stop offset="1" stop-color="#fff" stop-opacity="0"/>
        </linearGradient>
    </defs>
</svg>