<svg xmlns="http://www.w3.org/2000/svg" fill="none" viewBox="0 0 744 659">
  <rect width="964.416" height="202.279" x=".912109" y="482.992" fill="#26242F" rx="101.14" transform="rotate(-30 .912109 482.992)"/>
  <rect width="164.114" height="98.4694" x="101" y="233.057" fill="#26242F" opacity=".7" rx="49.2347" transform="rotate(-30 101 233.057)"/>
  <rect width="185.89" height="92.6241" x="355" y="567.945" fill="#26242F" opacity=".7" rx="46.312" transform="rotate(-30 355 567.945)"/>
  <path fill="#D4ECFF" d="M300.958 297.315l18.567-10.352-18.567-10.474-18.567 10.474-18.567 10.352 18.567 10.352 18.567 10.474 18.567-10.474-18.567-10.352z"/>
  <path fill="#173D7A" d="M300.959 271.436v-76.28l18.567-10.352v76.158l-18.567 10.474z"/>
  <path fill="#396CAA" d="M300.96 195.156l-18.567-10.352v76.158l18.567 10.474v-76.28z"/>
  <path fill="#D4ECFF" d="M319.526 184.804l-18.567-10.351-18.566 10.351 18.566 10.352 18.567-10.352z"/>
  <path fill="#95D359" d="M319.526 274.887l-18.567-10.352v6.901l18.567 10.352v-6.901z"/>
  <path fill="#C13D1A" d="M282.393 281.788v-55.455l18.567-10.351v55.454l-18.567 10.352z"/>
  <path fill="#DB5126" d="M282.391 226.333l-18.567-10.351v55.454l18.567 10.352v-55.455z"/>
  <path fill="#EF602E" d="M300.958 215.982l-18.567-10.352-18.567 10.352 18.567 10.351 18.567-10.351z"/>
  <path fill="#396CAA" d="M282.393 281.788v-55.455l18.567-10.351v55.454l-18.567 10.352z"/>
  <path fill="#5793CE" d="M282.391 226.333l-18.567-10.351v55.454l18.567 10.352v-55.455z"/>
  <path fill="#D4ECFF" d="M300.958 215.982l-18.567-10.352-18.567 10.352 18.567 10.351 18.567-10.351z"/>
  <path fill="#173D7A" d="M300.959 292.14v-31.178l18.567-10.352v31.178l-18.567 10.352z"/>
  <path fill="#396CAA" d="M300.96 260.962l-18.567-10.352v31.178l18.567 10.352v-31.178z"/>
  <path fill="#D4ECFF" d="M319.526 250.61l-18.567-10.351-18.566 10.351 18.566 10.352 18.567-10.352z"/>
  <path fill="#5793CE" d="M544.728 332.581l-.537-2.03-6.282 1.56.536 2.03 6.283-1.56zM541.527 335.764l-.568-2.149-6.283 1.561.569 2.149 6.282-1.561z"/>
  <path fill="#5793CE" d="M538.365 338.663l-.537-2.029-6.283 1.561.537 2.029 6.283-1.561zM535.099 341.698l-.537-2.029-6.282 1.56.536 2.029 6.283-1.56z"/>
  <path fill="#D4ECFF" d="M379.041 486.23l-140.269-78.499c-3.942-2.218-3.434-6.038 1.145-8.626l95.505-53.483c4.578-2.588 11.572-2.834 15.515-.616l140.269 78.499c3.942 2.218 3.434 6.038-1.145 8.626l-95.505 53.483c-4.578 2.587-11.572 2.834-15.515.616z"/>
  <path fill="#173D7A" d="M496.296 269.095l-142.559-79.731c-1.78-.986-3.56-1.233-4.832-.616l-.254.123-4.706 2.095 5.087 2.464v113.744c0 5.668 3.688 12.323 8.139 14.787l138.743 77.637.763 6.285 5.087-2.342c1.653-.986 2.671-3.081 2.671-6.161V283.883c0-5.669-3.688-12.323-8.139-14.788z"/>
  <path fill="#396CAA" d="M496.296 269.095l-142.559-79.731c-1.78-.986-3.56-1.233-4.832-.616l-.254.123-4.706 2.095 5.087 2.464v75.049l64.857 49.662 88.129-43.008c-1.526-2.588-3.433-4.806-5.722-6.038z"/>
  <path fill="#274F89" d="M498.71 270.943l-13.989 5.669 10.555 7.887 8.775-3.574c-.763-3.82-2.798-7.517-5.341-9.982z"/>
  <path fill="#D4ECFF" d="M491.717 405.266l-142.686-79.608c-4.45-2.464-8.138-9.119-8.138-14.787V197.374c0-5.669 3.56-8.257 8.138-5.792l142.559 79.731c4.451 2.465 8.139 9.119 8.139 14.788v113.497c0 5.668-3.561 8.256-8.012 5.668z"/>
  <path fill="#fff" d="M486.883 396.887l-133.148-74.432c-4.069-2.342-7.376-8.38-7.376-13.556V205.014c0-5.175 3.307-7.517 7.376-5.299l133.148 74.433c4.07 2.341 7.376 8.379 7.376 13.555v103.885c.127 5.176-3.179 7.64-7.376 5.299z"/>
  <path fill="#fff" d="M486.883 396.887l-133.148-74.432c-4.069-2.342-7.376-8.38-7.376-13.556V205.014c0-5.175 3.307-7.517 7.376-5.299l133.148 74.433c4.07 2.341 7.376 8.379 7.376 13.555v103.885c.127 5.176-3.179 7.64-7.376 5.299z"/>
  <path fill="#173D7A" d="M493.877 408.84l-19.203-2.465-123.737-69.256c-3.942-2.218-10.937-1.972-15.515.616l-87.748 49.047-11.572-1.479v6.408c-.127 1.479.763 2.834 2.67 3.943l140.27 78.499c3.942 2.218 10.936 1.972 15.515-.616l95.505-53.483c2.543-1.479 3.815-3.327 3.815-5.052v-6.162z"/>
  <path fill="#396CAA" d="M400.788 365.093l-8.775-4.93h-96.65l-47.689 26.618-11.572-1.478v6.408c-.127 1.479.763 2.834 2.67 3.943l140.27 78.499c2.034 1.232 4.959 1.602 8.011 1.479l13.735-110.539z"/>
  <path fill="#5793CE" d="M241.189 386.042l-5.087-.616v6.408c-.127 1.479.763 2.834 2.67 3.944l2.417 1.355v-11.091z"/>
  <path fill="#274F89" d="M380.441 474.769c3.816 1.356 9.157 1.109 13.099-.739v-14.172h-13.099v14.911z"/>
  <path fill="#D4ECFF" d="M379.041 467.745l-140.269-78.499c-3.942-2.218-3.434-6.038 1.145-8.626l95.505-53.483c4.578-2.588 11.572-2.834 15.515-.616l140.269 78.499c3.942 2.218 3.434 6.038-1.145 8.626l-95.505 53.483c-4.578 2.588-11.572 2.834-15.515.616z"/>
  <path fill="#fff" d="M490.062 411.428l-95.506 53.483c-4.578 2.588-11.572 2.834-15.514.616l-140.27-78.622c-1.272-.74-2.162-1.602-2.416-2.588-.636 1.848.127 3.697 2.416 4.929l140.27 78.499c3.942 2.218 10.936 1.972 15.514-.616l95.506-53.483c3.052-1.725 4.323-4.066 3.56-6.038-.508 1.355-1.653 2.711-3.56 3.82z"/>
  <path fill="#173D7A" d="M298.415 363.244l-6.359-3.573c-.508-.247-.508-.74.128-1.109l7.503-4.19c.636-.37 1.526-.37 2.034-.124l6.359 3.574c.509.247.509.74-.127 1.109l-7.503 4.19c-.636.37-1.526.493-2.035.123zM308.208 368.79l-6.359-3.574c-.508-.246-.508-.739.128-1.109l7.503-4.19c.635-.37 1.526-.37 2.034-.123l6.359 3.574c.509.246.509.739-.127 1.109l-7.503 4.19c-.636.369-1.526.369-2.035.123zM318.001 374.212l-6.359-3.574c-.508-.246-.508-.739.128-1.109l7.503-4.19c.635-.369 1.526-.369 2.034-.123l6.359 3.574c.509.246.509.739-.127 1.109l-7.503 4.19c-.636.37-1.526.493-2.035.123zM331.608 369.776l-6.358-3.574c-.509-.247-.509-.739.127-1.109l6.231-3.574c.636-.37 1.526-.37 2.035-.123l6.359 3.574c.508.246.508.739-.128 1.109l-6.231 3.573c-.636.37-1.526.37-2.035.124zM341.397 375.198l-6.358-3.574c-.509-.246-.509-.739.127-1.109l6.231-3.574c.636-.369 1.526-.369 2.035-.123l6.359 3.574c.508.246.508.739-.128 1.109l-6.231 3.574c-.636.369-1.526.493-2.035.123zM351.192 380.743l-6.358-3.573c-.509-.247-.509-.74.127-1.109l6.231-3.574c.636-.37 1.526-.37 2.035-.123l6.359 3.573c.508.247.508.74-.128 1.109l-6.231 3.574c-.636.37-1.526.37-2.035.123zM360.983 386.166l-6.358-3.574c-.509-.247-.509-.74.127-1.109l6.231-3.574c.636-.37 1.526-.37 2.035-.123l6.359 3.574c.508.246.508.739-.128 1.109l-6.231 3.573c-.636.37-1.526.493-2.035.124zM370.774 391.711l-6.358-3.574c-.509-.246-.509-.739.127-1.109l6.231-3.574c.636-.369 1.526-.369 2.035-.123l6.359 3.574c.508.246.508.739-.128 1.109l-6.231 3.574c-.636.369-1.526.369-2.035.123zM380.567 397.133l-6.358-3.574c-.509-.246-.509-.739.127-1.109l6.231-3.573c.636-.37 1.526-.37 2.035-.124l6.359 3.574c.508.247.508.739-.128 1.109l-6.231 3.574c-.636.37-1.526.493-2.035.123zM390.36 402.678l-6.358-3.573c-.509-.247-.509-.74.127-1.109l6.231-3.574c.636-.37 1.526-.37 2.035-.123l6.358 3.573c.509.247.509.74-.127 1.11l-6.231 3.573c-.636.37-1.526.37-2.035.123zM400.151 408.101l-6.358-3.574c-.509-.246-.509-.739.127-1.109l6.231-3.574c.636-.369 1.526-.369 2.035-.123l6.359 3.574c.508.246.508.739-.128 1.109l-6.231 3.574c-.636.369-1.526.493-2.035.123zM409.944 413.646l-6.358-3.573c-.509-.247-.509-.74.127-1.11l6.231-3.573c.636-.37 1.526-.37 2.035-.124l6.359 3.574c.508.247.508.74-.128 1.109l-6.231 3.574c-.636.37-1.526.37-2.035.123zM419.737 419.068l-6.358-3.573c-.509-.247-.509-.74.127-1.109l6.231-3.574c.636-.37 1.526-.37 2.035-.123l6.358 3.573c.509.247.509.74-.127 1.109l-6.231 3.574c-.636.37-1.526.493-2.035.123z"/>
  <path fill="#396CAA" d="M345.977 367.188l-6.358-3.574c-.509-.246-.509-.739.127-1.109l6.231-3.574c.636-.369 1.526-.369 2.035-.123l6.359 3.574c.508.246.508.739-.127 1.109l-6.232 3.574c-.636.369-1.526.369-2.035.123zM336.059 361.519l-6.358-3.574c-.509-.246-.509-.739.127-1.109l6.231-3.573c.636-.37 1.527-.37 2.035-.124l6.359 3.574c.508.247.508.739-.127 1.109l-6.232 3.574c-.636.37-1.526.493-2.035.123z"/>
  <path fill="#173D7A" d="M326.138 355.974l-13.607-7.641c-.509-.246-.509-.739.127-1.109l6.232-3.574c.635-.369 1.526-.369 2.034-.123l13.608 7.641c.508.246.508.739-.128 1.109l-6.231 3.573c-.636.37-1.526.493-2.035.124zM333.005 349.196l-11.064-6.162c-.509-.246-.509-.739.127-1.109l6.232-3.574c.636-.369 1.526-.369 2.034-.123l11.064 6.162c.509.246.509.739-.127 1.109l-6.231 3.574c-.636.369-1.526.493-2.035.123z"/>
  <path fill="#396CAA" d="M355.77 372.61l-6.358-3.574c-.509-.246-.509-.739.127-1.109l6.231-3.573c.636-.37 1.526-.37 2.035-.124l6.359 3.574c.508.247.508.739-.127 1.109l-6.232 3.574c-.636.37-1.526.37-2.035.123z"/>
  <path fill="#173D7A" d="M365.563 378.156l-6.358-3.574c-.509-.247-.509-.74.127-1.109l6.231-3.574c.636-.37 1.526-.37 2.035-.123l6.359 3.574c.508.246.508.739-.127 1.109l-6.232 3.573c-.636.37-1.526.37-2.035.124zM375.354 383.578l-6.358-3.574c-.509-.247-.509-.739.127-1.109l6.231-3.574c.636-.37 1.526-.37 2.035-.123l6.359 3.574c.508.246.508.739-.128 1.109l-6.231 3.573c-.636.37-1.526.37-2.035.124zM385.272 389.123l-6.358-3.574c-.509-.246-.509-.739.127-1.109l6.231-3.573c.636-.37 1.526-.37 2.035-.124l6.359 3.574c.508.246.508.739-.128 1.109L387.307 389c-.636.37-1.526.37-2.035.123zM395.065 394.545l-6.358-3.574c-.509-.246-.509-.739.127-1.109l6.231-3.573c.636-.37 1.526-.37 2.035-.124l6.359 3.574c.508.247.508.74-.128 1.109l-6.231 3.574c-.636.37-1.526.37-2.035.123zM404.858 400.091l-6.358-3.574c-.509-.247-.509-.74.127-1.109l6.231-3.574c.636-.37 1.526-.37 2.035-.123l6.359 3.574c.508.246.508.739-.128 1.109l-6.231 3.573c-.636.37-1.526.37-2.035.124zM414.649 405.513l-6.358-3.574c-.509-.246-.509-.739.127-1.109l6.231-3.574c.636-.369 1.526-.369 2.035-.123l6.359 3.574c.508.246.508.739-.128 1.109l-6.231 3.574c-.636.369-1.526.369-2.035.123zM424.442 411.058l-6.358-3.573c-.509-.247-.509-.74.127-1.109l6.231-3.574c.636-.37 1.526-.37 2.035-.123l6.358 3.573c.509.247.509.74-.127 1.109l-6.231 3.574c-.636.37-1.526.37-2.035.123zM434.235 416.481l-6.358-3.574c-.509-.246-.509-.739.127-1.109l6.231-3.574c.636-.369 1.526-.369 2.035-.123l6.359 3.574c.508.246.508.739-.128 1.109l-6.231 3.574c-.636.369-1.526.369-2.035.123zM451.658 426.216l-13.861-7.764c-.509-.246-.509-.739.127-1.109l6.231-3.573c.636-.37 1.526-.37 2.035-.124l13.861 7.764c.509.246.509.739-.127 1.109l-6.231 3.574c-.636.37-1.526.493-2.035.123zM470.733 415.618l-11.7-6.531c-.509-.247-.509-.74.127-1.109l6.231-3.574c.636-.37 1.527-.37 2.035-.123l11.7 6.531c.509.246.509.739-.127 1.109l-6.232 3.574c-.635.369-1.526.369-2.034.123zM372.938 371.501l-6.358-3.574c-.509-.246-.509-.739.127-1.109l6.231-3.574c.636-.369 1.526-.369 2.035-.123l6.359 3.574c.508.246.508.739-.128 1.109l-6.231 3.574c-.636.369-1.526.493-2.035.123zM362.893 365.956l-6.358-3.574c-.509-.247-.509-.74.127-1.109l6.231-3.574c.636-.37 1.526-.37 2.035-.123l6.359 3.574c.508.246.508.739-.127 1.109l-6.232 3.573c-.636.37-1.526.37-2.035.124z"/>
  <path fill="#396CAA" d="M352.845 360.287l-6.359-3.574c-.509-.246-.509-.739.127-1.109l6.232-3.574c.635-.369 1.526-.369 2.034-.123l6.359 3.574c.509.246.509.739-.127 1.109l-6.232 3.574c-.636.369-1.526.493-2.034.123z"/>
  <path fill="#173D7A" d="M342.798 354.741l-6.359-3.573c-.508-.247-.508-.74.127-1.109l6.232-3.574c.636-.37 1.526-.37 2.034-.123l6.359 3.573c.509.247.509.74-.127 1.109l-6.232 3.574c-.635.37-1.526.37-2.034.123zM382.729 377.046l-6.358-3.573c-.509-.247-.509-.74.127-1.109l6.231-3.574c.636-.37 1.526-.37 2.035-.123l6.359 3.573c.508.247.508.74-.127 1.109l-6.232 3.574c-.636.37-1.526.37-2.035.123zM392.524 382.469l-6.358-3.574c-.509-.247-.509-.74.127-1.109l6.231-3.574c.636-.37 1.526-.37 2.035-.123l6.359 3.573c.508.247.508.74-.128 1.11l-6.231 3.573c-.636.37-1.526.493-2.035.124zM402.44 388.014l-6.358-3.574c-.509-.246-.509-.739.127-1.109l6.231-3.574c.636-.369 1.526-.369 2.035-.123l6.359 3.574c.508.246.508.739-.128 1.109l-6.231 3.574c-.636.369-1.526.369-2.035.123zM412.233 393.436l-6.358-3.574c-.509-.246-.509-.739.127-1.109l6.231-3.573c.636-.37 1.526-.37 2.035-.124l6.359 3.574c.508.246.508.739-.128 1.109l-6.231 3.574c-.636.37-1.526.493-2.035.123zM422.024 398.982l-6.358-3.574c-.509-.246-.509-.739.127-1.109l6.231-3.574c.636-.37 1.526-.37 2.035-.123l6.359 3.574c.508.246.508.739-.128 1.109l-6.231 3.573c-.636.37-1.526.37-2.035.124zM431.819 404.404l-6.358-3.574c-.509-.246-.509-.739.127-1.109l6.231-3.574c.636-.369 1.526-.369 2.035-.123l6.359 3.574c.508.246.508.739-.128 1.109l-6.231 3.574c-.636.369-1.526.493-2.035.123zM441.61 409.949l-6.358-3.573c-.509-.247-.509-.74.127-1.11l6.231-3.573c.636-.37 1.526-.37 2.035-.124l6.359 3.574c.508.247.508.74-.128 1.109l-6.231 3.574c-.636.37-1.526.37-2.035.123zM451.401 415.372l-6.358-3.574c-.509-.247-.509-.74.127-1.109l6.231-3.574c.636-.37 1.526-.37 2.035-.123l6.359 3.573c.508.247.508.74-.128 1.109l-6.231 3.574c-.636.37-1.526.493-2.035.124zM461.196 420.917l-6.358-3.574c-.509-.246-.509-.739.127-1.109l6.231-3.574c.636-.369 1.526-.369 2.035-.123l6.358 3.574c.509.246.509.739-.127 1.109l-6.231 3.574c-.636.369-1.526.37-2.035.123zM367.85 357.945l-6.358-3.573c-.509-.247-.509-.74.127-1.109l6.231-3.574c.636-.37 1.527-.37 2.035-.123l6.359 3.573c.508.247.508.74-.127 1.109l-6.232 3.574c-.636.37-1.526.493-2.035.123zM358.059 352.523l-6.358-3.574c-.509-.246-.509-.739.127-1.109l6.231-3.573c.636-.37 1.526-.37 2.035-.124l6.359 3.574c.508.247.508.74-.127 1.109l-6.232 3.574c-.636.37-1.526.37-2.035.123zM348.266 347.101l-6.358-3.574c-.509-.246-.509-.739.127-1.109l6.231-3.574c.636-.369 1.527-.369 2.035-.123l6.359 3.574c.508.246.508.739-.127 1.109l-6.232 3.574c-.636.369-1.526.369-2.035.123zM338.6 341.679l-6.358-3.574c-.509-.246-.509-.739.127-1.109l6.231-3.574c.636-.369 1.527-.369 2.035-.123l6.359 3.574c.508.246.508.739-.127 1.109l-6.232 3.574c-.636.369-1.526.369-2.035.123zM348.52 336.01l-6.358-3.574c-.509-.246-.509-.739.127-1.109l2.035-1.109c.636-.37 1.526-.37 2.034-.123l6.359 3.574c.509.246.509.739-.127 1.109l-2.035 1.109c-.636.369-1.526.369-2.035.123zM361.366 343.157l-6.358-3.573c-.509-.247-.509-.74.127-1.109l2.034-1.109c.636-.37 1.527-.37 2.035-.124l6.359 3.574c.508.247.508.739-.127 1.109l-2.035 1.109c-.636.37-1.526.37-2.035.123zM371.03 348.58l-6.358-3.574c-.509-.246-.509-.739.127-1.109l2.035-1.109c.635-.37 1.526-.37 2.034-.123l6.359 3.573c.508.247.508.74-.127 1.109l-2.035 1.11c-.636.369-1.526.369-2.035.123zM380.694 354.002l-6.358-3.574c-.509-.246-.509-.739.127-1.109l2.035-1.109c.635-.37 1.526-.37 2.034-.123l6.359 3.574c.508.246.509.739-.127 1.109l-2.035 1.109c-.636.369-1.526.369-2.035.123zM390.489 359.424l-6.358-3.574c-.509-.246-.509-.739.127-1.109l2.035-1.109c.635-.37 1.526-.37 2.034-.123l6.359 3.574c.508.246.508.739-.127 1.109l-2.035 1.109c-.636.37-1.526.37-2.035.123zM444.663 389.739l-6.359-3.573c-.508-.247-.508-.74.128-1.11l2.034-1.109c.636-.369 1.526-.369 2.035-.123l6.359 3.574c.508.246.508.739-.128 1.109l-2.034 1.109c-.636.37-1.526.493-2.035.123zM454.327 395.161l-6.358-3.573c-.509-.247-.509-.74.127-1.109l2.034-1.11c.636-.369 1.526-.369 2.035-.123l6.359 3.574c.508.246.508.739-.127 1.109l-2.035 1.109c-.636.37-1.526.493-2.035.123zM464.118 400.584l-6.358-3.574c-.509-.246-.509-.739.127-1.109l2.034-1.109c.636-.37 1.526-.37 2.035-.123l6.359 3.573c.508.247.508.74-.127 1.109l-2.035 1.109c-.636.37-1.526.493-2.035.124zM473.784 406.129l-6.358-3.574c-.509-.246-.509-.739.127-1.109l2.034-1.109c.636-.369 1.526-.369 2.035-.123l6.359 3.574c.508.246.508.739-.127 1.109l-2.035 1.109c-.636.37-1.526.37-2.035.123zM377.643 363.491l-6.358-3.574c-.509-.246-.509-.739.127-1.109l6.231-3.574c.636-.369 1.526-.369 2.035-.123l6.359 3.574c.508.246.508.739-.127 1.109l-6.232 3.574c-.636.369-1.526.369-2.035.123zM387.436 368.913l-6.358-3.574c-.509-.246-.509-.739.127-1.109l6.231-3.573c.636-.37 1.526-.37 2.035-.124l6.359 3.574c.508.247.508.739-.127 1.109l-6.232 3.574c-.636.37-1.526.493-2.035.123zM397.227 374.459l-6.358-3.574c-.509-.247-.509-.74.127-1.109l6.231-3.574c.636-.37 1.527-.37 2.035-.123l6.359 3.573c.508.247.508.74-.127 1.11l-6.232 3.573c-.636.37-1.526.37-2.035.124zM407.02 379.881l-6.358-3.574c-.509-.247-.509-.739.127-1.109l6.231-3.574c.636-.37 1.526-.37 2.035-.123l6.359 3.574c.508.246.508.739-.128 1.109l-6.231 3.573c-.636.37-1.526.493-2.035.124zM416.813 385.426l-6.358-3.574c-.509-.246-.509-.739.127-1.109l6.231-3.573c.636-.37 1.526-.37 2.035-.124l6.359 3.574c.508.246.508.739-.127 1.109l-6.232 3.574c-.636.37-1.526.37-2.035.123zM426.604 390.848l-6.358-3.574c-.509-.246-.509-.739.127-1.109l6.231-3.573c.636-.37 1.526-.37 2.035-.124l6.359 3.574c.508.247.508.74-.127 1.109l-6.232 3.574c-.636.37-1.526.493-2.035.123zM436.395 396.394l-6.358-3.574c-.509-.246-.509-.739.127-1.109l6.231-3.574c.636-.369 1.526-.369 2.035-.123l6.359 3.574c.508.246.508.739-.127 1.109l-6.232 3.574c-.636.369-1.526.369-2.035.123zM446.188 401.816l-6.358-3.574c-.509-.246-.509-.739.127-1.109l6.231-3.574c.636-.369 1.526-.369 2.035-.123l6.359 3.574c.508.246.508.739-.127 1.109l-6.232 3.574c-.636.369-1.526.493-2.035.123zM455.979 407.361l-6.358-3.573c-.509-.247-.509-.74.127-1.109l6.231-3.574c.636-.37 1.526-.37 2.035-.123l6.359 3.573c.508.247.508.74-.128 1.109l-6.231 3.574c-.636.37-1.526.37-2.035.123zM321.561 364.107l-18.694-10.475c-.509-.246-.509-.739.127-1.109l6.231-3.573c.636-.37 1.527-.37 2.035-.124l18.694 10.475c.509.246.509.739-.127 1.109l-6.231 3.574c-.636.369-1.526.493-2.035.123zM441.991 431.515l-18.694-10.475c-.509-.246-.509-.739.127-1.109l6.231-3.574c.636-.369 1.526-.369 2.035-.123l18.694 10.475c.509.246.509.739-.127 1.109l-6.232 3.574c-.635.369-1.526.369-2.034.123zM402.823 421.656l-6.358-3.573c-.509-.247-.509-.74.127-1.109l7.503-4.19c.636-.37 1.526-.37 2.035-.123l6.358 3.573c.509.247.509.74-.127 1.109l-7.503 4.19c-.636.37-1.526.493-2.035.123zM331.607 381.852l-10.174-5.668c-.508-.247-.508-.74.128-1.109l7.503-4.19c.635-.37 1.526-.37 2.034-.123l10.174 5.668c.509.247.509.74-.127 1.109l-7.503 4.19c-.636.37-1.526.493-2.035.123zM393.412 416.481l-10.174-5.669c-.509-.246-.509-.739.127-1.109l7.503-4.19c.636-.37 1.526-.37 2.035-.123l10.174 5.668c.508.247.508.74-.127 1.11l-7.504 4.189c-.635.37-1.526.37-2.034.124zM345.722 389.739l-10.173-5.668c-.509-.247-.509-.74.127-1.11l7.503-4.189c.636-.37 1.526-.37 2.035-.124l10.173 5.669c.509.247.509.739-.127 1.109l-7.503 4.19c-.636.37-1.526.493-2.035.123z"/>
  <path fill="#173D7A" d="M345.341 378.771l44.128 24.647c.509.246.509.863 0 1.109l-7.63 4.313c-.509.247-1.399.247-2.035 0l-44.128-24.646 9.665-5.423zM430.165 431.638l7.121 3.944c.382.246.382.616-.127.862l-3.052 1.726c-.508.246-1.271.246-1.653.123l-7.122-3.944c-.381-.246-.381-.616.128-.862l3.052-1.725c.508-.37 1.271-.37 1.653-.124zM420.245 426.093l7.122 3.943c.381.247.381.616-.127.863l-3.053 1.725c-.508.247-1.271.247-1.653.123l-7.121-3.943c-.382-.247-.382-.616.127-.863l3.052-1.725c.509-.246 1.272-.37 1.653-.123zM410.454 420.671l7.122 3.943c.381.246.381.616-.128.863l-3.052 1.725c-.508.246-1.271.246-1.653.123l-7.121-3.943c-.382-.247-.382-.617.127-.863l3.052-1.725c.508-.37 1.272-.37 1.653-.123zM425.714 423.135l7.121 3.944c.382.246.382.616-.127.862l-3.052 1.725c-.509.247-1.272.247-1.653.124l-7.122-3.944c-.381-.246-.381-.616.127-.862l3.053-1.726c.508-.369 1.271-.369 1.653-.123z"/>
  <path fill="#D4ECFF" d="M436.266 288.073l-6.104-3.451c-.509-.37-1.017-1.109-1.017-1.848 0-.74.381-1.11 1.017-.74l6.104 3.451c.509.369 1.018 1.109 1.018 1.848 0 .74-.509.986-1.018.74zM450.767 296.206l-8.902-5.053c-.509-.369-1.017-1.109-1.017-1.848 0-.74.381-1.109 1.017-.74l8.902 5.053c.509.37 1.017 1.109 1.017 1.848-.127.617-.508.986-1.017.74zM433.215 319.374l-6.104-3.451c-.509-.37-1.017-1.109-1.017-1.848 0-.74.381-1.109 1.017-.74l6.104 3.451c.509.369 1.018 1.109 1.018 1.848 0 .74-.382 1.109-1.018.74zM446.187 326.644l-8.902-5.052c-.509-.37-1.017-1.11-1.017-1.849 0-.739.381-1.109 1.017-.739l8.902 5.052c.509.37 1.017 1.109 1.017 1.849-.127.739-.508.986-1.017.739zM419.608 284.252l-3.815-2.095c-.509-.369-1.018-1.109-1.018-1.848 0-.74.382-1.109 1.018-.74l3.815 2.095c.509.37 1.017 1.109 1.017 1.849 0 .739-.508 1.109-1.017.739zM432.58 296.945l-11.572-6.531c-.509-.37-1.018-1.109-1.018-1.848 0-.74.382-1.11 1.018-.74l11.572 6.531c.509.37 1.018 1.11 1.018 1.849 0 .739-.509 1.109-1.018.739zM424.95 303.723l-3.815-2.095c-.509-.37-1.018-1.109-1.018-1.849 0-.739.382-1.109 1.018-.739l3.815 2.095c.508.37 1.017 1.109 1.017 1.848 0 .74-.509 1.11-1.017.74zM450.64 340.2l-10.173-5.669c-.509-.37-1.018-1.109-1.018-1.848 0-.74.382-1.11 1.018-.74l10.173 5.669c.509.37 1.018 1.109 1.018 1.848 0 .616-.509.986-1.018.74zM423.805 314.075l-2.417-1.356c-.508-.37-1.017-1.109-1.017-1.848 0-.74.382-1.11 1.017-.74l2.417 1.356c.508.369 1.017 1.109 1.017 1.848 0 .74-.509 1.109-1.017.74zM424.567 325.535l-3.052-1.725c-.508-.37-1.017-1.109-1.017-1.849 0-.739.382-1.109 1.017-.739l3.052 1.725c.509.37 1.018 1.109 1.018 1.849 0 .739-.509 1.109-1.018.739zM436.267 332.19l-8.011-4.437c-.509-.37-1.018-1.109-1.018-1.848 0-.74.382-1.109 1.018-.74l8.011 4.437c.509.369 1.018 1.109 1.018 1.848 0 .74-.382.986-1.018.74zM427.367 332.683l-5.723-3.204c-.508-.37-1.017-1.11-1.017-1.849 0-.739.381-1.109 1.017-.739l5.723 3.204c.509.369 1.017 1.109 1.017 1.848 0 .74-.508.986-1.017.74zM459.287 345.006l-3.688-2.095c-.508-.37-1.017-1.109-1.017-1.849 0-.739.382-1.109 1.017-.739l3.688 2.095c.509.37 1.018 1.109 1.018 1.848 0 .74-.382 1.109-1.018.74zM439.064 311.61l-10.174-5.669c-.508-.37-1.017-1.109-1.017-1.848 0-.74.382-1.109 1.017-.74l10.174 5.669c.509.37 1.017 1.109 1.017 1.848 0 .74-.508 1.11-1.017.74zM438.684 305.941l-17.676-9.858c-.509-.37-1.018-1.11-1.018-1.849 0-.739.382-1.109 1.018-.739l17.676 9.858c.509.37 1.018 1.109 1.018 1.849 0 .739-.382 1.109-1.018.739zM431.308 312.842l-10.173-5.668c-.509-.37-1.018-1.109-1.018-1.849 0-.739.382-1.109 1.018-.739l10.173 5.668c.509.37 1.018 1.109 1.018 1.849 0 .739-.382 1.109-1.018.739zM446.696 315.923l-3.688-2.095c-.509-.37-1.018-1.109-1.018-1.848 0-.74.382-1.109 1.018-.74l3.688 2.095c.508.37 1.017 1.109 1.017 1.849 0 .739-.382 1.109-1.017.739zM477.978 311.364l-21.746-12.2c-.508-.37-1.017-1.11-1.017-1.849 0-.739.381-1.109 1.017-.739l21.746 12.2c.509.369 1.018 1.109 1.018 1.848 0 .74-.382 1.109-1.018.74zM433.597 325.165l-12.209-6.777c-.508-.37-1.017-1.109-1.017-1.849 0-.739.382-1.109 1.017-.739l12.209 6.778c.509.369 1.017 1.109 1.017 1.848 0 .739-.508.986-1.017.739zM424.695 281.541l-8.902-5.052c-.509-.37-1.018-1.109-1.018-1.849 0-.739.382-1.109 1.018-.739l8.902 5.052c.508.37 1.017 1.109 1.017 1.849 0 .739-.509 1.109-1.017.739zM426.984 337.981l-10.428-5.792c-.508-.369-1.017-1.109-1.017-1.848 0-.739.382-1.109 1.017-.739l10.428 5.791c.509.37 1.018 1.11 1.018 1.849 0 .739-.382 1.109-1.018.739zM161.961 346.731l53.412-30.069c10.555-5.915 20.601-6.901 28.105-2.588 7.503 4.19 11.699 13.063 11.699 24.893v3.821c-.381.246-.763.492-1.144.739v-4.683c0-11.46-3.943-19.84-11.064-23.907-7.122-3.943-16.659-3.081-26.96 2.588l-53.412 30.069c-.254.123-.636.123-.763-.247-.254-.123-.127-.493.127-.616zM328.428 310.87v-116.7c0-23.291 16.914-51.881 37.77-63.465 10.174-5.669 19.839-6.654 27.087-2.588 7.249 4.067 11.319 12.57 11.319 24.03v8.134c-.382.369-.763.739-1.145 1.109v-9.243c0-10.967-3.815-19.224-10.682-23.044-6.868-3.82-16.024-2.957-25.943 2.588-20.475 11.461-37.261 39.557-37.261 62.479v116.577c0 19.348-11.7 42.269-27.723 56.071v-1.479c15.387-13.679 26.578-35.737 26.578-54.469z"/>
  <path fill="#173D7A" d="M404.73 163.854c1.908-1.725 10.937-9.489 24.163-11.46 14.879-2.218 21.11 14.664 21.11 14.664s1.781 8.75 1.653 13.926c0 5.175-.508 24.03-.508 24.03l-47.181-26.372c-.127-.123-.381-.246-.381-.493V164.84c.381-.369.763-.493 1.144-.986z"/>
  <path fill="#D4ECFF" d="M438.175 153.133l-44.764-25.016.127.616c-6.867-4.313-17.295-4.806-31.284 5.176-27.723 19.717-31.03 47.075-32.429 52.251-1.398 5.175-.89 37.709-.89 37.709s-.127 78.498-.127 87.618c-.127 9.119-2.798 19.347-8.139 30.438-5.341 11.091-18.948 24.523-18.948 24.523v16.02c2.162 17.253 9.792 21.32 20.983 22.305 9.156.74 18.821-5.545 26.579-12.446-.255.246-.509.493-.509.493v16.02c2.162 17.253 9.792 21.319 20.983 22.305 11.318.986 23.399-8.996 31.666-17.499 8.266-8.503 15.26-21.442 19.075-33.026 3.815-11.707 2.544-26.741 2.544-26.741s.127-85.77.127-102.776c.127-16.883.636-13.925 6.358-30.931 6.105-17.253 21.238-29.206 21.238-29.206l36.371-10.475-48.961-27.358z"/>
  <path fill="#173D7A" d="M360.221 429.42c-.635-.863-8.647-6.039-10.682-15.158-1.144-5.052-1.017-12.816-1.017-12.816s0-4.313.127-8.256c.127-.124.127-.124.254-.247v-1.479c-.127.124-.127.124-.254.247 0-.863.127-1.725.127-2.465.254-4.067-2.925-12.693-2.925-12.693s-4.324-11.584-17.422-12.077c-11.573-.369-23.781 7.641-26.452 9.489v-5.175c-.127.123-.381.246-.508.369v-2.095l.254-.246v-1.479c-.127.123-.127.123-.254.247 0-.863.127-1.726.127-2.465.254-4.067-2.925-12.693-2.925-12.693s-4.324-11.584-17.423-12.077c-11.572-.369-23.781 7.641-26.451 9.489v-5.176c-.382.247-.763.493-1.145.74v9.119c0 11.091 3.815 19.471 10.81 23.537l.254.124c.127 0 .127.123.255.123h.127l47.943 26.741v-.123l47.18 26.495z"/>
  <path fill="#D4ECFF" d="M290.529 340.2s-.382-.123-1.018-.37c-.254-.123-.381-.246-.636-.246l-45.4-25.633s-8.393-4.313-18.439-.616c-10.174 3.574-63.077 34.382-63.077 34.382l47.18 26.372h.128l46.926 26.248s26.578-15.897 44.891-26.248l1.144-.617c7.503-4.189 13.48-7.27 15.388-7.763 11.318-2.958 19.203.616 21.238 1.725L290.529 340.2zM338.98 367.311l.509.246c0 .124-.127 0-.509-.246z"/>
  <path fill="#173D7A" d="M451.781 190.103c1.908-1.725 10.937-9.489 24.163-11.461 14.879-2.218 21.11 14.665 21.11 14.665s1.78 8.749 1.653 13.925c0 5.176-.508 24.03-.508 24.03l-47.181-26.371c-.127-.123-.381-.247-.381-.493v-13.309c.381-.37.763-.616 1.144-.986z"/>
  <path fill="#396CAA" d="M369.502 431.515c5.214 0 10.937-1.725 16.914-5.053 20.729-11.584 37.515-39.927 37.515-63.095V246.79c0-22.921 16.66-51.018 37.261-62.479 9.793-5.545 19.076-6.408 25.943-2.588 6.867 3.82 10.683 12.077 10.683 23.045v26.125c0 .37.254.616.635.616.382 0 .636-.246.636-.616v-26.125c0-11.461-4.069-19.964-11.318-24.031-7.249-4.066-16.914-3.204-27.087 2.588-20.983 11.707-37.897 40.174-37.897 63.465v116.577c0 22.798-16.532 50.649-37.007 62.109-9.792 5.423-18.948 6.408-25.816 2.588-6.867-3.82-10.682-11.953-10.682-22.921v-13.679c0-11.83-4.197-20.703-11.7-24.893-7.503-4.189-17.549-3.327-28.104 2.588l-53.412 30.069c-.254.123-.382.493-.254.739.127.247.508.37.763.247l53.411-30.069c10.174-5.669 19.712-6.654 26.961-2.588 7.121 3.944 11.063 12.447 11.063 23.907v13.679c0 11.337 3.943 19.84 11.191 23.907 3.18 1.602 6.613 2.465 10.301 2.465z"/>
  <path fill="#5793CE" d="M373.192 275.38l-7.885-4.437c-.763-.37-1.399-1.479-1.399-2.464 0-.986.509-1.356 1.272-.986l7.885 4.436c.763.37 1.398 1.479 1.398 2.465 0 .986-.635 1.355-1.271.986zM389.851 284.745l-11.7-6.531c-.763-.37-1.399-1.479-1.399-2.465 0-.986.509-1.356 1.272-.986l11.699 6.532c.763.369 1.399 1.478 1.399 2.464.127.986-.508 1.479-1.271.986zM372.304 246.297l-15.134-8.503c-.763-.37-1.399-1.479-1.399-2.465 0-.986.509-1.355 1.272-.986l15.006 8.38c.763.37 1.399 1.479 1.399 2.465.127.986-.508 1.479-1.144 1.109zM362.384 255.046l-4.96-2.711c-.763-.369-1.399-1.479-1.399-2.464 0-.986.509-1.356 1.272-.986l4.96 2.711c.763.37 1.399 1.479 1.399 2.465 0 .985-.509 1.355-1.272.985zM360.857 268.478l-3.179-1.725c-.763-.369-1.399-1.479-1.399-2.464 0-.986.509-1.356 1.272-.986l3.179 1.725c.763.37 1.399 1.479 1.399 2.465 0 .985-.509 1.478-1.272.985zM380.695 265.275l-13.226-7.394c-.763-.37-1.399-1.479-1.399-2.465 0-.986.509-1.356 1.272-.986l13.226 7.394c.763.37 1.399 1.479 1.399 2.465 0 .986-.509 1.478-1.272.986zM380.313 257.88l-23.018-12.816c-.763-.369-1.399-1.479-1.399-2.464 0-.986.509-1.356 1.272-.986l23.018 12.816c.763.37 1.399 1.479 1.399 2.465 0 .985-.636 1.355-1.272.985zM370.775 266.877l-13.226-7.394c-.763-.37-1.399-1.479-1.399-2.465 0-.986.509-1.355 1.272-.986l13.226 7.394c.763.37 1.399 1.479 1.399 2.465 0 .986-.636 1.355-1.272.986zM390.743 270.943l-4.832-2.711c-.763-.369-1.399-1.479-1.399-2.464 0-.986.508-1.356 1.271-.986l4.833 2.711c.763.37 1.399 1.479 1.399 2.464 0 .863-.636 1.356-1.272.986zM377.008 234.589l-7.885-4.436c-.763-.37-1.398-1.479-1.398-2.465 0-.985.508-1.355 1.271-.985l7.885 4.436c.763.37 1.399 1.479 1.399 2.465.127.985-.509 1.355-1.272.985zM395.829 245.064l-11.7-6.531c-.763-.37-1.399-1.479-1.399-2.465 0-.985.509-1.355 1.272-.985l11.7 6.531c.763.37 1.399 1.479 1.399 2.464.127.986-.509 1.479-1.272.986z"/>
  <path fill="#5793CE" d="M373.194 275.38l-7.885-4.437c-.763-.37-1.399-1.479-1.399-2.464 0-.986.509-1.356 1.272-.986l7.884 4.436c.763.37 1.399 1.479 1.399 2.465 0 .986-.636 1.355-1.271.986zM389.851 284.745l-11.7-6.531c-.763-.37-1.399-1.479-1.399-2.465 0-.986.509-1.356 1.272-.986l11.699 6.531c.763.37 1.399 1.479 1.399 2.465.127.986-.508 1.479-1.271.986zM355.388 229.66l-4.96-2.711c-.763-.37-1.399-1.479-1.399-2.465 0-.985.509-1.355 1.272-.985l4.96 2.711c.763.369 1.399 1.478 1.399 2.464.127.986-.509 1.356-1.272.986zM372.304 246.297l-15.134-8.503c-.763-.37-1.399-1.479-1.399-2.465 0-.986.509-1.355 1.272-.986l15.006 8.38c.763.37 1.399 1.479 1.399 2.465.127.986-.508 1.479-1.144 1.109zM362.384 255.046l-4.96-2.711c-.763-.369-1.399-1.479-1.399-2.464 0-.986.509-1.356 1.272-.986l4.96 2.711c.763.37 1.399 1.479 1.399 2.465 0 .985-.509 1.355-1.272.985zM395.703 302.367l-13.226-7.394c-.763-.369-1.399-1.478-1.399-2.464s.509-1.356 1.272-.986l13.226 7.394c.763.37 1.399 1.479 1.399 2.465.127.985-.509 1.355-1.272.985zM360.857 268.478l-3.179-1.725c-.763-.369-1.399-1.479-1.399-2.464 0-.986.509-1.356 1.272-.986l3.179 1.725c.763.37 1.399 1.479 1.399 2.465 0 .985-.509 1.478-1.272.985zM361.874 283.389l-3.942-2.218c-.763-.37-1.399-1.479-1.399-2.464 0-.986.509-1.356 1.272-.986l3.942 2.218c.763.37 1.399 1.479 1.399 2.465 0 .985-.509 1.355-1.272.985zM377.135 292.016l-10.301-5.792c-.763-.37-1.398-1.479-1.398-2.465 0-.986.508-1.355 1.271-.986l10.301 5.792c.763.37 1.399 1.479 1.399 2.465 0 .863-.509 1.356-1.272.986zM365.435 292.632l-7.503-4.19c-.763-.37-1.399-1.479-1.399-2.464 0-.986.509-1.356 1.272-.986l7.503 4.19c.763.369 1.399 1.478 1.399 2.464.127.863-.509 1.356-1.272.986zM380.695 265.275l-13.226-7.394c-.763-.37-1.399-1.479-1.399-2.465 0-.986.509-1.356 1.272-.986l13.226 7.394c.763.37 1.399 1.479 1.399 2.465 0 .986-.509 1.479-1.272.986zM380.313 257.88l-23.018-12.816c-.763-.369-1.399-1.479-1.399-2.464 0-.986.509-1.356 1.272-.986l23.018 12.816c.763.37 1.399 1.479 1.399 2.465 0 .985-.636 1.355-1.272.985zM370.775 266.877l-13.226-7.394c-.763-.37-1.399-1.479-1.399-2.465 0-.986.509-1.355 1.272-.986l13.226 7.394c.763.37 1.399 1.479 1.399 2.465 0 .986-.636 1.355-1.272.986zM390.743 270.943l-4.832-2.711c-.763-.37-1.399-1.479-1.399-2.465 0-.986.508-1.355 1.271-.986l4.833 2.711c.763.37 1.399 1.479 1.399 2.465 0 .863-.636 1.356-1.272.986zM373.574 282.773l-15.769-8.872c-.763-.37-1.399-1.479-1.399-2.465 0-.986.509-1.356 1.272-.986l15.769 8.873c.763.37 1.399 1.479 1.399 2.465.127.985-.509 1.478-1.272.985zM362.001 226.21l-11.7-6.531c-.763-.37-1.399-1.479-1.399-2.465 0-.986.509-1.356 1.272-.986l11.7 6.531c.763.37 1.399 1.479 1.399 2.465 0 .986-.509 1.356-1.272.986zM365.053 299.533l-13.48-7.517c-.763-.37-1.399-1.479-1.399-2.465 0-.986.509-1.355 1.272-.986l13.48 7.518c.763.369 1.399 1.478 1.399 2.464s-.509 1.356-1.272.986zM371.283 344.02l-7.884-4.436c-.763-.37-1.399-1.479-1.399-2.465 0-.986.509-1.356 1.272-.986l7.884 4.436c.763.37 1.399 1.479 1.399 2.465 0 .986-.508 1.356-1.272.986zM388.069 353.385l-11.699-6.531c-.763-.37-1.399-1.479-1.399-2.465 0-.985.508-1.355 1.271-.985l11.7 6.531c.763.37 1.399 1.479 1.399 2.465 0 .985-.509 1.355-1.272.985zM370.395 314.814l-15.006-8.38c-.763-.37-1.399-1.479-1.399-2.464 0-.986.509-1.356 1.272-.986l15.006 8.379c.763.37 1.399 1.479 1.399 2.465 0 .986-.509 1.479-1.272.986zM360.476 323.686l-4.96-2.711c-.763-.369-1.399-1.478-1.399-2.464s.509-1.356 1.272-.986l4.96 2.711c.763.37 1.398 1.479 1.398 2.465.128.862-.508 1.355-1.271.985zM358.949 337.119l-3.179-1.725c-.763-.37-1.399-1.479-1.399-2.465 0-.986.509-1.356 1.272-.986l3.179 1.725c.763.37 1.399 1.479 1.399 2.465.127.986-.509 1.356-1.272.986zM378.789 333.915l-13.226-7.394c-.763-.37-1.399-1.479-1.399-2.465 0-.986.509-1.355 1.272-.986l13.226 7.394c.763.37 1.398 1.479 1.398 2.465.128.986-.508 1.355-1.271.986zM378.407 326.521l-23.018-12.816c-.763-.37-1.399-1.479-1.399-2.465 0-.986.509-1.355 1.272-.986l23.018 12.817c.763.369 1.399 1.478 1.399 2.464s-.509 1.356-1.272.986zM368.869 335.517l-13.226-7.394c-.763-.37-1.399-1.479-1.399-2.465 0-.986.509-1.355 1.272-.986l13.226 7.394c.763.37 1.398 1.479 1.398 2.465 0 .986-.508 1.356-1.271.986zM388.835 339.46l-4.833-2.711c-.763-.37-1.398-1.479-1.398-2.465 0-.985.508-1.355 1.271-.985l4.833 2.711c.763.369 1.399 1.479 1.399 2.464 0 .986-.509 1.479-1.272.986z"/>
  <path fill="#D4ECFF" d="M429.02 503.729l14.624-8.134 14.625 8.134-14.625 8.133-14.624-8.133zM460.049 486.106l14.624-8.133 14.625 8.133-14.625 8.257-14.624-8.257zM490.951 468.977l14.625-8.133 14.624 8.133-14.624 8.133-14.625-8.133z"/>
  <path fill="#C13D1A" d="M474.673 486.107v-43.625l-14.624-8.133v43.624l14.624 8.134z"/>
  <path fill="#D55053" d="M474.676 442.482l14.624-8.133v43.624l-14.624 8.134v-43.625zM474.673 486.107v-43.625l-14.624-8.133v43.624l14.624 8.134zM443.644 503.729v-24.523l-14.624-8.134v24.523l14.624 8.134zM443.645 479.206l14.624-8.134v24.523l-14.624 8.134v-24.523z"/>
  <path fill="#F55D61" d="M429.02 471.072l14.624-8.256 14.625 8.256-14.625 8.134-14.624-8.134z"/>
  <path fill="#D55053" d="M505.576 468.977v-60.014l-14.625-8.133v60.014l14.625 8.133zM505.578 408.963l14.625-8.133v60.014l-14.625 8.133v-60.014z"/>
  <path fill="#F55D61" d="M490.951 400.83l14.625-8.257 14.624 8.257-14.624 8.133-14.625-8.133zM460.049 434.349l14.624-8.133 14.625 8.133-14.625 8.133-14.624-8.133z"/>
  <path fill="#5793CE" d="M220.97 421.903s-4.451-2.218-7.249 1.109c-2.797 3.327-6.74 11.091-6.867 16.267-.127 5.299 4.324 4.929 6.867 3.696 2.671-1.232 10.301-11.953 10.683-14.048.508-2.095-.509-4.929-1.272-5.545-.636-.617-2.162-1.479-2.162-1.479z"/>
  <path fill="#D4ECFF" d="M221.987 420.794l.255 4.559c0 .986-.509 1.849-1.272 2.342-.763.493-1.908.739-3.434.493-3.433-.493-3.688-1.479-3.942-6.039-.381-4.436 8.393-1.355 8.393-1.355z"/>
  <path fill="#5793CE" d="M204.437 413.153s-4.451-2.218-7.249 1.109c-2.798 3.328-6.74 11.091-6.867 16.267-.127 5.299 4.324 4.929 6.867 3.697 2.671-1.232 10.301-11.954 10.683-14.049.508-2.094-.509-4.929-1.272-5.545-.636-.616-2.162-1.479-2.162-1.479z"/>
  <path fill="#D4ECFF" d="M205.454 412.167l.255 4.56c0 .986-.509 1.849-1.272 2.341-.763.493-1.908.74-3.434.493-3.433-.493-3.688-1.478-3.942-6.038-.382-4.56 8.393-1.356 8.393-1.356z"/>
  <path fill="#173D7A" d="M245.768 328.986c-1.399-21.073-23.526 3.081-23.526 3.081l-15.134 14.418-13.734 14.541c-2.671 2.834-3.942 6.655-3.434 10.475l5.596 40.79c.254 1.971 2.034 3.45 4.196 3.45.636 0 1.272 0 2.035-.123 4.96-.739 4.578-5.299 4.578-5.299l-1.017-38.202 28.74-16.76c-.127.124 12.972-5.299 11.7-26.371z"/>
  <path fill="#173D7A" d="M262.299 336.996c-1.398-21.073-23.526 3.081-23.526 3.081l-15.133 14.418-13.735 14.541c-2.671 2.835-3.942 6.655-3.434 10.475l5.596 40.79c.254 1.972 2.035 3.45 4.197 3.45.635 0 1.271 0 2.034-.123 4.96-.739 4.578-5.299 4.578-5.299l-1.017-38.202 28.614-16.636s13.098-5.422 11.826-26.495z"/>
  <path fill="#5793CE" d="M249.075 269.341c16.787 6.778 16.533 16.39 16.533 16.39s-3.307 35.368-2.162 58.905c.508 9.859-54.048 10.598-45.909-15.65 9.538-31.055 5.977-56.194 10.555-60.014 4.324-3.697 16.66-1.356 20.983.369z"/>
  <path fill="#FFC2B0" d="M254.557 277.899c.876-3.295-2.163-6.903-6.788-8.057-4.625-1.154-9.085.582-9.961 3.877-.875 3.296 2.164 6.903 6.789 8.057 4.625 1.154 9.084-.582 9.96-3.877z"/>
  <path fill="#fff" d="M247.42 282.897c-1.017 0-2.034-.123-3.052-.37-2.416-.616-4.451-1.848-5.85-3.45-1.398-1.726-2.034-3.697-1.526-5.546 1.018-3.697 5.977-5.669 10.937-4.436 2.416.616 4.451 1.848 5.85 3.45 1.399 1.726 2.035 3.697 1.526 5.546-.763 2.957-4.07 4.806-7.885 4.806zm-2.543-12.693c-3.179 0-5.723 1.355-6.359 3.697-.381 1.355 0 2.834 1.145 4.19 1.144 1.355 2.925 2.464 5.087 2.957 4.196 1.109 8.266-.493 9.029-3.327.381-1.356 0-2.834-1.145-4.19-1.144-1.355-2.925-2.465-5.086-2.957-.891-.247-1.781-.37-2.671-.37z"/>
  <path fill="#FFC2B0" d="M242.334 268.602s.127.616-.127 5.792c-.127 1.602 5.723 3.204 7.249 1.725 1.526-1.479.89-2.958 1.272-8.503.381-5.545-8.394.986-8.394.986z"/>
  <path fill="#EA9C92" d="M250.854 267.616s-1.398 5.176-8.52 7.148l.127-4.683 8.393-2.465z"/>
  <path fill="#FFC2B0" d="M245.976 269.945c6.936-1.737 11.106-8.595 9.312-15.316-1.793-6.721-8.869-10.761-15.805-9.024-6.936 1.738-11.106 8.595-9.312 15.316 1.793 6.722 8.869 10.762 15.805 9.024z"/>
  <path fill="#EA9C92" d="M245.768 258.127s-7.121 2.958-12.081 2.958c-4.96 0-3.815-3.944-3.815-3.944l14.625-2.095 1.271 3.081z"/>
  <path fill="#F55D61" d="M232.16 258.99s6.232-2.588 11.7-1.479c1.272.247 2.416.863 3.306 1.849.255.369.636.616 1.018.739 1.017.246 2.543-3.697 4.451-3.82 1.907-.123 3.179 1.232 1.653 3.574-1.526 2.341-1.017 5.052-.254 5.422.763.369 8.266-5.176 1.653-17.869-6.867-12.693-23.654-5.915-26.324-3.327 0 0-2.798 2.341-4.96.246 0 0-2.543 18.362 7.757 14.665z"/>
  <path fill="#FFC2B0" d="M256.195 311.61v9.612c0 1.109-.509 2.095-1.272 2.834l-20.347 17.869 2.289 3.451 26.706-18.732c1.272-.862 2.035-2.218 2.162-3.697l1.78-16.636-11.318 5.299z"/>
  <path fill="#5793CE" d="M264.206 281.048s6.105 8.996 8.394 32.534c0 0-10.556 3.327-16.405 1.478-5.977-1.971 8.011-34.012 8.011-34.012z"/>
  <path fill="#396CAA" d="M255.051 292.263s-2.416 12.446-2.543 18.361c0 1.602 1.017 3.081 2.543 3.574v-21.935z"/>
  <path fill="#5793CE" d="M249.837 354.372l-4.451-.617-28.995-16.143c-.89-.493-2.543-.493-3.56.123l-20.475 11.461-2.67-.37v2.588c0 .37.127.616.635.863l32.683 18.361c.89.493 2.544.493 3.561-.123l22.255-12.447c.636-.369.89-.739.89-1.232v-2.464h.127z"/>
  <path fill="#396CAA" d="M228.091 344.143l-2.035-1.109H203.42l-11.064 6.162-2.67-.37v2.588c0 .37.127.616.635.863l32.683 18.361c.509.247 1.145.37 1.908.37l3.179-26.865z"/>
  <path fill="#5793CE" d="M190.83 348.949l-1.144-.123v2.588c0 .37.127.616.635.863l.636.369v-3.697h-.127z"/>
  <path fill="#fff" d="M223.387 370.885c.89.369 2.162.246 3.052-.124v-4.436h-3.052v4.56z"/>
  <path fill="#fff" d="M223.005 368.05l-32.683-18.361c-.89-.493-.763-1.479.254-1.972l22.255-12.446c1.017-.617 2.671-.617 3.561-.124l32.683 18.362c.89.493.763 1.479-.255 1.972l-22.254 12.446c-1.018.616-2.671.616-3.561.123z"/>
  <path fill="#D4ECFF" d="M222.497 365.339l-27.215-15.281c-.763-.369-.636-1.232.255-1.725l11.954-6.531c.89-.493 2.289-.493 3.052-.123l27.214 15.28c.763.37.636 1.233-.254 1.726l-11.954 6.531c-1.017.493-2.289.493-3.052.123z"/>
  <path fill="#FFC2B0" d="M214.102 334.655l-.382 2.218c-.254 1.848-.254 3.82.127 5.668l.382 1.972c.254 1.109 1.144 1.972 2.289 2.095.89.123 1.653-.493 1.78-1.356l.509-4.682s1.272 1.602 1.78 1.602c.636 0-.635-4.683-2.034-7.394-1.145-2.588-4.451-.123-4.451-.123z"/>
  <path fill="#FFC2B0" d="M225.167 299.903l-3.561 6.778c-.89 1.602-1.272 3.327-1.399 5.052l-1.526 23.045-4.578-.124-2.035-25.878c-.127-.74 0-1.602.127-2.342l2.417-13.062 10.555 6.531z"/>
  <path fill="#173D7A" d="M221.857 369.898l-2.798-3.45-28.868-16.144c-.89-.493-1.653-1.972-1.653-3.081v-22.921l-1.653-2.095 1.526-.862c.254-.247.636-.124 1.144.123l32.683 18.361c.89.493 1.653 1.972 1.653 3.081v24.893c0 .616-.254 1.109-.635 1.356l-1.399.739z"/>
  <path fill="#396CAA" d="M201.891 356.713l-2.035-1.109-11.318-18.978V324.18l-1.653-2.095 1.526-.863c.254-.246.636-.123 1.144.123l32.683 18.362c.509.247.89.739 1.272 1.356l-21.619 15.65z"/>
  <path fill="#5793CE" d="M187.777 322.947l-.763-.986 1.526-.862c.254-.247.636-.124 1.144.123l.636.37-2.543 1.355z"/>
  <path fill="#274F89" d="M222.621 339.83c.763.616 1.272 1.725 1.399 2.711l-3.179 1.849-1.527-2.588 3.307-1.972z"/>
  <path fill="#5793CE" d="M220.842 340.446l-32.683-18.362c-.89-.493-1.653 0-1.653 1.233v24.893c0 1.232.763 2.588 1.653 3.08l32.683 18.362c.89.493 1.653 0 1.653-1.232v-24.893c0-1.109-.763-2.465-1.653-3.081z"/>
  <path fill="#FFC2B0" d="M236.865 345.375l-.509 1.11c-.636 1.232-1.526 2.218-2.798 2.957l-3.306 1.972c-1.017.616-2.289.616-3.306.123 0 0-.128 0-.128-.123-1.017-.616-1.144-2.095-.254-2.958l3.434-3.327s-1.908 1.356-2.417.863c-.381-.37 1.908-2.465 3.561-2.465 1.781-.123 3.434-1.356 3.434-1.356l2.289 3.204z"/>
  <path fill="#5793CE" d="M228.344 268.972s-12.462 13.186-17.422 25.139c0 0 4.197 7.394 14.624 10.352 10.428 2.957 2.798-35.491 2.798-35.491z"/>
  <path fill="#396CAA" d="M223.13 303.723l2.034-18.854-4.705 17.745c.763.37 1.78.739 2.671 1.109z"/>
  <path fill="#fff" d="M237.629 266.384l-3.307-.863s1.653 2.465 3.943 3.081c2.289.616 2.67-1.233 2.67-1.233l-3.306-.985zM253.652 263.056c1.053 0 1.907-.827 1.907-1.848 0-1.021-.854-1.849-1.907-1.849-1.054 0-1.908.828-1.908 1.849s.854 1.848 1.908 1.848z"/>
  <path fill="#F55D61" d="M533.553 268.109l-5.596-11.091 11.445-5.422 5.596 11.091-11.445 5.422zm-2.162-9.982l3.306 6.655 6.867-3.204-3.306-6.655-6.867 3.204z"/>
  <path fill="#D4ECFF" d="M292.948 478.836c-12.463-7.024-32.683-7.024-45.146 0-12.463 7.024-12.463 18.238 0 25.263 12.463 7.024 32.683 7.024 45.146 0 12.462-7.025 12.462-18.362 0-25.263zm-12.209 18.362c-5.722 3.204-15.006 3.204-20.728 0-5.723-3.204-5.723-8.38 0-11.584 5.722-3.204 15.006-3.204 20.728 0 5.723 3.204 5.723 8.38 0 11.584z"/>
  <path fill="#D55053" d="M243.097 474.646l11.446.123c.89-1.109 2.034-2.095 3.56-2.958 6.232-3.45 16.151-3.82 22.891-.862l6.74-6.162 10.428.124c-.508-.37-1.017-.617-1.653-.986-14.498-8.134-37.897-8.134-52.394 0-2.671 1.478-4.833 3.204-6.486 4.929l5.468 5.792z"/>
  <path fill="#D55053" d="M298.162 449.014v16.02l-10.428-.123v-16.02l10.428.123z"/>
  <path fill="#D55053" d="M280.996 455.052v16.02l6.74-6.161v-16.02l-6.74 6.161zM254.416 458.749v16.02l15.006-11.83 11.572 8.133v-16.02L270.312 450s-14.625 4.313-15.388 4.559c-.763.247-.508 4.19-.508 4.19z"/>
  <path fill="#D55053" d="M243.098 458.626v16.02l11.318.123v-16.02l-11.318-.123zM237.629 452.957v16.02l5.468 5.669v-16.02l-5.468-5.669z"/>
  <path fill="#F55D61" d="M243.097 458.626l11.446.123c.89-1.109 2.034-2.095 3.56-2.957 6.232-3.451 16.151-3.821 22.891-.863l6.74-6.162 10.428.124c-.508-.37-1.017-.617-1.653-.986-14.498-8.134-37.897-8.134-52.394 0-2.671 1.478-4.833 3.204-6.486 4.929l5.468 5.792z"/>
  <path fill="#5793CE" d="M284.428 457.024v14.665l9.792-2.342s-.636-8.626-.763-8.873c-.127-.246-9.029-3.45-9.029-3.45z"/>
  <path fill="#173D7A" d="M276.924 471.688v16.021l1.017 1.109 6.995-3.82s-1.018-12.2-1.145-12.447c-.127-.246-6.867-.863-6.867-.863z"/>
  <path fill="#396CAA" d="M290.404 467.622l-5.977 5.422c4.96 3.82 4.324 9.119-1.78 12.57-1.654.985-3.561 1.602-5.723 2.094l6.104 6.409-5.468 4.929c6.867-.74 13.48-2.711 18.948-5.669 12.463-6.901 14.116-17.622 5.214-25.632l-11.318-.123z"/>
  <path fill="#396CAA" d="M277.688 483.026v16.02l13.48-5.053 16.277-15.034-.127-17.006-17.168 13.309-12.462 7.764z"/>
  <path fill="#D4ECFF" d="M290.404 451.602l-5.977 5.422c4.96 3.82 4.324 9.119-1.78 12.569-1.654.986-3.561 1.602-5.723 2.095l6.104 6.408-5.468 4.93c6.867-.74 13.48-2.711 18.948-5.669 12.463-6.901 14.116-17.622 5.214-25.632l-11.318-.123z"/>
  <path fill="#396CAA" d="M277.56 493.994l-5.468-5.546c-5.087.247-10.301-.616-14.116-2.834-3.942-2.218-5.596-5.299-4.96-8.133l-12.971-.247-4.96-5.176c-4.324 7.271-1.399 15.528 8.902 21.32 7.503 4.189 17.55 6.284 27.469 6.038l6.104-5.422z"/>
  <path fill="#396CAA" d="M271.583 483.519v16.02l-38.278-20.58v-16.143l5.595 2.218 32.683 18.485z"/>
  <path fill="#173D7A" d="M277.561 477.974v16.02l-5.977 5.545v-16.02l5.977-5.545z"/>
  <path fill="#5793CE" d="M277.56 477.973l-5.468-5.545c-5.087.246-10.301-.616-14.116-2.834-3.942-2.219-5.596-5.299-4.96-8.134l-12.971-.246-4.96-5.176c-4.324 7.271-1.399 15.527 8.902 21.319 7.503 4.19 17.55 6.285 27.469 6.039l6.104-5.423z"/>
  <path fill="#fff" d="M125.993 152.229c-4.578 0-8.266-3.574-8.266-8.01s3.688-8.01 8.266-8.01c4.578 0 8.266 3.574 8.266 8.01s-3.688 8.01-8.266 8.01zm0-13.555c-3.18 0-5.723 2.464-5.723 5.545s2.543 5.546 5.723 5.546c3.179 0 5.722-2.465 5.722-5.546 0-3.081-2.543-5.545-5.722-5.545z"/>
  <path fill="#D4ECFF" d="M90.977 353.051c3.3011 0 5.9771-2.594 5.9771-5.792 0-3.199-2.676-5.792-5.9771-5.792-3.301 0-5.977 2.593-5.977 5.792 0 3.198 2.676 5.792 5.977 5.792zM471.114 144.137c3.933 0 7.121-3.089 7.121-6.901 0-3.811-3.188-6.901-7.121-6.901-3.933 0-7.122 3.09-7.122 6.901 0 3.812 3.189 6.901 7.122 6.901z"/>
  <path fill="#D55053" d="M439.575 208.834l-33.955-18.977c-.636-.37-1.272-.37-1.78-.124l-3.307 1.849s1.399.493 2.289.862v24.031c0 1.971 1.272 4.19 2.798 5.052l32.556 18.239v2.834l3.306-1.849c.509-.369.89-1.109.89-2.095v-24.769c0-1.972-1.271-4.19-2.797-5.053z"/>
  <path fill="#F55D61" d="M436.268 242.353l-33.955-18.977c-1.526-.863-2.797-3.081-2.797-5.053v-24.646c0-1.972 1.271-2.835 2.797-1.972l33.955 18.978c1.526.862 2.798 3.08 2.798 5.052v24.523c0 1.972-1.272 2.835-2.798 2.095z"/>
  <path fill="#fff" d="M413.76 214.873c0 1.479-1.018 1.972-2.289 1.232-1.272-.739-2.289-2.465-2.289-3.82 0-1.479 1.017-1.972 2.289-1.232 1.144.616 2.289 2.341 2.289 3.82zM420.627 218.693c0 1.479-1.017 1.972-2.289 1.232-1.272-.739-2.289-2.464-2.289-3.82 0-1.479 1.017-1.971 2.289-1.232 1.272.739 2.289 2.465 2.289 3.82zM427.621 222.636c0 1.479-1.017 1.972-2.289 1.233-1.272-.74-2.289-2.465-2.289-3.82 0-1.479 1.017-1.972 2.289-1.233 1.272.616 2.289 2.342 2.289 3.82z"/>
  <path fill="#5793CE" d="M274.253 171.372l-33.319-18.608c-.636-.37-1.271-.37-1.78-.123l-3.179 1.848s1.398.493 2.289.863v23.537c0 1.972 1.144 4.19 2.67 4.929l31.92 17.869v2.711l3.307-1.848c.508-.37.89-.986.89-2.095v-24.031c-.127-1.971-1.272-4.19-2.798-5.052z"/>
  <path fill="#D4ECFF" d="M270.946 204.275l-33.318-18.732c-1.526-.862-2.671-3.08-2.671-4.929v-24.03c0-1.972 1.145-2.834 2.671-1.972l33.318 18.608c1.526.863 2.671 3.081 2.671 4.929v24.031c0 1.971-1.145 2.834-2.671 2.095z"/>
  <path fill="#fff" d="M248.818 177.287c0 1.355-1.017 1.972-2.289 1.232-1.271-.739-2.289-2.341-2.289-3.82 0-1.356 1.018-1.972 2.289-1.232 1.272.739 2.289 2.464 2.289 3.82zM255.686 181.107c0 1.356-1.018 1.972-2.29 1.233-1.271-.74-2.289-2.342-2.289-3.821 0-1.355 1.018-1.971 2.289-1.232 1.272.739 2.29 2.465 2.29 3.82zM262.553 184.927c0 1.356-1.018 1.972-2.289 1.232-1.272-.739-2.289-2.341-2.289-3.82 0-1.355 1.017-1.972 2.289-1.232 1.271.739 2.289 2.464 2.289 3.82z"/>
</svg>