<svg xmlns="http://www.w3.org/2000/svg" fill="none" viewBox="0 0 744 659"><defs><clipPath id="ClipPath-1"><path d="M0 0l-5 65h-13l10.7-68c0 0 7.3 3.5 7.3 3Z" fill="#d4ecff" fill-rule="evenodd" fill-opacity="0" transform="translate(409,268)" style="animation: 5s linear infinite both pwaycas1vi8fjwtlk8vk8n93_d;"/></clipPath><mask id="Mask-1"><path fill="#5793ce" d="M5-0.1l57 30v129l-59-33Z" transform="translate(-6.9,-5)" style="animation: 5s linear infinite both i1lbmedpwvb7424v6pg89fzv_d;"/></mask></defs><style>
  @keyframes yh7gz8k2hyjni68qyhsmk8f6_fo { 0% { fill-opacity: 0; } 18% { fill-opacity: 0; } 80% { fill-opacity: 1; } 100% { fill-opacity: 1; } }
  @keyframes pwaycas1vi8fjwtlk8vk8n93_d { 0% { d: path('M0,0L-5,65L-18,65L-7.3,-3C-7.3,-3,0,.5,0,0Z'); } 18% { d: path('M0,0L-5,65L-18,65L-7.3,-3C-7.3,-3,0,.5,0,0Z'); } 80% { d: path('M0,0L-5,65L69,94L79.7,26C79.7,26,0,.5,0,0Z'); } 100% { d: path('M0,0L-5,65L69,94L79.7,26C79.7,26,0,.5,0,0Z'); } }
  @keyframes p0kui5j70c5k2c3trt48rp9j_t { 0% { transform: translate(-348.9px,-89.9px); } 40% { transform: translate(-348.9px,-87.9px); animation-timing-function: cubic-bezier(0,0,1,1); } 100% { transform: translate(-348.9px,-343.2px); } }
  @keyframes sjcbttgumutrapvesck9zsxf_t { 0% { transform: translate(-348.9px,-77px); } 60% { transform: translate(-348.9px,-338.4px); } 100% { transform: translate(-348.9px,-338.4px); } }
  @keyframes i1lbmedpwvb7424v6pg89fzv_d { 0% { d: path('M5,-0.1L62,29.9L62,158.9L3,125.9Z'); } 100% { d: path('M5,-0.1L62,29.9L62,158.9L3,125.9Z'); } }
  @keyframes lij3ukotaxnyt9frpzuvqnnc_t { 0% { transform: translate(265.5px,312px) rotate(0deg) rotate(.7deg) translate(-35.7px,-2.8px); } 8% { transform: translate(265.5px,312px) rotate(0deg) rotate(4.7deg) translate(-35.7px,-2.8px); } 20% { transform: translate(265.5px,312px) rotate(0deg) rotate(-0.8deg) translate(-35.7px,-2.8px); } 28% { transform: translate(265.5px,312px) rotate(0deg) rotate(5.2deg) translate(-35.7px,-2.8px); } 36% { transform: translate(265.5px,312px) rotate(0deg) rotate(.2deg) translate(-35.7px,-2.8px); } 44% { transform: translate(265.5px,312px) rotate(0deg) rotate(4deg) translate(-35.7px,-2.8px); } 52% { transform: translate(265.5px,312px) rotate(0deg) rotate(8.3deg) translate(-35.7px,-2.8px); } 60% { transform: translate(265.5px,312px) rotate(0deg) rotate(0deg) translate(-35.7px,-2.8px); } 68% { transform: translate(265.5px,312px) rotate(0deg) rotate(3.9deg) translate(-35.7px,-2.8px); } 76% { transform: translate(265.5px,312px) rotate(0deg) rotate(.7deg) translate(-35.7px,-2.8px); } 88% { transform: translate(265.5px,312px) rotate(0deg) rotate(4.7deg) translate(-35.7px,-2.8px); } 100% { transform: translate(265.5px,312px) rotate(0deg) rotate(-0.8deg) translate(-35.7px,-2.8px); } }
  @keyframes cpzmuzptg4a05ps4spq58vuf_d { 0% { d: path('M256.2,311.6L256.2,321.2C256.2,322.3,255.7,323.3,254.9,324.1L234.2,342.2L236.9,345.4L263.6,326.6C264.8,325.8,265.6,324.4,265.7,322.9L267.5,306.3L256.2,311.6Z'); } 100% { d: path('M256.2,311.6L256.2,321.2C256.2,322.3,255.7,323.3,254.9,324.1L234.2,342.2L236.9,345.4L263.6,326.6C264.8,325.8,265.6,324.4,265.7,322.9L267.5,306.3L256.2,311.6Z'); } }
  @keyframes oizw6v5kushkqel2cr8tiib9_t { 0% { transform: translate(-226px,-306.3px); } 100% { transform: translate(-226px,-306.3px); } }
  @keyframes oizw6v5kushkqel2cr8tiib9_d { 0% { d: path('M236.9,345.4L236.4,346.5C235.7,347.7,234.8,348.7,233.6,349.4L230.3,351.4C229.2,352,228,352,226.9,351.5C226.9,351.5,226.8,351.5,226.8,351.4C225.8,350.8,225.7,349.3,226.6,348.5L230,345.1C230,345.1,228.1,346.5,227.6,346C227.2,345.6,229.5,343.5,231.1,343.5C232.9,343.4,234.2,342.2,234.2,342.2L236.9,345.4Z'); } 100% { d: path('M236.9,345.4L236.4,346.5C235.7,347.7,234.8,348.7,233.6,349.4L230.3,351.4C229.2,352,228,352,226.9,351.5C226.9,351.5,226.8,351.5,226.8,351.4C225.8,350.8,225.7,349.3,226.6,348.5L230,345.1C230,345.1,228.1,346.5,227.6,346C227.2,345.6,229.5,343.5,231.1,343.5C232.9,343.4,234.2,342.2,234.2,342.2L236.9,345.4Z'); } }
  @keyframes m0le7cgivjzshpdp4j5o6hkx_t { 0% { transform: translate(217.5px,296.5px) rotate(0deg) rotate(-4.3deg) translate(-219.5px,-297px); } 4% { transform: translate(217.5px,296.5px) rotate(0deg) rotate(9.8deg) translate(-219.5px,-297px); } 20% { transform: translate(217.5px,296.5px) rotate(0deg) rotate(2.7deg) translate(-219.5px,-297px); } 28% { transform: translate(217.5px,296.5px) rotate(0deg) rotate(-4.5deg) translate(-219.5px,-297px); } 36% { transform: translate(217.5px,296.5px) rotate(0deg) rotate(2.2deg) translate(-219.5px,-297px); } 44% { transform: translate(217.5px,296.5px) rotate(0deg) rotate(-0.8deg) translate(-219.5px,-297px); } 52% { transform: translate(217.5px,296.5px) rotate(0deg) rotate(3.6deg) translate(-219.5px,-297px); } 60% { transform: translate(217.5px,296.5px) rotate(0deg) rotate(.4deg) translate(-219.5px,-297px); } 68% { transform: translate(217.5px,296.5px) rotate(0deg) rotate(.1deg) translate(-219.5px,-297px); } 76% { transform: translate(217.5px,296.5px) rotate(0deg) rotate(-4.3deg) translate(-219.5px,-297px); } 84% { transform: translate(217.5px,296.5px) rotate(0deg) rotate(9.8deg) translate(-219.5px,-297px); } 100% { transform: translate(217.5px,296.5px) rotate(0deg) rotate(2.7deg) translate(-219.5px,-297px); } }
  @keyframes vflv83onjadxfv479j4to3ix_t { 0% { transform: translate(536.5px,259.9px) rotate(0deg) rotate(0deg) translate(-536.5px,-259.9px); } 18% { transform: translate(536.5px,259.9px) rotate(0deg) rotate(0deg) translate(-536.5px,-259.9px); } 18.02% { transform: translate(536.5px,259.9px) rotate(0deg) rotate(.1deg) translate(-536.5px,-259.9px); } 80% { transform: translate(536.5px,259.9px) rotate(0deg) rotate(283deg) translate(-536.5px,-259.9px); } 100% { transform: translate(536.5px,259.9px) rotate(0deg) rotate(283deg) translate(-536.5px,-259.9px); } }
</style><rect width="964.4" height="202.3" fill="#26242f" rx="101.1" transform="translate(-241.4,65.2) rotate(-30) translate(.9,483)"/><rect width="164.1" height="98.5" fill="#26242f" opacity=".7" rx="49.2" transform="translate(-103,81.7) rotate(-30) translate(101,233.1)"/><rect width="185.9" height="92.6" fill="#26242f" opacity=".7" rx="46.3" transform="translate(-236.4,253.6) rotate(-30) translate(355,567.9)"/><path fill="#d4ecff" d="M301 297.3l18.5-10.3l-18.5-10.5l-18.6 10.5l-18.6 10.3l18.6 10.4l18.6 10.4l18.5-10.4l-18.5-10.4Z"/><path fill="#173d7a" d="M301 271.4v-76.2l18.5-10.4v76.2l-18.5 10.4Z"/><path fill="#396caa" d="M301 195.2l-18.6-10.4v76.2l18.6 10.4v-76.2Z"/><path fill="#d4ecff" d="M319.5 184.8l-18.5-10.3l-18.6 10.3l18.6 10.4l18.5-10.4Z"/><path fill="#95d359" d="M319.5 274.9l-18.5-10.4v6.9l18.5 10.4v-6.9Z"/><path fill="#c13d1a" d="M282.4 281.8v-55.5l18.6-10.3v55.4l-18.6 10.4Z"/><path fill="#db5126" d="M282.4 226.3l-18.6-10.3v55.4l18.6 10.4v-55.5Z"/><path fill="#ef602e" d="M301 216l-18.6-10.4l-18.6 10.4l18.6 10.3l18.6-10.3Z"/><path fill="#396caa" d="M282.4 281.8v-55.5l18.6-10.3v55.4l-18.6 10.4Z"/><path fill="#5793ce" d="M282.4 226.3l-18.6-10.3v55.4l18.6 10.4v-55.5Z"/><path fill="#d4ecff" d="M301 216l-18.6-10.4l-18.6 10.4l18.6 10.3l18.6-10.3Z"/><path fill="#173d7a" d="M301 292.1v-31.1l18.5-10.4v31.2l-18.5 10.3Z"/><path fill="#396caa" d="M301 261l-18.6-10.4v31.2l18.6 10.3v-31.1Z"/><path fill="#d4ecff" d="M319.5 250.6l-18.5-10.3l-18.6 10.3l18.6 10.4l18.5-10.4Z"/><path fill="#5793ce" d="M544.7 332.6l-0.5-2l-6.3 1.5l.5 2l6.3-1.5Zm-3.2 3.2l-0.5-2.2l-6.3 1.6l.5 2.1l6.3-1.5Z"/><path fill="#5793ce" d="M538.4 338.7l-0.6-2.1l-6.3 1.6l.6 2l6.3-1.5Zm-3.3 3l-0.5-2l-6.3 1.5l.5 2.1l6.3-1.6Z"/><path fill="#d4ecff" d="M379 486.2l-140.2-78.5c-4-2.2-3.5-6 1.1-8.6l95.5-53.5c4.6-2.6 11.6-2.8 15.5-0.6l140.3 78.5c3.9 2.2 3.4 6-1.1 8.6l-95.5 53.5c-4.6 2.6-11.6 2.8-15.6 .6Z"/><path fill="#173d7a" d="M496.3 269.1l-142.6-79.7c-1.7-1-3.5-1.3-4.8-0.7l-0.2 .2l-4.8 2.1l5.1 2.4v113.8c0 5.6 3.7 12.3 8.2 14.8l138.7 77.6l.8 6.3l5.1-2.4c1.6-0.9 2.6-3 2.6-6.1v-113.5c0-5.7-3.7-12.3-8.1-14.8Z"/><path fill="#396caa" d="M496.3 269.1l-142.6-79.7c-1.7-1-3.5-1.3-4.8-0.7l-0.2 .2l-4.8 2.1l5.1 2.4v75.1l64.9 49.6l88.1-43c-1.5-2.6-3.4-4.8-5.7-6Z"/><path fill="#274f89" d="M498.7 270.9l-14 5.7l10.6 7.9l8.8-3.6c-0.8-3.8-2.8-7.5-5.4-10Z"/><path fill="#d4ecff" d="M491.7 405.3l-142.7-79.6c-4.4-2.5-8.1-9.2-8.1-14.8v-113.5c0-5.7 3.6-8.3 8.1-5.8l142.6 79.7c4.4 2.5 8.1 9.1 8.1 14.8v113.5c0 5.7-3.5 8.3-8 5.7Z"/><path fill="#fff" d="M486.9 396.9l-133.2-74.4c-4-2.4-7.3-8.4-7.3-13.6v-103.9c0-5.2 3.3-7.5 7.3-5.3l133.2 74.4c4.1 2.4 7.4 8.4 7.4 13.6v103.9c.1 5.2-3.2 7.6-7.4 5.3Z"/><path fill="#fff" d="M486.9 396.9l-133.2-74.4c-4-2.4-7.3-8.4-7.3-13.6v-103.9c0-5.2 3.3-7.5 7.3-5.3l133.2 74.4c4.1 2.4 7.4 8.4 7.4 13.6v103.9c.1 5.2-3.2 7.6-7.4 5.3Z"/><path fill="#173d7a" d="M493.9 408.8l-19.2-2.4l-123.8-69.3c-3.9-2.2-10.9-2-15.5 .6l-87.7 49.1l-11.6-1.5v6.4c-0.1 1.5 .8 2.8 2.7 4l140.2 78.5c4 2.2 11 1.9 15.6-0.7l95.5-53.4c2.5-1.5 3.8-3.4 3.8-5.1v-6.2Z"/><path fill="#396caa" d="M400.8 365.1l-8.8-4.9h-96.6l-47.7 26.6l-11.6-1.5v6.4c-0.1 1.5 .8 2.8 2.7 4l140.2 78.5c2.1 1.2 5 1.6 8.1 1.4l13.7-110.5Z"/><path fill="#5793ce" d="M241.2 386l-5.1-0.6v6.4c-0.1 1.5 .8 2.9 2.7 4l2.4 1.3v-11.1Z"/><path fill="#274f89" d="M380.4 474.8c3.9 1.3 9.2 1.1 13.1-0.8v-14.1h-13.1v14.9Z"/><path fill="#d4ecff" d="M379 467.7l-140.2-78.5c-4-2.2-3.5-6 1.1-8.6l95.5-53.5c4.6-2.6 11.6-2.8 15.5-0.6l140.3 78.5c3.9 2.2 3.4 6.1-1.1 8.6l-95.5 53.5c-4.6 2.6-11.6 2.9-15.6 .6Z"/><path fill="#fff" d="M490.1 411.4l-95.5 53.5c-4.6 2.6-11.6 2.8-15.6 .6l-140.2-78.6c-1.3-0.7-2.2-1.6-2.4-2.6c-0.7 1.9 .1 3.7 2.4 4.9l140.2 78.5c4 2.3 11 2 15.6-0.6l95.5-53.5c3-1.7 4.3-4 3.5-6c-0.5 1.4-1.6 2.7-3.5 3.8Z"/><path fill="#173d7a" d="M298.4 363.2l-6.3-3.5c-0.6-0.3-0.6-0.8 .1-1.1l7.5-4.2c.6-0.4 1.5-0.4 2-0.2l6.4 3.6c.5 .3 .5 .8-0.1 1.1l-7.5 4.2c-0.7 .4-1.6 .5-2.1 .1Zm9.8 5.6l-6.4-3.6c-0.5-0.2-0.5-0.7 .2-1.1l7.5-4.2c.6-0.4 1.5-0.4 2-0.1l6.4 3.6c.5 .2 .5 .7-0.2 1.1l-7.5 4.2c-0.6 .3-1.5 .3-2 .1Zm9.8 5.4l-6.4-3.6c-0.5-0.2-0.5-0.7 .2-1.1l7.5-4.2c.6-0.3 1.5-0.3 2-0.1l6.4 3.6c.5 .2 .5 .7-0.2 1.1l-7.5 4.2c-0.6 .4-1.5 .5-2 .1Zm13.6-4.4l-6.4-3.6c-0.5-0.2-0.5-0.7 .2-1.1l6.2-3.6c.6-0.4 1.5-0.4 2-0.1l6.4 3.6c.5 .2 .5 .7-0.1 1.1l-6.3 3.6c-0.6 .3-1.5 .3-2 .1Zm9.8 5.4l-6.4-3.6c-0.5-0.2-0.5-0.7 .2-1.1l6.2-3.6c.6-0.3 1.5-0.3 2-0.1l6.4 3.6c.5 .2 .5 .7-0.1 1.1l-6.3 3.6c-0.6 .3-1.5 .5-2 .1Zm9.8 5.5l-6.4-3.5c-0.5-0.3-0.5-0.8 .2-1.1l6.2-3.6c.6-0.4 1.5-0.4 2-0.1l6.4 3.5c.5 .3 .5 .8-0.1 1.1l-6.3 3.6c-0.6 .4-1.5 .4-2 .1Zm9.8 5.5l-6.4-3.6c-0.5-0.3-0.5-0.7 .2-1.1l6.2-3.6c.6-0.4 1.5-0.4 2-0.1l6.4 3.6c.5 .2 .5 .7-0.2 1.1l-6.2 3.5c-0.6 .4-1.5 .5-2 .2Zm9.8 5.5l-6.4-3.6c-0.5-0.2-0.5-0.7 .1-1.1l6.3-3.5c.6-0.4 1.5-0.4 2-0.2l6.4 3.6c.5 .3 .5 .7-0.2 1.1l-6.2 3.6c-0.6 .4-1.5 .4-2 .1Zm9.8 5.4l-6.4-3.5c-0.5-0.3-0.5-0.8 .1-1.1l6.3-3.6c.6-0.4 1.5-0.4 2-0.1l6.4 3.5c.5 .3 .5 .8-0.2 1.1l-6.2 3.6c-0.6 .4-1.5 .5-2 .1Zm9.8 5.6l-6.4-3.6c-0.5-0.2-0.5-0.7 .1-1.1l6.3-3.6c.6-0.3 1.5-0.3 2-0.1l6.4 3.6c.5 .2 .5 .7-0.2 1.1l-6.2 3.6c-0.6 .3-1.5 .3-2 .1Zm9.8 5.4l-6.4-3.6c-0.5-0.2-0.5-0.7 .1-1.1l6.3-3.6c.6-0.3 1.5-0.3 2-0.1l6.3 3.6c.6 .2 .6 .7-0.1 1.1l-6.2 3.6c-0.7 .3-1.5 .5-2 .1Zm9.7 5.5l-6.3-3.5c-0.5-0.3-0.5-0.8 .1-1.1l6.2-3.6c.7-0.4 1.6-0.4 2.1-0.1l6.3 3.5c.5 .3 .5 .8-0.1 1.1l-6.2 3.6c-0.7 .4-1.5 .4-2.1 .1Zm9.8 5.5l-6.3-3.6c-0.5-0.3-0.5-0.7 .1-1.1l6.2-3.6c.7-0.4 1.6-0.4 2.1-0.1l6.3 3.6c.5 .2 .5 .7-0.1 1.1l-6.2 3.5c-0.7 .4-1.6 .5-2.1 .2Z"/><path fill="#396caa" d="M346 367.2l-6.4-3.6c-0.5-0.2-0.5-0.7 .1-1.1l6.3-3.6c.6-0.3 1.5-0.3 2-0.1l6.4 3.6c.5 .2 .5 .7-0.2 1.1l-6.2 3.6c-0.6 .3-1.5 .3-2 .1Zm-9.9-5.7l-6.4-3.6c-0.5-0.2-0.5-0.7 .1-1.1l6.3-3.5c.6-0.4 1.5-0.4 2-0.2l6.4 3.6c.5 .3 .5 .8-0.2 1.1l-6.2 3.6c-0.6 .4-1.5 .5-2 .1Z"/><path fill="#173d7a" d="M326.1 356l-13.6-7.7c-0.5-0.2-0.5-0.7 .2-1.1l6.2-3.5c.6-0.4 1.5-0.4 2-0.2l13.6 7.7c.5 .2 .5 .7-0.1 1.1l-6.2 3.6c-0.7 .3-1.6 .4-2.1 .1Zm6.9-6.8l-11.1-6.2c-0.5-0.2-0.5-0.7 .2-1.1l6.2-3.5c.6-0.4 1.5-0.4 2-0.2l11.1 6.2c.5 .2 .5 .7-0.1 1.1l-6.3 3.6c-0.6 .3-1.5 .5-2 .1Z"/><path fill="#396caa" d="M355.8 372.6l-6.4-3.6c-0.5-0.2-0.5-0.7 .1-1.1l6.3-3.5c.6-0.4 1.5-0.4 2-0.2l6.4 3.6c.5 .3 .5 .7-0.2 1.1l-6.2 3.6c-0.6 .4-1.5 .4-2 .1Z"/><path fill="#173d7a" d="M365.6 378.2l-6.4-3.6c-0.5-0.3-0.5-0.8 .1-1.1l6.3-3.6c.6-0.4 1.5-0.4 2-0.1l6.4 3.6c.5 .2 .5 .7-0.2 1.1l-6.2 3.5c-0.6 .4-1.5 .4-2 .2Zm9.8 5.4l-6.4-3.6c-0.5-0.2-0.5-0.7 .1-1.1l6.3-3.6c.6-0.3 1.5-0.3 2-0.1l6.3 3.6c.6 .2 .6 .7-0.1 1.1l-6.2 3.6c-0.6 .3-1.5 .3-2 .1Zm9.9 5.5l-6.4-3.6c-0.5-0.2-0.5-0.7 .1-1.1l6.3-3.5c.6-0.4 1.5-0.4 2-0.2l6.4 3.6c.5 .3 .5 .8-0.2 1.1l-6.2 3.6c-0.6 .4-1.5 .4-2 .1Zm9.8 5.4l-6.4-3.5c-0.5-0.3-0.5-0.8 .1-1.1l6.3-3.6c.6-0.4 1.5-0.4 2-0.1l6.4 3.5c.5 .3 .5 .8-0.2 1.1l-6.2 3.6c-0.6 .4-1.5 .4-2 .1Zm9.8 5.6l-6.4-3.6c-0.5-0.2-0.5-0.7 .1-1.1l6.3-3.6c.6-0.3 1.5-0.3 2-0.1l6.4 3.6c.5 .2 .5 .7-0.2 1.1l-6.2 3.6c-0.6 .3-1.5 .3-2 .1Zm9.7 5.4l-6.3-3.6c-0.5-0.2-0.5-0.7 .1-1.1l6.2-3.5c.7-0.4 1.6-0.4 2.1-0.2l6.3 3.6c.6 .3 .6 .7-0.1 1.1l-6.2 3.6c-0.7 .4-1.5 .4-2.1 .1Zm9.8 5.6l-6.3-3.6c-0.5-0.3-0.5-0.8 .1-1.1l6.2-3.6c.7-0.4 1.6-0.4 2.1-0.1l6.3 3.6c.5 .2 .5 .7-0.1 1.1l-6.2 3.5c-0.7 .4-1.5 .4-2.1 .2Zm9.8 5.4l-6.3-3.6c-0.5-0.2-0.5-0.7 .1-1.1l6.2-3.6c.7-0.3 1.6-0.3 2.1-0.1l6.3 3.6c.5 .2 .5 .7-0.1 1.1l-6.2 3.6c-0.7 .3-1.6 .3-2.1 .1Zm17.5 9.7l-13.9-7.7c-0.5-0.3-0.5-0.8 .1-1.2l6.3-3.5c.6-0.4 1.5-0.4 2-0.2l13.9 7.8c.5 .3 .5 .7-0.2 1.1l-6.2 3.6c-0.6 .4-1.5 .5-2 .1Zm19-10.6l-11.7-6.5c-0.5-0.3-0.5-0.8 .2-1.1l6.2-3.6c.6-0.4 1.5-0.4 2-0.1l11.7 6.5c.5 .3 .5 .8-0.1 1.1l-6.2 3.6c-0.7 .4-1.6 .4-2.1 .1Zm-97.8-44.1l-6.3-3.6c-0.5-0.2-0.5-0.7 .1-1.1l6.2-3.6c.7-0.3 1.6-0.3 2.1-0.1l6.3 3.6c.5 .2 .5 .7-0.1 1.1l-6.2 3.6c-0.7 .3-1.6 .5-2.1 .1Zm-10-5.5l-6.4-3.6c-0.5-0.3-0.5-0.8 .2-1.1l6.2-3.6c.6-0.4 1.5-0.4 2-0.1l6.4 3.6c.5 .2 .5 .7-0.1 1.1l-6.3 3.5c-0.6 .4-1.5 .4-2 .2Z"/><path fill="#396caa" d="M352.8 360.3l-6.3-3.6c-0.5-0.2-0.5-0.7 .1-1.1l6.2-3.6c.7-0.3 1.6-0.3 2.1-0.1l6.3 3.6c.5 .2 .5 .7-0.1 1.1l-6.2 3.6c-0.7 .3-1.5 .5-2.1 .1Z"/><path fill="#173d7a" d="M342.8 354.7l-6.4-3.5c-0.5-0.3-0.5-0.8 .2-1.1l6.2-3.6c.6-0.4 1.5-0.4 2-0.1l6.4 3.5c.5 .3 .5 .8-0.1 1.1l-6.3 3.6c-0.6 .4-1.5 .4-2 .1Zm39.9 22.3l-6.3-3.5c-0.5-0.3-0.5-0.8 .1-1.1l6.2-3.6c.7-0.4 1.6-0.4 2.1-0.1l6.3 3.5c.5 .3 .5 .8-0.1 1.1l-6.2 3.6c-0.7 .4-1.6 .4-2.1 .1Zm9.8 5.5l-6.3-3.6c-0.5-0.3-0.5-0.7 .1-1.1l6.2-3.6c.7-0.4 1.6-0.4 2.1-0.1l6.3 3.6c.5 .2 .5 .7-0.1 1.1l-6.2 3.5c-0.7 .4-1.6 .5-2.1 .2Zm9.9 5.5l-6.3-3.6c-0.5-0.2-0.5-0.7 .1-1.1l6.2-3.5c.7-0.4 1.6-0.4 2.1-0.2l6.3 3.6c.5 .3 .5 .7-0.1 1.1l-6.2 3.6c-0.7 .4-1.6 .4-2.1 .1Zm9.8 5.4l-6.3-3.5c-0.5-0.3-0.5-0.8 .1-1.1l6.2-3.6c.7-0.4 1.6-0.4 2.1-0.1l6.3 3.5c.5 .3 .5 .8-0.1 1.1l-6.2 3.6c-0.7 .4-1.6 .5-2.1 .1Zm9.8 5.6l-6.3-3.6c-0.5-0.2-0.5-0.7 .1-1.1l6.2-3.6c.7-0.3 1.6-0.3 2.1-0.1l6.3 3.6c.5 .2 .5 .7-0.1 1.1l-6.2 3.6c-0.7 .3-1.6 .3-2.1 .1Zm9.8 5.4l-6.3-3.6c-0.5-0.2-0.5-0.7 .1-1.1l6.2-3.6c.7-0.3 1.5-0.3 2.1-0.1l6.3 3.6c.5 .2 .5 .7-0.1 1.1l-6.2 3.6c-0.7 .4-1.6 .5-2.1 .1Zm9.8 5.5l-6.3-3.5c-0.6-0.3-0.6-0.8 .1-1.1l6.2-3.6c.6-0.4 1.5-0.4 2-0.1l6.4 3.5c.5 .3 .5 .8-0.1 1.2l-6.3 3.5c-0.6 .4-1.5 .4-2 .1Zm9.8 5.5l-6.4-3.6c-0.5-0.2-0.5-0.7 .2-1.1l6.2-3.6c.6-0.4 1.5-0.4 2-0.1l6.4 3.6c.5 .2 .5 .7-0.1 1.1l-6.3 3.5c-0.6 .4-1.5 .5-2 .2Zm9.8 5.5l-6.4-3.6c-0.5-0.2-0.5-0.7 .2-1.1l6.2-3.5c.6-0.4 1.5-0.4 2-0.2l6.4 3.6c.5 .3 .5 .8-0.1 1.1l-6.3 3.6c-0.6 .4-1.5 .4-2 .1Zm-93.4-63l-6.3-3.5c-0.5-0.3-0.5-0.8 .1-1.1l6.2-3.6c.7-0.4 1.6-0.4 2.1-0.1l6.3 3.5c.6 .3 .6 .8-0.1 1.1l-6.2 3.6c-0.7 .4-1.5 .5-2.1 .1Zm-9.7-5.4l-6.4-3.6c-0.5-0.2-0.5-0.7 .1-1.1l6.3-3.5c.6-0.4 1.5-0.4 2-0.2l6.4 3.6c.5 .3 .5 .8-0.2 1.1l-6.2 3.6c-0.6 .4-1.5 .4-2 .1Zm-9.8-5.4l-6.4-3.6c-0.5-0.2-0.5-0.7 .1-1.1l6.3-3.6c.6-0.3 1.5-0.3 2-0.1l6.4 3.6c.5 .2 .5 .7-0.2 1.1l-6.2 3.6c-0.6 .3-1.5 .3-2 .1Zm-9.7-5.4l-6.4-3.6c-0.5-0.2-0.5-0.7 .2-1.1l6.2-3.6c.6-0.3 1.5-0.3 2-0.1l6.4 3.6c.5 .2 .5 .7-0.1 1.1l-6.3 3.6c-0.6 .3-1.5 .3-2 .1Zm9.9-5.7l-6.3-3.6c-0.5-0.2-0.5-0.7 .1-1.1l2-1.1c.7-0.4 1.5-0.4 2.1-0.1l6.3 3.6c.5 .2 .5 .7-0.1 1.1l-2 1.1c-0.7 .4-1.6 .4-2.1 .1Zm12.9 7.2l-6.4-3.6c-0.5-0.3-0.5-0.8 .1-1.1l2.1-1.1c.6-0.4 1.5-0.4 2-0.2l6.4 3.6c.5 .3 .5 .8-0.2 1.1l-2 1.1c-0.6 .4-1.5 .4-2 .2Zm9.6 5.4l-6.3-3.6c-0.5-0.2-0.5-0.7 .1-1.1l2-1.1c.7-0.4 1.6-0.4 2.1-0.1l6.3 3.5c.5 .3 .5 .8-0.1 1.1l-2 1.2c-0.7 .3-1.6 .3-2.1 .1Zm9.7 5.4l-6.4-3.6c-0.5-0.2-0.5-0.7 .2-1.1l2-1.1c.6-0.4 1.5-0.4 2-0.1l6.4 3.6c.5 .2 .5 .7-0.1 1.1l-2.1 1.1c-0.6 .3-1.5 .3-2 .1Zm9.8 5.4l-6.4-3.5c-0.5-0.3-0.5-0.8 .2-1.2l2-1.1c.6-0.3 1.5-0.3 2-0.1l6.4 3.6c.5 .2 .5 .7-0.1 1.1l-2.1 1.1c-0.6 .4-1.5 .4-2 .1Zm54.2 30.3l-6.4-3.5c-0.5-0.3-0.5-0.8 .1-1.1l2.1-1.2c.6-0.3 1.5-0.3 2-0.1l6.4 3.6c.5 .2 .5 .7-0.2 1.1l-2 1.1c-0.6 .4-1.5 .5-2 .1Zm9.6 5.5l-6.3-3.6c-0.5-0.3-0.5-0.8 .1-1.1l2-1.1c.7-0.4 1.6-0.4 2.1-0.2l6.3 3.6c.5 .3 .5 .8-0.1 1.1l-2 1.1c-0.7 .4-1.6 .5-2.1 .2Zm9.8 5.4l-6.3-3.6c-0.5-0.2-0.5-0.7 .1-1.1l2-1.1c.7-0.4 1.5-0.4 2.1-0.1l6.3 3.5c.5 .3 .5 .8-0.1 1.2l-2 1.1c-0.7 .3-1.6 .5-2.1 .1Zm9.7 5.5l-6.4-3.5c-0.5-0.3-0.5-0.8 .2-1.2l2-1.1c.6-0.3 1.5-0.3 2-0.1l6.4 3.6c.5 .2 .5 .7-0.1 1.1l-2.1 1.1c-0.6 .4-1.5 .4-2 .1Zm-96.2-42.6l-6.3-3.6c-0.5-0.2-0.5-0.7 .1-1.1l6.2-3.6c.7-0.3 1.6-0.3 2.1-0.1l6.3 3.6c.5 .2 .5 .7-0.1 1.1l-6.2 3.6c-0.7 .3-1.5 .3-2.1 .1Zm9.8 5.4l-6.3-3.6c-0.5-0.2-0.5-0.7 .1-1.1l6.2-3.5c.7-0.4 1.6-0.4 2.1-0.2l6.3 3.6c.5 .3 .5 .7-0.1 1.1l-6.2 3.6c-0.7 .4-1.6 .5-2.1 .1Zm9.8 5.6l-6.3-3.6c-0.5-0.3-0.5-0.8 .1-1.1l6.2-3.6c.7-0.4 1.6-0.4 2.1-0.1l6.3 3.6c.5 .2 .5 .7-0.1 1.1l-6.2 3.5c-0.7 .4-1.6 .4-2.1 .2Zm9.8 5.4l-6.3-3.6c-0.5-0.2-0.5-0.7 .1-1.1l6.2-3.6c.7-0.3 1.5-0.3 2.1-0.1l6.3 3.6c.5 .2 .5 .7-0.1 1.1l-6.2 3.6c-0.7 .3-1.6 .5-2.1 .1Zm9.8 5.5l-6.3-3.5c-0.6-0.3-0.6-0.8 .1-1.2l6.2-3.5c.6-0.4 1.5-0.4 2-0.2l6.4 3.6c.5 .3 .5 .8-0.1 1.1l-6.3 3.6c-0.6 .4-1.5 .4-2 .1Zm9.8 5.4l-6.4-3.5c-0.5-0.3-0.5-0.8 .2-1.1l6.2-3.6c.6-0.4 1.5-0.4 2-0.1l6.4 3.5c.5 .3 .5 .8-0.1 1.2l-6.3 3.5c-0.6 .4-1.5 .5-2 .1Zm9.8 5.6l-6.4-3.6c-0.5-0.2-0.5-0.7 .2-1.1l6.2-3.6c.6-0.3 1.5-0.3 2-0.1l6.4 3.6c.5 .2 .5 .7-0.1 1.1l-6.3 3.6c-0.6 .3-1.5 .3-2 .1Zm9.8 5.4l-6.4-3.6c-0.5-0.2-0.5-0.7 .2-1.1l6.2-3.5c.6-0.4 1.5-0.4 2-0.2l6.4 3.6c.5 .3 .5 .7-0.1 1.1l-6.3 3.6c-0.6 .4-1.5 .5-2 .1Zm9.8 5.6l-6.4-3.6c-0.5-0.3-0.5-0.8 .1-1.1l6.3-3.6c.6-0.4 1.5-0.4 2-0.1l6.4 3.6c.5 .2 .5 .7-0.2 1.1l-6.2 3.5c-0.6 .4-1.5 .4-2 .2Zm-134.4-43.3l-18.7-10.5c-0.5-0.2-0.5-0.7 .1-1.1l6.2-3.5c.7-0.4 1.6-0.4 2.1-0.2l18.7 10.5c.5 .2 .5 .7-0.2 1.1l-6.2 3.6c-0.6 .4-1.5 .5-2 .1Zm120.4 67.4l-18.7-10.5c-0.5-0.2-0.5-0.7 .1-1.1l6.3-3.5c.6-0.4 1.5-0.4 2-0.2l18.7 10.5c.5 .3 .5 .7-0.1 1.1l-6.3 3.6c-0.6 .4-1.5 .4-2 .1Zm-39.2-9.8l-6.3-3.6c-0.5-0.3-0.5-0.8 .1-1.1l7.5-4.2c.6-0.4 1.5-0.4 2-0.1l6.4 3.5c.5 .3 .5 .8-0.1 1.1l-7.5 4.2c-0.7 .4-1.6 .5-2.1 .2Zm-71.2-39.8l-10.2-5.7c-0.5-0.3-0.5-0.8 .2-1.1l7.5-4.2c.6-0.4 1.5-0.4 2-0.1l10.2 5.6c.5 .3 .5 .8-0.2 1.1l-7.5 4.2c-0.6 .4-1.5 .5-2 .2Zm61.8 34.6l-10.2-5.7c-0.5-0.2-0.5-0.7 .2-1.1l7.5-4.2c.6-0.4 1.5-0.4 2-0.1l10.2 5.7c.5 .2 .5 .7-0.2 1.1l-7.5 4.2c-0.6 .3-1.5 .3-2 .1Zm-47.7-26.8l-10.2-5.6c-0.5-0.3-0.5-0.8 .2-1.1l7.5-4.2c.6-0.4 1.5-0.4 2-0.2l10.2 5.7c.5 .3 .5 .8-0.1 1.1l-7.5 4.2c-0.7 .4-1.6 .5-2.1 .1Z"/><path fill="#173d7a" d="M345.3 378.8l44.2 24.6c.5 .3 .5 .9 0 1.1l-7.7 4.3c-0.5 .3-1.4 .3-2 0l-44.1-24.6l9.6-5.4Zm84.9 52.8l7.1 4c.4 .2 .4 .6-0.1 .8l-3.1 1.8c-0.5 .2-1.3 .2-1.6 .1l-7.2-4c-0.3-0.2-0.3-0.6 .2-0.8l3-1.7c.5-0.4 1.3-0.4 1.7-0.2Zm-10-5.5l7.2 3.9c.3 .3 .3 .7-0.2 .9l-3 1.7c-0.5 .3-1.3 .3-1.7 .1l-7.1-3.9c-0.4-0.2-0.4-0.6 .1-0.9l3.1-1.7c.5-0.2 1.3-0.4 1.6-0.1Zm-9.7-5.4l7.1 3.9c.4 .3 .4 .6-0.2 .9l-3 1.7c-0.5 .2-1.3 .2-1.7 .1l-7.1-3.9c-0.4-0.3-0.4-0.6 .1-0.9l3.1-1.7c.5-0.4 1.3-0.4 1.7-0.1Zm15.2 2.4l7.1 4c.4 .2 .4 .6-0.1 .8l-3 1.8c-0.6 .2-1.3 .2-1.7 .1l-7.1-4c-0.4-0.2-0.4-0.6 .1-0.8l3.1-1.7c.5-0.4 1.2-0.4 1.6-0.2Z"/><path fill="#d4ecff" d="M436.3 288.1l-6.1-3.5c-0.5-0.3-1.1-1.1-1.1-1.8c0-0.8 .4-1.1 1.1-0.8l6.1 3.5c.5 .4 1 1.1 1 1.8c0 .8-0.5 1-1 .8Zm14.5 8.1l-8.9-5c-0.5-0.4-1.1-1.2-1.1-1.9c0-0.7 .4-1.1 1.1-0.7l8.9 5c.5 .4 1 1.1 1 1.9c-0.1 .6-0.5 1-1 .7Zm-17.6 23.2l-6.1-3.5c-0.5-0.3-1-1.1-1-1.8c0-0.8 .4-1.1 1-0.8l6.1 3.5c.5 .4 1 1.1 1 1.8c0 .8-0.3 1.1-1 .8Zm13 7.2l-8.9-5c-0.5-0.4-1-1.1-1-1.9c0-0.7 .3-1.1 1-0.7l8.9 5.1c.5 .3 1 1.1 1 1.8c-0.1 .7-0.5 1-1 .7Zm-26.6-42.3l-3.8-2.1c-0.5-0.4-1-1.2-1-1.9c0-0.7 .4-1.1 1-0.7l3.8 2.1c.5 .3 1 1.1 1 1.8c0 .8-0.5 1.1-1 .8Zm13 12.6l-11.6-6.5c-0.5-0.4-1-1.1-1-1.8c0-0.8 .4-1.1 1-0.8l11.6 6.6c.5 .3 1 1.1 1 1.8c0 .7-0.5 1.1-1 .7Zm-7.6 6.8l-3.9-2.1c-0.5-0.3-1-1.1-1-1.8c0-0.8 .4-1.1 1-0.8l3.9 2.1c.5 .4 1 1.1 1 1.9c0 .7-0.5 1.1-1 .7Zm25.6 36.5l-10.1-5.7c-0.5-0.3-1.1-1.1-1.1-1.8c0-0.8 .4-1.1 1.1-0.8l10.1 5.7c.5 .4 1.1 1.1 1.1 1.9c0 .6-0.6 .9-1.1 .7Zm-26.8-26.1l-2.4-1.4c-0.5-0.4-1-1.1-1-1.8c0-0.8 .4-1.1 1-0.8l2.4 1.4c.5 .4 1 1.1 1 1.8c0 .8-0.5 1.1-1 .8Zm.8 11.4l-3.1-1.7c-0.5-0.4-1-1.1-1-1.8c0-0.8 .4-1.1 1-0.8l3.1 1.7c.5 .4 1 1.2 1 1.9c0 .7-0.5 1.1-1 .7Zm11.7 6.7l-8-4.4c-0.6-0.4-1.1-1.2-1.1-1.9c0-0.7 .4-1.1 1.1-0.7l8 4.4c.5 .4 1 1.1 1 1.8c0 .8-0.4 1-1 .8Zm-8.9 .5l-5.8-3.2c-0.5-0.4-1-1.1-1-1.9c0-0.7 .4-1.1 1-0.7l5.8 3.2c.5 .4 1 1.1 1 1.8c0 .8-0.5 1-1 .8Zm31.9 12.3l-3.7-2.1c-0.5-0.4-1-1.1-1-1.8c0-0.8 .4-1.1 1-0.8l3.7 2.1c.5 .4 1 1.1 1 1.9c0 .7-0.4 1.1-1 .7Zm-20.2-33.4l-10.2-5.7c-0.5-0.3-1-1.1-1-1.8c0-0.7 .4-1.1 1-0.7l10.2 5.6c.5 .4 1 1.1 1 1.9c0 .7-0.5 1.1-1 .7Zm-0.4-5.7l-17.7-9.8c-0.5-0.4-1-1.1-1-1.9c0-0.7 .4-1.1 1-0.7l17.7 9.9c.5 .3 1 1.1 1 1.8c0 .7-0.4 1.1-1 .7Zm-7.4 6.9l-10.2-5.6c-0.5-0.4-1-1.1-1-1.9c0-0.7 .4-1.1 1-0.7l10.2 5.7c.5 .3 1 1.1 1 1.8c0 .7-0.4 1.1-1 .7Zm15.4 3.1l-3.7-2.1c-0.5-0.3-1-1.1-1-1.8c0-0.8 .4-1.1 1-0.8l3.7 2.1c.5 .4 1 1.1 1 1.9c0 .7-0.4 1.1-1 .7Zm31.3-4.5l-21.8-12.2c-0.5-0.4-1-1.1-1-1.9c0-0.7 .4-1.1 1-0.7l21.8 12.2c.5 .3 1 1.1 1 1.8c0 .8-0.4 1.1-1 .8Zm-44.4 13.8l-12.2-6.8c-0.5-0.4-1-1.1-1-1.9c0-0.7 .4-1.1 1-0.7l12.2 6.8c.5 .3 1 1.1 1 1.8c0 .8-0.5 1-1 .8Zm-8.9-43.7l-8.9-5c-0.5-0.4-1-1.1-1-1.9c0-0.7 .4-1.1 1-0.7l8.9 5.1c.5 .3 1 1.1 1 1.8c0 .7-0.5 1.1-1 .7Zm2.3 56.5l-10.4-5.8c-0.6-0.4-1.1-1.1-1.1-1.9c0-0.7 .4-1.1 1.1-0.7l10.4 5.8c.5 .4 1 1.1 1 1.8c0 .8-0.4 1.2-1 .8Zm-265 8.7l53.4-30c10.5-6 20.6-6.9 28.1-2.6c7.5 4.2 11.7 13 11.7 24.9v3.8c-0.4 .2-0.8 .5-1.2 .7v-4.7c0-11.4-3.9-19.8-11-23.9c-7.2-3.9-16.7-3-27 2.6l-53.4 30.1c-0.3 .1-0.6 .1-0.8-0.3c-0.2-0.1-0.1-0.4 .2-0.6Zm166.4-35.8v-116.7c0-23.3 16.9-51.9 37.8-63.5c10.2-5.7 19.8-6.6 27.1-2.6c7.2 4.1 11.3 12.6 11.3 24v8.2c-0.4 .3-0.8 .7-1.1 1.1v-9.3c0-10.9-3.9-19.2-10.7-23c-6.9-3.8-16-3-26 2.6c-20.4 11.5-37.2 39.5-37.2 62.5v116.5c0 19.4-11.7 42.3-27.8 56.1v-1.5c15.4-13.6 26.6-35.7 26.6-54.4Z" fill-opacity="0" clip-path="url(#ClipPath-1)" style="animation: 5s linear infinite both yh7gz8k2hyjni68qyhsmk8f6_fo;"/><path fill="#173d7a" d="M404.7 163.9c1.9-1.8 11-9.5 24.2-11.5c14.9-2.2 21.1 14.7 21.1 14.7c0 0 1.8 8.7 1.7 13.9c0 5.2-0.6 24-0.6 24l-47.1-26.4c-0.2-0.1-0.4-0.2-0.4-0.5v-13.3c.4-0.3 .7-0.5 1.1-0.9Z"/><path fill="#d4ecff" d="M438.2 153.1l-44.8-25l.1 .6c-6.8-4.3-17.3-4.8-31.2 5.2c-27.8 19.7-31.1 47.1-32.5 52.3c-1.4 5.1-0.9 37.7-0.9 37.7c0 0-0.1 78.5-0.1 87.6c-0.1 9.1-2.8 19.3-8.1 30.4c-5.4 11.1-19 24.5-19 24.5v16.1c2.2 17.2 9.8 21.3 21 22.3c9.2 .7 18.8-5.6 26.6-12.5c-0.3 .3-0.5 .5-0.5 .5v16c2.1 17.3 9.8 21.4 21 22.3c11.3 1 23.4-9 31.6-17.5c8.3-8.5 15.3-21.4 19.1-33c3.8-11.7 2.5-26.7 2.5-26.7c0 0 .2-85.8 .2-102.8c.1-16.9 .6-13.9 6.3-30.9c6.1-17.3 21.3-29.2 21.3-29.2l36.3-10.5l-48.9-27.4Z"/><path fill="#173d7a" d="M360.2 429.4c-0.6-0.8-8.6-6-10.7-15.1c-1.1-5.1-1-12.9-1-12.9c0 0 0-4.3 .1-8.2c.2-0.1 .2-0.1 .3-0.3v-1.4c-0.1 .1-0.1 .1-0.3 .2c0-0.9 .2-1.7 .2-2.5c.2-4-2.9-12.6-2.9-12.6c0 0-4.4-11.6-17.5-12.1c-11.5-0.4-23.8 7.6-26.4 9.5v-5.2c-0.2 .1-0.4 .2-0.5 .4v-2.1l.2-0.3v-1.5c-0.1 .2-0.1 .2-0.2 .3c0-0.9 .1-1.7 .1-2.5c.2-4-2.9-12.7-2.9-12.7c0 0-4.4-11.6-17.5-12c-11.5-0.4-23.7 7.6-26.4 9.4v-5.1c-0.4 .2-0.8 .5-1.1 .7v9.1c0 11.1 3.8 19.5 10.8 23.6l.2 .1c.1 0 .1 .1 .3 .1h.1l47.9 26.7v-0.1l47.2 26.5Z"/><path fill="#d4ecff" d="M290.5 340.2c0 0-0.4-0.1-1-0.4c-0.2-0.1-0.4-0.2-0.6-0.2l-45.4-25.6c0 0-8.4-4.4-18.5-0.7c-10.1 3.6-63 34.4-63 34.4l47.1 26.4h.2l46.9 26.2c0 0 26.6-15.9 44.9-26.2l1.1-0.6c7.5-4.2 13.5-7.3 15.4-7.8c11.3-2.9 19.2 .6 21.3 1.7l-48.4-27.2Zm48.5 27.1l.5 .3c0 .1-0.1 0-0.5-0.3Z"/><path fill="#173d7a" d="M451.8 190.1c1.9-1.7 10.9-9.5 24.1-11.5c14.9-2.2 21.2 14.7 21.2 14.7c0 0 1.7 8.8 1.6 13.9c0 5.2-0.5 24.1-0.5 24.1l-47.2-26.4c-0.1-0.1-0.4-0.3-0.4-0.5v-13.3c.4-0.4 .8-0.6 1.2-1Z"/><path fill="#396caa" d="M369.5 431.5c5.2 0 10.9-1.7 16.9-5c20.7-11.6 37.5-40 37.5-63.1v-116.6c0-22.9 16.7-51 37.3-62.5c9.8-5.5 19.1-6.4 25.9-2.6c6.9 3.8 10.7 12.1 10.7 23.1v26.1c0 .4 .3 .6 .7 .6c.3 0 .6-0.2 .6-0.6v-26.1c0-11.5-4.1-20-11.3-24.1c-7.3-4-16.9-3.2-27.1 2.6c-21 11.7-37.9 40.2-37.9 63.5v116.6c0 22.8-16.5 50.6-37 62.1c-9.8 5.4-19 6.4-25.8 2.6c-6.9-3.9-10.7-12-10.7-23v-13.6c0-11.9-4.2-20.7-11.7-24.9c-7.5-4.2-17.6-3.4-28.1 2.6l-53.4 30c-0.3 .2-0.4 .5-0.3 .8c.1 .2 .5 .3 .8 .2l53.4-30.1c10.2-5.6 19.7-6.6 26.9-2.5c7.2 3.9 11.1 12.4 11.1 23.9v13.6c0 11.4 4 19.9 11.2 23.9c3.2 1.7 6.6 2.5 10.3 2.5Z"/><g mask="url(#Mask-1)" transform="translate(348.9,216.1)"><path fill="#5793ce" d="M373.2 275.4l-7.9-4.5c-0.8-0.3-1.4-1.4-1.4-2.4c0-1 .5-1.4 1.3-1l7.9 4.4c.7 .4 1.4 1.5 1.4 2.5c0 1-0.7 1.3-1.3 1Zm16.7 9.3l-11.7-6.5c-0.8-0.4-1.4-1.5-1.4-2.5c0-0.9 .5-1.3 1.2-0.9l11.7 6.5c.8 .4 1.4 1.5 1.4 2.5c.1 .9-0.5 1.4-1.2 .9Zm-34.5-55l-5-2.8c-0.7-0.3-1.4-1.4-1.4-2.4c0-1 .5-1.4 1.3-1l5 2.7c.7 .4 1.4 1.5 1.4 2.5c.1 1-0.5 1.3-1.3 1Zm16.9 16.6l-15.1-8.5c-0.8-0.4-1.4-1.5-1.4-2.5c0-1 .5-1.3 1.2-1l15 8.4c.8 .4 1.4 1.5 1.4 2.5c.2 1-0.5 1.5-1.1 1.1Zm-9.9 8.7l-5-2.7c-0.7-0.3-1.4-1.4-1.4-2.4c0-1 .5-1.4 1.3-1l5 2.7c.7 .4 1.4 1.5 1.4 2.5c0 .9-0.6 1.3-1.3 .9Zm33.3 47.4l-13.2-7.4c-0.8-0.4-1.4-1.5-1.4-2.5c0-1 .5-1.3 1.2-1l13.3 7.4c.7 .4 1.4 1.5 1.4 2.5c.1 1-0.5 1.3-1.3 1Zm-34.8-33.9l-3.2-1.7c-0.8-0.4-1.4-1.5-1.4-2.5c0-1 .5-1.4 1.3-1l3.1 1.7c.8 .4 1.4 1.5 1.4 2.5c0 1-0.5 1.5-1.2 1Zm1 14.9l-4-2.2c-0.7-0.4-1.4-1.5-1.4-2.5c0-1 .5-1.3 1.3-1l3.9 2.2c.8 .4 1.4 1.5 1.4 2.5c0 1-0.5 1.4-1.2 1Zm15.2 8.6l-10.3-5.8c-0.7-0.3-1.4-1.5-1.4-2.4c0-1 .5-1.4 1.3-1l10.3 5.8c.8 .3 1.4 1.4 1.4 2.4c0 .9-0.5 1.4-1.3 1Zm-11.7 .6l-7.5-4.2c-0.7-0.3-1.4-1.4-1.4-2.4c0-1 .5-1.4 1.3-1l7.5 4.2c.8 .4 1.4 1.5 1.4 2.4c.1 .9-0.5 1.4-1.3 1Zm15.3-27.3l-13.2-7.4c-0.8-0.4-1.4-1.5-1.4-2.5c0-1 .5-1.3 1.2-1l13.3 7.4c.7 .4 1.4 1.5 1.4 2.5c0 1-0.5 1.5-1.3 1Zm-0.4-7.4l-23-12.8c-0.8-0.4-1.4-1.5-1.4-2.5c0-1 .5-1.4 1.3-1l23 12.8c.7 .4 1.4 1.5 1.4 2.5c0 1-0.7 1.3-1.3 1Zm-9.5 9l-13.3-7.4c-0.7-0.4-1.3-1.5-1.3-2.5c0-1 .5-1.3 1.2-1l13.2 7.4c.8 .4 1.4 1.5 1.4 2.5c0 1-0.6 1.3-1.2 1Zm19.9 4l-4.8-2.7c-0.8-0.3-1.4-1.4-1.4-2.4c0-1 .5-1.4 1.3-1l4.8 2.7c.8 .4 1.4 1.5 1.4 2.5c0 .8-0.6 1.3-1.3 .9Zm-17.1 11.9l-15.8-8.9c-0.8-0.4-1.4-1.5-1.4-2.5c0-1 .5-1.3 1.3-1l15.7 8.9c.8 .4 1.4 1.5 1.4 2.5c.2 1-0.5 1.5-1.2 1Zm-11.6-56.6l-11.7-6.5c-0.8-0.4-1.4-1.5-1.4-2.5c0-1 .5-1.3 1.3-1l11.7 6.6c.7 .3 1.4 1.4 1.4 2.4c0 1-0.5 1.4-1.3 1Zm3.1 73.3l-13.5-7.5c-0.8-0.4-1.4-1.5-1.4-2.4c0-1 .5-1.4 1.2-1l13.5 7.5c.8 .4 1.4 1.5 1.4 2.4c0 1-0.5 1.4-1.2 1Zm6.2 44.5l-7.9-4.4c-0.8-0.4-1.4-1.5-1.4-2.5c0-1 .5-1.3 1.3-1l7.9 4.5c.7 .3 1.4 1.4 1.4 2.4c0 1-0.6 1.4-1.3 1Zm16.8 9.4l-11.7-6.5c-0.8-0.4-1.4-1.5-1.4-2.5c0-1 .5-1.4 1.2-1l11.7 6.5c.8 .4 1.4 1.5 1.4 2.5c0 1-0.5 1.4-1.2 1Zm-17.7-38.6l-15-8.4c-0.8-0.3-1.4-1.4-1.4-2.4c0-1 .5-1.4 1.3-1l15 8.4c.7 .3 1.4 1.4 1.4 2.4c0 1-0.5 1.5-1.3 1Zm-9.9 8.9l-5-2.7c-0.7-0.4-1.4-1.5-1.4-2.5c0-1 .5-1.3 1.3-1l4.9 2.7c.8 .4 1.4 1.5 1.4 2.5c.2 .9-0.5 1.4-1.2 1Zm-1.6 13.4l-3.1-1.7c-0.8-0.4-1.4-1.5-1.4-2.5c0-1 .5-1.3 1.2-1l3.2 1.8c.8 .3 1.4 1.4 1.4 2.4c.1 1-0.5 1.4-1.3 1Zm19.9-3.2l-13.2-7.4c-0.8-0.3-1.4-1.5-1.4-2.4c0-1 .5-1.4 1.2-1l13.3 7.4c.7 .3 1.4 1.4 1.4 2.4c.1 1-0.5 1.4-1.3 1Zm-0.4-7.4l-23-12.8c-0.8-0.4-1.4-1.5-1.4-2.5c0-0.9 .5-1.3 1.3-0.9l23 12.8c.7 .3 1.4 1.4 1.4 2.4c0 1-0.5 1.4-1.3 1Zm-9.5 9l-13.3-7.4c-0.7-0.3-1.4-1.5-1.4-2.4c0-1 .6-1.4 1.3-1l13.2 7.4c.8 .3 1.4 1.4 1.4 2.4c0 1-0.5 1.4-1.2 1Zm19.9 4l-4.8-2.8c-0.8-0.3-1.4-1.4-1.4-2.4c0-1 .5-1.4 1.3-1l4.8 2.7c.8 .4 1.4 1.5 1.4 2.5c0 1-0.5 1.5-1.3 1Z" transform="translate(24,194.9) translate(-372.9,-284.8)" style="animation: 5s linear infinite both p0kui5j70c5k2c3trt48rp9j_t;"/><path fill="#5b9fd3" d="M373.2 275.4l-7.9-4.5c-0.8-0.3-1.4-1.4-1.4-2.4c0-1 .5-1.4 1.3-1l7.9 4.4c.7 .4 1.4 1.5 1.4 2.5c0 1-0.7 1.3-1.3 1Zm16.7 9.3l-11.7-6.5c-0.8-0.4-1.4-1.5-1.4-2.5c0-0.9 .5-1.3 1.2-0.9l11.7 6.5c.8 .4 1.4 1.5 1.4 2.5c.1 .9-0.5 1.4-1.2 .9Zm-34.5-55l-5-2.8c-0.7-0.3-1.4-1.4-1.4-2.4c0-1 .5-1.4 1.3-1l5 2.7c.7 .4 1.4 1.5 1.4 2.5c.1 1-0.5 1.3-1.3 1Zm16.9 16.6l-15.1-8.5c-0.8-0.4-1.4-1.5-1.4-2.5c0-1 .5-1.3 1.2-1l15 8.4c.8 .4 1.4 1.5 1.4 2.5c.2 1-0.5 1.5-1.1 1.1Zm-9.9 8.7l-5-2.7c-0.7-0.3-1.4-1.4-1.4-2.4c0-1 .5-1.4 1.3-1l5 2.7c.7 .4 1.4 1.5 1.4 2.5c0 .9-0.6 1.3-1.3 .9Zm33.3 47.4l-13.2-7.4c-0.8-0.4-1.4-1.5-1.4-2.5c0-1 .5-1.3 1.2-1l13.3 7.4c.7 .4 1.4 1.5 1.4 2.5c.1 1-0.5 1.3-1.3 1Zm-34.8-33.9l-3.2-1.7c-0.8-0.4-1.4-1.5-1.4-2.5c0-1 .5-1.4 1.3-1l3.1 1.7c.8 .4 1.4 1.5 1.4 2.5c0 1-0.5 1.5-1.2 1Zm1 14.9l-4-2.2c-0.7-0.4-1.4-1.5-1.4-2.5c0-1 .5-1.3 1.3-1l3.9 2.2c.8 .4 1.4 1.5 1.4 2.5c0 1-0.5 1.4-1.2 1Zm15.2 8.6l-10.3-5.8c-0.7-0.3-1.4-1.5-1.4-2.4c0-1 .5-1.4 1.3-1l10.3 5.8c.8 .3 1.4 1.4 1.4 2.4c0 .9-0.5 1.4-1.3 1Zm-11.7 .6l-7.5-4.2c-0.7-0.3-1.4-1.4-1.4-2.4c0-1 .5-1.4 1.3-1l7.5 4.2c.8 .4 1.4 1.5 1.4 2.4c.1 .9-0.5 1.4-1.3 1Zm15.3-27.3l-13.2-7.4c-0.8-0.4-1.4-1.5-1.4-2.5c0-1 .5-1.3 1.2-1l13.3 7.4c.7 .4 1.4 1.5 1.4 2.5c0 1-0.5 1.5-1.3 1Zm-0.4-7.4l-23-12.8c-0.8-0.4-1.4-1.5-1.4-2.5c0-1 .5-1.4 1.3-1l23 12.8c.7 .4 1.4 1.5 1.4 2.5c0 1-0.7 1.3-1.3 1Zm-9.5 9l-13.3-7.4c-0.7-0.4-1.3-1.5-1.3-2.5c0-1 .5-1.3 1.2-1l13.2 7.4c.8 .4 1.4 1.5 1.4 2.5c0 1-0.6 1.3-1.2 1Zm19.9 4l-4.8-2.7c-0.8-0.3-1.4-1.4-1.4-2.4c0-1 .5-1.4 1.3-1l4.8 2.7c.8 .4 1.4 1.5 1.4 2.5c0 .8-0.6 1.3-1.3 .9Zm-17.1 11.9l-15.8-8.9c-0.8-0.4-1.4-1.5-1.4-2.5c0-1 .5-1.3 1.3-1l15.7 8.9c.8 .4 1.4 1.5 1.4 2.5c.2 1-0.5 1.5-1.2 1Zm-11.6-56.6l-11.7-6.5c-0.8-0.4-1.4-1.5-1.4-2.5c0-1 .5-1.3 1.3-1l11.7 6.6c.7 .3 1.4 1.4 1.4 2.4c0 1-0.5 1.4-1.3 1Zm3.1 73.3l-12.8-7.1l-0.7-0.4c-0.8-0.4-1.4-1.5-1.4-2.4c0-1 .5-1.4 1.2-1l6.8 3.7l6.7 3.8c.8 .4 1.4 1.5 1.4 2.4c0 1-0.5 1.4-1.2 1Zm6.2 44.5l-7.9-4.4c-0.8-0.4-1.4-1.5-1.4-2.5c0-1 .5-1.3 1.3-1l7.9 4.5c.7 .3 1.4 1.4 1.4 2.4c0 1-0.6 1.4-1.3 1Zm16.8 9.4l-11.7-6.5c-0.8-0.4-1.4-1.5-1.4-2.5c0-1 .5-1.4 1.2-1l11.7 6.5c.8 .4 1.4 1.5 1.4 2.5c0 1-0.5 1.4-1.2 1Zm-17.7-38.6l-15-8.4c-0.8-0.3-1.4-1.4-1.4-2.4c0-1 .5-1.4 1.3-1l15 8.4c.7 .3 1.4 1.4 1.4 2.4c0 1-0.5 1.5-1.3 1Zm-9.9 8.9l-5-2.7c-0.7-0.4-1.4-1.5-1.4-2.5c0-1 .5-1.3 1.3-1l4.9 2.7c.8 .4 1.4 1.5 1.4 2.5c.2 .9-0.5 1.4-1.2 1Zm-1.6 13.4l-3.1-1.7c-0.8-0.4-1.4-1.5-1.4-2.5c0-1 .5-1.3 1.2-1l3.2 1.8c.8 .3 1.4 1.4 1.4 2.4c.1 1-0.5 1.4-1.3 1Zm19.9-3.2l-13.2-7.4c-0.8-0.3-1.4-1.5-1.4-2.4c0-1 .5-1.4 1.2-1l13.3 7.4c.7 .3 1.4 1.4 1.4 2.4c.1 1-0.5 1.4-1.3 1Zm-0.4-7.4l-23-12.8c-0.8-0.4-1.4-1.5-1.4-2.5c0-0.9 .5-1.3 1.3-0.9l23 12.8c.7 .3 1.4 1.4 1.4 2.4c0 1-0.5 1.4-1.3 1Zm-9.5 9l-13.3-7.4c-0.7-0.3-1.4-1.5-1.4-2.4c0-1 .6-1.4 1.3-1l13.2 7.4c.8 .3 1.4 1.4 1.4 2.4c0 1-0.5 1.4-1.2 1Zm19.9 4l-4.8-2.8c-0.8-0.3-1.4-1.4-1.4-2.4c0-1 .5-1.4 1.3-1l4.8 2.7c.8 .4 1.4 1.5 1.4 2.5c0 1-0.5 1.5-1.3 1Z" transform="translate(24,207.8) translate(-372.9,-284.8)" style="animation: 5s linear infinite both sjcbttgumutrapvesck9zsxf_t;"/></g><path fill="#d4ecff" d="M429 503.7l14.6-8.1l14.7 8.1l-14.7 8.2l-14.6-8.2Zm31-17.6l14.7-8.1l14.6 8.1l-14.6 8.3l-14.7-8.3Zm31-17.1l14.6-8.2l14.6 8.2l-14.6 8.1l-14.6-8.1Z"/><path fill="#c13d1a" d="M474.7 486.1v-43.6l-14.7-8.2v43.7l14.7 8.1Z"/><path fill="#d55053" d="M474.7 442.5l14.6-8.2v43.7l-14.6 8.1v-43.6Zm0 43.6v-43.6l-14.7-8.2v43.7l14.7 8.1Zm-31.1 17.6v-24.5l-14.6-8.1v24.5l14.6 8.1Zm0-24.5l14.7-8.1v24.5l-14.7 8.1v-24.5Z"/><path fill="#f55d61" d="M429 471.1l14.6-8.3l14.7 8.3l-14.7 8.1l-14.6-8.1Z"/><path fill="#d55053" d="M505.6 469v-60l-14.6-8.2v60l14.6 8.2Zm0-60l14.6-8.2v60l-14.6 8.2v-60Z"/><path fill="#f55d61" d="M491 400.8l14.6-8.2l14.6 8.2l-14.6 8.2l-14.6-8.2Zm-31 33.5l14.7-8.1l14.6 8.1l-14.6 8.2l-14.7-8.2Z"/><path fill="#5793ce" d="M221 421.9c0 0-4.5-2.2-7.3 1.1c-2.8 3.3-6.7 11.1-6.8 16.3c-0.2 5.3 4.3 4.9 6.8 3.7c2.7-1.3 10.3-12 10.7-14.1c.5-2.1-0.5-4.9-1.3-5.5c-0.6-0.6-2.1-1.5-2.1-1.5Z"/><path fill="#d4ecff" d="M222 420.8l.2 4.6c0 .9-0.5 1.8-1.2 2.3c-0.8 .5-1.9 .7-3.5 .5c-3.4-0.5-3.7-1.5-3.9-6.1c-0.4-4.4 8.4-1.3 8.4-1.3Z"/><path fill="#5793ce" d="M204.4 413.2c0 0-4.4-2.3-7.2 1.1c-2.8 3.3-6.8 11.1-6.9 16.2c-0.1 5.3 4.3 5 6.9 3.7c2.7-1.2 10.3-11.9 10.7-14c.5-2.1-0.5-5-1.3-5.6c-0.6-0.6-2.2-1.4-2.2-1.4Z"/><path fill="#d4ecff" d="M205.5 412.2l.2 4.5c0 1-0.5 1.9-1.3 2.4c-0.7 .5-1.9 .7-3.4 .5c-3.4-0.5-3.7-1.5-3.9-6.1c-0.4-4.5 8.4-1.3 8.4-1.3Z"/><path fill="#173d7a" d="M245.8 329c-1.4-21.1-23.6 3.1-23.6 3.1l-15.1 14.4l-13.7 14.5c-2.7 2.9-4 6.7-3.5 10.5l5.6 40.8c.3 2 2.1 3.4 4.2 3.4c.7 0 1.3 0 2.1-0.1c4.9-0.7 4.5-5.3 4.5-5.3l-1-38.2l28.8-16.7c-0.2 .1 12.9-5.3 11.7-26.4Z"/><path fill="#173d7a" d="M262.3 337c-1.4-21.1-23.5 3.1-23.5 3.1l-15.2 14.4l-13.7 14.5c-2.7 2.9-3.9 6.7-3.4 10.5l5.6 40.8c.2 2 2 3.5 4.2 3.5c.6 0 1.2 0 2-0.2c5-0.7 4.6-5.3 4.6-5.3l-1-38.2l28.6-16.6c0 0 13.1-5.4 11.8-26.5Z"/><path fill="#5793ce" d="M249.1 269.3c16.8 6.8 16.5 16.4 16.5 16.4c0 0-3.3 35.4-2.2 58.9c.6 9.9-54 10.6-45.9-15.6c9.6-31.1 6-56.2 10.6-60c4.3-3.7 16.7-1.4 21 .3Z"/><path fill="#ffc2b0" d="M254.6 277.9c.8-3.3-2.2-6.9-6.8-8.1c-4.7-1.1-9.1 .6-10 3.9c-0.9 3.3 2.2 6.9 6.8 8.1c4.6 1.1 9.1-0.6 10-3.9Z"/><path fill="#fff" d="M247.4 282.9c-1 0-2-0.1-3-0.4c-2.4-0.6-4.5-1.8-5.9-3.4c-1.4-1.7-2-3.7-1.5-5.6c1-3.7 6-5.6 10.9-4.4c2.4 .6 4.5 1.8 5.9 3.4c1.4 1.8 2 3.7 1.5 5.6c-0.8 2.9-4.1 4.8-7.9 4.8Zm-2.5-12.7c-3.2 0-5.7 1.4-6.4 3.7c-0.4 1.4 0 2.8 1.2 4.2c1.1 1.3 2.9 2.5 5.1 2.9c4.1 1.2 8.2-0.4 9-3.3c.4-1.3 0-2.8-1.2-4.2c-1.1-1.3-2.9-2.4-5.1-2.9c-0.8-0.3-1.7-0.4-2.6-0.4Z"/><path fill="#ffc2b0" d="M242.3 268.6c0 0 .2 .6-0.1 5.8c-0.1 1.6 5.7 3.2 7.3 1.7c1.5-1.5 .8-2.9 1.2-8.5c.4-5.5-8.4 1-8.4 1Z"/><path fill="#ea9c92" d="M250.9 267.6c0 0-1.4 5.2-8.6 7.2l.2-4.7l8.4-2.5Z"/><path fill="#ffc2b0" d="M246 269.9c6.9-1.7 11.1-8.5 9.3-15.3c-1.8-6.7-8.9-10.7-15.8-9c-7 1.7-11.1 8.6-9.3 15.3c1.8 6.7 8.8 10.8 15.8 9Z"/><path fill="#ea9c92" d="M245.8 258.1c0 0-7.2 3-12.1 3c-5 0-3.8-4-3.8-4l14.6-2.1l1.3 3.1Z"/><path fill="#f55d61" d="M232.2 259c0 0 6.2-2.6 11.7-1.5c1.2 .3 2.4 .9 3.3 1.9c.2 .3 .6 .6 1 .7c1 .2 2.5-3.7 4.4-3.8c1.9-0.1 3.2 1.2 1.7 3.6c-1.5 2.3-1 5-0.3 5.4c.8 .3 8.3-5.2 1.7-17.9c-6.9-12.7-23.7-5.9-26.3-3.3c0 0-2.8 2.3-5 .2c0 0-2.5 18.4 7.8 14.7Z"/><path fill="#396caa" d="M255.1 292.3c0 0-2.5 12.4-2.6 18.3c0 1.6 1 3.1 2.6 3.6v-21.9Z"/><path fill="#5793ce" d="M190.8 348.9l-1.1-0.1v2.6c0 .4 .1 .6 .6 .9l.7 .3v-3.7h-0.2Z"/><path fill="#fff" d="M223.4 370.9c.9 .4 2.1 .2 3-0.1v-4.5h-3v4.6Z"/><path fill="#ffc2b0" d="M214.1 334.7l-0.4 2.2c-0.2 1.8-0.2 3.8 .1 5.6l.4 2c.3 1.1 1.2 2 2.3 2.1c.9 .1 1.7-0.5 1.8-1.3l.5-4.7c0 0 1.3 1.6 1.8 1.6c.6 0-0.6-4.7-2-7.4c-1.2-2.6-4.5-0.1-4.5-0.1Z"/><path fill="#5793ce" d="M187.8 322.9l-0.8-0.9l1.5-0.9c.3-0.2 .7-0.1 1.2 .1l.6 .4l-2.5 1.3Z"/><g transform="translate(186.5,321.2)"><path fill="#396caa" d="M41.6 22.9l-2.1-1.1h-22.6l-11 6.2l-2.7-0.4v2.6c0 .4 .1 .6 .6 .9l32.7 18.3c.5 .3 1.1 .4 1.9 .4l3.2-26.9Z"/><path fill="#396caa" d="M15.4 35.5l-2-1.1l-11.4-19v-12.4l-1.6-2.1l1.5-0.9c.3-0.2 .6-0.1 1.1 .1l32.7 18.4c.5 .2 .9 .7 1.3 1.4l-21.6 15.6Z"/><path fill="#5793ce" d="M63.3 33.2l-4.4-0.7l-29-16.1c-0.9-0.5-2.6-0.5-3.6 .1l-20.4 11.5l-2.7-0.4v2.6c0 .4 .1 .6 .6 .9l32.7 18.3c.9 .5 2.5 .5 3.6-0.1l22.2-12.4c.6-0.4 .9-0.8 .9-1.3v-2.4h.1Z"/><path fill="#fff" d="M36.5 46.8l-32.7-18.3c-0.9-0.5-0.7-1.5 .3-2l22.2-12.4c1-0.7 2.7-0.7 3.6-0.2l32.7 18.4c.9 .5 .7 1.5-0.3 2l-22.2 12.4c-1.1 .6-2.7 .6-3.6 .1Z"/><path fill="#d4ecff" d="M36 44.1l-27.2-15.3c-0.8-0.3-0.7-1.2 .2-1.7l12-6.5c.9-0.5 2.3-0.5 3-0.1l27.3 15.2c.7 .4 .6 1.3-0.3 1.8l-12 6.5c-1 .5-2.2 .5-3 .1Z"/><path fill="#173d7a" d="M35.4 48.7l-2.8-3.5l-28.9-16.1c-0.9-0.5-1.7-2-1.7-3.1v-22.9l-1.6-2.1l1.5-0.9c.3-0.2 .6-0.1 1.1 .2l32.7 18.3c.9 .5 1.7 2 1.7 3.1v24.9c0 .6-0.3 1.1-0.7 1.3l-1.3 .8Z"/><path fill="#5793ce" d="M34.3 19.2l-32.6-18.3c-0.9-0.5-1.7 0-1.7 1.2v24.9c0 1.2 .8 2.6 1.7 3.1l32.6 18.3c.9 .5 1.7 0 1.7-1.2v-24.9c0-1.1-0.8-2.4-1.7-3.1Z"/></g><g transform="translate(265.5,312) rotate(.7) translate(-35.7,-2.8)" style="animation: 5s linear infinite both lij3ukotaxnyt9frpzuvqnnc_t;"><path fill="#ffc2b0" d="M256.2 311.6v9.6c0 1.1-0.5 2.1-1.3 2.9l-20.7 18.1l2.7 3.2l26.7-18.8c1.2-0.8 2-2.2 2.1-3.7l1.8-16.6l-11.3 5.3Z" transform="translate(-226,-306.3)" style="animation: 5s linear infinite both cpzmuzptg4a05ps4spq58vuf_d;"/><path fill="#ffc2b0" d="M236.9 345.4l-0.5 1.1c-0.7 1.2-1.6 2.2-2.8 2.9l-3.3 2c-1.1 .6-2.3 .6-3.4 .1c0 0-0.1 0-0.1-0.1c-1-0.6-1.1-2.1-0.2-2.9l3.4-3.4c0 0-1.9 1.4-2.4 .9c-0.4-0.4 1.9-2.5 3.5-2.5c1.8-0.1 3.1-1.3 3.1-1.3l2.7 3.2Z" transform="translate(-226,-306.3)" style="animation: 5s linear infinite both oizw6v5kushkqel2cr8tiib9_t, 5s linear infinite both oizw6v5kushkqel2cr8tiib9_d;"/></g><path fill="#5793ce" d="M264.2 281c0 0 6.1 9 8.4 32.6c0 0-10.6 3.3-16.4 1.5c-6-2 8-34.1 8-34.1Z"/><path fill="#ffc2b0" d="M225.2 299.9l-3.6 6.8c-0.9 1.6-1.3 3.3-1.4 5l-1.5 23.1l-4.6-0.1l-2-25.9c-0.2-0.8 0-1.6 .1-2.4l2.4-13l10.6 6.5Z" transform="translate(217.5,296.5) rotate(-4.3) translate(-219.5,-297)" style="animation: 5s linear infinite both m0le7cgivjzshpdp4j5o6hkx_t;"/><path fill="#5793ce" d="M228.3 269c0 0-12.4 13.2-17.4 25.1c0 0 4.2 7.4 14.6 10.4c10.5 2.9 2.8-35.5 2.8-35.5Z"/><path fill="#396caa" d="M223.1 303.7l2.1-18.8l-4.7 17.7c.7 .4 1.7 .8 2.6 1.1Z"/><path fill="#fff" d="M237.6 266.4l-3.3-0.9c0 0 1.7 2.5 4 3.1c2.3 .6 2.6-1.2 2.6-1.2l-3.3-1Zm16.1-3.3c1 0 1.9-0.9 1.9-1.9c0-1-0.9-1.8-1.9-1.8c-1.1 0-2 .8-2 1.8c0 1 .9 1.9 2 1.9Z"/><path fill="#f55d61" d="M533.6 268.1l-5.6-11.1l11.4-5.4l5.6 11.1l-11.4 5.4Zm-2.2-10l3.3 6.7l6.9-3.2l-3.3-6.7l-6.9 3.2Z" transform="translate(536.5,259.9) translate(-536.5,-259.9)" style="animation: 5s linear infinite both vflv83onjadxfv479j4to3ix_t;"/><path fill="#d4ecff" d="M292.9 478.8c-12.4-7-32.6-7-45.1 0c-12.5 7.1-12.5 18.3 0 25.3c12.5 7 32.7 7 45.1 0c12.5-7 12.5-18.4 0-25.3Zm-12.2 18.4c-5.7 3.2-15 3.2-20.7 0c-5.7-3.2-5.7-8.4 0-11.6c5.7-3.2 15-3.2 20.7 0c5.8 3.2 5.8 8.4 0 11.6Z"/><path fill="#d55053" d="M243.1 474.6l11.4 .2c.9-1.1 2.1-2.1 3.6-3c6.2-3.4 16.2-3.8 22.9-0.9l6.7-6.1l10.5 .1c-0.5-0.4-1.1-0.6-1.7-1c-14.5-8.1-37.9-8.1-52.4 0c-2.7 1.5-4.8 3.2-6.5 5l5.5 5.7Z"/><path fill="#d55053" d="M298.2 449v16l-10.5-0.1v-16l10.5 .1Z"/><path fill="#d55053" d="M281 455.1v16l6.7-6.2v-16l-6.7 6.2Zm-26.6 3.6v16.1l15-11.9l11.6 8.2v-16l-10.7-5.1c0 0-14.6 4.3-15.4 4.6c-0.7 .2-0.5 4.1-0.5 4.1Z"/><path fill="#d55053" d="M243.1 458.6v16l11.3 .2v-16.1l-11.3-0.1Zm-5.5-5.6v16l5.5 5.6v-16l-5.5-5.6Z"/><path fill="#f55d61" d="M243.1 458.6l11.4 .1c.9-1.1 2.1-2 3.6-2.9c6.2-3.5 16.2-3.8 22.9-0.9l6.7-6.1l10.5 .1c-0.5-0.4-1.1-0.6-1.7-1c-14.5-8.1-37.9-8.1-52.4 0c-2.7 1.5-4.8 3.2-6.5 4.9l5.5 5.8Z"/><path fill="#5793ce" d="M284.4 457v14.7l9.8-2.4c0 0-0.6-8.6-0.7-8.8c-0.2-0.3-9.1-3.5-9.1-3.5Z"/><path fill="#173d7a" d="M276.9 471.7v16l1 1.1l7-3.8c0 0-1-12.2-1.1-12.4c-0.1-0.3-6.9-0.9-6.9-0.9Z"/><path fill="#396caa" d="M290.4 467.6l-6 5.4c5 3.9 4.4 9.2-1.8 12.6c-1.6 1-3.5 1.6-5.7 2.1l6.1 6.4l-5.4 4.9c6.8-0.7 13.4-2.7 18.9-5.6c12.5-6.9 14.1-17.6 5.2-25.7l-11.3-0.1Z"/><path fill="#396caa" d="M277.7 483v16l13.5-5l16.2-15l-0.1-17l-17.1 13.3l-12.5 7.7Z"/><path fill="#d4ecff" d="M290.4 451.6l-6 5.4c5 3.8 4.4 9.1-1.8 12.6c-1.6 1-3.5 1.6-5.7 2.1l6.1 6.4l-5.4 4.9c6.8-0.7 13.4-2.7 18.9-5.6c12.5-6.9 14.1-17.7 5.2-25.7l-11.3-0.1Z"/><path fill="#396caa" d="M277.6 494l-5.5-5.6c-5.1 .3-10.3-0.6-14.1-2.8c-4-2.2-5.6-5.3-5-8.1l-13-0.3l-4.9-5.1c-4.3 7.2-1.4 15.5 8.9 21.3c7.5 4.2 17.5 6.3 27.5 6l6.1-5.4Z"/><path fill="#396caa" d="M271.6 483.5v16l-38.3-20.5v-16.2l5.6 2.2l32.7 18.5Z"/><path fill="#173d7a" d="M277.6 478v16l-6 5.5v-16l6-5.5Z"/><path fill="#5793ce" d="M277.6 478l-5.5-5.6c-5.1 .3-10.3-0.6-14.1-2.8c-4-2.2-5.6-5.3-5-8.1l-13-0.3l-4.9-5.2c-4.3 7.3-1.4 15.6 8.9 21.4c7.5 4.1 17.5 6.2 27.5 6l6.1-5.4Z"/><path fill="#fff" d="M126 152.2c-4.6 0-8.3-3.5-8.3-8c0-4.4 3.7-8 8.3-8c4.6 0 8.3 3.6 8.3 8c0 4.5-3.7 8-8.3 8Zm0-13.5c-3.2 0-5.7 2.4-5.7 5.5c0 3.1 2.5 5.6 5.7 5.6c3.2 0 5.7-2.5 5.7-5.6c0-3.1-2.5-5.5-5.7-5.5Z"/><path fill="#d55053" d="M439.6 208.8l-34-18.9c-0.6-0.4-1.3-0.4-1.8-0.2l-3.3 1.9c0 0 1.4 .5 2.3 .8v24.1c0 1.9 1.3 4.2 2.8 5l32.6 18.3v2.8l3.3-1.8c.5-0.4 .9-1.2 .9-2.1v-24.8c0-2-1.3-4.2-2.8-5.1Z"/><path fill="#f55d61" d="M436.3 242.4l-34-19c-1.5-0.9-2.8-3.1-2.8-5.1v-24.6c0-2 1.3-2.9 2.8-2l34 19c1.5 .8 2.8 3.1 2.8 5v24.6c0 1.9-1.3 2.8-2.8 2.1Z"/><path fill="#fff" d="M413.8 214.9c0 1.5-1.1 1.9-2.3 1.2c-1.3-0.7-2.3-2.5-2.3-3.8c0-1.5 1-2 2.3-1.2c1.1 .6 2.3 2.3 2.3 3.8Zm6.8 3.8c0 1.5-1 2-2.3 1.2c-1.2-0.7-2.3-2.4-2.3-3.8c0-1.5 1.1-2 2.3-1.2c1.3 .7 2.3 2.4 2.3 3.8Zm7 3.9c0 1.5-1 2-2.3 1.3c-1.2-0.8-2.3-2.5-2.3-3.9c0-1.4 1.1-1.9 2.3-1.2c1.3 .6 2.3 2.4 2.3 3.8Z"/><path fill="#5793ce" d="M274.3 171.4l-33.4-18.6c-0.6-0.4-1.2-0.4-1.7-0.2l-3.2 1.9c0 0 1.4 .5 2.3 .9v23.5c0 2 1.1 4.2 2.6 4.9l32 17.9v2.7l3.3-1.9c.5-0.3 .9-0.9 .9-2v-24.1c-0.2-1.9-1.3-4.2-2.8-5Z"/><path fill="#d4ecff" d="M270.9 204.3l-33.3-18.8c-1.5-0.8-2.6-3-2.6-4.9v-24c0-2 1.1-2.8 2.6-2l33.3 18.6c1.6 .9 2.7 3.1 2.7 4.9v24.1c0 2-1.1 2.8-2.7 2.1Z"/><path fill="#fff" d="M248.8 177.3c0 1.3-1 2-2.3 1.2c-1.2-0.7-2.3-2.3-2.3-3.8c0-1.4 1.1-2 2.3-1.2c1.3 .7 2.3 2.4 2.3 3.8Zm6.9 3.8c0 1.4-1 2-2.3 1.2c-1.3-0.7-2.3-2.3-2.3-3.8c0-1.3 1-2 2.3-1.2c1.3 .7 2.3 2.5 2.3 3.8Zm6.9 3.8c0 1.4-1.1 2-2.3 1.3c-1.3-0.8-2.3-2.4-2.3-3.9c0-1.3 1-1.9 2.3-1.2c1.2 .7 2.3 2.5 2.3 3.8Z"/><path fill="#d4ecff" d="M91.1 353.1c3.3 0 6-2.6 6-5.8c0-3.2-2.7-5.8-6-5.8c-3.3 0-6 2.6-6 5.8c0 3.2 2.7 5.8 6 5.8Zm380.1-209c3.9 0 7.1-3.1 7.1-6.9c0-3.8-3.2-6.9-7.1-6.9c-3.9 0-7.1 3.1-7.1 6.9c0 3.8 3.2 6.9 7.1 6.9Z"/></svg>
